<?xml version="1.0" encoding="utf-8"?>
<!-- Generator: Adobe Illustrator 16.0.4, SVG Export Plug-In . SVG Version: 6.00 Build 0)  -->
<!DOCTYPE svg PUBLIC "-//W3C//DTD SVG 1.1//EN" "http://www.w3.org/Graphics/SVG/1.1/DTD/svg11.dtd">
<svg version="1.1" id="Layer_1" xmlns="http://www.w3.org/2000/svg" xmlns:xlink="http://www.w3.org/1999/xlink" x="0px" y="0px"
	 width="2093.162px" height="1019.549px" viewBox="0 0 2093.162 1019.549" enable-background="new 0 0 2093.162 1019.549"
	 xml:space="preserve">
<path d="M1522.461,610.95c-11.198-72.945-24.274-152.75-25.035-153.925l-0.869,0.489c0.813,2.101,13.417,78.694,24.886,153.396
	c20.026,130.44,21.033,152.125,20.3,154.839c-14.309-8.163-527.679-23.03-556.083-23.846c0.145-29.544,2.642-550.648-0.87-623.046
	c0.057,0.009,0.123,0.02,0.155,0.025c1.031,0.414,5.559,2.126,6.962,0.921c0.284-0.244,0.582-0.705,0.389-1.52
	c0-0.001-0.007-0.11,0.196-0.367c2.909-3.693,28.412-13.98,48.816-16.284c21.456-2.423,372.537-96.189,388.265-100.392
	c1.59,8.025,20.963,105.826,44.287,224.204l0.98-0.193c-24.228-122.964-44.191-223.726-44.391-224.729L1430.345,0l-0.516,0.138
	c-3.666,0.98-366.871,98.044-388.635,100.501c-19.942,2.252-46.593,12.535-49.583,16.784c-0.272,0.387-0.37,0.753-0.291,1.09
	c0.093,0.395-0.027,0.498-0.066,0.532c-0.643,0.551-3.607-0.148-5.988-1.11l-0.105-0.03c-0.037-0.006-0.189-0.031-0.424-0.07
	c-0.179-3.424-0.374-5.709-0.585-6.72l-0.115-0.374l-0.304-0.078c-0.459-0.12-0.917,0.038-4.612,4.432
	c-0.202,0.239-0.338,0.403-0.337,0.409c-0.125,0.1-0.281,0.226-0.442,1.297c-28.439-4.534-140.877-21.759-241.691-27.446
	c-26.454-1.493-51.262-3.245-75.253-4.939c-81.191-5.733-139.854-9.876-149.467,4.874c-12.155,18.653-2.569,225.865-2.155,234.677
	l0.999-0.047c-0.102-2.155-9.987-215.7,1.994-234.084c9.292-14.258,67.708-10.132,148.559-4.422
	c23.995,1.694,48.806,3.447,75.267,4.939c100.803,5.687,213.249,22.917,241.626,27.441c-0.929,9.129-1.861,56.489,1.609,312.787
	c2.035,150.301,4.659,302.059,4.82,311.376l-433.753,62.45l-31.095,1.553l-8.991,2.902l-4.418-16.226
	c0.418-5.66,17.269-235.964,6.71-299.019c9.462-8.572,16.855-14.817,18.749-16.257c3.943-2.998,6.657-27.078,9.796-58.248
	c0.7-6.953,1.362-13.521,1.974-18.703c2.384-20.173,7.231-28.12,10.77-33.923c0.493-0.808,0.955-1.565,1.375-2.3
	c3.545-6.207,7.012-26.132,7.012-36.475c0-3.009,0-12.167-16.827-13.697c-0.136-0.012-0.276-0.019-0.421-0.019
	c-7.107,0-25.581,16.726-27.258,23.309c-1.303,5.114,2.241,7.622,5.993,10.276c1.185,0.839,2.411,1.706,3.5,2.674
	c1.663,1.478,3.323,2.338,5.08,3.249c3.047,1.579,6.5,3.369,11.052,9.021c1.52,1.887,1.34,2.519,1.288,2.626
	c-0.087,0.182-0.422,0.286-0.919,0.286c-4.235,0-16.465-6.651-21.219-14.689c-1.682-2.845-3.461-4.288-5.287-4.288
	c-5.048,0-8.423,10.944-9.207,14.778c-0.872,4.259-9.687,17.473-15.52,26.216c-1.559,2.336-2.94,4.407-3.963,5.994
	c-4.528,7.018-26.808,19.451-31.357,21.186c2.112-3.151,12.912-15.271,16.625-16.582c4.129-1.458,10.238-6.6,10.541-8.875
	c0.121-0.903-2.035-2.625-10.582-9.021c-8.045-6.021-21.51-16.099-20.962-18.806c0,0,0.027-0.017,0.11-0.017
	c2.198,0,11.384,8.295,18.092,14.353c7.881,7.117,11.463,10.236,12.691,10.235c0.224,0,0.376-0.083,0.465-0.152
	c2.293-1.801-4.05-15.269-6.385-18.379c-0.838-1.116-3.504-3.556-6.879-6.646c-6.146-5.625-15.433-14.125-15.277-16.555
	c0.009-0.141,0.057-0.202,0.125-0.251c0.044-0.031,0.12-0.072,0.271-0.072c1.818,0,6.459,4.896,10.949,9.632
	c5.629,5.938,11.45,12.078,14.679,12.078l0.113-0.002c5.4-0.23,9.378-4.632,11.755-7.262c0.291-0.321,0.555-0.614,0.792-0.865
	c0.253-0.268,0.422-0.736,0.521-1.366c0.038,0.093,0.085,0.185,0.143,0.275c1.189,1.874,6.845,3.089,10.831,2.868
	c1.229-0.067,2.089-0.401,2.63-1.022c0.878-1.009,0.75-2.544,0.603-4.323c-0.1-1.201-0.214-2.562-0.024-3.927
	c0.59-4.251,6.384-9.61,6.442-9.663l0.193-0.177l-1.866-13.553l-0.264-0.11c-0.167-0.069-16.715-6.976-24.465-11.08
	c-1.947-1.031-4.449-1.554-7.437-1.554c-7.954,0-19.289,3.79-29.583,9.89c-11.992,7.106-45.381,24.354-55.867,28.167
	c-3.932,1.43-6.703,3.893-8.237,7.32c-2.504,5.596-1.698,13.621,2.395,23.853c3.029,7.573,1.723,20.689,0.209,35.875
	c-1.71,17.168-3.649,36.626-0.236,54.663c4.825,25.502-0.844,37.71-4.652,42.716c-2.991,3.932-6.926,6.288-11.083,6.635
	c-3.209,0.268-5.377,1.151-6.446,2.626c-0.985,1.36-0.836,2.888-0.622,3.938c-0.082-0.093-0.163-0.188-0.247-0.286
	c-0.589-0.691-1.322-1.552-2.613-1.552c-2.07,0-5.736,1.877-17.236,15.799c-7.678,9.295-55.46,34.144-114.353,56.32
	c-42.167,15.879-122.651,42.517-187.925,42.517c-17.149,0-32.271-1.871-44.945-5.562l-0.702-0.204l0.064,0.729
	c0.151,1.713,15.289,172.075,29.355,240.393c3.312,16.085,19.262,24.241,47.406,24.241c61.691,0,165.413-38.37,209.704-54.755
	c9.979-3.691,16.572-6.13,18.81-6.689c8.815-2.205,48.104-48.72,79.069-87.884c33.093-41.854,67.385-88.786,68.897-97.509
	c2.645-15.249-63.543-98.585-78.787-117.532c10.613,8.6,41.475,33.576,57.633,46.307c19.442,15.319,24.166,70.624,24.211,71.182
	l0.224,2.742l0.755-2.646c0.08-0.28,8.098-28.053,17.011-31.531c1.182-0.461,2.028-1.446,2.515-2.927
	c3.265-9.927-10.753-42.729-19.584-56.716c-6.649-10.532,30.528-47.336,54.944-69.526c10.406,64.037-6.655,295.753-6.84,298.238
	l-0.006,0.086l4.738,17.403l9.796-3.183l31.075-1.554l434.193-62.512c189.68,5.441,549.943,17.398,556.048,23.707
	c0.396,0.419,0.814,0.349,1.054,0.162c0.668-0.523,2.056-1.612-4.422-50.222C1534.403,690.559,1529.076,654.047,1522.461,610.95z
	 M495.458,354.703c0.103-6.548-3.864-21.768-5.533-24.742c-0.671-1.195-0.886-2.225-0.577-2.754c0.197-0.336,0.59-0.406,0.885-0.406
	c0.795,0,1.813,0.473,2.794,1.298C495.853,330.473,496.246,351.813,495.458,354.703z M510.822,483.929l-0.945,0.326
	c0.821,2.378,1.54,5.411,2.164,9.019c-24.518,22.088-62.944,59.567-55.602,71.196c8.743,13.848,22.659,46.206,19.48,55.871
	c-0.395,1.199-1.025,1.954-1.928,2.307c-7.85,3.064-14.673,22.769-16.876,29.766c-0.502-4.749-1.834-15.615-4.525-27.455
	c-4.83-21.255-11.498-35.355-19.818-41.911c-19.611-15.452-60.895-48.952-61.31-49.289l-3.752-3.045l3.05,3.749
	c0.844,1.038,84.409,104.008,81.562,120.426c-1.484,8.558-35.682,55.305-68.696,97.059c-33.307,42.125-70.505,85.527-78.527,87.533
	c-2.291,0.573-8.904,3.02-18.914,6.723c-44.241,16.366-147.845,54.692-209.357,54.692c-27.604,0-43.224-7.888-46.427-23.442
	C16.813,811.469,2.22,650.144,1.125,637.898c12.619,3.583,27.593,5.399,44.521,5.399c65.433,0,146.047-26.678,188.277-42.58
	c59.042-22.233,107.012-47.227,114.772-56.62c8.699-10.53,13.931-15.436,16.465-15.436c0.83,0,1.303,0.557,1.852,1.2
	c0.266,0.312,0.542,0.636,0.869,0.897c0.309,0.247,0.536,0.39,0.78,0.39l0.298-0.024l0.15-0.19c0.21-0.266,0.135-0.583,0.009-1.109
	c-0.216-0.905-0.577-2.422,0.333-3.678c0.89-1.228,2.813-1.974,5.719-2.216c4.442-0.37,8.631-2.865,11.795-7.025
	c6.75-8.873,8.469-24.324,4.839-43.507c-3.386-17.896-1.455-37.277,0.249-54.377c1.526-15.318,2.844-28.546-0.276-36.346
	c-3.989-9.971-4.8-17.734-2.411-23.073c1.419-3.171,3.999-5.456,7.666-6.79c10.528-3.828,44.015-21.124,56.035-28.247
	c10.148-6.014,21.288-9.75,29.073-9.75c2.822,0,5.167,0.483,6.969,1.438c7.25,3.838,22.119,10.102,24.284,11.009l1.717,12.471
	c-1.061,1.008-5.981,5.885-6.564,10.082c-0.205,1.476-0.086,2.896,0.018,4.148c0.129,1.552,0.241,2.893-0.36,3.583
	c-0.354,0.407-0.986,0.63-1.93,0.681c-0.288,0.016-0.585,0.023-0.888,0.023c-3.857,0-8.252-1.18-9.045-2.429
	c-0.142-0.224-0.104-0.375-0.048-0.494c0.865-1.84,0.849-25.079-2.622-27.996c-1.175-0.988-2.396-1.532-3.438-1.532
	c-0.787,0-1.407,0.32-1.748,0.901c-0.358,0.611-0.55,1.758,0.567,3.749c2.506,4.467,6.75,24.517,5.054,26.312
	c-0.242,0.256-0.511,0.554-0.807,0.881c-2.272,2.513-6.074,6.72-11.126,6.935c-2.8,0-8.726-6.25-13.954-11.766
	c-5.058-5.336-9.427-9.944-11.674-9.944c-0.321,0-0.606,0.085-0.846,0.254c-0.331,0.233-0.521,0.581-0.548,1.004
	c-0.172,2.693,6.656,9.17,15.6,17.356c3.205,2.933,5.973,5.467,6.755,6.508c3.061,4.076,7.532,15.562,6.635,16.917
	c-1.242-0.306-6.916-5.429-11.937-9.963c-9.473-8.555-16.364-14.61-18.762-14.61c-0.589,0-1.007,0.339-1.12,0.908
	c-0.594,3.001,8.9,10.38,21.373,19.716c4.781,3.578,9.721,7.275,10.178,8.161c-0.361,1.662-5.772,6.545-9.87,7.991
	c-3.974,1.402-17.827,16.345-17.642,18.205c0.026,0.261,0.232,0.523,0.636,0.523c2.442,0,28.183-14.52,32.911-21.847
	c1.021-1.583,2.4-3.649,3.955-5.981c6.228-9.335,14.757-22.12,15.667-26.571c0.896-4.379,4.211-13.978,8.228-13.978
	c1.447,0,2.937,1.277,4.427,3.796c4.913,8.308,17.652,15.181,22.08,15.181c1.167,0,1.635-0.465,1.821-0.854
	c0.39-0.816-0.071-2.021-1.412-3.685c-4.684-5.816-8.237-7.657-11.371-9.282c-1.7-0.881-3.306-1.713-4.876-3.108
	c-1.13-1.005-2.379-1.889-3.586-2.743c-3.614-2.557-6.735-4.766-5.602-9.213c1.587-6.227,20.216-23.124,26.62-22.542
	c6.833,0.622,15.917,2.614,15.917,12.701c0,10.009-3.467,30.003-6.88,35.979c-0.416,0.727-0.873,1.476-1.36,2.275
	c-3.385,5.549-8.5,13.936-10.91,34.326c-0.613,5.19-1.275,11.762-1.976,18.72c-2.319,23.034-5.496,54.58-9.406,57.552
	c-0.262,0.2-7.952,6.599-18.338,15.927C512.301,489.09,511.609,486.208,510.822,483.929z M979.468,116.229
	c0.053-0.056,0.152-0.174,0.418-0.491c1.896-2.254,2.886-3.318,3.394-3.789c0.16,1.135,0.31,3.07,0.451,5.721
	c-0.989-0.162-2.477-0.403-4.435-0.716C979.351,116.608,979.407,116.357,979.468,116.229z M984.861,695.929
	c-3.594-213.618-8.43-550.272-5.688-577.982c2.082,0.333,3.634,0.585,4.609,0.745C986.711,178.623,985.415,561.575,984.861,695.929z
	 M2051.144,618.114c-58.809-15.54-168.272-44.467-255.773-141.141c-48.193-53.245-81.938-79.128-103.163-79.128
	c-10.198,0-16.137,5.819-20.908,10.495c-3.435,3.365-6.4,6.271-10.041,6.271c-1.622,0-3.313-0.565-5.173-1.726
	c-1.957-1.223-4.164-1.843-6.559-1.843c-18.01,0-44.519,35.171-60.357,56.185c-6.108,8.104-11.878,15.759-13.045,15.791
	c-0.581-0.464-1.284-0.769-2.029-1.091c-4.196-1.815-11.22-4.854-5.147-48.229c3.211-22.937,16.679-34.567,40.028-34.567
	c5.602,0,10.493,0.676,13.73,1.124c1.588,0.219,2.734,0.377,3.399,0.377c0.253,0,0.844,0,1.015-0.467
	c0.167-0.456-0.255-0.812-0.413-0.947c-1.357-1.148-3.633-2.31-6.513-3.78c-6.94-3.543-17.43-8.897-23.979-19.227
	c-7.807-12.315-15.039-49.066-20.319-75.901c-0.964-4.898-1.877-9.535-2.732-13.732c-2.153-10.555-3.094-16.781-3.716-20.9
	c-1.045-6.913-1.293-8.556-4.864-15.698c-3.024-6.048-6.332-6.501-11.033-6.501c-0.53,0-1.082,0.007-1.66,0.014
	c-0.628,0.007-1.286,0.015-1.977,0.015c-4.555,0-10.253-0.359-17.982-3.024c-20.671-7.128-31.271-10.984-39.141-15.54
	c-3.524-2.04-7.609-3.257-10.93-3.257c-2.553,0-4.421,0.707-5.402,2.044c-0.846,1.152-0.979,2.677-0.396,4.532
	c1.116,3.556,2.92,15.186,4.664,26.433c3.404,21.955,3.781,22.949,4.723,22.949h0.012c0.465-0.078,0.741-0.383,0.777-0.861
	c0.024-0.312-0.045-0.723-0.148-1.344c-0.322-1.925-0.993-5.932-0.213-14.269c1.113-11.908,10.205-15.736,12.526-16.527
	c1.28,1.01,9.072,11.021,7.964,14.902c-0.615,2.153-5.261,6.365-9.752,10.439c-4.495,4.077-8.741,7.927-10.031,10.508
	c-0.613,1.227-0.695,2.173-0.25,2.893c0.679,1.098,2.402,1.225,3.64,1.225c0.848,0,1.745-0.069,2.538-0.13
	c0.644-0.049,1.252-0.096,1.711-0.096c0.341,0,0.517,0.026,0.604,0.049c-0.537,0.566-3.328,1.888-7.779,1.746
	c-5.929-0.186-7.387-0.739-11.997-4.553c-1.765-1.46-3.187-1.875-4.139-1.941c1.14-1.783-1.831-5.159-5.548-9.384
	c-2.659-3.023-5.674-6.449-7.187-9.405c-2.485-4.854-11.054-9.74-15.658-12.365l-0.341-0.194c-0.711-0.835-1.349-1.306-1.945-1.448
	l0.046-0.049c-2.494-2.319-4.758-1.648-9.715-0.174c-0.852,0.253-1.789,0.532-2.832,0.827c-4.663,1.321-5.982,3.029-7.146,4.535
	c-0.638,0.825-1.188,1.537-2.249,2.116l0.479,0.878c1.246-0.68,1.915-1.545,2.562-2.383c1.122-1.452,2.282-2.953,6.629-4.185
	c1.046-0.296,1.988-0.577,2.844-0.831c4.565-1.356,6.445-1.913,8.382-0.368c-0.109,0.477,0.241,0.687,2.296,1.86
	c2.618,3.183,5.249,10.111,5.111,11.497c-0.912,0.01-2.316,1.177-5.254,3.67c-4.062,3.447-10.202,8.657-14.42,8.657
	c-0.578,0-1.11-0.099-1.583-0.295c-4.137-1.715-4.73-8.433-5.123-12.878c-0.255-2.878-0.382-4.322-1.382-4.322
	c-0.179,0-0.438,0.065-0.664,0.375c-1.592,2.178-1.204,19.019,2.624,31.012c2.63,8.239,7.545,13.006,10.797,16.161
	c1.809,1.754,3.237,3.14,3.413,4.285c0.114,0.743,0.311,3.051,0.581,6.245c1.041,12.25,3.206,37.742,7.091,52.631
	c4.089,15.677,25.015,35.327,38.861,48.33c2.901,2.725,5.407,5.078,7.317,6.988c4.973,4.973,7.354,12.763,9.876,21.011
	c2.875,9.404,5.848,19.127,12.993,25.301c4.866,4.204,12.18,6.272,20.648,8.667c14.232,4.024,31.945,9.033,42.971,27.28
	c16.582,27.446,145.604,292.263,162.416,333.356c7.279,17.792,51.929,52.752,116.525,91.235
	c66.25,39.468,137.69,73.502,191.103,91.04l0.574,0.188l0.078-0.599c0.471-3.628,47.078-363.042,47.078-383.158
	C2093.16,629.218,2077.345,625.038,2051.144,618.114z M2045.168,1018.221c-53.284-17.572-124.377-51.47-190.328-90.761
	c-64.42-38.378-108.912-73.153-116.112-90.755c-16.817-41.108-145.896-306.034-162.486-333.495
	c-11.229-18.585-29.152-23.653-43.554-27.725c-8.354-2.362-15.569-4.402-20.267-8.461c-6.928-5.985-9.857-15.569-12.691-24.837
	c-2.559-8.37-4.976-16.276-10.125-21.425c-1.921-1.921-4.433-4.279-7.34-7.01c-12.927-12.139-34.562-32.456-38.579-47.853
	c-3.862-14.806-6.022-40.24-7.061-52.463c-0.283-3.334-0.471-5.537-0.59-6.313c-0.228-1.477-1.686-2.892-3.705-4.851
	c-3.371-3.27-7.987-7.747-10.54-15.747c-3.8-11.903-3.891-27.292-2.927-29.833c0.174,0.614,0.293,1.953,0.399,3.161
	c0.414,4.686,1.04,11.767,5.736,13.714c0.594,0.246,1.255,0.371,1.966,0.371c4.585,0,10.644-5.141,15.067-8.895
	c1.896-1.609,4.045-3.432,4.57-3.436l0.217,0.028c0.301,0,0.56-0.17,0.692-0.455c0.609-1.304-1.62-7.149-3.946-10.899
	c4.501,2.602,11.633,6.987,13.722,11.07c1.569,3.066,4.628,6.542,7.326,9.609c2.982,3.389,6.362,7.23,5.383,8.278
	c-0.507,0.542-0.771,0.733-0.774,0.738l-0.39,0.213l0.194,0.758l0.392-0.003l0.168-0.029l0.109-0.058
	c0.08-0.044,1.721-0.942,4.719,1.537c4.739,3.921,6.506,4.591,12.603,4.783c4.85,0.15,8.706-1.369,8.888-2.723
	c0.022-0.174,0.033-0.757-0.809-0.986c-0.496-0.135-1.489-0.076-2.659,0.013c-0.775,0.06-1.653,0.127-2.462,0.127
	c-1.543,0-2.481-0.252-2.789-0.75c-0.304-0.492-0.008-1.315,0.294-1.919c1.206-2.413,5.579-6.379,9.808-10.214
	c4.808-4.36,9.349-8.478,10.042-10.905c1.043-3.648-4.011-10.739-5.585-12.825c-2.557-3.389-3.112-3.389-3.295-3.389l-0.231,0.046
	c-2.016,0.651-12.132,4.551-13.336,17.426c-0.544,5.818-0.391,9.571-0.135,11.988c-0.832-4.34-1.979-11.739-3.031-18.523
	c-1.75-11.284-3.56-22.952-4.699-26.58c-0.481-1.535-0.398-2.759,0.249-3.641c0.774-1.055,2.406-1.636,4.596-1.636
	c3.151,0,7.05,1.167,10.429,3.123c7.945,4.599,18.582,8.471,39.315,15.62c7.869,2.713,13.671,3.079,18.309,3.079
	c0.694,0,1.356-0.008,1.988-0.015c0.573-0.006,1.122-0.013,1.648-0.013c4.87,0,7.458,0.587,10.139,5.948
	c3.501,7,3.744,8.613,4.77,15.4c0.624,4.13,1.567,10.371,3.725,20.951c0.856,4.195,1.768,8.83,2.731,13.725
	c5.591,28.411,12.549,63.77,20.457,76.243c6.694,10.561,17.33,15.99,24.368,19.583c2.495,1.274,4.527,2.312,5.842,3.277
	c-0.653-0.054-1.605-0.186-2.738-0.342c-3.265-0.451-8.198-1.133-13.868-1.133c-23.59,0-37.773,12.251-41.019,35.429
	c-6.178,44.128,0.994,47.231,5.741,49.285c0.711,0.308,1.325,0.573,1.802,0.954c0.153,0.122,0.343,0.187,0.548,0.187
	c1.671,0,5.475-4.953,13.919-16.157c15.727-20.865,42.049-55.787,59.56-55.787c2.205,0,4.233,0.569,6.029,1.691
	c2.021,1.264,3.888,1.878,5.702,1.878c4.049,0,7.15-3.039,10.74-6.557c4.884-4.785,10.419-10.209,20.209-10.209
	c20.926,0,54.429,25.775,102.421,78.799c87.701,96.894,197.352,125.87,256.26,141.437c24.854,6.567,41.272,10.906,41.272,16.71
	C2092.16,655.458,2047.336,1001.5,2045.168,1018.221z M1045.886,235.725l25.815,414.732l0.03,0.49l0.491-0.021
	c1.232-0.056,124.351-5.546,224.928-5.546c55.931,0,124.146,1.778,131.497,10.253c0.445,0.513,0.863,0.762,1.279,0.762
	c0.221,0,0.544-0.073,0.832-0.421c10.106-12.209-75.699-464.353-79.356-483.594l-0.095-0.5l-304.998,63.758L1045.886,235.725z
	 M1350.515,173.066c1.633,8.6,23.604,124.536,43.946,239.533c12.354,69.84,21.698,125.673,27.774,165.946
	c10.27,68.077,8.802,76.426,7.69,76.849c-0.015-0.001-0.184-0.027-0.522-0.418c-6.102-7.031-50.598-10.597-132.253-10.597
	c-97.37,0-215.856,5.144-224.481,5.524l-25.731-413.377L1350.515,173.066z"/>
</svg>
