<?xml version="1.0" encoding="utf-8"?>
<!-- Generator: Adobe Illustrator 16.0.4, SVG Export Plug-In . SVG Version: 6.00 Build 0)  -->
<!DOCTYPE svg PUBLIC "-//W3C//DTD SVG 1.1//EN" "http://www.w3.org/Graphics/SVG/1.1/DTD/svg11.dtd">
<svg version="1.1" id="Layer_1" xmlns="http://www.w3.org/2000/svg" xmlns:xlink="http://www.w3.org/1999/xlink" x="0px" y="0px"
	 width="15.292px" height="16.721px" viewBox="0 0 15.292 16.721" enable-background="new 0 0 15.292 16.721" xml:space="preserve">
<path d="M14.75,2.932C14.419,1.706,11.955,0.5,7.646,0.5c-4.309,0-6.773,1.206-7.1,2.432C0.52,2.974,0.505,3.023,0.504,3.073v10.575
	c0,0.046,0.011,0.09,0.033,0.129c0.338,1.4,3.358,2.444,7.112,2.444s6.761-1.04,7.11-2.434c0.023-0.042,0.035-0.09,0.035-0.139
	V3.073C14.792,3.022,14.777,2.974,14.75,2.932z M7.646,1.073c3.874,0,6.574,1.13,6.574,2.144S11.52,5.36,7.646,5.36
	S1.072,4.23,1.072,3.215S3.771,1.073,7.646,1.073z M1.072,6.423V4.3c0.034,0.031,0.073,0.062,0.111,0.093
	c0.021,0.018,0.04,0.034,0.061,0.051c0.086,0.067,0.178,0.135,0.279,0.2l0.066,0.04c0.084,0.052,0.173,0.104,0.266,0.154l0.1,0.055
	c0.104,0.054,0.213,0.105,0.329,0.155l0.055,0.025c0.134,0.057,0.276,0.11,0.424,0.163l0.126,0.044
	c0.118,0.039,0.24,0.078,0.366,0.114l0.137,0.039c0.167,0.046,0.34,0.09,0.521,0.131L3.99,5.581c0.16,0.035,0.326,0.066,0.5,0.1
	l0.175,0.03c0.162,0.026,0.329,0.051,0.5,0.073L5.3,5.8c0.213,0.026,0.433,0.048,0.659,0.067l0.17,0.012
	C6.31,5.893,6.495,5.904,6.684,5.912l0.208,0.009c0.246,0.008,0.5,0.014,0.757,0.014S8.16,5.929,8.406,5.921l0.208-0.009
	c0.189-0.009,0.374-0.02,0.556-0.033l0.17-0.012C9.565,5.848,9.785,5.826,9.998,5.8l0.131-0.018c0.172-0.022,0.338-0.047,0.5-0.073
	l0.176-0.03c0.17-0.03,0.336-0.062,0.5-0.1l0.076-0.017c0.182-0.041,0.354-0.085,0.521-0.131l0.137-0.039
	c0.127-0.036,0.248-0.075,0.366-0.115l0.126-0.043c0.148-0.053,0.291-0.106,0.424-0.164L13,5.046c0.115-0.05,0.226-0.102,0.33-0.155
	l0.1-0.055c0.094-0.05,0.182-0.102,0.266-0.154l0.066-0.04c0.1-0.064,0.193-0.131,0.279-0.2l0.061-0.051
	c0.045-0.03,0.085-0.06,0.119-0.091v2.122c-0.013,0.041-0.016,0.084-0.01,0.127c0.006,0.033,0.01,0.066,0.01,0.1
	c-0.002,0.048-0.01,0.094-0.023,0.14c-0.008,0.034-0.02,0.067-0.033,0.1c-0.012,0.029-0.025,0.058-0.041,0.085
	c-0.02,0.036-0.041,0.071-0.065,0.105c-0.019,0.026-0.04,0.053-0.063,0.079c-0.022,0.025-0.064,0.074-0.1,0.111
	c-0.023,0.023-0.049,0.045-0.074,0.067c-0.047,0.041-0.1,0.081-0.15,0.122c-0.022,0.017-0.049,0.034-0.072,0.051
	c-0.064,0.045-0.133,0.089-0.206,0.132L13.33,7.675c-0.084,0.048-0.174,0.1-0.27,0.142l-0.038,0.018
	c-0.106,0.051-0.219,0.1-0.339,0.147h-0.01c-0.789,0.3-1.611,0.508-2.447,0.62H10.21C10.023,8.63,9.83,8.655,9.632,8.676l-0.1,0.009
	C9.359,8.703,9.184,8.72,9.003,8.733C8.921,8.74,8.835,8.742,8.751,8.747c-0.135,0.008-0.27,0.017-0.407,0.021
	C8.117,8.776,7.886,8.781,7.649,8.781c-0.237,0-0.468,0-0.7-0.014c-0.139,0-0.273-0.014-0.408-0.021
	c-0.084,0-0.17-0.009-0.252-0.015c-0.18-0.013-0.355-0.029-0.528-0.048l-0.1-0.009c-0.2-0.022-0.393-0.047-0.579-0.074H5.067
	C4.23,8.489,3.409,8.281,2.62,7.981H2.61c-0.12-0.048-0.232-0.1-0.339-0.147L2.233,7.816c-0.1-0.046-0.185-0.094-0.27-0.142
	L1.9,7.641C1.826,7.598,1.759,7.553,1.694,7.509c-0.025-0.017-0.05-0.034-0.073-0.051c-0.055-0.04-0.1-0.081-0.15-0.122
	C1.446,7.314,1.42,7.291,1.397,7.269c-0.035-0.035-0.068-0.073-0.1-0.111C1.275,7.131,1.253,7.104,1.234,7.078
	C1.21,7.044,1.188,7.009,1.168,6.973C1.153,6.946,1.139,6.917,1.127,6.888c-0.014-0.032-0.024-0.065-0.033-0.1
	C1.082,6.743,1.074,6.697,1.072,6.65c0-0.033,0.003-0.066,0.009-0.1C1.087,6.507,1.084,6.464,1.072,6.423z M14.22,13.563
	c-0.004,0.013-0.008,0.026-0.01,0.039c-0.162,0.989-2.838,2.047-6.564,2.047c-3.726,0-6.4-1.058-6.565-2.047
	c-0.002-0.013-0.005-0.024-0.009-0.037v-2.399l0.026,0.021c0.062,0.056,0.126,0.109,0.2,0.162c1.077,0.814,3.23,1.447,6.351,1.447
	s5.255-0.628,6.337-1.438c0.082-0.061,0.162-0.125,0.237-0.193L14.22,13.563z M14.223,9.852c-0.013,0.041-0.016,0.085-0.009,0.127
	c0.006,0.033,0.009,0.066,0.009,0.101c-0.003,0.045-0.011,0.091-0.022,0.135c-0.01,0.034-0.02,0.067-0.033,0.1
	c-0.013,0.029-0.026,0.058-0.041,0.085c-0.02,0.037-0.043,0.072-0.066,0.105c-0.02,0.027-0.04,0.053-0.062,0.079
	c-0.023,0.025-0.065,0.075-0.101,0.111c-0.022,0.023-0.049,0.046-0.073,0.067c-0.048,0.041-0.101,0.081-0.15,0.122
	c-0.023,0.017-0.049,0.034-0.073,0.051c-0.065,0.045-0.132,0.089-0.206,0.132l-0.061,0.034c-0.086,0.048-0.174,0.101-0.271,0.143
	l-0.038,0.017c-0.107,0.051-0.219,0.1-0.339,0.148h-0.011c-0.789,0.299-1.609,0.507-2.446,0.619h-0.015
	c-0.188,0.028-0.381,0.053-0.58,0.074l-0.1,0.009c-0.173,0.019-0.348,0.035-0.527,0.049c-0.082,0.006-0.17,0.009-0.252,0.014
	c-0.135,0.008-0.271,0.017-0.408,0.021c-0.227,0.008-0.458,0.013-0.695,0.013c-0.237,0-0.468,0-0.7-0.014
	c-0.139,0-0.273-0.014-0.408-0.021c-0.084,0-0.17-0.008-0.252-0.014c-0.18-0.014-0.355-0.03-0.528-0.049l-0.1-0.009
	c-0.2-0.021-0.393-0.047-0.579-0.074H5.07c-0.836-0.112-1.657-0.32-2.447-0.619h-0.01c-0.12-0.049-0.232-0.101-0.339-0.148
	l-0.038-0.017c-0.1-0.047-0.185-0.095-0.27-0.143L1.9,11.071c-0.074-0.043-0.141-0.088-0.206-0.132
	c-0.025-0.017-0.05-0.033-0.073-0.051c-0.055-0.04-0.1-0.081-0.15-0.122c-0.025-0.021-0.051-0.045-0.074-0.066
	c-0.035-0.036-0.068-0.073-0.1-0.112c-0.022-0.026-0.044-0.053-0.063-0.079c-0.024-0.035-0.046-0.07-0.066-0.108
	c-0.015-0.027-0.029-0.056-0.041-0.085c-0.014-0.032-0.024-0.065-0.033-0.1c-0.013-0.045-0.02-0.092-0.022-0.138
	c0-0.034,0.003-0.067,0.009-0.101C1.087,9.935,1.084,9.891,1.072,9.85V7.73l0.026,0.022c0.062,0.055,0.126,0.108,0.2,0.162
	c1.077,0.813,3.23,1.446,6.351,1.446s5.255-0.628,6.337-1.437c0.082-0.061,0.162-0.125,0.237-0.194V9.852z"/>
</svg>
