<svg xmlns="http://www.w3.org/2000/svg" viewBox="0 0 365.67 434.41"><defs><style>.cls-1{fill:#e9e9e9;}</style></defs><title>select africa</title><g id="Layer_2" data-name="Layer 2"><g id="Layer_3" data-name="Layer 3"><path class="cls-1" d="M64,8.21A102.59,102.59,0,0,1,54.8,14a16.62,16.62,0,0,0-8.51,9.34,46.65,46.65,0,0,0-2.88,9.34C41.06,47.7,33.54,59.32,21.3,68.28A119.35,119.35,0,0,0,7.14,80.82,23.35,23.35,0,0,0,.39,102c3.32,19.34,6.57,38.7,10.26,58,2.16,11.24,6.14,21.84,14.62,30.13s18.36,12.27,30.3,7.83c3.18-1.18,6.44-2.1,9.61-3.28,15.93-5.91,31.82-8.6,48.57-2.53,11.9,4.31,21,11.4,25,23.22,3.62,10.78,5.81,22.11,7.85,33.34,1.82,10,4.54,19.19,12.21,26.47,5,4.77,6.08,11,5.25,17.8-1.26,10.12-5.36,19.32-9.14,28.61-3.93,9.68-4.71,19.23.08,28.8,2.92,5.84,5.75,11.74,9,17.38,6.9,11.85,13.67,23.63,15,37.77a101,101,0,0,0,3.67,18.87c2.24,7.7,6.83,10.38,14.81,9.93,3.86-.22,7.74-.18,11.58-.59,6.71-.72,14.06-.2,19.95-2.85,14.74-6.65,25.09-17.65,27.38-34.62.79-5.85,2.62-11.44,8.34-14.2,5.56-2.68,7.25-6.83,6.49-12.53-.22-1.63-.13-3.29-.37-4.9-1.57-10.34,1.41-19.54,7.59-27.61,4.39-5.74,9.42-11,14.34-16.34,9.05-9.8,12.45-20.9,8.35-33.9-.74-2.34-1.31-4.73-2.12-7-4.14-11.82-3.33-23.26,2.95-34.11,6.95-12,14.13-23.93,21.23-35.88,8.65-14.56,18.76-27.9,31.61-39.1,3.31-2.89,6.06-6.48,8.85-9.91,1.54-1.88,3-4.12,1.22-6.66s-4.49-2.25-7-1.65c-3.18.76-6.32,1.72-9.43,2.71-8.4,2.69-16.18,1.1-23.4-3.56-7-4.52-11.5-11.25-15.1-18.54a80.57,80.57,0,0,0-16.53-22.49,62,62,0,0,1-13.07-17.65A96.68,96.68,0,0,0,267,72.41a52.9,52.9,0,0,1-6.53-10.7c-1.43-2.88-1.09-5.54,2.54-7.14,3-1.31,3.61-4,2.28-7-.75-1.7-1.47-3.43-2.05-5.19-1.7-5.19-4.9-7.56-10.31-6.71a84,84,0,0,0-12.54,3.17c-8.56,2.74-16.27,1.85-23.28-4.19a39.06,39.06,0,0,0-8.48-5.48c-6.09-2.94-9.07-1.41-10.62,5-1.16,4.83-4,7.26-8.82,6.38a23.26,23.26,0,0,1-9.92-4A40.24,40.24,0,0,0,155,28a2,2,0,0,1-.35,0c-11.56-1.61-16-7.88-13.66-19.31.19-.91.35-1.84.59-2.74.6-2.19-.09-3.77-2.32-4.29C136.33.91,133.33,0,130.37,0a80.1,80.1,0,0,0-26.75,4.84,232.32,232.32,0,0,1-27.2,7.73C71.83,13.62,67,12.86,64,8.21Z"/><path class="cls-1" d="M314.74,339.06c0-1.76-.13-3.52,0-5.26.73-8.52,3.36-12.27,11.64-14,12.13-2.51,17.78-11.11,21.82-21.48.78-2,1.29-3.69,3.85-3.65a3.7,3.7,0,0,1,4,4,77.28,77.28,0,0,1-.72,13.79c-2.84,16.2-5.92,32.36-9.11,48.49-2.22,11.18-6.11,21.59-15.41,29.07-.54.44-1.08.89-1.66,1.29-5.4,3.64-8.31,2.16-9.06-4.27-1.57-13.44-3.36-26.86-5-40.29-.31-2.54-.42-5.11-.62-7.67Z"/></g></g></svg>