<svg xmlns="http://www.w3.org/2000/svg" viewBox="0 0 628.18 509.72"><defs><style>.cls-1{fill:#e9e9e9;}</style></defs><title>Asset 6</title><g id="Layer_2" data-name="Layer 2"><g id="Layer_3" data-name="Layer 3"><path class="cls-1" d="M545.29,112.32l.82-1.4c-1.7-2.73-3.33-5.5-5.1-8.18-2-3-1.74-4.4,1.31-6.26,3.63-2.21,6.58-2,10,.64,1.8,1.36,3.73,2.55,6.16,4.2.26-4.84.79-8.35,5.15-9.32s7.47,1.49,9.1,5c2,4.25,3.81,8.85,4.32,13.45.66,5.88-1.28,11.15-7.88,13.24-.66.21-1.61,1.45-1.48,1.94.57,2,1,4.54,2.42,5.77a56.75,56.75,0,0,0,10.15,6.8,26.94,26.94,0,0,1,12.79,15.17c.65,1.77,1.45,3.49,2.19,5.24l1.27-.31c-.94-6.87-1.93-13.74-2.77-20.62-.27-2.23-1.07-5,1.67-6.23,2.56-1.15,2.36-2.8,1.23-4.47-2.34-3.45-5-6.66-7.44-10.06-1.39-2-3.12-4-3.72-6.18-1.76-6.52.81-9.08,7.46-7.93a14.28,14.28,0,0,0,3.46.48,4.43,4.43,0,0,0,2.95-1.09c1.83-2.39,4-2.77,6.48-1.51,2,1,3.54.51,5.13-.65,3.57-2.6,7.14-5.18,10.81-7.83-.84-1.25-1.66-2.53-2.54-3.75a22.83,22.83,0,0,1-4.46-13.05c-.07-2.72,1.06-3.85,3.72-3.8,3.21.06,6.43,0,9.65,0a4.19,4.19,0,0,0-2.35-1.39C610.4,66.48,595,62.61,579.51,59.14a118.22,118.22,0,0,0-32.35-2.22,15.19,15.19,0,0,1,.9,2.46c.31,1.82,1.31,4.68.56,5.27a7.22,7.22,0,0,1-5.79,1.07c-1.87-.56-3.62-2.36-4.83-4-1-1.43-1.19-3.46-1.92-5.78-3.93.69-8,1.17-11.89,2.13-10.41,2.55-20.55,2.29-30.65-1.69a34.58,34.58,0,0,0-11.85-2.83,55.79,55.79,0,0,1-26.87-6.84c-6.07-3.33-12.55-4-19.39-2.66-7.78,1.47-15.65,2.51-23.79,3.8-.15,3.08-1.61,6.26-5.57,6.73-7.33.88-14.42.13-20.41-5-.68-.58-2.07-1.13-2.72-.82-6.85,3.18-12.62.32-18-3.33-7.75-5.22-16.09-6.39-25.13-5-10.17,1.58-20.28,2.92-30.56-.38-4.26-1.37-9.16-1-13.77-.93-4.2,0-8.39.81-12.59.93-1.28,0-3.29-.71-3.68-1.63s.4-3,1.32-3.82c3.21-3,6.71-5.72,10.74-9.07-3-1.3-5.75-3-8.69-3.62-15.78-3.43-31.69-1.91-47.56-.8-.65.05-1.51,1-1.8,1.7-1.64,3.92-4.72,5.67-8.73,6-2.92.26-5.84.43-8.76.49-8.84.17-15.92,5.41-24.11,7.6.45,1.36.73,2.12,1,2.89,1.54,4.92-.45,7.69-5.48,7.32a34.41,34.41,0,0,1-6.13-1.33c-3.1-.81-6.17-1.72-9.56-2.66,1,4.4.18,5.53-3.59,5.85a6.49,6.49,0,0,0-2.42.25,3.79,3.79,0,0,0-1.79,2c-.15.59.53,1.63,1.13,2.08a9.76,9.76,0,0,0,2.86,1.29c6.05,2,8.88,6.61,10,12.45,1.46,7.69-3.3,12.83-11.11,12.24-5.86-.44-9.56-3.85-9.82-9.83-.27-6.38,0-12.78.09-19.16a5.59,5.59,0,0,1,.45-1.68c1.52-4.31.09-6.33-4.34-5.93a12.42,12.42,0,0,0-4.73,1.1c-1,.56-2.31,2.13-2.19,3.08.5,3.91.83,8.08,2.5,11.53s1.84,6.44-.32,9.12A106.22,106.22,0,0,1,137.2,79.34c-7,6.45-7.63,10.72-1.91,18.42,3.16,4.24,6.44,8.5,6.53,14.06s-.18,11.21-.44,16.81c-.31,6.72-1.75,13.34.34,20.15,1.76,5.75-.54,10.8-5.17,14.66-4.39,3.66-9.16,3.54-14.15,1.43a41.93,41.93,0,0,0-5.9-2.21c-4.56-1.17-9.09-1-13.18,1.6a5.83,5.83,0,0,0-2.42,3.13c-.87,3.66,2,9.5,5.26,11.49,5.5,3.32,6.61,9.06,2.81,14.18-2.31,3.11-3.3,6.25-.91,10a16.24,16.24,0,0,1,1.91,6c.51,2.88-1.14,4.4-4.09,3.9-3.11-.52-6.17-1.33-9.28-1.8-7.71-1.17-15.43-2.22-23.31-3.34.24.85.34,1.31.51,1.74,2.83,7.56.1,12.32-7.83,13.43a18.93,18.93,0,0,1-6.28.08c-6-1.21-12.28-2.09-18-4.3-7.38-2.86-13.78-2.37-20.13,2.22A15.55,15.55,0,0,1,8,223.57c-4.4-1.14-7.83,1.86-8,6.44-.35,12.19,9.87,19.54,21,15.08.55-.22,1.1-.41,1.64-.62,6.2-2.38,11.94-1.81,17,2.73,2,1.75,3.68,1.93,5.9.3,2.75-2,4.84-1.12,5.5,2.31a19,19,0,0,1,.32,6.62c-1.41,8.16-3.08,16.28-4.7,24.41a12.7,12.7,0,0,0,1.68,9.75c5.81,9,11.69,18,17.45,27.1A117.91,117.91,0,0,1,73,330c4.76,10,9,20.3,17,28.42a37.3,37.3,0,0,1,10.92,23.35,15.62,15.62,0,0,0,.68,3.07c1.23,4.15,3.69,6.32,8,5.78a34.36,34.36,0,0,0,10.24-3.15c6.43-3.05,12.61-6.61,18.94-9.87a48.28,48.28,0,0,0,15.57-12.29,106.81,106.81,0,0,1,9.06-9.25c3.28-3.16,7-5.92,10-9.31,4.59-5.16,3.87-10.28-1.61-14.25a17.45,17.45,0,0,1-7.45-14c-.08-1.71-.17-3.42-.28-5.76a30.66,30.66,0,0,0-4.12,2c-2.3,1.62-4.46,3.42-6.7,5.11-3.86,2.91-8.11,4.56-13.06,4.07-2.26-.22-3.14-1.27-3.32-3.6a18.91,18.91,0,0,0-1.8-7.29c-.59-1.11-3.34-2.15-4.45-1.68-2.84,1.23-4.34.17-5.35-2.07A115.74,115.74,0,0,1,120,296.35c-1.63-5.3-.21-9.84,3-11.71,3.34-1.95,7.32-1,11.5,3.32,3.1,3.18,5.83,6.7,8.73,10.07,2.64,3.07,5.53,5.28,10,4,4.79-1.37,9,.16,12.62,3.39,3.23,2.88,6.22,6.06,9.65,8.68,8.15,6.23,17,8.63,26.83,3.93a74.88,74.88,0,0,1,7.08-3c6.76-2.41,11.19-.87,14.75,5.43a91.37,91.37,0,0,1,4.25,9.58c3.1,7.29,5.14,8.14,12.23,5,2.91-1.29,4.32-.64,5.17,2.4.17.62.27,1.26.45,2.13a12.49,12.49,0,0,0,1.79-.83c3.72-2.64,5.43-2,6,2.4a72.29,72.29,0,0,1,.54,10.5c-.23,7.57,2,13.8,8.79,17.88a17.39,17.39,0,0,1,3.44,3,18.82,18.82,0,0,1,5.74,14.2,70.15,70.15,0,0,0,.2,11.87A66.31,66.31,0,0,0,276,412.43c1.14,3.07,4.09,4.73,7.73,4.17,3.34-.51,4.6-2.77,5.06-5.84a4.66,4.66,0,0,1,1.28-2.71c4.64-4,6-8.84,4.25-14.66-.55-1.79-1.09-3.58-1.51-5.4-2.21-9.49-.08-14,8-19.11a58.32,58.32,0,0,0,10.36-8.74,63.25,63.25,0,0,0,12.62-18.76c2.25-5.14,7.34-7.59,11.81-5.45,5.43,2.6,10.11,2.6,15.57.26,4-1.72,6.14,0,7.62,4.12a54.6,54.6,0,0,1,3.33,19.94,24.81,24.81,0,0,0,.67,6.6,5.67,5.67,0,0,0,6.45,4.14c4.11-1,8.37-2.05,12.56-2,4.72,0,7.19,3.22,7.42,8.12.15,3.15,0,6.32.09,9.48.14,7.19,5.12,15.64,11.25,19-.2-1.6-.44-3.1-.57-4.61-.35-4.08-.24-8.29,3.54-10.74,3.58-2.3,6.94,0,10.14,1.75.2.11.53.16.6.32,3,6.92,10.7,9.14,14.92,14.8,1.36,1.82,2.12,4.1,3.3,6.48,2.34-6.11,7.17-8.9,12.9-10.5a6.3,6.3,0,0,0,5-6.74,30.3,30.3,0,0,0-1-7.59c-2.35-8.31-7.71-14.76-13.17-21.25a58.88,58.88,0,0,1-9-13.65c-4.54-10.29,1.21-18.17,12.41-17.47,2.09.13,4.9,1.22,5.88,2.79.77,1.25-.42,4.11-1.37,5.92-1.27,2.41-3.15,4.49-5,7A30.75,30.75,0,0,0,443,354c4,1.32,5,.72,5.44-3.49a90.65,90.65,0,0,0,.5-10.15c0-2.72,1.08-4.28,3.67-4.6,4.52-.56,9.05-1.12,13.59-1.35s8.55-1.52,11.69-4.81c4.53-4.73,9.39-9.25,13.2-14.52,3.28-4.54,6.61-9.76,7.57-15.11,1.81-10-.89-19.75-6.74-28.24-4.37-6.35-9.28-12.31-13.69-18.63-2.36-3.39-3.73-7.22-1.32-11.63-1.39-.21-2.51-.42-3.65-.56-3.94-.48-7.92-.77-11.83-1.46-5-.88-5.76-2.23-4.55-7.23,1.73-7.17,6.49-11.29,12.59-10.89,2.46.16,4.08,1.08,3.56,3.94-.67,3.61,1.39,5.61,3.77,7.12,2.08-1.3,3.7-2.76,5.6-3.42,6.26-2.17,11.45.24,14.55,6.24a59.19,59.19,0,0,0,4,6.39c1,1.45,2.44,2.63,3.22,4.17,1.88,3.73,3.35,7.67,5.26,11.38A5,5,0,0,0,515,260c2.75-.44,7.74-8.27,6.89-10.9-.16-.49-.8-.81-1.13-1.28-3.12-4.31-6.21-8.64-9.34-12.95a7.87,7.87,0,0,0-2-2.25c-4.37-2.64-5.66-5.35-4.92-10.84.52-3.85,3.12-6.63,7.76-7.42a92.09,92.09,0,0,1,11.87-1c3.12-.13,4.77-1.54,5-4.63q.45-6.81.84-13.63c.44-7.82,1.08-15.64,1.22-23.47.08-4.35-.94-8.56-4.42-11.79a31.78,31.78,0,0,1-3.34-4.33c-6.35,1-6.93.64-9-5.6a8.86,8.86,0,0,0-9.85-6.14c-2.37.28-4.6,1.57-6.95,2.13-1.22.29-3.21.51-3.77-.15-4.12-4.87-8.54-9.65-11.75-15.11s-1.12-10,4.09-13.5c5.67-3.77,11.9-3.9,18.25-3,5.78.84,11.51,2.07,17.29,2.92,1.36.21,3.41.12,4.15-.72,2.86-3.23,6.49-3.94,10.44-4C539.3,112.28,542.3,112.32,545.29,112.32Z"/><path class="cls-1" d="M443.78,483.82c.06-.27.11-.54.17-.81l-5.62-1.14c-3.89-.78-7.77-1.59-11.66-2.33a33.14,33.14,0,0,0-6-.86c-3.43,0-4.71-.9-4.76-4.49a64.78,64.78,0,0,1,.54-10.14c.43-3-.69-4.46-3.35-5.14-3.82-1-7.64-1.9-11.53-2.87a29.85,29.85,0,0,1,.36,5.25c-.6,5.62,1.71,9.35,6.72,11.83,5.55,2.75,8.83,7.45,10.66,13.28,1.12,3.56,2.06,7.26,3.78,10.52a14,14,0,0,0,5.36,5.06c2.3,1.32,4.13.4,3.93-2.65-.23-3.5-.56-7-.83-10.49-.33-4.21.9-5.64,5.09-5.58C439,483.3,441.4,483.62,443.78,483.82Z"/><path class="cls-1" d="M404.91,423.81c-.15,7.05,2.29,14.14,5.59,20.54,2.83,5.51,7.69,10,11.57,14.79l3.55-1.74c-2.37-6.82-4.57-13.41-7-19.91a11,11,0,0,0-2.88-3.84C412.21,430.29,408.53,427.07,404.91,423.81Z"/><path class="cls-1" d="M162.14,58.75c0,4.07-.31,7.77.1,11.39.32,2.83,3.58,4.54,6.8,4.06s3.27-2.91,3.22-5.32C172.15,63.9,169.32,60.89,162.14,58.75Z"/><path class="cls-1" d="M547.16,178.2c3.32-.84,3.72-2.47,1.9-4.8-5.32-6.79-10.51-13.68-16.09-20.26-1.85-2.18-4.7-3.51-7.1-5.23l-.78.73.65,4.52C537.37,158.08,542.12,168.34,547.16,178.2Z"/><path class="cls-1" d="M296.5,416.5c-.68,3.33-1.37,6.39-1.92,9.48-.46,2.55-.43,5,2.74,5.92,2.58.72,5.07-1,6-4C305.05,422.52,303,418.84,296.5,416.5Z"/><path class="cls-1" d="M467.22,227.26l-1.09-.73L461.18,234l9.13.82Z"/><path class="cls-1" d="M388.7,29.81H401C398,25.85,393.64,25.55,388.7,29.81Z"/><path class="cls-1" d="M404.14,39.62l-.36-.89-8.36,2.51,7,1.61Z"/><path class="cls-1" d="M541.67,432.41a3.61,3.61,0,0,0-.37.94c-.17,2.19.18,4.71-3.06,5s-5.89-.47-7.24-3.68c-.71-1.69-1.17-3.49-1.94-5.84-1.62.9-2.94,1.71-4.32,2.39-1.76.86-3.52,2.09-5.36,2.26A4.32,4.32,0,0,1,516,431a9.91,9.91,0,0,1,6.86-12.11c3.34-1,6.77-1.82,10.1-2.89a4.82,4.82,0,0,0,2.49-2.42,27.62,27.62,0,0,1-15.12,1.81c-3.72-.64-5.35-3.06-6-6.43-.84-4.6.78-8.51,4.33-10.63,3.15-1.9,6-1.41,8.57,1.14a3.88,3.88,0,0,0,.93.51c.46-1.85.92-3.65,1.22-4.86L520,387a24.91,24.91,0,0,1-.84,4.13,47.75,47.75,0,0,1-3.57,7.37c-.46.72-2.39,1.06-3.35.72-.74-.25-1.19-1.8-1.43-2.84a9.49,9.49,0,0,1,.17-2.79c.63-7.33-1-13.67-6.47-19.17-6.65-6.73-6.32-11.34-.35-18.68,3-3.69,5.27-2.79,8.46.81a34.94,34.94,0,0,0,3.1,3.53c3.86,3.3,3.89,7.65-.27,10.54-1.67,1.17-3.37,2.4-2.35,4.36a7.19,7.19,0,0,0,4.09,3.08c4.47,1.29,9.15,1.85,13.59,3.24,5.56,1.73,6.71,5.31,3.46,10.7,5.77,1.62,6.3,6.52,6.21,11.2-.11,5.55,2.34,9.73,5.5,13.81a28.42,28.42,0,0,1,1.72,2.64C551.58,426.15,549.14,431.37,541.67,432.41ZM535.44,430c.8-1.66,1.22-4.19,2.48-4.71s3.5.75,5.3,1.24c1.23-2.86,1.23-2.86-2.78-7.72l-12.08,4.66C532.87,423.88,534.72,426.79,535.44,430ZM529,410.34l.27-1.13c-1.54-1.67-3-3.47-4.66-5-.82-.73-2.91-1.47-3.07-1.25a9.35,9.35,0,0,0-2,4.48,3.72,3.72,0,0,0,2.39,2.74A40.47,40.47,0,0,0,529,410.34Zm-15.92-44.93c-2.68-3.13-5.84-4.43-7.17-3.11-1.71,1.68-1.06,4.27,1.82,7.24Z"/><path class="cls-1" d="M572.13,213.85c-.9,1.06-2.31,2.75-3.86,4.6,1.73,2.45,3.64,4.78,5.17,7.35,5.79,9.76,5.54,20.31,3.27,30.87-.47,2.19-2.71,4.33-4.67,5.79a23.19,23.19,0,0,1-7,3c-8.34,2.59-15.64,6.49-20.6,14.13-1.91,2.94-4.33,6.35-8.8,4.51-4.13-1.7-4.57-5.63-4.79-9.4a11.53,11.53,0,0,1,7.94-11.91c3.94-1.44,7.89-2.85,11.84-4.27,3.78-1.37,5.64-4.16,5.44-8.07-.35-7.14,1-13.41,7.12-18.07.9-.68,1.05-3.3.57-4.7-1.63-4.76-3-9.66-6.78-13.48-2.07-2.07-3.84-5-2.18-8.27,1.8-3.5,5.14-4.59,8.85-4.58,5.63,0,10.37,2,13.25,7,.75,1.3.53,3.53,0,5C576.62,214,574.16,213.69,572.13,213.85Zm-1.46,18c-1.81,2.36-3.23,5-5.36,6.79a8.21,8.21,0,0,0-3.3,7.23c.37,6.4-.74,12.29-6.09,16.81a101.56,101.56,0,0,0,12.81-4.55,5.81,5.81,0,0,0,3.07-3.52A47.27,47.27,0,0,0,570.67,231.84ZM552.53,264c-3.88,1.4-7.78,2.74-11.63,4.22-3.69,1.41-5.44,4.4-4.75,8.24.16.88,1,1.64,1.53,2.46a8.18,8.18,0,0,0,2.06-1.61C543.14,272.06,546.89,267.22,552.53,264Zm11.61-49.34,3.53-4a18.33,18.33,0,0,0-3.23-2.68,14.76,14.76,0,0,0-3.69-.78c-.07,1.18-.57,2.59-.1,3.5C561.35,212.06,562.73,213.11,564.14,214.64Z"/><path class="cls-1" d="M525.91,470,517.57,475l.41.56c2.86-.78,5.68-1.93,8.59-2.25,4.08-.46,5.56,1.49,3.94,5.3-1.3,3.05-3.37,5.78-5,8.58,2.25,2.83,5,5.73,7,9.09,1.16,1.94,2,4.95,1.27,6.89-.79,2.18-3.15,4.26-5.34,5.35-2.52,1.25-4.62-.77-6.17-2.81-1-1.38-1.93-2.89-3.18-4.78-.85,3.92-2,7.18-6,8.39-4.22,1.27-7.85-.88-7.72-5.29.11-3.43,1.21-6.82,1.81-10.23.25-1.43.88-3,.47-4.31-2.3-7.23-1.07-14.16,1.76-20.83.94-2.21,3-4.08,4.95-5.66.8-.66,2.7-.57,3.84-.14,2.66,1,4.41.41,6.36-1.65s4.54-4.57,7.3-5.6c5.59-2.08,12.07,2.89,12.07,8.68,0,4.16-2.09,6.8-6.17,7.77C534,473,530.56,472.34,525.91,470Zm-13.21,8.8-.89.36,1.3,10.74c4.61-2.41,6.37.66,8.11,3.18s2.79,5.1,4.21,7.64c.51.9,1.2,1.71,1.8,2.56l1.38-.55c-.45-1.58-.49-3.49-1.44-4.69-2.44-3.11-5.24-5.94-8-8.8-1.77-1.86-1.63-3.42.31-5,1.42-1.16,2.76-2.42,4.14-3.64l-.42-.74C519.52,481.32,515.73,483.61,512.7,478.75Zm16-15.12c.09.64.18,1.27.28,1.9,2,.52,4.08,1.45,6.11,1.41,1.14,0,3.06-1.5,3.2-2.53.3-2.1-1.07-4.18-3.45-3.71C532.7,461.12,530.76,462.61,528.72,463.63Zm-18.21,40.92c3.22-2.25,3.65-4.87,1.39-8.66C511.47,498.58,511,501.28,510.51,504.55Z"/><path class="cls-1" d="M449.57,481c-1.24-12.46,3.67-20.28,15.89-25.15,2.92-1.16,5.92-2.14,8.9-3.15a9.8,9.8,0,0,0,6.43-6.79c1.75-5.28,3.8-10.46,5.86-15.63,1.14-2.86,3.64-3.67,6.37-3,6.35,1.59,11,6,15.58,10.28.5.46-.16,3.37-1,3.9-6.24,3.74-8.84,8.59-7,15.83,1.54,6.09,1,11.16-3.72,15.7-1.06,1-1.19,3.37-1.13,5.09.08,2.66,1,5.3,1,8,.18,6.78-4.9,10.9-11.82,9.77a11,11,0,0,1-3.34-1,50.34,50.34,0,0,0-21-6c-5.23-.26-8.53-3.69-11.12-7.92Zm51.54-43L493.55,433c-.66,2.08-1.09,3.72-1.7,5.29-.35.92-.87,2.37-1.5,2.47-2.29.38-2.57,2-3,3.73-1.85,7.37-6.06,12.4-13.69,14.4a34.69,34.69,0,0,0-16,8.93c-2.94,2.93-4.14,6.15-2.83,10.13,1.23,3.73,4.19,5.23,7.79,5.49a50.49,50.49,0,0,1,20.63,6.17,8,8,0,0,0,2.65.86c4.11.62,5.72-.86,5.29-5-.26-2.55-1.26-5.13-1-7.61.31-3.11.67-7,2.6-9,2.94-3.11,3.29-5.88,2.53-9.7C493.76,451.44,495.05,444.29,501.11,438Z"/><path class="cls-1" d="M566.44,490.73c-1.88.84-3.72,1.82-5.66,2.48a62.28,62.28,0,0,1-9.27,2.66c-2.68.46-4-1.45-3.4-3.91a16.53,16.53,0,0,1,2.73-5.91c2.89-3.84,3.54-6,.66-10.11-3.64-5.22-2.49-10.68-1.74-16.14.43-3.09,5.23-4.76,8-3.1a7.93,7.93,0,0,1,3.42,9.74,55.06,55.06,0,0,1-2.33,5.07,8.48,8.48,0,0,0,3.79,10.89,30.24,30.24,0,0,1,5.74,3.29,5.56,5.56,0,0,1,1.89,3.93c0,.75-2.11,1.41-3.26,2.11Z"/><path class="cls-1" d="M200.38,0A56.45,56.45,0,0,1,207,2.9c4.17,2.36,8,5.24,13.3,2.85,2.23-1,5.64,3.88,5.06,6.87-1.05,5.49-7.9,8.1-12,4.28a8.3,8.3,0,0,0-6.53-2.31,80.26,80.26,0,0,1-9.42-.52A5.54,5.54,0,0,1,194.61,13c-2.49-2-4.66-4.43-3.84-8C191.4,2.14,195,.08,200.38,0Zm5,8.77c-2.71-2.31-5.49-4.32-9.46-2.4C198.37,10.5,202.1,8.75,205.36,8.77Z"/><path class="cls-1" d="M507.67,407.53c-.26,5.73-4.9,12.13-10.31,13.73-1.36.4-3.62.27-4.4-.58s-.56-3.13.06-4.37a76.68,76.68,0,0,1,4.87-7.62c1.26-1.92,2.19-3.71.39-6-.59-.75,0-2.45.08-3.71,1.33.1,3-.29,3.95.37C507.19,402.79,507.82,404,507.67,407.53Z"/></g></g></svg>