<svg xmlns="http://www.w3.org/2000/svg" viewBox="0 0 307.96 288.48"><defs><style>.cls-1{fill:#e9e9e9;}</style></defs><title>select australia</title><g id="Layer_2" data-name="Layer 2"><g id="Layer_3" data-name="Layer 3"><path class="cls-1" d="M308,231.65c-4.25,8.55-12.09,12.54-20.34,16-.64.27-1.28.56-1.9.88-9.34,4.66-18.61,9.47-28,13.94-5.84,2.78-9.7,7.59-13.84,12.18-5,5.47-9.75,11.26-17.3,13.17a29.2,29.2,0,0,1-9,.54c-2.68-.19-3.71-2.89-1.79-4.84A83.72,83.72,0,0,1,226.38,274c10.31-7.43,20.9-14.47,31.26-21.84,1.65-1.17,2.56-3.32,4-4.79a8.93,8.93,0,0,1,3.61-2.29c7.07-2.05,12.78-5.65,14.22-13.37.7-3.74.06-7.71.41-11.54.3-3.34.57-6.89,1.93-9.85a11.22,11.22,0,0,1,5.75-5c3.38-1.35,5.57.34,6.68,3.86a15.58,15.58,0,0,0,1.86,4.11c2.9,4.29,5.71,8.57,5.42,13.45l6.4,2.12Z"/><path class="cls-1" d="M308,103.8c-1.44,1.78-2.66,3.83-4.38,5.28-2.14,1.82-4.68.7-4.61-2,.07-2.6-1.24-3.78-3.12-4.91a17,17,0,0,1-7.57-10.51c-.74-2.64-.53-5.15,2.08-6.78,1.79-1.12,7.14-.28,8.53,1.38,2.14,2.56,4.28,5.14,6.19,7.87A45.65,45.65,0,0,1,308,99.59ZM294.81,90.88l-1.21,1.23,7.26,7.24L302.18,98Z"/><path class="cls-1" d="M164.88,69.92c-2.93,10.8-3.69,21.29-1.31,31.9.88,3.93.46,4.67-3.46,5.54-2.85.62-5.7,1.27-8.49,2.13s-4.6.38-4.7-3c-.07-2.2-1.38-2.49-3.33-2.51a17.22,17.22,0,0,1-6.66-1c-4.22-1.87-6.23-5.76-7.82-9.9-1.16-3,.92-4.82,2-7.24,2.83-6.27,3.33-10.58-5.24-11-4.21-.2-8.41-.39-12.62-.62-4.57-.25-7.36,1.86-9.2,6a122.86,122.86,0,0,1-6.9,13.34c-1.72,2.89-4.37,5.14-8.09,4.47-3.93-.7-5.22-3.92-6-7.36-.53-2.19-1.07-4.39-1.6-6.59l-1.09-.37c-1.35,1.47-3.09,2.74-4,4.46-2.79,5.5-5.54,11.07-7.79,16.81-2.87,7.33-8.16,11.8-15.34,14.3-4.4,1.54-8.88,2.87-13.36,4.18-7.53,2.2-13.49,6.26-16.89,13.59a22.6,22.6,0,0,1-12.18,12c-6.69,2.71-8.84,8.27-9.21,14.82-.17,3,.25,6.07.31,9.11.12,5.72.48,11.45.17,17.15-.4,7.27-1.35,14.5-2.09,22a13.29,13.29,0,0,0,3.35-.72c4.35-2.21,8.91-4.16,12.87-6.95A86,86,0,0,1,41.12,192c5.77-1.74,11.32-4.19,17-6.31a7.26,7.26,0,0,1,8.06,1.62,19,19,0,0,0,5.42,3.34A54.69,54.69,0,0,0,78,192.37c7,1.95,12.69,5.74,16.4,12.24a60.21,60.21,0,0,0,5.41,8.17,4.14,4.14,0,0,0,3.75,1c4.36-1.82,4.59-1.83,6.65,2.59,2.27,4.86,5.12,9.14,10.52,11.12a90.66,90.66,0,0,0,29.12,5.56c7.41.19,12.8-2.49,15.86-9.17,5.66-12.34,14.89-21.66,25-30.31a40.14,40.14,0,0,0,13.42-22,22.09,22.09,0,0,0-3.64-18.87c-9.91-14.1-16.32-29.85-21.19-46.23-2.66-8.94-4.54-18.11-7-27.11C171.22,75.55,169.43,72,164.88,69.92Z"/><path class="cls-1" d="M159.46,52.46c-6.18,6-11.6,6.5-17.22,1.94-2.25-1.82-2.6-3.46-.34-5.76,6-6.11,5.93-7-.26-13.21-1.08-1.07-2.31-2-3.34-3.1-1.71-1.82-3.47-2.15-6-1.4-6.4,1.94-11.58-.9-13.59-7.43a10.56,10.56,0,0,0-6.9-7.54c-6.64-2.51-7.47-7.89-2.19-12.72,3.22-2.93,7.23-3.68,11.47-3a3.39,3.39,0,0,1,2.26,1.39c2.75,5.05,5.33,10.2,8,15.28a10.33,10.33,0,0,0,1.7,1.88c.62-.59,1.56-1.08,1.8-1.81,1.24-3.75,4-5.23,7.67-5.61,5.79-.61,11.56-1.31,17.36-1.72,1-.07,2.76.94,3,1.78,1.2,4.37,5.35,5.75,8.41,7C182,22.72,191,28.21,195.61,39.49c3,7.29,7.1,13.93,14.59,17.77,2.07,1.06,1.71,3.63-.42,4.74a68.52,68.52,0,0,1-6.32,3c-3.09,1.23-7.52-.45-10.23-4.41a73.65,73.65,0,0,1-5.41-10.16c-2.46-5.11-5.61-5.55-9.21-1.13-.66.81-1.24,1.69-1.85,2.55-4.73,6.67-8.67,7.27-15.21,2.28C160.91,53.61,160.27,53.1,159.46,52.46Z"/><path class="cls-1" d="M133.23,24.5c-5-1-6.5-3.94-7.7-7.43a29.61,29.61,0,0,0-3.79-7.43,5.33,5.33,0,0,0-4-2C115.81,7.8,114,9,111.83,9.92a30.86,30.86,0,0,0,3.3,1.55c4.49,1.49,7.1,4.53,8.39,9.08C125.11,26.19,126.45,26.74,133.23,24.5Z"/><path class="cls-1" d="M208.12,28.06c-.23-3.61-.78-7.24-.54-10.81.11-1.6,1.53-3.41,2.84-4.58,3.18-2.85,6.13-1.75,7,2.47.48,2.38.67,4.83,1.09,8,3.06,0,6.4-.12,9.72,0,3.06.13,4.38,2.45,2.49,4.71-4.39,5.28-8.74,10.66-13.76,15.3-4.81,4.45-10.56,4.24-14.58.58-3.13-2.85-3.54-5.86-1-9.28A21.13,21.13,0,0,1,205,30.78a41.1,41.1,0,0,1,4-2.62ZM221.92,31l-1-1.5c-4.52,2.1-9.08,4.11-13.52,6.37-.94.48-1.41,1.88-2.09,2.86,1.24.69,2.43,1.76,3.76,2a4.94,4.94,0,0,0,3.56-1C215.85,36.87,218.85,33.87,221.92,31Z"/><path class="cls-1" d="M137.08,244.33a6.66,6.66,0,0,1-2.12,1.14,27.05,27.05,0,0,1-4-.09c.15-1.34-.19-3.08.53-4a6.49,6.49,0,0,1,10.9.91,10.66,10.66,0,0,1,.74,10.65A50,50,0,0,1,131,269.1a15.74,15.74,0,0,1-3.17,2.17c-4.65,2.48-8,1.07-9.13-4.09A27.58,27.58,0,0,1,119.89,251c1.14-3,3.38-5,6.49-3.83C130.71,248.81,134.34,248.86,137.08,244.33Zm-12,23.33c5.77-3.42,9.06-8.83,11.83-13.8-3.49-.34-6.81-.72-10.13-1a3.32,3.32,0,0,0-2.42.58C122.21,256,122.58,264.7,125.12,267.66Z"/><path class="cls-1" d="M246.11,41.74c2.64-.75,4.64-.54,5.09,2.79.1.79,1.2,1.41,1.51,2.23.47,1.22,1.3,3,.8,3.71A4.9,4.9,0,0,1,249.73,52c-4.47-.28-8.56-4.37-9.34-9-.34-2.05-.9-4.68,2-5,1.23-.14,2.69,1.75,4.05,2.72Z"/><path class="cls-1" d="M264.65,52.31c1.35,1.82.81,6.09-1.86,7.69a3.68,3.68,0,0,1-3.16,0,7.65,7.65,0,0,1-4-7.58,6.66,6.66,0,0,1,5.43-6.1,5.26,5.26,0,0,1,4.22,1.18C265.83,48.07,265,50.06,264.65,52.31Z"/><path class="cls-1" d="M296.49,122.76c0,3.27-2,4.15-3.81,4-1-.06-2.88-2.19-2.67-2.75a8.08,8.08,0,0,1,3.27-3.81C293.69,120,295.38,121.87,296.49,122.76Z"/></g></g></svg>