<?xml version="1.0" encoding="utf-8"?>
<!-- Generator: Adobe Illustrator 16.0.4, SVG Export Plug-In . SVG Version: 6.00 Build 0)  -->
<!DOCTYPE svg PUBLIC "-//W3C//DTD SVG 1.1//EN" "http://www.w3.org/Graphics/SVG/1.1/DTD/svg11.dtd">
<svg version="1.1" id="Layer_1" xmlns="http://www.w3.org/2000/svg" xmlns:xlink="http://www.w3.org/1999/xlink" x="0px" y="0px"
	 width="606.602px" height="396.576px" viewBox="0 0 606.602 396.576" enable-background="new 0 0 606.602 396.576"
	 xml:space="preserve">
<path d="M151.797,294.353c0.265-0.133,0.83-0.348,0.809-0.693c-0.012-0.186-0.421-0.2-0.553-0.189
	c-0.132,0.012-0.55,0.035-0.539,0.223l0.002,0.005c0.01,0.144-0.183,0.22-0.3,0.284c-0.139,0.08-0.283,0.151-0.43,0.22
	c-0.314,0.146-0.639,0.272-0.955,0.409c-0.652,0.239-1.242,0.623-1.727,1.121c-0.109,0.125,0.192,0.211,0.26,0.224l2.032,0.379
	c0.252,0.06,0.517,0.023,0.744-0.101c0.191-0.14-0.074-0.25-0.205-0.273l-1.593-0.297c0.441-0.39,0.945-0.704,1.505-0.891
	C151.167,294.64,151.49,294.508,151.797,294.353z M123.927,284.662v-0.002c2.913,2.524,6.068,4.755,9.419,6.659
	c3.44,2.084,6.927,4.102,10.457,6.052c7.128,3.956,14.4,7.688,21.7,11.347c3.918,1.963,7.823,4.107,12.089,5.342
	c0.27,0.078,1.271-0.217,0.731-0.373c-3.802-1.268-7.479-2.88-10.986-4.816c-3.539-1.769-7.067-3.559-10.583-5.371
	c-7.101-3.673-14.116-7.48-20.956-11.561c-3.857-2.128-7.489-4.641-10.839-7.5C124.725,284.224,123.732,284.483,123.927,284.662z
	 M111.687,293.269c-0.62,1.601,0.8,2.961,1.99,3.918c1.503,1.161,3.127,2.156,4.844,2.969c3.5,1.727,7.105,3.218,10.523,5.1
	c6.854,3.77,13.188,8.292,19.625,12.645c3.646,2.465,7.337,4.875,11.172,7.078c0.223,0.127,0.833,0.159,1-0.084
	c0.505-0.752,1.179-1.374,1.967-1.818c0.218-0.124-0.1-0.247-0.206-0.273c-0.252-0.055-0.516-0.02-0.744,0.1
	c-0.661,0.376-1.241,0.873-1.721,1.457c-6.406-3.731-12.407-8.022-18.535-12.135c-3.19-2.142-6.424-4.236-9.769-6.164
	c-3.257-1.877-6.635-3.5-10.073-5.062c-1.899-0.816-3.735-1.772-5.493-2.861c-1.414-0.914-4.023-2.582-3.605-4.488
	c2.355,0.597,4.066,2.441,5.735,4.021c0.849,0.841,1.79,1.583,2.808,2.21c1.078,0.605,2.21,1.113,3.38,1.516
	c1.179,0.432,2.379,0.82,3.539,1.299c1.21,0.529,2.38,1.147,3.5,1.849c2.127,1.38,4.486,2.366,6.963,2.911
	c3.099,0.668,6.264,0.979,9.434,0.924c0.135-0.006,0.746-0.107,0.46-0.325c-3.871-2.921-7.659-5.993-11.7-8.709
	c-3.922-2.638-8.418-4.159-12.616-6.329c-2.25-1.257-4.568-2.386-6.945-3.382c-0.26-0.1-1.284,0.117-0.76,0.316l0.007,0.003
	c2.136,0.883,4.218,1.893,6.232,3.025c2.024,1.061,4.118,1.973,6.216,2.893c2.159,0.914,4.242,2,6.229,3.246
	c1.962,1.267,3.81,2.685,5.663,4.085l6.3,4.756c-2.557-0.024-5.105-0.285-7.609-0.804c-1.413-0.232-2.787-0.654-4.087-1.252
	c-1.129-0.539-2.179-1.2-3.245-1.834c-2.135-1.191-4.379-2.179-6.7-2.945c-1.22-0.412-2.394-0.945-3.506-1.594
	c-1.057-0.69-2.035-1.494-2.918-2.396c-1.848-1.777-3.801-3.646-6.553-4.012C112.331,293.101,111.773,293.058,111.687,293.269z
	 M229.088,247.948c-0.215,0.081-0.044,0.252,0.088,0.324l5.5,3.039c0.216,0.143,0.477,0.199,0.732,0.156
	c0.216-0.08,0.044-0.251-0.089-0.324l0.001,0.002l-5.5-3.041C229.605,247.963,229.343,247.907,229.088,247.948z M230.769,256.172
	h0.004c0,0.001-0.005,0.005,0.009,0c0.139,0.007,0.382-0.042,0.246-0.207c-0.186-0.175-0.427-0.278-0.682-0.295l-0.009,0.002
	c-0.297-0.059-0.601,0.062-0.775,0.31c-0.135,0.229-0.164,0.505-0.081,0.756c0.096,0.244,0.14,0.504,0.13,0.766
	c-0.016,0.105-0.057,0.205-0.118,0.292c-0.029,0.034-0.062,0.064-0.101,0.089c-0.012,0.008-0.08,0.032-0.032,0.018
	c-0.027,0.008-0.057,0.014-0.086,0.018c-0.062,0.004-0.11,0.058-0.107,0.121c0.001,0.004,0.001,0.007,0.002,0.011
	c0.017,0.078,0.132,0.157,0.2,0.192c0.221,0.131,0.478,0.186,0.732,0.154c0.23-0.037,0.423-0.193,0.506-0.412
	c0.078-0.232,0.078-0.486,0-0.719c-0.099-0.238-0.134-0.498-0.1-0.752c0.025-0.1,0.076-0.189,0.146-0.262
	C230.688,256.221,230.727,256.193,230.769,256.172z M216.818,236.528c0.2-0.101,0.162-0.211-0.02-0.291
	c-0.254-0.077-0.528-0.061-0.771,0.047l-0.004,0.002c-0.334,0.123-0.522,0.479-0.437,0.824c0.146,0.383,0.493,0.653,0.899,0.701
	c0.543,0.081,1.095,0.078,1.637-0.012c0.494-0.023,0.973,0.178,1.3,0.551c0.546,0.66,1.232,1.191,2.009,1.555
	c0.978,0.326,2.156,0.082,3.036,0.644c0.237,0.104,0.506,0.114,0.751,0.03c0.136-0.041,0.378-0.163,0.177-0.291
	c-0.828-0.387-1.731-0.589-2.646-0.592c-0.817-0.172-1.546-0.631-2.056-1.293c-0.502-0.584-1.21-0.951-1.976-1.027
	c-0.53,0.07-1.065,0.095-1.6,0.075C216.796,237.369,216.376,236.742,216.818,236.528z M208.099,244.956
	c-0.003,0.074,0.101,0.128,0.155,0.15c0.246,0.095,0.518,0.104,0.771,0.027l1.808-0.635c0.081-0.029,0.179-0.074,0.158-0.167
	c-0.021-0.093-0.172-0.133-0.257-0.159c-0.085-0.025-0.169-0.052-0.252-0.08l-0.071-0.025l-0.107-0.037
	c-0.173-0.062-0.344-0.129-0.512-0.2c-0.168-0.072-0.324-0.14-0.485-0.215c-0.079-0.038-0.158-0.076-0.236-0.116l-0.117-0.061
	l-0.067-0.035c0.027,0.015,0.022,0.013-0.016-0.008c-0.229-0.116-0.492-0.151-0.744-0.1c-0.096,0.008-0.187,0.048-0.256,0.114
	c-0.033,0.05-0.02,0.118,0.031,0.151c0.005,0.003,0.011,0.006,0.017,0.008l0.004,0.002c0.56,0.302,1.146,0.544,1.745,0.754
	l-1.401,0.492C208.208,244.837,208.102,244.882,208.099,244.956z M203.182,241.628c0.037,0.042,0.08,0.078,0.127,0.107
	c0.09,0.061,0.187,0.109,0.287,0.148c0.266,0.096,0.546,0.146,0.828,0.151c0.267,0.007,0.534-0.001,0.8-0.024
	c0.02,0,0.029,0,0.027,0h0.146c0,0,0.076,0.011,0.095,0.012c0.037,0.007,0.073,0.016,0.107,0.033h0.01
	c0.022,0.014,0.045,0.027,0.065,0.043c0.022,0.017,0.044,0.035,0.062,0.057c0.059,0.061,0.105,0.131,0.139,0.209
	c0.062,0.137,0.04,0.297-0.057,0.412c-0.134,0.162,0.294,0.244,0.382,0.252c0.199,0.018,0.532,0.025,0.672-0.143
	c0.161-0.21,0.165-0.501,0.011-0.716c-0.203-0.279-0.511-0.464-0.854-0.51c-0.436-0.069-0.879-0.079-1.317-0.028
	c-0.003,0-0.001,0-0.004,0h-0.145c-0.014,0-0.015,0.001-0.014,0.001c-0.005,0-0.003,0-0.011-0.001c0,0-0.061-0.008-0.082-0.01
	c-0.023-0.005-0.065-0.014-0.072-0.016c0.055,0.017-0.026-0.013-0.044-0.02c-0.031-0.016-0.057-0.039-0.085-0.06
	c0.08-0.548,0.159-1.098,0.239-1.646c0.037-0.258-1.047-0.312-1.093,0l0.005,0.003c-0.074,0.505-0.146,1.01-0.219,1.516
	C203.178,241.469,203.142,241.565,203.182,241.628z M173.852,236.274c1.094,0.356,2.248,0.492,3.396,0.399
	c0.078-0.019,0.158-0.024,0.238-0.017c-0.1-0.042,0.048,0.216,0.068,0.277c0.03,0.17,0.099,0.331,0.2,0.472
	c0.297,0.275,0.678,0.442,1.082,0.475c0.521,0.063,1.045,0.093,1.568,0.089c0.325-0.016,0.651-0.005,0.975,0.032
	c0.146,0.033,0.155,0.017,0.25,0.149c0.054,0.09,0.095,0.187,0.122,0.287c0.091,0.393,0.287,0.752,0.567,1.039
	c0.347,0.299,0.768,0.498,1.219,0.576c0.137,0.031,0.612,0.068,0.68-0.1c0.078-0.188-0.224-0.247-0.361-0.276
	c-0.44-0.134-0.789-0.474-0.935-0.911c-0.142-0.373-0.174-0.761-0.577-0.977c-0.438-0.173-0.908-0.245-1.378-0.212
	c-0.562-0.019-1.138,0-1.7-0.06c-0.202,0.003-0.396-0.085-0.525-0.24c-0.115-0.166-0.088-0.379-0.176-0.551
	c-0.221-0.307-0.579-0.484-0.957-0.474c-0.494-0.047-0.988,0.056-1.484,0.034c-0.476-0.026-0.943-0.12-1.399-0.253l0.388-0.974
	c0.083-0.207-0.963-0.386-1.089-0.071l0.005,0.004c-0.145,0.362-0.29,0.724-0.434,1.087
	C173.553,236.181,173.795,236.256,173.852,236.274z M147.018,258.981c-0.009,0.185,0.4,0.248,0.52,0.262l0.001,0.004
	c0.521,0.051,1.041,0.1,1.562,0.154c0.341,0.035,1.054-0.028,1.242,0.291c0.169,0.283,0.067,0.686,0.212,0.988
	c0.109,0.211,0.267,0.393,0.461,0.53c0.5,0.319,1.06,0.533,1.645,0.631c0.84,0.183,1.664,0.431,2.465,0.743
	c3.015,1.225,5.6,3.208,8.725,4.225c0.167,0.054,0.608,0.149,0.751,0c0.144-0.148,0.029-0.235-0.162-0.3
	c-3.234-1.053-5.909-3.171-9.076-4.364c-0.714-0.262-1.445-0.473-2.188-0.631c-0.424-0.06-0.831-0.201-1.2-0.416
	c-0.306-0.255-0.483-0.632-0.485-1.029c-0.057-0.507-0.469-0.899-0.978-0.932c-0.949-0.183-1.961-0.207-2.924-0.301
	C147.469,258.825,147.027,258.798,147.018,258.981z M170.02,269.556c0.169,0.037,0.565,0.062,0.681-0.1
	c0.114-0.162-0.27-0.256-0.363-0.275c-1.213-0.264-2.364-0.759-3.39-1.459c-0.225-0.126-0.486-0.169-0.739-0.121
	c-0.12,0.02-0.418,0.129-0.215,0.268v0.001C167.212,268.688,168.58,269.262,170.02,269.556z M136.492,275.567
	c-0.271-0.078-1.27,0.224-0.726,0.382c11.95,3.483,22.5,10.133,32.005,17.618c1.325,1.043,2.607,2.144,4,3.108
	c0.76,0.527,2.5,2,3.476,1.072c0.211-0.199-0.307-0.259-0.673-0.197c-0.173-0.102-0.637-0.387-0.731-0.442
	c-0.275-0.162-0.544-0.334-0.809-0.51c-0.708-0.474-1.38-0.992-2.043-1.52c-1.121-0.893-2.236-1.791-3.371-2.67
	c-2.243-1.733-4.537-3.411-6.892-5.01c-4.783-3.296-9.857-6.148-15.159-8.522C142.619,277.577,139.587,276.472,136.492,275.567z
	 M271.245,257.191c0.028-0.029,0.042-0.062,0.02-0.103c-0.792-1.073-1.809-1.961-2.979-2.6c-2.055-1.4-4.226-2.65-6.4-3.874
	c-6.395-3.601-12.982-6.894-19.584-10.142c-7.68-3.779-15.41-7.467-23.19-11.062c-6.611-3.076-13.249-6.103-19.912-9.081
	c-2.2-0.978-4.4-1.953-6.605-2.899c-0.98-0.465-1.983-0.876-3.002-1.247c0.446-0.347,0.923-0.75,1.03-1.153
	c0.236-0.887-0.9-2.006-1.436-2.6c-1.408-1.486-2.922-2.87-4.531-4.138c-5-4.101-10.344-7.851-15.689-11.547
	c-6.448-4.459-13-8.794-19.579-13.073c-5.844-3.8-11.719-7.557-17.625-11.271c-3.252-2.048-6.514-4.084-9.785-6.109
	c-0.15-0.093-0.303-0.184-0.452-0.279c0.007,0-0.11-0.086-0.161-0.117c-0.17-0.116-0.35-0.216-0.537-0.3
	c-0.429-0.199-0.903-0.278-1.373-0.228c-0.396,0.075-0.76,0.262-1.051,0.54c-0.555,0.466-1.109,0.931-1.666,1.392
	c-2.94,2.444-5.887,4.881-8.839,7.31c-4.779,3.946-9.562,7.889-14.348,11.828c-5.903,4.862-11.81,9.721-17.719,14.578
	c-6.267,5.152-12.539,10.301-18.817,15.447c-5.87,4.814-11.745,9.623-17.625,14.428c-4.757,3.88-9.522,7.758-14.295,11.633
	c-2.913,2.36-5.82,4.729-8.776,7.041c-0.492,0.414-1.006,0.799-1.538,1.16h-1.96c-0.203,0-0.273,0.042-0.275,0.1
	c-0.053,0.034-0.048,0.091,0.071,0.18h0.004c3.291,2.464,6.729,4.766,10.113,7.116c6.338,4.405,12.69,8.794,19.057,13.165
	c7.093,4.881,14.196,9.751,21.311,14.609c5.611,3.832,11.235,7.649,16.872,11.451c1.555,1.041,3.106,2.086,4.681,3.1
	c0.37,0.238,0.737,0.492,1.127,0.699c0.241,0.129,1.152,0.422,0.927-0.052c-0.117-0.241-0.527-0.483-0.734-0.657
	c-0.492-0.414-0.995-0.818-1.5-1.223c-1.72-1.381-3.46-2.74-5.2-4.1c-5.475-4.258-10.986-8.479-16.534-12.661
	c-6.54-4.95-13.121-9.856-19.741-14.716c-5.601-4.101-11.222-8.185-16.992-12.07c-1.852-1.246-3.715-2.486-5.654-3.609
	c-0.596-0.354-1.211-0.676-1.843-0.963c-0.658-0.281-1.372-0.407-2.087-0.369h-0.104c1.591-1.139,3.134-2.342,4.604-3.634
	c3.914-3.142,7.814-6.301,11.7-9.477c5.396-4.394,10.785-8.794,16.168-13.2c6.111-5.004,12.22-10.012,18.322-15.023
	c6.128-5.029,12.251-10.062,18.371-15.1c5.423-4.461,10.844-8.923,16.263-13.388c4-3.296,7.996-6.597,11.988-9.9
	c1.859-1.537,3.721-3.071,5.566-4.621c0.044-0.036,0.084-0.077,0.13-0.112c0.373-0.395,0.982-0.447,1.418-0.123
	c0.232,0.128,0.452,0.279,0.677,0.418c1.25,0.771,2.496,1.545,3.74,2.321c4.905,3.061,9.792,6.146,14.66,9.256
	c6.462,4.133,12.882,8.32,19.261,12.559c6.132,4.093,12.229,8.245,18.147,12.607c2.318,1.709,4.614,3.45,6.824,5.281
	c1.54,1.215,2.978,2.553,4.301,4c0.431,0.5,1.47,1.574,1.064,2.276c-0.561,0.657-1.203,1.24-1.913,1.733
	c-3.269,2.887-6.563,5.748-9.856,8.611c-5.101,4.436-10.207,8.866-15.319,13.291c-6.028,5.225-12.06,10.445-18.094,15.663
	c-5.934,5.129-11.865,10.256-17.794,15.381c-4.887,4.222-9.773,8.442-14.66,12.662c-2.877,2.485-5.755,4.97-8.632,7.453l-1.154,1
	c-0.234,0.2,0.723,0.629,0.955,0.43l4.773-4.12c4.111-3.549,8.221-7.099,12.328-10.647c5.613-4.848,11.224-9.696,16.833-14.546
	c6.14-5.307,12.277-10.615,18.412-15.926c5.7-4.934,11.398-9.87,17.094-14.81c4.232-3.674,8.46-7.353,12.683-11.037
	c1.267-1.108,2.533-2.22,3.8-3.336c0.045-0.04,0.099-0.083,0.153-0.127l0.079,0.031c0.58,0.229,1.153,0.474,1.729,0.718
	c2,0.85,3.982,1.725,5.965,2.6c6.339,2.811,12.649,5.678,18.932,8.601c7.697,3.562,15.356,7.192,22.978,10.894
	c6.793,3.314,13.565,6.682,20.182,10.301c2.384,1.299,4.757,2.639,7.042,4.094c1.391,0.781,2.673,1.744,3.813,2.861
	c0.104,0.11,0.187,0.237,0.27,0.365c-0.069,0.033-0.134,0.069-0.19,0.108c-1.23,0.86-2.348,1.899-3.486,2.86
	c-2.274,1.921-4.535,3.854-6.783,5.799c-6.926,5.967-13.833,11.952-20.722,17.955c-8.397,7.295-16.801,14.582-25.212,21.862
	c-8.03,6.94-16.088,13.855-24.174,20.744c-5.652,4.8-11.3,9.614-17.141,14.212c-1.332,1.131-2.742,2.167-4.22,3.1
	c-0.117,0.076-0.243,0.135-0.373,0.184c-0.052-0.004-0.211,0.005-0.292-0.01c-0.836-0.172-1.642-0.471-2.389-0.885
	c-0.472-0.242-5.074-3.412-5.36-2.4c-0.063,0.223,0.272,0.668,0.356,0.875c0.086,0.208,0.16,0.419,0.233,0.631
	c-0.571-0.386-1.149-0.76-1.739-1.118c-3.918-2.606-7.953-5.059-12.009-7.47c-9.879-5.877-19.939-11.487-30.038-17.023
	c-7.71-4.229-15.452-8.403-23.228-12.527c-1.189-0.631-2.38-1.26-3.571-1.887c-0.296-0.156-1.238-0.101-0.625,0.219h0.001
	c4.708,2.474,9.399,4.974,14.073,7.5c9.967,5.365,19.875,10.825,29.724,16.381c8.89,5.045,17.851,10.105,26.248,15.857
	c0.5,0.341,0.995,0.692,1.49,1.044c0.359,1.169,0.804,2.312,1.337,3.411c0.956,1.848,2.586,3.374,4.784,3.313
	c0.208,0.492,0.399,0.991,0.556,1.503c0.333,1.008,0.371,2.051,0.653,3.057c0.176,0.475,0.703,0.717,1.177,0.542
	c0.061-0.022,0.117-0.051,0.172-0.085c0.543-0.402,1.039-0.865,1.476-1.381c3.2-3.01,6.407-6.014,9.622-9.016l20.331-19.049
	l24.848-23.281l23.601-22.11c5.372-5.034,10.745-10.067,16.118-15.1c1.15-1.077,2.301-2.155,3.45-3.233
	c0.31-0.29,0.619-0.579,0.906-0.888c0.525-0.525,0.955-1.138,1.271-1.81c0.257-0.514,0.353-1.094,0.272-1.662
	C271.261,257.214,271.251,257.205,271.245,257.191z M85.719,301.01C85.82,301.032,85.646,301.021,85.719,301.01L85.719,301.01z
	 M17.087,251.21c0.162,0.009,0.324,0.006,0.487,0c0.058,0.02,0.239,0.059,0.077,0c0.101,0.033,0.189,0.07,0.282,0.107
	c0.095,0.034,0.187,0.075,0.275,0.123c1.51,0.766,2.97,1.627,4.371,2.578c5.264,3.4,10.34,7.069,15.399,10.733
	c6.459,4.679,12.866,9.418,19.224,14.218c5.898,4.436,11.77,8.904,17.612,13.406c2.711,2.092,5.444,4.171,8.108,6.316
	c-0.072-0.048-0.144-0.095-0.216-0.143c-5.083-3.386-10.128-6.826-15.172-10.264c-6.854-4.673-13.698-9.358-20.533-14.057
	c-6.601-4.534-13.193-9.08-19.779-13.64c-4.2-2.907-8.399-5.8-12.55-8.767c-0.283-0.203-0.564-0.408-0.846-0.613h1.562
	c0.084,0.016,0.157,0.013,0.221,0H17.087z M162.296,344.763c-0.092-0.245-0.169-0.496-0.252-0.744
	c0.344,0.261,0.695,0.515,1.03,0.785c0.806,0.596,1.534,1.291,2.169,2.067c0.522,0.751,0.97,1.548,1.353,2.375
	C164.249,349.418,163.008,346.658,162.296,344.763z M269.373,259.593c-0.578,0.723-1.221,1.393-1.92,1.999l-11.252,10.543
	c-6.96,6.521-13.919,13.041-20.878,19.562l-24.731,23.172l-22.705,21.272l-15.172,14.215c-0.97,0.91-1.939,1.818-2.909,2.726
	c-0.274,0.259-0.544,0.521-0.815,0.783c-0.081-0.588-0.197-1.171-0.35-1.746c-0.198-0.865-0.502-1.695-0.863-2.5
	c1.942-0.447,3.626-2.092,5.095-3.257c6.985-5.537,13.618-11.485,20.266-17.369c8.543-7.566,17.028-15.189,25.455-22.871
	c6.105-5.543,12.194-11.103,18.266-16.678c0.902-0.828,1.805-1.657,2.706-2.487c0.215-0.2-0.765-0.552-1-0.34
	c-3.425,3.155-6.857,6.302-10.3,9.44c-7.667,7.005-15.358,13.983-23.075,20.936c-7.979,7.178-15.981,14.336-24.128,21.347
	c-2.894,2.491-5.8,4.976-8.795,7.364c-0.953,0.764-1.915,1.52-2.913,2.23c-0.523,0.416-1.094,0.771-1.7,1.055
	c-0.045,0.019-0.087,0.026-0.132,0.042c-0.506-0.999-1.134-1.937-1.876-2.787c-1.251-1.169-2.577-2.251-3.957-3.261
	c-0.154-0.469-0.309-0.938-0.494-1.396c-0.045-0.173-0.11-0.34-0.184-0.502c0.162,0.095,0.321,0.193,0.478,0.29
	c1.193,0.794,2.44,1.505,3.731,2.129c0.988,0.553,2.107,0.829,3.24,0.8c0.389-0.104,0.752-0.285,1.07-0.531
	c1.6-1.035,3.084-2.252,4.562-3.428c2.555-2.031,5.069-4.109,7.574-6.193c7.2-5.993,14.306-12.08,21.399-18.176
	c8.4-7.216,16.775-14.453,25.125-21.713c7.769-6.739,15.535-13.48,23.301-20.223c5.274-4.573,10.54-9.159,15.876-13.669
	c0.895-0.756,1.792-1.518,2.713-2.249C269.952,258.654,269.712,259.156,269.373,259.593z M196.126,238.961
	c-0.214,0.208,0.476,0.388,0.585,0.399c1.86,0.182,3.734,0.163,5.591-0.055c0.212-0.025,0.234-0.164,0.075-0.281
	c-0.223-0.141-0.486-0.203-0.749-0.176c-1.383,0.166-2.775,0.204-4.165,0.128c0.217-0.209,0.434-0.417,0.65-0.626
	c0.216-0.207-0.77-0.561-0.992-0.346l0.005-0.006C196.793,238.319,196.462,238.642,196.126,238.961z M151.749,258.213
	c0.68,0.393,1.421,0.667,2.192,0.812c1.559,0.336,3.347,0.3,4.7,1.194c0.22,0.134,0.479,0.188,0.733,0.153
	c0.107-0.014,0.438-0.118,0.229-0.257c-1.427-0.939-3.145-1.06-4.808-1.354c-0.823-0.101-1.616-0.376-2.324-0.808
	c-0.62-0.574-1.312-1.064-2.059-1.458c-0.24-0.102-0.51-0.104-0.751-0.009c-0.178,0.138,0,0.24,0.158,0.301v0.001
	C150.578,257.069,151.076,257.797,151.749,258.213z M195.215,236.704c0.237,0.103,0.506,0.111,0.75,0.025
	c0.219-0.107-0.033-0.252-0.151-0.3c-0.954-0.339-1.967-0.483-2.978-0.425c-0.101,0-0.5,0.01-0.416,0.2s0.476,0.231,0.645,0.231
	l0.002,0.002c0.214,0,0.431,0,0.645,0.006c0.092,0,0.185,0.005,0.275,0.01l0.186,0.01c0.119,0.008-0.093-0.009,0.038,0
	c0.1,0.012,0.2,0.023,0.294,0.036c0.027,0,0.193,0.03,0.06,0.008c0.045,0.007,0.09,0.019,0.133,0.029s0.101,0.022,0.154,0.038
	l0.064,0.016c-0.053-0.015-0.053-0.015,0.005,0C195.02,236.625,195.12,236.662,195.215,236.704z M185.603,240.674
	c-0.207,0.052-0.229,0.17-0.052,0.284h0.001c1.934,1.267,3.93,2.44,5.989,3.521c0.232,0.127,0.501,0.17,0.762,0.125
	c0.188-0.047,0.25-0.183,0.051-0.287c-2.057-1.078-4.054-2.252-5.991-3.521C186.133,240.665,185.863,240.621,185.603,240.674z
	 M189.231,234.635c-0.219,0.101,0.05,0.259,0.165,0.3c0.243,0.089,0.51,0.089,0.752,0c1.039-0.49,2.145-0.824,3.28-0.994
	c0.132-0.02,0.405-0.11,0.224-0.261c-0.22-0.135-0.481-0.186-0.735-0.142v-0.003C191.641,233.72,190.399,234.09,189.231,234.635z
	 M227.698,242.754c-0.161-0.146-0.493-0.101-0.686-0.049c-0.084,0.022-0.5,0.16-0.339,0.3l0.005-0.001
	c1.853,1.661,3.985,2.979,6.3,3.892c0.246,0.078,0.513,0.066,0.751-0.031c0.11-0.043,0.382-0.213,0.15-0.301
	C231.608,245.673,229.515,244.383,227.698,242.754z M171.595,239.019c1.716,1.475,3.68,2.633,5.8,3.42
	c1.12,0.391,2.264,0.706,3.424,0.947c1.259,0.299,2.445,0.847,3.487,1.612c0.842,0.642,1.732,1.218,2.662,1.724
	c1.057,0.461,2.168,0.781,3.308,0.954c2.16,0.552,4.188,1.532,5.96,2.884c1.833,1.377,3.896,2.416,6.093,3.07
	c0.622,0.154,0.724-0.244,0.1-0.4c-3.952-0.974-6.639-4.31-10.479-5.557c-1.128-0.365-2.324-0.471-3.454-0.818
	c-1.063-0.393-2.055-0.957-2.936-1.67c-0.786-0.603-1.633-1.121-2.525-1.547c-1.08-0.404-2.191-0.715-3.324-0.928
	c-2.547-0.631-4.911-1.837-6.923-3.516l0.366-0.038c0.246-0.027,0.188-0.161,0.07-0.282c-0.223-0.145-0.489-0.203-0.752-0.164
	l0.004,0.007l-0.734,0.077C171.621,238.808,171.466,238.907,171.595,239.019z M116.168,283.244c-0.131,0-0.423,0.063-0.254,0.233
	h-0.001c2.387,2.393,5.175,4.35,8.237,5.779c0.229,0.123,0.498,0.15,0.747,0.077c0.188-0.121,0.026-0.24-0.129-0.313
	c-2.934-1.377-5.604-3.258-7.887-5.558C116.679,283.304,116.425,283.226,116.168,283.244z M220.897,242.993
	c-0.115,0.021-0.42,0.136-0.212,0.27c2.021,1.289,4.147,2.401,6.359,3.325c0.244,0.103,0.517,0.117,0.771,0.041
	c0.187-0.069,0.223-0.2,0.018-0.29v0.001c-2.154-0.898-4.227-1.98-6.194-3.233C221.412,242.981,221.15,242.942,220.897,242.993z
	 M282.968,34.304h5.46c0.063,0,0.308-0.007,0.308-0.114V29.9l2.19,2.05c0.365,0.383,0.753,0.745,1.159,1.085
	c0.512,0.381,1.399,0.237,2.011,0.237h4.159c0.721,0.037,1.442,0.037,2.163,0c0.575-0.06,1.1-0.816,1.483-1.179
	c0.717-0.671,1.434-1.342,2.15-2.013v1.339c0,0.262-0.056,0.468,0.129,0.662c0.207,0.172,0.433,0.32,0.673,0.441
	c0.738,0.461,4.553,2.667,4.629,0.637c0.011-0.321-1.053-0.485-1.062-0.237c-0.038,1.045-1.163,0.362-1.722,0.075
	c-0.547-0.285-1.072-0.606-1.579-0.957v-2.97c0-0.3-0.832-0.472-1.031-0.286c-1.329,1.247-2.658,2.493-3.989,3.738
	c-0.029,0.028-0.25,0.207-0.324,0.291c-0.515-0.032-1.042,0-1.556,0h-5.407l-4.12-3.859c-0.105-0.1-1.016-0.425-1.016-0.121v5.003
	h-4.397v-4.766c0-0.325-1.062-0.476-1.062-0.237l-0.006,0.003v5.116C282.213,34.221,282.766,34.304,282.968,34.304z
	 M370.504,173.318c0.07-0.04,0.14-0.079,0.21-0.118c-0.029,0.039-0.043,0.08-0.016,0.125l-0.018-0.003l1.399,2.276l3.821,6.191
	c1.875,3.037,3.749,6.074,5.624,9.111c2.297,3.719,4.593,7.439,6.889,11.162c2.517,4.074,5.032,8.15,7.548,12.227l7.586,12.289
	c2.368,3.836,4.735,7.674,7.1,11.51l6,9.727l4.3,6.965l1.351,2.187c0.213,0.39,0.446,0.769,0.699,1.134
	c0.032,0.045,0.062,0.092,0.089,0.141c0.134,0.219,0.749,0.087,0.917-0.008l7.765-4.301l18.514-10.262
	c7.457-4.133,14.915-8.267,22.373-12.4L492,220.549c2.133-1.182,4.267-2.364,6.399-3.548c1-0.553,2.031-1.073,3.006-1.666
	c0.044-0.027,0.09-0.049,0.134-0.075c0.086-0.047,0.183-0.114,0.115-0.213l-1.521-2.249l-4.12-6.086
	c-2.039-3.014-4.078-6.027-6.117-9.039c-2.489-3.678-4.979-7.355-7.467-11.032l-8.144-12.031c-2.752-4.066-5.504-8.133-8.256-12.2
	l-7.7-11.372c-2.157-3.191-4.316-6.381-6.475-9.57c-1.561-2.304-3.12-4.608-4.679-6.912c-0.681-1.125-1.418-2.214-2.209-3.264
	c-0.036-0.044-0.064-0.1-0.101-0.143c-0.144-0.213-0.742-0.09-0.917,0.009l-7.381,4.17l-17.722,10.021
	c-7.149,4.039-14.299,8.078-21.449,12.117c-6.182,3.494-12.363,6.987-18.547,10.479c-3,1.7-6.072,3.316-9.02,5.1
	c-0.043,0.026-0.086,0.049-0.129,0.073C369.218,173.393,370.263,173.46,370.504,173.318z M377.886,169.148l17.728-10.014
	c7.15-4.039,14.301-8.079,21.451-12.118l18.546-10.478l6.115-3.454c0.777-0.439,1.6-0.858,2.373-1.326l1.265,1.87
	c1.373,2.03,2.746,4.059,4.119,6.085c2.039,3.014,4.078,6.027,6.118,9.039l7.466,11.033c2.716,4.011,5.43,8.021,8.144,12.03
	l8.256,12.2l7.7,11.373c2.157,3.19,4.315,6.379,6.476,9.569l4.679,6.911c0.48,0.713,0.962,1.426,1.444,2.136
	c0.213,0.403,0.47,0.781,0.764,1.129c0.01,0.011,0.017,0.024,0.025,0.035l-7.575,4.194c-6.171,3.422-12.342,6.842-18.514,10.262
	c-7.457,4.133-14.914,8.267-22.372,12.4c-6.446,3.572-12.892,7.145-19.335,10.718c-2.134,1.181-4.267,2.363-6.4,3.548
	c-0.807,0.446-1.658,0.873-2.459,1.349l-1.164-1.892l-3.821-6.191c-1.874-3.036-3.749-6.073-5.623-9.109
	c-2.297-3.721-4.594-7.441-6.89-11.162l-7.547-12.227c-2.528-4.098-5.057-8.194-7.585-12.289l-7.101-11.511
	c-2-3.242-4-6.483-6-9.725l-4.3-6.966c-0.672-1.089-1.268-2.3-2.05-3.32c-0.034-0.044-0.059-0.1-0.088-0.143
	c-0.088-0.142-0.48-0.134-0.761-0.049C373.276,171.753,375.581,170.451,377.886,169.148z M441.696,177.994l3.101-1.515
	c0.365-0.179-0.61-0.525-0.87-0.4l-8.517,4.167l-13.5,6.6l-3.1,1.515c-0.366,0.179,0.61,0.525,0.87,0.4l-0.001-0.004l8.517-4.163
	C432.695,182.394,437.195,180.194,441.696,177.994z M421.619,205.131c0.001-0.001,0.001-0.001,0.002-0.001L421.619,205.131
	C421.62,205.13,421.619,205.13,421.619,205.131z M437.457,211.924c-0.039,0.024-0.076,0.048-0.116,0.071
	c0.182-0.1-0.241,0.109-0.312,0.142l-3.382,1.585c-1.45-1.499-2.81-3.084-4.047-4.766c-0.166-0.208-0.7-0.173-0.914-0.072
	c-1.853,0.828-3.642,1.792-5.352,2.885c-0.408,0.247-0.783,0.547-1.114,0.891c-0.184,0.209-0.184,0.465-0.35,0.662
	c-0.356,0.282-0.774,0.478-1.221,0.57c-0.637,0.211-1.3,0.37-1.95,0.519c-0.806,0.183-1.618,0.33-2.433,0.469l-0.771-0.722
	l9.058-4.752c4.91-2.578,9.821-5.154,14.731-7.73l3.368-1.768c0.039-0.02,0.066-0.057,0.072-0.1v-4.093
	c0-0.342-0.927-0.17-1.073-0.033l-1.865,1.734c-0.582,0.635-1.24,1.197-1.959,1.674c-1.762,0.897-3.573,1.694-5.426,2.39
	c-1.634,0.561-3.205,1.288-4.689,2.17c-0.698,0.482-1.507,0.779-2.351,0.863c-1.098,0.141-2.203,0.209-3.31,0.208
	c-0.558-0.073-1.122,0.058-1.59,0.368c-0.54,0.473-1.024,1.004-1.444,1.584c-0.945,1.194-1.785,2.46-2.745,3.644
	c-0.01-0.018-0.012-0.039-0.022-0.058c-0.512-0.986-1.409-1.8-1.817-2.837c-0.346-0.878,0.673-1.417,1.342-1.858
	c1.233-0.814,2.55-1.521,3.837-2.256c1.724-1.057,3.516-1.998,5.363-2.818c2.054-0.846,4.153-1.6,6.257-2.33
	c1.8-0.625,3.61-1.23,5.432-1.814c0.559-0.18,1.524-0.263,1.749-0.819c0.584-1.451,1.004-2.962,1.255-4.506
	c0.066-0.411,0.257-1.189-0.156-1.5c-0.296-0.151-0.635-0.193-0.958-0.121c-0.756,0.154-1.486,0.416-2.167,0.778
	c-0.431,0.131-0.868,0.234-1.312,0.307c-0.313,0.097-0.617,0.226-0.904,0.385c-0.871,0.448-1.7,0.975-2.526,1.491
	c-0.882,0.549-1.757,1.112-2.667,1.621c-0.312,0.174-0.632,0.317-0.954,0.472c-0.039,0.018-0.079,0.033-0.121,0.044
	c-0.004,0.001-0.005,0.002-0.009,0.003c-0.19,0.031-0.354,0.04-0.533,0.088c-0.861,0.292-1.686,0.685-2.455,1.171
	c-0.949,0.527-1.882,1.1-2.874,1.552c-0.653,0.3-0.904,0.183-1.587,0.516c-0.809,0.44-1.575,0.953-2.29,1.533
	c-0.832,0.621-1.648,1.267-2.525,1.832c-0.263,0.19-0.549,0.344-0.849,0.463c-0.032,0.002-0.06,0.004-0.105,0.008
	c-0.156,0.012-0.312,0.033-0.467,0.062c-0.318,0.07-0.627,0.182-0.918,0.33c-0.399,0.166-0.762,0.41-1.064,0.721
	c-0.074,0.136-0.133,0.279-0.176,0.429c-0.456,0.993-1.694,1.471-2.666,1.95c-0.146-0.452-0.324-0.894-0.541-1.316
	c-0.132-0.256-1.2-0.152-1.049,0.13l0.006-0.002c0.217,0.451,0.403,0.916,0.559,1.392c0.059,0.262,0.295,0.445,0.562,0.436
	c0.285,0.025,0.571-0.027,0.828-0.152c0.568-0.256,1.141-0.552,1.683-0.849c0.806-0.362,1.445-1.015,1.793-1.826
	c0.011-0.031,0.013-0.043,0.014-0.055c0.124-0.119,0.258-0.229,0.407-0.316c0.264-0.194,0.555-0.349,0.864-0.458
	c0.274-0.089,0.561-0.068,0.84-0.142c0.765-0.274,1.474-0.687,2.092-1.213c0.872-0.63,1.714-1.294,2.593-1.915
	c0.355-0.262,0.725-0.502,1.107-0.721c0.123-0.07,0.251-0.131,0.383-0.181c-0.206,0.075,0.182-0.016,0.3-0.039
	c0.828-0.224,1.617-0.574,2.339-1.038c0.994-0.543,1.964-1.137,2.987-1.632c0.283-0.14,0.575-0.261,0.875-0.361
	c0.276-0.04,0.549-0.102,0.815-0.185c1.782-0.858,3.49-1.862,5.108-3c0.354-0.212,0.709-0.422,1.076-0.609
	c0.168-0.087,0.344-0.158,0.513-0.239c0.047-0.02,0.094-0.038,0.143-0.052c0.007-0.002,0.007-0.003,0.013-0.005
	c0.033-0.001,0.069-0.003,0.126-0.008c0.674-0.088,1.326-0.297,1.926-0.615c0.128-0.058,0.256-0.12,0.386-0.174
	c0.074-0.031,0.438-0.095,0.467-0.2c0.025,0.065,0.039,0.139,0.049,0.192c0.038,0.738-0.066,1.477-0.307,2.175
	c-0.214,0.873-0.477,1.736-0.757,2.594c-0.092,0.233-0.172,0.472-0.238,0.714c-0.014,0.046-0.03,0.091-0.048,0.135
	c-0.321,0.122-0.665,0.209-0.992,0.314c-1.764,0.566-3.521,1.149-5.271,1.749c-2.123,0.731-4.239,1.485-6.318,2.32
	c-1.821,0.757-3.583,1.647-5.271,2.665c-1.339,0.779-2.708,1.516-4.024,2.33c-0.673,0.414-1.827,0.988-2.125,1.751
	c-0.306,0.788,0.732,1.876,1.152,2.47c0.31,0.403,0.583,0.834,0.816,1.285c0.1,0.223,0.066,0.605,0.27,0.77
	c0.437,0.35,1.071-0.028,1.365-0.342c0.461-0.527,0.893-1.08,1.291-1.656c0.574-0.778,1.143-1.562,1.739-2.326
	c0.43-0.613,0.929-1.176,1.486-1.676c0.046-0.035,0.147-0.091,0.206-0.142c-0.09,0.041-0.244-0.003,0.001-0.001
	c0.013-0.011,0.035-0.022,0.041-0.033c-0.009,0.015-0.023,0.025-0.04,0.033h0.04c0.438,0.01,0.878-0.008,1.314-0.023
	c1.18-0.02,2.356-0.136,3.518-0.347c0.783-0.144,1.524-0.46,2.17-0.927c0.629-0.394,1.293-0.729,1.983-1
	c2.021-0.9,4.093-1.7,6.119-2.6c0.738-0.305,1.459-0.654,2.156-1.045c0.701-0.493,1.347-1.061,1.926-1.692l0.781-0.733v2.604
	c0,0.053-0.013,0.303,0.005,0.39c-0.003,0.002-0.003,0.002-0.007,0.004c-0.166,0.085-0.329,0.174-0.494,0.26l-5.609,2.944
	c-5.619,2.947-11.238,5.896-16.856,8.843l-4.265,2.239c-0.048,0.024-0.1,0.108-0.051,0.159c0.336,0.387,0.711,0.737,1.119,1.047
	c0.358,0.141,0.755,0.15,1.12,0.027c1.409-0.224,2.806-0.526,4.182-0.907c0.606-0.151,1.192-0.372,1.747-0.66
	c0.392-0.226,0.42-0.419,0.6-0.763c0.308-0.412,0.704-0.75,1.16-0.986c0.641-0.427,1.313-0.811,1.991-1.182
	c0.845-0.461,1.712-0.889,2.581-1.311c1.252,1.664,2.602,3.253,4.064,4.734c0.273,0.176,0.617,0.203,0.914,0.072
	c1.615-0.756,3.328-1.42,4.855-2.329c1.89-1.125,3.782-2.245,5.677-3.362c5.525-3.259,11.035-6.566,16.7-9.609
	c0.438-0.233,0.876-0.469,1.322-0.688c0.254-0.099,0.503-0.211,0.746-0.337c0,0-0.042,0.005-0.2,0.024
	c0.217-0.017,0.432-0.05,0.644-0.1c0.467-0.145,0.909-0.362,1.31-0.643c0.656-0.436,1.274-0.928,1.847-1.47
	c0.157-0.146-0.324-0.237-0.388-0.243c-0.235-0.041-0.477,0.016-0.668,0.157c-0.528,0.479-1.087,0.923-1.674,1.327
	c-0.452,0.294-0.955,0.504-1.482,0.619c-0.636,0.217-1.246,0.503-1.819,0.853c-2.476,1.3-4.891,2.7-7.309,4.093
	c-5.106,2.941-10.187,5.923-15.241,8.943C437.92,211.649,437.689,211.788,437.457,211.924z M461.349,203.703l-8.517,4.164l-13.5,6.6
	l-3.101,1.515c-0.212,0.101,0.668,0.556,0.966,0.41v-0.002c2.839-1.389,5.678-2.776,8.518-4.164c4.498-2.199,8.998-4.399,13.5-6.6
	l3.1-1.514C462.527,204.012,461.648,203.558,461.349,203.703z M312.108,61.483h-57.437c-2.65,0-5.316-0.079-7.966,0h-0.115
	c-0.743,0-0.225,0.419,0.246,0.419h57.438c2.649,0,5.316,0.079,7.966,0h0.114C313.098,61.902,312.578,61.483,312.108,61.483z
	 M276.747,43.193v1.914h-3.289v-1.746c0-0.273-0.591-0.3-0.779-0.3h-3.112c-0.416-0.027-0.833-0.027-1.25,0
	c-0.395,0.1-0.773,0.258-1.123,0.468l-0.907,0.427c-0.157,0.073-0.401,0.121-0.283,0.129c-0.376,0.008-0.754,0-1.131,0h-1.985
	c0.238-0.223,0.477-0.446,0.715-0.67c0.09-0.084-0.036-0.177-0.1-0.218l-3.276-2.046c-0.119-0.075-0.945-0.28-0.945,0v3.485
	c0,0.246,0.109,0.652-0.1,0.839c-0.3,0.266-1.112,0.018-1.453-0.055c-0.219-0.047-0.432-0.11-0.646-0.169v-3.936
	c0-0.317-1.077-0.426-1.077-0.17h0.001v4.092c0,0.151,0.241,0.22,0.359,0.257c1.102,0.453,2.305,0.598,3.481,0.419
	c0.739-0.226,0.511-1,0.511-1.593v-2.415l2.132,1.332c-0.331,0.31-0.661,0.62-0.992,0.93c-0.247,0.233,0.657,0.353,0.75,0.353h3.111
	c0.416,0.027,0.834,0.027,1.25,0c0.396-0.1,0.773-0.258,1.123-0.468l0.909-0.427c0.157-0.073,0.4-0.121,0.284-0.129
	c0.376-0.008,0.754,0,1.13,0h2.333v1.746c0,0.273,0.591,0.3,0.779,0.3h4.367c0.069,0,0.301-0.027,0.301-0.132v-1.916h2.191v1.746
	c0,0.273,0.592,0.3,0.779,0.3h12.01c0.109,0,0.34-0.044,0.289-0.188c-0.298-0.727-0.459-1.502-0.475-2.288
	c0.014-0.338,0.042-0.552,0.389-0.593c0.333-0.018,0.667-0.018,1,0h8.62c0.2,0,0.334-0.075,0.243-0.245s-0.557-0.189-0.724-0.189
	h-8.819c-0.577,0-1.512-0.175-1.737,0.483c-0.121,0.881,0.012,1.773,0.366,2.587h-10.865v-1.745c0-0.273-0.591-0.3-0.779-0.3h-3.275
	C276.978,43.061,276.747,43.088,276.747,43.193z M604.301,386.565c-1.993-8.809-3.985-17.617-5.977-26.426
	c-2.934-12.977-5.866-25.953-8.8-38.932c-3.579-15.824-7.158-31.65-10.736-47.477c-3.933-17.391-7.866-34.781-11.8-52.172
	c-3.971-17.553-7.94-35.107-11.909-52.662c-3.677-16.259-7.353-32.518-11.028-48.777c-3.129-13.837-6.258-27.674-9.387-41.511
	c-2.248-9.944-4.497-19.888-6.745-29.833c-1.058-4.678-1.923-9.442-3.185-14.078c-0.052-0.2-0.091-0.4-0.136-0.6
	c-0.039-0.177-0.506-0.242-0.639-0.242h-183.64c-2.45,0-4.991-0.179-7.438-0.002c-0.011-1.033-0.017-2.066-0.028-3.1
	c-0.066-6.146-0.146-12.294-0.236-18.442c-0.05-3.533-0.104-7.069-0.163-10.607c-0.006-0.467-0.014-0.934-0.022-1.4
	c0-0.184-0.436-0.2-0.548-0.2c-0.927,0.018-1.853,0.036-2.778,0.055l-7.561,0.148l-11.124,0.216L296.79,0.791
	c-4.979,0.099-9.957,0.199-14.933,0.3l-15.075,0.3c-4.666,0.093-9.331,0.185-13.994,0.276l-11.883,0.224l-8.544,0.169
	c-1.348,0.027-2.694,0.043-4.044,0.08h-0.098c-0.292-0.013-0.61,0.055-0.616,0.217l-0.001-0.001
	c-0.073,2.015-0.146,4.029-0.217,6.043c-0.187,5.218-0.37,10.436-0.55,15.652c-0.113,3.262-0.221,6.523-0.332,9.785H57.218
	c-2.32-0.16-4.648-0.16-6.969,0c-0.104,0.007-0.206,0.007-0.31,0c-0.09,0-0.274,0.007-0.307,0.115
	c-0.905,3.084-1.812,6.169-2.718,9.254c-2.467,8.396-4.934,16.792-7.4,25.187c-3.646,12.417-7.293,24.833-10.938,37.25
	c-4.448,15.148-8.896,30.297-13.347,45.445c-4.87,16.589-9.742,33.18-14.615,49.77c-4.899,16.693,26.755-87.25,29.914-97.997
	l8.139-27.714c2.129-7.256,4.26-14.512,6.393-21.769c1.382-4.706,2.764-9.412,4.146-14.119c0.366-1.252,0.733-2.506,1.1-3.761
	c0.036-0.122,0.267-0.868,0.294-1.159c0.144,0.004,0.413-0.04,0.595-0.04h175.294c-0.131,3.877-0.266,7.754-0.394,11.631
	c-0.267,8.117-0.525,16.235-0.777,24.354c-0.239,7.807-0.463,15.615-0.673,23.424c-0.166,6.356-0.322,12.712-0.422,19.07
	c-0.057,3.66-0.164,7.335-0.021,10.993c0.047,1.2,0.168,2.41,1.692,2.8c0.991,0.184,2.01,0.157,2.99-0.077
	c1.447-0.256,2.869-0.619,4.321-0.85c1.526-0.229,3.069-0.332,4.612-0.309c5,0.03,10,0.092,14.994,0.145
	c8.326,0.09,16.653,0.183,24.981,0.279l26.884,0.31c4.886,0.057,9.771,0.111,14.656,0.166v41.738
	c-0.199-0.005-0.398-0.009-0.597-0.014c-10.141-0.257-20.274-0.872-30.395-1.522c-7.352-0.471-14.7-0.986-22.045-1.545l-1.138-0.088
	c-0.151-0.012-0.56,0.013-0.38,0.239l3.276,4.092c0.173,0.216,1.221,0.275,0.969-0.042l0.017,0.006l-3.05-3.809
	c5.031,0.391,10.064,0.759,15.101,1.095c10.135,0.693,20.278,1.33,30.431,1.759c2.759,0.116,5.521,0.204,8.282,0.265
	c0.137,0.021,0.274,0.024,0.388,0.006c1.396,0.029,2.792,0.065,4.188,0.067c4.646,0.006,9.24-0.564,13.881-0.677
	c5.649-0.137,12.045,0.335,16.145,4.471c0.808,0.883,1.543,1.828,2.2,2.827c3.121,4.364,6.021,8.869,8.93,13.358
	c4.338,6.69,8.624,13.409,12.858,20.156c4.854,7.694,9.684,15.401,14.487,23.123c4.609,7.399,9.206,14.806,13.789,22.219
	c3.594,5.812,7.181,11.628,10.761,17.446c1.806,2.933,3.6,5.873,5.411,8.8l0.242,0.396c0.256,0.25,0.632,0.335,0.972,0.219
	c3.709-2.104,7.402-4.234,11.079-6.394c2.996-1.747,5.978-3.518,8.96-5.286c-0.45,3.133-0.9,6.265-1.352,9.397l-7.503,2.771
	l-18.546,6.854l-22.426,8.284c-6.423,2.375-12.847,4.748-19.273,7.121c-3.137,1.16-6.328,2.238-9.429,3.486l-0.131,0.047
	c-0.654,0.242,0.289,0.39,0.6,0.274v0.002l7.726-2.853l18.547-6.854c7.474-2.763,14.948-5.524,22.425-8.286l19.273-7.122
	c3.135-1.158,6.341-2.217,9.429-3.484c0.043-0.018,0.087-0.031,0.131-0.049c0.109-0.039,0.224-0.1,0.241-0.211l1.445-10.061
	c5.122-3.043,10.23-6.105,15.312-9.21c9.636-5.9,19.2-11.908,28.525-18.233c5.401-3.665,10.975-7.391,15.98-11.613l8.813-4.027
	c1.317-0.6,2.639-1.2,3.953-1.807c0.049-0.022,0.069-0.033,0.081-0.04c0.002,0.002,0.014,0,0.059-0.013
	c0.325-0.101,0.653-0.18,0.975-0.285c0.546-0.183,1.839-0.541,1.9-1.224c0.039-0.454-0.556-0.69-0.89-0.872
	c-0.555-0.321-0.988-0.814-1.235-1.406c-0.265-0.63-0.584-1.235-0.954-1.81c-0.557-0.731-1.247-1.353-2.034-1.828
	c-0.145-0.093-0.601-0.116-0.814-0.049c0.768-1.694,1.444-3.429,2.002-5.203c0.116-0.42,0.179-0.716-0.074-0.888
	c-2.359-3.034-4.718-6.069-7.073-9.105c-5.696-7.338-11.389-14.678-17.076-22.021c-6.739-8.703-13.47-17.411-20.19-26.124
	c-5.596-7.26-11.173-14.533-16.731-21.817c-3.36-4.424-6.55-8.823-9.532-13.479c-0.09-0.142-0.181-0.283-0.271-0.424
	c-0.273-0.27-0.686-0.342-1.034-0.181c-2.979,1.849-5.957,3.698-8.935,5.548c-7.169,4.453-14.336,8.908-21.5,13.366
	c-8.595,5.347-17.188,10.697-25.777,16.052c-7.346,4.581-14.685,9.17-22.019,13.768c-2.361,1.483-4.719,2.97-7.072,4.462
	c-1.026,0.654-2.143,1.264-3.101,2.014c-0.274,0.217-0.528,0.464-0.78,0.712c-2.05-2.2-4.703-3.75-7.636-4.436
	c-6.146-1.646-12.765-0.839-19.022-0.386c-2.884,0.208-5.793,0.169-8.688,0.101v-41.752c1.501,0.017,3.003,0.034,4.504,0.051
	c1.702,0.019,3.405,0.036,5.107,0.051c0.733,0.006,1.385,0.092,1.641-0.66c0.282-1.005,0.45-2.039,0.5-3.081
	c0.186-1.849,0.289-3.706,0.38-5.561c0.275-5.665,0.38-11.337,0.459-17.006c0.1-7.434,0.135-14.868,0.139-22.3
	c0.005-8.045-0.023-16.089-0.083-24.132c-0.045-6.441-0.107-12.882-0.175-19.324h188.408c0.767,0.08,1.538,0.078,2.307,0.013
	c0.713,3.152,1.427,6.305,2.137,9.457c1.993,8.81,3.985,17.618,5.977,26.427c2.933,12.977,5.866,25.954,8.8,38.931l10.734,47.476
	c3.934,17.391,7.867,34.782,11.801,52.173c3.971,17.553,7.94,35.106,11.908,52.661c3.677,16.258,7.354,32.518,11.029,48.778
	c3.129,13.837,6.258,27.673,9.386,41.51c2.25,9.944,4.498,19.89,6.746,29.833c1.058,4.678,1.922,9.443,3.185,14.078
	c0.053,0.2,0.091,0.4,0.136,0.605c0.06,0.27,1.13,0.369,1.057,0.049C605.762,393.04,605.031,389.803,604.301,386.565z
	 M514.932,216.272v0.002c0.76,0.463,1.415,1.08,1.922,1.812c0.306,0.519,0.578,1.058,0.816,1.611
	c0.194,0.438,0.474,0.835,0.821,1.167c0.31,0.277,1.082,0.49,1.245,0.844c0.378,0.823-2.225,1.3-2.785,1.523
	c-1.268,0.52-2.5,1.142-3.739,1.709l-5.794,2.647c-0.18,0.081-0.358,0.164-0.538,0.246c0.857-0.77,1.698-1.552,2.511-2.358
	c0.886-0.847,1.696-1.77,2.422-2.757c1.192-1.966,2.171-4.054,2.92-6.228c0.044-0.095,0.08-0.193,0.123-0.289
	C514.875,216.225,514.891,216.246,514.932,216.272z M356.413,173.358c2.659-2.49,6.116-4.272,9.224-6.227
	c7.015-4.415,14.041-8.812,21.08-13.192c8.58-5.354,17.165-10.701,25.753-16.041c7.461-4.643,14.925-9.283,22.392-13.922
	c2.467-1.534,4.936-3.067,7.407-4.6l2.312-1.435c0.257-0.124,0.502-0.268,0.74-0.422c2.511,3.89,5.104,7.617,7.915,11.331
	c5.267,6.961,10.575,13.895,15.925,20.8c6.722,8.727,13.455,17.445,20.2,26.152c5.9,7.622,11.805,15.239,17.715,22.852l5.909,7.609
	c0.863,1.272,1.808,2.488,2.827,3.64c0.046,0.052,0.089,0.106,0.128,0.164c0.01,0.008,0.021,0.012,0.031,0.019
	c-0.109,0.132-0.155,0.685-0.206,0.846c-0.707,2.089-1.521,4.142-2.438,6.147c-0.682,1.975-1.596,3.861-2.724,5.621
	c-0.736,0.953-1.544,1.849-2.417,2.679c-1.336,1.308-2.741,2.559-4.188,3.773c-0.035,0.016-0.07,0.031-0.105,0.048
	c-0.062,0.028-0.072,0.062-0.061,0.096c-4.774,3.989-10.037,7.539-15.167,11.032c-8.981,6.114-18.193,11.925-27.476,17.629
	c-8.368,5.142-16.802,10.19-25.3,15.146c-2.815,1.648-5.637,3.287-8.464,4.916l-2.683,1.539c-0.342,0.149-0.665,0.332-0.98,0.53
	c-1.153-1.885-2.31-3.768-3.469-5.649c-3.272-5.32-6.55-10.64-9.833-15.957c-4.491-7.271-8.993-14.537-13.508-21.8
	c-4.866-7.829-9.754-15.649-14.661-23.458c-4.462-7.096-8.955-14.172-13.479-21.231c-3.255-5.056-6.512-10.117-9.94-15.072
	c-0.821-1.188-1.652-2.376-2.547-3.52C356.359,173.388,356.392,173.377,356.413,173.358z M332.02,89.113
	c-0.039,6.672-0.108,13.346-0.282,20.015c-0.115,4.433-0.218,8.884-0.643,13.3c-0.054,1.073-0.218,2.138-0.491,3.177
	c-0.029,0.107-0.071,0.209-0.124,0.307c-0.008,0.015-0.013,0.02-0.02,0.031l-0.632-0.005c-4.75-0.041-9.5-0.1-14.252-0.155
	c-8.229-0.094-16.458-0.188-24.687-0.284c-8.908-0.102-17.816-0.201-26.725-0.3c-6.923-0.078-13.845-0.152-20.768-0.222
	c-1.879-0.019-3.758-0.035-5.636-0.048c-1.553-0.023-3.104,0.075-4.641,0.294c-1.459,0.22-2.89,0.559-4.335,0.84
	c-0.801,0.155-1.923,0.468-2.665,0c-0.929-0.579-0.814-1.785-0.841-2.69c-0.045-1.516-0.038-3.035-0.031-4.551
	c0.023-5.291,0.14-10.58,0.261-15.869c0.165-7.25,0.355-14.5,0.573-21.748c0.234-8.08,0.482-16.159,0.745-24.239
	c0.242-7.556,0.492-15.111,0.75-22.667h0.089c0.495,0,0.235-0.227-0.078-0.363c0.003-0.083,0.005-0.166,0.008-0.248
	c0.213-6.288,0.431-12.576,0.653-18.864c0.13-3.678,0.261-7.355,0.393-11.032c0.015-0.417,0.03-0.835,0.045-1.254l2.236-0.043
	l7.561-0.149l11.124-0.22l13.632-0.268l14.933-0.3l15.075-0.3l13.994-0.276l11.887-0.22l8.543-0.171
	c1.206-0.023,2.459,0.031,3.671-0.056c0.03,1.829,0.06,3.657,0.088,5.487c0.076,4.965,0.146,9.93,0.21,14.895
	c0.091,6.971,0.168,13.942,0.232,20.913c0.074,7.922,0.126,15.845,0.158,23.768C332.062,73.436,332.057,81.274,332.02,89.113z
	 M251.291,34.311h3.275c0.059,0,0.313,0.011,0.313-0.1v-2.967h2.231v1.657c0,0.263,0.521,0.389,0.734,0.389h14.2
	c0.058,0,0.312,0.011,0.312-0.1v-3.992h2.229v3.703c0,0.263,0.52,0.389,0.733,0.389h2.185c0.7,0-0.08-0.485-0.42-0.485h-1.45v-3.707
	c0-0.261-0.52-0.388-0.734-0.388h-3.275c-0.059,0-0.313-0.009-0.313,0.1v3.992H258.16v-1.658c0-0.261-0.521-0.388-0.734-0.388h-3.28
	c-0.058,0-0.312-0.009-0.312,0.1v2.969h-2.229v-4.727c0-0.33-1.047-0.516-1.047-0.292v5.116
	C250.557,34.185,251.077,34.311,251.291,34.311z M293.133,90.22v8.073h-8.753v-5.831c0-0.224-0.5-0.292-0.652-0.292h-3.71v-4.915
	c0-0.284-1.092-0.27-1.092,0.028v4.887H273.9c-0.082,0-0.427,0-0.427,0.14v5.983h-8.757v-7.834c0-0.326-1.062-0.478-1.062-0.239
	l-0.005,0.004v8.185c0,0.268,0.552,0.352,0.755,0.352h29.483c0.062,0,0.308-0.006,0.308-0.113v-8.189
	C294.195,90.133,293.133,89.981,293.133,90.22z M283.301,98.293h-8.749v-5.691h4.883c0.02,0,0.038,0,0.058,0h3.808V98.293z
	 M390.887,177.597c0.057,0.261,0.254,0.468,0.512,0.536c0.277,0.099,0.58,0.095,0.854-0.013c0.572-0.244,1.129-0.524,1.666-0.838
	c0.791-0.378,1.432-1.013,1.817-1.8c0.12-0.175,0.277-0.321,0.46-0.428c0.517-0.329,1.101-0.537,1.709-0.611
	c0.771-0.255,1.48-0.664,2.089-1.2c0.871-0.629,1.715-1.294,2.594-1.915c0.53-0.45,1.154-0.779,1.825-0.962
	c0.795-0.205,1.551-0.536,2.24-0.981c1.023-0.558,2.019-1.168,3.071-1.676c0.565-0.273,1.12-0.328,1.688-0.546
	c1.737-0.831,3.401-1.808,4.974-2.92c0.608-0.438,1.279-0.782,1.991-1.021c0.602-0.089,1.189-0.255,1.748-0.494
	c0.096-0.043,0.8-0.297,1.057-0.416c-0.082,1.587-0.425,3.15-1.023,4.624c-0.087,0.269-0.2,0.539-0.271,0.813
	c-0.024,0.097-0.063,0.158-0.071,0.182c-0.307,0.129-0.622,0.234-0.947,0.301c-1.693,0.542-3.381,1.101-5.062,1.676
	c-2.175,0.745-4.344,1.513-6.475,2.365c-1.729,0.697-3.4,1.528-5,2.485c-1.382,0.814-2.8,1.578-4.171,2.408
	c-0.72,0.437-1.96,1.031-2.309,1.831c-0.323,0.739,0.568,1.7,0.972,2.271c0.366,0.471,0.689,0.973,0.967,1.5
	c0.11,0.237,0.082,0.571,0.242,0.771c0.368,0.353,0.953,0.339,1.306-0.029c0.013-0.013,0.024-0.027,0.036-0.041
	c0.473-0.53,0.91-1.091,1.311-1.677c0.916-1.426,1.979-2.752,3.171-3.957c0.475-0.419,0.9-0.281,1.585-0.3
	c1.194-0.009,2.387-0.114,3.564-0.314c0.779-0.122,1.52-0.426,2.16-0.886c0.609-0.394,1.257-0.725,1.933-0.989
	c2.019-0.905,4.088-1.708,6.115-2.595c0.749-0.311,1.48-0.663,2.191-1.053c0.71-0.484,1.36-1.048,1.94-1.682l0.826-0.774v2.379
	c0,0.043,0.005,0.369,0.033,0.407c-0.006,0.004-0.002,0.001-0.01,0.007c-0.16,0.095-0.324,0.182-0.494,0.259l-5.61,2.944
	l-16.854,8.845c-1.423,0.745-2.844,1.491-4.265,2.238c-0.091,0.047-0.144,0.117-0.052,0.2c0.349,0.378,0.726,0.73,1.128,1.053
	c0.359,0.208,0.79,0.256,1.188,0.134c1.379-0.221,2.745-0.516,4.092-0.883c0.607-0.146,1.193-0.366,1.746-0.655
	c0.392-0.227,0.392-0.42,0.577-0.759c0.318-0.411,0.721-0.748,1.18-0.989c0.641-0.428,1.313-0.81,1.991-1.181
	c0.875-0.479,1.773-0.922,2.675-1.357c1.23,1.627,2.554,3.184,3.987,4.637c0.254,0.213,0.595,0.291,0.916,0.208
	c1.611-0.755,3.315-1.416,4.837-2.321c1.872-1.114,3.747-2.225,5.625-3.332c5.532-3.262,11.048-6.578,16.721-9.623
	c0.702-0.376,1.407-0.73,2.138-1.052c0.049-0.002,0.26-0.038,0.332-0.052c0.45-0.111,0.877-0.304,1.258-0.569
	c0.686-0.438,1.329-0.94,1.92-1.5c0.214-0.2-0.769-0.551-1-0.339c-0.501,0.469-1.035,0.901-1.6,1.291
	c-0.515,0.352-1.092,0.601-1.7,0.736c-0.583,0.2-1.142,0.464-1.666,0.787c-2.457,1.291-4.859,2.684-7.259,4.065
	c-5.139,2.958-10.249,5.956-15.332,8.994c-1.413,0.84-2.999,1.525-4.628,2.274c-1.417-1.474-2.749-3.026-3.962-4.673
	c-0.251-0.217-0.595-0.295-0.916-0.208c-1.865,0.832-3.664,1.805-5.382,2.911c-0.4,0.239-0.764,0.537-1.077,0.884
	c-0.165,0.212-0.163,0.461-0.353,0.647c-0.381,0.283-0.818,0.483-1.282,0.585c-0.646,0.212-1.311,0.379-1.978,0.528
	c-0.812,0.184-1.636,0.332-2.459,0.471c-0.211-0.197-0.421-0.395-0.632-0.591l9.029-4.738l14.731-7.73l3.368-1.767
	c0.045-0.011,0.082-0.042,0.1-0.084v-4.092c0-0.3-0.831-0.475-1.03-0.29l-1.854,1.739c-0.579,0.634-1.23,1.198-1.94,1.682
	c-1.741,0.903-3.536,1.697-5.375,2.379c-1.676,0.574-3.289,1.318-4.812,2.222c-0.7,0.486-1.51,0.79-2.356,0.886
	c-1.121,0.153-2.251,0.231-3.383,0.232c-0.515-0.081-1.041,0.026-1.484,0.3c-0.531,0.46-1.007,0.982-1.415,1.555
	c-0.979,1.233-1.84,2.556-2.847,3.771c-0.491-0.928-1.273-1.706-1.719-2.657c-0.416-0.887,0.332-1.352,1.047-1.846
	c1.179-0.818,2.465-1.5,3.716-2.216c1.816-1.116,3.701-2.116,5.645-2.994c2-0.83,4.041-1.565,6.09-2.281
	c1.839-0.641,3.687-1.26,5.544-1.857c0.49-0.159,0.987-0.308,1.475-0.473c0.246-0.083,0.308-0.109,0.4-0.347
	c0.567-1.454,0.987-2.962,1.252-4.5c0.069-0.434,0.24-1.156-0.127-1.518c-0.773-0.762-2.246,0.057-2.99,0.389
	c-0.783,0.348-1.6,0.364-2.373,0.758c-0.856,0.44-1.669,0.956-2.481,1.462c-1.309,0.989-2.77,1.756-4.325,2.272
	c-0.828,0.252-1.616,0.62-2.341,1.093c-0.968,0.535-1.914,1.112-2.919,1.584c-0.556,0.261-1.159,0.3-1.695,0.567
	c-0.802,0.438-1.562,0.949-2.271,1.525c-0.832,0.62-1.649,1.267-2.526,1.832c-0.267,0.198-0.561,0.358-0.871,0.475
	c-0.536,0.089-1.061,0.237-1.565,0.44c-0.365,0.154-0.693,0.383-0.966,0.672c-0.062,0.139-0.112,0.282-0.154,0.428
	c-0.472,0.999-1.739,1.485-2.726,1.972c-0.123-0.393-0.276-0.776-0.479-1.135c-0.144-0.275-1.168-0.354-1.052-0.126l0.004-0.007
	C390.546,176.664,390.734,177.125,390.887,177.597z M218.947,250.47c0.212,0.154,0.467,0.238,0.729,0.241
	c0.058,0,0.192-0.013,0.2-0.086c0.034-0.247,0.137-0.478,0.293-0.672c0.112-0.128,0.241-0.239,0.39-0.321
	c0.069-0.038,0.037-0.121,0-0.166c-0.075-0.084-0.169-0.149-0.273-0.191c-0.127-0.058-0.262-0.095-0.4-0.11
	c-0.096-0.017-0.193-0.003-0.281,0.037l0.002,0.005c-0.18,0.099-0.33,0.236-0.453,0.395c-0.41-0.204-0.864-0.31-1.329-0.281
	c-0.074,0.002-0.144,0.023-0.216,0.036c-0.003-0.113-0.005-0.227,0.017-0.338c0.054-0.217,0.149-0.421,0.283-0.6
	c0.02-0.026,0.039-0.049,0.06-0.075c-0.042,0.051,0.011-0.01,0.016-0.015c0.045-0.046,0.091-0.089,0.141-0.13
	c0.022-0.02,0.105-0.1,0.134-0.1c-0.045,0.028-0.051,0.032-0.017,0.012l0.042-0.026c0.027-0.015,0.057-0.031,0.086-0.045
	c0.054-0.026,0.148-0.09,0.139-0.163c-0.01-0.072-0.118-0.111-0.178-0.125c-0.259-0.054-0.527-0.021-0.767,0.092l-0.001-0.004
	c-0.682,0.312-1.098,1.016-1.045,1.764c0.009,0.073,0.12,0.109,0.178,0.125c0.129,0.028,0.262,0.033,0.392,0.014
	c0.063-0.005,0.122-0.033,0.184-0.049c0.103,0.044,0.25,0.056,0.316,0.054l0.002-0.004h0.062h0.023c0.04,0,0.144,0.011-0.023,0
	c0.048,0,0.101,0.007,0.145,0.013l0.024,0.003c0.018,0.004,0.035,0.007,0.053,0.011c0.051,0.01,0.101,0.022,0.15,0.039
	c0.013,0,0.079,0.014,0.082,0.025l-0.045-0.016l0.045,0.017c0.048,0.019,0.101,0.04,0.144,0.062c0.086,0.042,0.169,0.092,0.25,0.146
	c0.071,0.052,0.14,0.105,0.205,0.165c0.044,0.033,0.101,0.038,0.153,0.053c-0.001,0.009-0.005,0.017-0.007,0.024
	C218.845,250.359,218.883,250.431,218.947,250.47z M214.969,239.574c1.041,1.687,2.951,2.633,4.923,2.44
	c0.144-0.011,0.4-0.076,0.245-0.246c-0.209-0.15-0.466-0.219-0.722-0.191c-0.649,0.062-1.301-0.083-1.863-0.413
	c-0.646-0.351-1.176-0.881-1.527-1.526c-0.1-0.186-0.438-0.238-0.634-0.25C215.301,239.383,214.871,239.388,214.969,239.574z
	 M367.528,255.885c-6.438,0.289-12.873,0.584-19.309,0.886c-5.405,0.253-10.812,0.509-16.217,0.768
	c-2.591,0.124-5.188,0.199-7.774,0.373l-0.111,0.005c-0.739,0.036-0.225,0.44,0.25,0.417l6.342-0.3
	c5.151-0.247,10.304-0.491,15.456-0.732c6.405-0.3,12.81-0.597,19.215-0.887c5.874-0.267,11.748-0.522,17.622-0.767
	c3.556-0.145,7.112-0.317,10.673-0.373c0.192,0,0.385-0.006,0.579-0.006c0.14,0,0.455-0.027,0.404-0.218
	c-0.05-0.19-0.523-0.2-0.654-0.2v0.002c-3.144,0-6.291,0.18-9.43,0.299C378.891,255.38,373.209,255.624,367.528,255.885z
	 M246.449,251.931c-0.101-0.107-0.189-0.225-0.283-0.339c-0.189-0.241-0.409-0.456-0.654-0.64c-0.745-0.412-1.535-0.734-2.354-0.963
	c-1.714-0.666-3.38-1.449-4.985-2.344c-0.171-0.101-0.529-0.26-0.731-0.164c-0.201,0.097-0.065,0.24,0.086,0.326h0.008
	c1.77,0.986,3.607,1.846,5.5,2.571c0.46,0.175,0.929,0.329,1.388,0.505c0.344,0.146,0.639,0.386,0.852,0.692
	c0.415,0.581,1.052,0.967,1.76,1.065c0.17,0.019,0.376-0.016,0.283-0.201c-0.092-0.185-0.49-0.277-0.679-0.299
	C246.72,252.151,246.508,251.996,246.449,251.931z M222.274,251.024c-0.141,0.006-0.279,0.035-0.411,0.086
	c-0.065,0.029-0.212,0.084-0.225,0.16c-0.139,0.809-0.374,1.599-0.7,2.352c-0.08,0.188,0.318,0.199,0.422,0.188
	c0.142-0.006,0.281-0.035,0.412-0.088c0.079-0.033,0.19-0.078,0.226-0.16c0.326-0.754,0.561-1.543,0.7-2.352
	C222.729,251.019,222.416,251.01,222.274,251.024z M225.132,255.345c-0.005,0.069,0.133,0.115,0.177,0.127
	c0.128,0.029,0.26,0.035,0.391,0.018c0.131-0.01,0.258-0.043,0.377-0.1c0.068-0.039,0.134-0.08,0.142-0.162
	c0.006-0.066,0.017-0.133,0.03-0.198c0.069-0.267,0.201-0.514,0.381-0.723c0.078-0.083,0.161-0.161,0.252-0.229
	c0.025-0.018,0.049-0.036,0.075-0.053c0,0,0-0.001,0.001-0.001c0.004-0.003,0.009-0.006,0.014-0.009
	c0.061-0.035,0.121-0.063,0.183-0.093c0.062-0.028,0.151-0.091,0.143-0.161s-0.117-0.111-0.177-0.127
	c-0.05-0.011-0.101-0.003-0.151-0.008c-0.083-0.065-0.191-0.092-0.285-0.031c-0.015,0.01-0.016,0.027-0.028,0.039
	c-0.103,0.018-0.207,0.039-0.303,0.083l0.001,0.001C225.68,253.997,225.212,254.62,225.132,255.345z M214.586,245.543l-0.005-0.001
	c-0.07,0.816-0.439,1.578-1.037,2.139c-0.153,0.144,0.239,0.284,0.331,0.309c0.136,0.037,0.276,0.053,0.417,0.046
	c0.097,0.003,0.191-0.026,0.27-0.082c0.629-0.587,1.02-1.384,1.101-2.239c0.015-0.188-0.361-0.268-0.5-0.288
	c-0.13-0.025-0.263-0.025-0.392,0C214.708,245.44,214.593,245.467,214.586,245.543z M391.12,248.726
	c-1.245-0.135-2.497-0.193-3.75-0.175c-2.074-0.014-4.149,0.025-6.224,0.077c-5.7,0.141-11.39,0.4-17.08,0.67
	c-6.422,0.31-12.841,0.651-19.258,1.026c-5.351,0.308-10.701,0.628-16.05,0.962c-2.562,0.16-5.138,0.266-7.694,0.49l-0.105,0.008
	c-0.64,0.042-0.625,0.449,0.024,0.406l-0.004,0.004c2.07-0.133,4.141-0.266,6.21-0.399c5.062-0.317,10.125-0.624,15.188-0.92
	c6.333-0.368,12.666-0.713,19-1.035c5.878-0.294,11.758-0.565,17.64-0.743c3.669-0.206,7.347-0.22,11.017-0.041
	c0.311,0.023,0.295,0.02,0.559,0.055c0.177,0.023,0.625,0.053,0.741-0.115C391.449,248.827,391.323,248.754,391.12,248.726z
	 M340.923,239.327c2.19,0.444,4.451,0.417,6.631-0.079c1.902-0.341,3.83-0.524,5.763-0.549c1.638,0.02,3.272,0.163,4.909,0.212
	c1.846,0.056,4.883,0.083,4.869-2.301c-0.016-2.641-2.243-4.906-4.282-6.48c-2.061-1.625-4.402-2.857-6.908-3.637
	c-1.558-0.338-3.169-0.352-4.732-0.041c-4.394,0.5-8.774,1.121-13.149,1.747l-0.295,0.042c-0.019,0.003-0.023,0.009-0.038,0.012
	c-0.021,0.005-0.037,0.011-0.054,0.017c-0.022,0.009-0.045,0.019-0.056,0.029c-0.031,0.025-0.049,0.056-0.036,0.099v0.002
	c0.521,1.717,0.993,3.444,1.519,5.16c0.278,1.072,0.689,2.104,1.223,3.074C337.285,238.276,339.079,238.827,340.923,239.327z
	 M334.637,228.659c3.461-0.498,6.926-0.971,10.396-1.418c1.791-0.227,3.613-0.522,5.422-0.585c0.662,0.022,1.314,0.172,1.921,0.438
	c1.153,0.433,2.266,0.969,3.322,1.6c2.3,1.359,4.654,3.16,5.781,5.547c0.568,0.941,0.695,2.086,0.347,3.129
	c-0.43,0.828-1.515,1.006-2.399,1.066c-2.955,0.2-5.917-0.349-8.884-0.138c-1.733,0.123-3.443,0.484-5.162,0.718
	c-0.997,0.177-2.011,0.238-3.021,0.183c-0.855-0.122-1.695-0.332-2.508-0.626c-0.776-0.201-1.482-0.608-2.044-1.18
	c-0.56-0.688-0.98-1.479-1.239-2.326c-0.463-1.28-0.812-2.601-1.189-3.9C335.135,230.33,334.89,229.494,334.637,228.659z
	 M240.039,253.88c0.052,0.184,0.529,0.178,0.662,0.178c0.142,0,0.452-0.047,0.399-0.231s-0.529-0.177-0.662-0.177
	S239.987,253.696,240.039,253.88z M366.281,306.237c0.188-3.443,0.375-6.888,0.562-10.331c0.296-5.445,0.592-10.891,0.887-16.335
	c0.062-1.197,0.128-2.393,0.194-3.59c2.429,0.103,4.856,0.215,7.282,0.33c0.392,0.019,0.783,0.037,1.175,0.057
	c-0.33,0.079-0.267,0.348,0.259,0.385v-0.003l14.733,1.037l23.514,1.651l5.427,0.381c0.311,0.021,0.852-0.168,0.308-0.358
	c-2.971-1.042-6.007-1.942-9.048-2.787c-2.89-0.8-5.8-1.534-8.744-2.168c-2.411-0.603-4.896-0.851-7.38-0.737
	c-1.5,0.119-2.972,0.476-4.359,1.057c-1.093,0.541-2.227,0.994-3.392,1.355c-1.207,0.197-2.436,0.233-3.652,0.108
	c-1.823-0.062-3.645-0.144-5.466-0.228c-3.638-0.167-7.274-0.343-10.912-0.494c-0.174-0.046-0.392-0.056-0.563-0.023
	c-0.545-0.022-1.09-0.05-1.636-0.07c-2.861-0.193-5.731-0.204-8.593-0.031c-6.601,0.6-13.159,1.894-19.661,3.078
	c-3.279,0.6-6.556,1.215-9.827,1.848c-1.219,0.236-2.464,0.435-3.691,0.68v-1.998c0.015-0.287-0.02-0.574-0.1-0.85
	c-0.21-0.631-0.453-1.249-0.729-1.854c-1.081-2.525-2.266-5.013-3.445-7.5c-1.826-3.844-3.679-7.678-5.557-11.5
	c-2.324-4.754-4.664-9.503-7.018-14.244c-2.6-5.25-5.211-10.495-7.834-15.735c-2.66-5.325-5.327-10.647-8-15.968
	c-2.514-5.004-5.031-10.005-7.552-15.004c-2.119-4.204-4.241-8.407-6.366-12.608c-1.544-3.056-3.09-6.11-4.638-9.163
	c-0.724-1.428-1.366-2.939-2.19-4.32c-0.035-0.059-0.062-0.124-0.093-0.185c-0.092-0.18-0.491-0.193-0.657-0.193h-8.736
	c-0.142,0-0.565,0.072-0.352,0.274c1.352,1.437,2.537,3.021,3.536,4.722c0.928,1.4,1.826,2.819,2.712,4.245
	c-0.068-0.014-0.136-0.022-0.183-0.022h-27.977c-0.035-1.72-0.069-3.44-0.104-5.16c-0.088-4.288-0.175-8.575-0.262-12.86
	c-0.104-5.166-0.21-10.333-0.315-15.5c-0.091-4.467-0.182-8.934-0.272-13.4c-0.029-1.474-0.06-2.948-0.091-4.423
	c-0.009-0.466-0.018-0.93-0.027-1.389c0.025-0.241,0.02-0.485-0.015-0.725c-0.003-0.03-0.003-0.06,0-0.09
	c-0.005-0.276-1.094-0.22-1.088,0.084l-0.002-0.002c0.036,1.775,0.072,3.55,0.108,5.326c0.087,4.287,0.174,8.573,0.261,12.86
	c0.105,5.166,0.211,10.333,0.315,15.5l0.272,13.4c0.029,1.475,0.06,2.95,0.091,4.424c0.009,0.467,0.018,0.93,0.027,1.389
	c-0.023,0.241-0.019,0.484,0.015,0.725c0.003,0.03,0.003,0.061,0,0.09c0,0.14,0.324,0.166,0.416,0.166h28.391
	c0.131,0,0.478-0.016,0.603-0.137c0.945,1.525,1.872,3.061,2.792,4.6c2.46,4.1,4.858,8.241,7.234,12.389
	c2.75,4.8,5.469,9.617,8.157,14.453c2.878,5.164,5.733,10.338,8.566,15.523c2.791,5.104,5.564,10.215,8.32,15.336
	c2.533,4.711,5.054,9.43,7.562,14.156c2.066,3.905,4.119,7.818,6.158,11.737c1.427,2.755,2.85,5.515,4.222,8.294
	c0.406,0.822,0.81,1.646,1.19,2.48c0.188,0.363,0.343,0.742,0.466,1.133c0.053,0.695,0.055,1.395,0.005,2.092
	c0,0.257,0.637,0.271,0.8,0.238c0.144-0.029,0.288-0.055,0.433-0.083c0.29,0.149,0.949,0.14,0.949-0.075v-0.107
	c3.694-0.735,7.392-1.453,11.097-2.134c6.773-1.259,13.571-2.538,20.422-3.382c2.412-0.282,4.843-0.379,7.271-0.291
	c1.45,0.04,2.898,0.102,4.348,0.159c-0.182,3.368-0.365,6.735-0.549,10.103l-0.888,16.334c-0.022,0.42-0.046,0.84-0.068,1.26
	c-0.426-1.144-0.844-2.291-1.195-3.451c-0.061-0.201-0.029-0.021-0.031-0.201c-0.002-0.18,0.018-0.377,0.025-0.563
	c0.037-0.794,0.074-1.587,0.11-2.381c0.247-5.327,0.494-10.655,0.743-15.983c0.066-1.498,0.136-2.996,0.207-4.494
	c0.014-0.293-1.077-0.35-1.09-0.061l0.003,0.012c-0.182,3.9-0.362,7.801-0.543,11.699c-0.125,2.693-0.251,5.387-0.376,8.081
	c-0.042,0.905-0.083,1.811-0.126,2.716c-0.047,0.342-0.063,0.688-0.048,1.031c0.075,0.303,0.179,0.6,0.31,0.883
	c0.252,0.708,0.504,1.416,0.756,2.122c0.377,1.067,0.755,2.13,1.135,3.19C365.288,306.465,366.266,306.519,366.281,306.237z
	 M385.839,276.745c1.187,0.057,2.374-0.111,3.5-0.494c1.161-0.424,2.24-1.023,3.411-1.434c4.654-1.623,9.836,0,14.4,1.147
	c3.855,0.973,7.68,2.077,11.446,3.324l-12.988-0.913l-23.507-1.648l-3.818-0.268C380.801,276.583,383.32,276.701,385.839,276.745z
	 M322.608,280.169c-0.034-0.342-0.087-0.682-0.172-1.016c-0.245-0.619-0.543-1.225-0.832-1.826c-1.165-2.434-2.4-4.84-3.638-7.246
	c-1.892-3.68-3.806-7.351-5.743-11.012c-2.408-4.564-4.833-9.121-7.273-13.67c-2.733-5.098-5.484-10.188-8.251-15.268
	c-2.839-5.209-5.695-10.408-8.571-15.6c-2.754-4.966-5.533-9.92-8.336-14.861c-2.471-4.349-4.975-8.683-7.515-13
	c-1.993-3.372-4.012-6.732-6.131-10.037c-1.231-2.042-2.602-3.998-4.1-5.854c-0.128-0.153-0.271-0.293-0.408-0.437h7.576
	c0.471,0.925,0.94,1.85,1.408,2.775c1.363,2.688,2.726,5.377,4.085,8.067c2,3.95,3.997,7.901,5.99,11.855
	c2.437,4.828,4.87,9.658,7.301,14.49c2.652,5.274,5.3,10.551,7.941,15.83c2.643,5.278,5.275,10.561,7.9,15.845
	c2.439,4.909,4.868,9.823,7.287,14.743c2.005,4.084,3.995,8.176,5.97,12.274c1.378,2.875,2.754,5.753,4.057,8.66
	c0.636,1.415,1.454,2.853,1.454,4.343V280.169z M324.418,244.099c-1.234-0.011-2.466-0.121-3.683-0.328
	c-0.166-0.035-0.33-0.081-0.491-0.138c-0.263-0.1-1.271,0.16-0.739,0.354v-0.004c1.059,0.305,2.155,0.459,3.257,0.459
	c1.879,0.119,3.766,0.141,5.648,0.146c5.5,0.013,11.01-0.165,16.509-0.37c6.308-0.234,12.611-0.533,18.915-0.865
	c5.329-0.279,10.657-0.579,15.983-0.899c2.552-0.153,5.128-0.231,7.672-0.479c0.035,0,0.07-0.005,0.106-0.007
	c0.642-0.042,0.605-0.448-0.04-0.407c-2.066,0.134-4.132,0.264-6.195,0.391c-5.023,0.307-10.048,0.596-15.074,0.867
	c-6.204,0.333-12.411,0.629-18.62,0.89c-5.653,0.228-11.311,0.424-16.97,0.462C328.605,244.183,326.509,244.178,324.418,244.099z"/>
</svg>
