<?xml version="1.0" encoding="utf-8"?>
<!-- Generator: Adobe Illustrator 16.0.4, SVG Export Plug-In . SVG Version: 6.00 Build 0)  -->
<!DOCTYPE svg PUBLIC "-//W3C//DTD SVG 1.1//EN" "http://www.w3.org/Graphics/SVG/1.1/DTD/svg11.dtd">
<svg version="1.1" id="Layer_1" xmlns="http://www.w3.org/2000/svg" xmlns:xlink="http://www.w3.org/1999/xlink" x="0px" y="0px"
	 width="42.285px" height="50.693px" viewBox="0 0 42.285 50.693" enable-background="new 0 0 42.285 50.693" xml:space="preserve">
<path d="M33.507,10.976h0.144c1.084,0.021,2.123-0.429,2.851-1.231c1.548-1.744,1.293-4.713,1.263-5.01
	C37.621,1.61,35.473,0.5,33.671,0.5h-0.188c-1.799,0-3.949,1.109-4.1,4.234c-0.031,0.301-0.285,3.269,1.264,5.01
	C31.379,10.545,32.421,10.994,33.507,10.976z M30.616,4.837V4.8c0.132-2.861,2.239-3.085,2.881-3.085h0.173
	c0.641,0,2.749,0.224,2.883,3.085v0.041c0.081,0.739,0.061,2.928-0.97,4.089c-0.506,0.557-1.233,0.859-1.985,0.825h-0.031
	c-0.75,0.034-1.478-0.269-1.983-0.825C30.341,7.545,30.616,4.868,30.616,4.837z M5.742,9.734c0.724,0.811,1.765,1.264,2.851,1.242
	h0.143c1.082,0.023,2.12-0.427,2.843-1.231c1.545-1.744,1.291-4.713,1.26-5.01c0.123-2.213-1.573-4.106-3.786-4.229
	C8.954,0.5,8.855,0.498,8.756,0.5H8.573c-2.225-0.039-4.06,1.733-4.098,3.958c-0.001,0.089,0,0.178,0.004,0.267
	C4.448,5.025,4.194,7.993,5.742,9.734z M5.702,4.837V4.8c0.132-2.861,2.24-3.085,2.881-3.085h0.173c0.641,0,2.749,0.224,2.881,3.085
	v0.041c0.082,0.739,0.062,2.928-0.966,4.089c-0.507,0.556-1.234,0.857-1.985,0.825H8.655C7.903,9.789,7.175,9.487,6.669,8.93
	C5.427,7.545,5.692,4.868,5.702,4.837z M41.096,15.873c-0.313-0.329-0.654-0.63-1.019-0.9c-1.11-0.788-2.307-1.451-3.563-1.975
	c-0.26-0.105-0.557-0.023-0.724,0.2l-2.194,3.025l-2.189-3.014c-0.164-0.228-0.465-0.311-0.723-0.2
	c-1.152,0.477-2.254,1.067-3.289,1.764c-0.01,0-0.01,0.011-0.02,0.021c-1.041-0.706-2.148-1.307-3.309-1.792
	c-0.259-0.105-0.556-0.023-0.724,0.2l-2.22,3.023l-2.189-3.014c-0.165-0.228-0.465-0.311-0.723-0.2
	c-1.16,0.485-2.269,1.086-3.309,1.792c-0.01,0-0.01-0.01-0.02-0.02c-1.033-0.702-2.135-1.296-3.289-1.772
	c-0.258-0.104-0.555-0.022-0.723,0.2l-2.189,3.014l-2.186-3.01c-0.165-0.228-0.465-0.311-0.723-0.2
	c-1.259,0.521-2.455,1.185-3.564,1.976c-0.365,0.27-0.705,0.571-1.018,0.899c-0.193,0.193-0.774,0.774-0.682,3.9
	c0.01,1.447,0.178,2.889,0.5,4.3c0.514,1.567,1.179,3.081,1.985,4.52c0.26,0.596,0.425,1.228,0.489,1.873l1.853,18.141
	c0.086,0.891,0.836,1.569,1.731,1.567h3.2c0.894,0.001,1.643-0.678,1.729-1.567l1.853-18.153c0.066-0.646,0.231-1.277,0.489-1.873
	c0.061-0.1,0.275-0.509,0.56-1.059c0.275,0.55,0.5,0.957,0.56,1.059c0.26,0.595,0.425,1.228,0.489,1.873l1.849,18.153
	c0.087,0.891,0.836,1.569,1.731,1.567h3.201c0.895,0.002,1.643-0.678,1.729-1.567l1.853-18.153c0.066-0.646,0.232-1.277,0.489-1.873
	c0.062-0.112,0.285-0.509,0.56-1.059c0.275,0.56,0.5,0.957,0.561,1.059c0.26,0.595,0.425,1.228,0.489,1.873l1.853,18.153
	c0.086,0.893,0.838,1.573,1.735,1.569h3.2c0.893-0.002,1.639-0.681,1.724-1.569l1.853-18.153c0.066-0.646,0.232-1.277,0.49-1.873
	c0.807-1.438,1.471-2.952,1.984-4.52c0.318-1.415,0.496-2.857,0.529-4.308C41.867,16.647,41.287,16.067,41.096,15.873z
	 M13.277,28.031c-0.01,0.02-0.02,0.03-0.031,0.051c-0.314,0.718-0.517,1.48-0.6,2.26l-1.851,18.153
	c-0.03,0.265-0.252,0.465-0.519,0.468h-3.2c-0.267-0.003-0.489-0.203-0.519-0.468L4.704,30.341c-0.081-0.78-0.283-1.543-0.6-2.26
	c-0.01-0.021-0.02-0.031-0.031-0.051c-0.758-1.364-1.389-2.796-1.884-4.276c-0.294-1.314-0.458-2.654-0.489-4
	c-0.061-2.128,0.224-2.9,0.336-3.014c0.269-0.283,0.562-0.542,0.876-0.774c0.901-0.634,1.859-1.183,2.861-1.639l2.4,3.3
	c0.114,0.162,0.302,0.258,0.5,0.255c0.198-0.001,0.383-0.096,0.5-0.255l2.4-3.3c0.812,0.363,1.595,0.789,2.342,1.272l-0.275,0.275
	c-0.193,0.192-0.774,0.773-0.682,3.899c0.022,1.451,0.2,2.895,0.529,4.308c0.202,0.695,0.454,1.376,0.753,2.036
	C13.755,27.164,13.277,28.024,13.277,28.031z M27.613,23.754c-0.497,1.479-1.128,2.911-1.885,4.276
	c-0.01,0.02-0.02,0.03-0.031,0.051c-0.314,0.718-0.516,1.48-0.6,2.26l-1.853,18.153c-0.03,0.265-0.253,0.465-0.519,0.468h-3.201
	c-0.266-0.003-0.489-0.203-0.519-0.468l-1.853-18.153c-0.081-0.78-0.283-1.543-0.6-2.26c-0.01-0.021-0.02-0.031-0.031-0.051
	c-0.761-1.363-1.392-2.795-1.884-4.276c-0.294-1.314-0.458-2.654-0.489-4c-0.061-2.128,0.214-2.891,0.326-3.014
	c0.269-0.283,0.562-0.542,0.876-0.774c0.909-0.634,1.875-1.183,2.883-1.642l2.4,3.3c0.114,0.162,0.302,0.258,0.5,0.255
	c0.199,0.002,0.385-0.094,0.5-0.255l2.4-3.3c1.008,0.446,1.967,0.995,2.861,1.639c0.312,0.232,0.606,0.491,0.875,0.773
	c0.112,0.122,0.388,0.887,0.326,3.015C28.074,21.099,27.911,22.44,27.613,23.754z M40.564,19.752v0.002
	c-0.026,1.347-0.19,2.687-0.489,4c-0.495,1.479-1.125,2.91-1.88,4.276c-0.01,0.02-0.021,0.03-0.031,0.051
	c-0.314,0.718-0.518,1.48-0.6,2.26l-1.857,18.153c-0.029,0.265-0.252,0.465-0.52,0.468h-3.192c-0.267-0.003-0.489-0.203-0.519-0.468
	l-1.854-18.153c-0.08-0.78-0.283-1.543-0.6-2.26c-0.01-0.021-0.021-0.031-0.031-0.051c-0.012-0.021-0.479-0.865-0.967-1.914
	c0.297-0.661,0.549-1.341,0.752-2.036c0.32-1.415,0.497-2.857,0.529-4.308c0.092-3.126-0.488-3.706-0.682-3.899l-0.275-0.275
	c0.752-0.478,1.535-0.903,2.346-1.273l2.4,3.3c0.113,0.162,0.301,0.258,0.5,0.255c0.197-0.001,0.383-0.096,0.5-0.255l2.399-3.3
	c1.007,0.448,1.965,0.997,2.86,1.639c0.314,0.232,0.607,0.491,0.877,0.773C40.35,16.861,40.625,17.624,40.564,19.752z
	 M21.045,10.976h0.143c1.083,0.021,2.123-0.429,2.851-1.231c1.548-1.744,1.292-4.713,1.262-5.01C25.159,1.61,23.012,0.5,21.219,0.5
	h-0.188c-1.8,0-3.95,1.109-4.1,4.234c-0.031,0.301-0.285,3.269,1.263,5.01C18.924,10.543,19.962,10.992,21.045,10.976z
	 M18.155,4.837V4.8c0.132-2.861,2.24-3.085,2.881-3.085h0.173c0.641,0,2.749,0.224,2.881,3.085v0.041
	c0.081,0.739,0.061,2.928-0.967,4.089c-0.506,0.557-1.233,0.859-1.985,0.825h-0.031c-0.751,0.034-1.479-0.269-1.985-0.825
	C17.89,7.545,18.155,4.868,18.155,4.837z"/>
</svg>
