<?xml version="1.0" encoding="utf-8"?>
<!-- Generator: Adobe Illustrator 16.0.4, SVG Export Plug-In . SVG Version: 6.00 Build 0)  -->
<!DOCTYPE svg PUBLIC "-//W3C//DTD SVG 1.1//EN" "http://www.w3.org/Graphics/SVG/1.1/DTD/svg11.dtd">
<svg version="1.1" id="Layer_1" xmlns="http://www.w3.org/2000/svg" xmlns:xlink="http://www.w3.org/1999/xlink" x="0px" y="0px"
	 width="1054.199px" height="586.415px" viewBox="0 0 1054.199 586.415" enable-background="new 0 0 1054.199 586.415"
	 xml:space="preserve">
<path d="M329.894,585.87c0.011-0.01,0.022-0.019,0.034-0.028c-0.004,0.002-0.01,0.006-0.014,0.008
	C329.908,585.856,329.901,585.863,329.894,585.87z M447.896,271.155c7.972-1.68,15.966-3.234,23.985-4.663
	c8.011-1.426,16.061-2.6,24.078-3.97c13.737-2.351,28.693-6.531,37.295-18.409c0.952-1.32,1.796-2.716,2.521-4.173
	c0.228-0.452-1.52-0.526-1.759-0.047c-6.726,13.452-21.8,18.847-35.649,21.446c-7.991,1.5-16.059,2.583-24.067,3.978
	c-7.956,1.384-15.887,2.893-23.793,4.527c-15.746,3.252-31.379,6.99-46.9,11.213c-15.648,4.255-31.155,8.998-46.521,14.227
	c-15.213,5.178-30.253,10.822-45.122,16.938c-1.849,0.76-3.695,1.526-5.541,2.3c-0.381,0.161-0.2,0.37,0.042,0.514
	c0.424,0.129,0.882,0.09,1.278-0.107l-0.004-0.002c15.092-6.332,30.375-12.188,45.849-17.565
	c15.389-5.341,30.936-10.196,46.64-14.564C415.99,278.413,431.88,274.532,447.896,271.155z M213.726,177.896L213.726,177.896
	c5.46-9.117,10.768-18.322,15.925-27.615c0.232-0.417-1.5-0.49-1.759-0.015c-5.156,9.292-10.465,18.496-15.925,27.612
	C211.728,178.278,213.445,178.366,213.726,177.896z M230.229,209.873c2.993,0.133,5.986,0.269,8.98,0.406
	c1.231,0.056,0.415-0.731-0.368-0.765c-2.545-0.116-5.089-0.231-7.632-0.345c-1.138-0.053-2.779,0.16-3.81-0.339
	c-1.029-0.499-1.128-1.826-1.417-2.835c-1.154-3.591-2.873-6.975-5.093-10.025c-2.146-3.154-4.5-6.172-6.479-9.437
	c-1.015-1.639-1.885-3.363-2.601-5.153c-0.321-0.817-0.596-1.652-0.822-2.5c-0.154-0.93-0.423-1.836-0.8-2.7
	c-0.99-1.768-3.051-1.547-4.778-1.386c-2.929,0.278-5.883,0.105-8.76-0.511c-0.038-0.008-0.102-0.021-0.159-0.032
	c2.988-5.702,5.336-11.845,9.262-16.958c0.265-0.343-1.418-0.542-1.756-0.1c-6.526,8.5-8.632,19.971-16.752,27.3
	c-0.5,0.457,1.219,0.615,1.582,0.285v0.002c3.128-2.825,5.371-6.244,7.317-9.867c2.338,0.51,4.725,0.772,7.119,0.78
	c1.06,0,2.117-0.052,3.172-0.156c0.513-0.053,1.193-0.248,1.654,0.083c0.384,0.409,0.64,0.922,0.735,1.475
	c0.465,1.899,1.07,3.762,1.812,5.572c0.791,1.705,1.704,3.35,2.731,4.923c2.124,3.308,4.564,6.4,6.699,9.7
	c1.096,1.665,2.065,3.41,2.9,5.22c0.364,0.802,0.686,1.622,0.965,2.456c0.236,0.982,0.524,1.95,0.865,2.9
	C225.74,209.918,228.323,209.788,230.229,209.873z M224.953,169.274c0.094-0.385-1.673-0.493-1.812,0.083l-0.002,0.004
	c-0.678,2.824,4.5,3.417,6.188,3.816c1.924,0.458,3.848,0.915,5.772,1.373c1.763,0.419,4.213,0.535,5.166,2.3
	c0.69,1.495,1.546,2.908,2.55,4.213c1.128,1.317,2.416,2.483,3.608,3.738c5.183,5.453,9.077,11.998,11.399,19.153
	c0.184,0.555,1.939,0.3,1.812-0.085c-2.12-6.545-5.54-12.595-10.055-17.786c-2.209-2.528-5.089-4.683-6.711-7.669
	c-0.749-1.378-1.067-2.737-2.617-3.41c-1.666-0.588-3.379-1.033-5.12-1.328c-2.139-0.506-4.277-1.014-6.415-1.525
	C227.337,171.823,224.467,171.293,224.953,169.274z M267.143,159.396c0.571,0.146,1.166,0.18,1.75,0.101
	c1.058-0.1,1.02-0.829-0.06-0.722v-0.002c-1.9,0.189-3.272-1.977-3.344-3.649c0.009-1.927,0.938-3.733,2.5-4.861
	c3.175-2.436,7.883-2.748,11.733-2.672c8.171,0.161,16.126,2.606,24.328,2.394c0.248-0.007,1.007-0.016,1.092-0.343
	c0.085-0.327-0.444-0.4-0.669-0.394c-7.785,0.2-15.356-1.982-23.1-2.352c-3.606-0.236-7.228,0.131-10.713,1.086
	c-2.953,0.865-6.045,2.63-6.823,5.842C263.212,156.275,264.692,158.77,267.143,159.396z M241.956,172.227
	c1.944-1.66,4.176-2.95,6.584-3.807c2.857-0.8,5.774,0.229,8.48,1.134c5.138,1.719,10.322,3.346,15.419,5.182
	c2.447,0.883,3.858,2.313,4.19,4.957c0.234,2.575,0.248,5.165,0.042,7.741c-0.136,2.712-0.409,5.416-0.82,8.1
	c-0.278,2.617-0.829,5.197-1.643,7.7c-1.03,2.686-3.238,3-5.8,2.837c-2.18-0.29-4.389-0.259-6.559,0.092
	c-1.2,0.276-0.221,0.827,0.548,0.651l-0.006-0.002c3.9-0.894,9.192,1.625,12.41-1.67c1.721-1.767,1.979-4.868,2.412-7.179
	c0.58-3.101,0.976-6.234,1.184-9.382c0.296-3.012,0.307-6.046,0.034-9.06c-0.192-2.337-1.744-4.34-3.959-5.111
	c-2.735-1.115-5.624-1.928-8.425-2.868c-3.011-1.012-6.009-2.06-9.032-3.027c-2.976-0.954-6.049-1.549-9.132-0.725
	c-1.911,0.511-3.622,1.477-5.245,2.58c1.855-5.244,4.402-10.22,7.586-14.788c0.248-0.355-1.441-0.482-1.759-0.027
	c-3.539,5.076-6.298,10.653-8.185,16.547C240.082,172.739,241.728,172.396,241.956,172.227z M279.178,260.652
	c2.412-0.284,4.803-0.73,7.155-1.335c9.685-2.452,18.574-7.175,27.611-11.3c4.568-2.144,9.271-3.987,14.08-5.517
	c5.064-1.511,10.224-2.682,15.444-3.506c20.116-3.337,41.246-3.366,59.913-12.526c8.682-4.26,16.547-9.941,24.822-14.9
	c4.23-2.602,8.664-4.857,13.258-6.745c5.214-1.98,10.643-3.338,16.175-4.046c5.48-0.791,11-1.29,16.479-2.1
	c5.72-0.847,11.4-1.921,17.056-3.15c11.006-2.394,21.874-5.38,32.699-8.477c2.695-0.771,5.388-1.547,8.077-2.329
	c0.593-0.17-0.972-0.849-1.439-0.713c-21.101,6.1-42.277,12.136-64.142,14.755c-10.189,1.221-20.199,2.434-29.624,6.753
	c-8.406,3.851-16.01,9.181-23.838,14.046c-8.224,5.314-17.214,9.333-26.658,11.918c-9.732,2.512-19.764,3.58-29.722,4.779
	c-9.743,1.173-19.529,2.459-28.967,5.238c-9.314,2.742-17.911,7.253-26.724,11.233c-4.287,1.999-8.703,3.71-13.217,5.122
	c-4.939,1.394-10.027,2.194-15.156,2.385c-4.424,0.235-8.76,1.332-12.763,3.228c-3.977,1.845-7.872,4.166-12.182,5.153
	c-1.908,0.472-3.892,0.484-5.812,0.089c-0.259-1.219,0.232-2.489,1.28-3.2c0.347-0.249-1.208-0.911-1.657-0.586h-0.002
	c-1.037,0.747-2.343,3.091-1.02,4.148c0.75,0.38,1.574,0.589,2.414,0.613c0.955,0.141,1.922,0.189,2.886,0.143
	c4.229-0.2,8.131-2.057,11.871-3.881c4.438-2.162,8.782-4.28,13.769-4.75C273.886,260.947,276.541,260.951,279.178,260.652z
	 M773.706,348.797c-2.969-4.797-7.201-8.776-11.634-12.261c-4.772-5.366-11.272-9.246-18.164-11.723
	c-6.692-3.619-13.668-6.712-20.88-9.205c-17.431-6.062-35.981-8.21-54.336-6.292c-13.373,1.367-26.507,4.494-39.061,9.301
	c-1.954,0.739-3.891,1.518-5.812,2.334c-0.014,0.006-0.013,0.015-0.024,0.021c-0.027,0.011-0.062,0.014-0.085,0.03h-0.004
	c-5.963,4.473-11.824,9.69-15.495,16.281c-1.988,3.369-3.002,7.225-2.928,11.135c0.462,10.729,10.375,18.467,18.844,23.438
	c12.417,7.288,26.579,11.678,40.605,14.6c14.5,3.045,29.343,4.121,44.13,3.201c14.76-0.935,29.765-3.424,43.646-8.66
	c5.616-1.973,10.915-4.753,15.73-8.252c3.5-2.67,6.77-6.125,8.049-10.437C777.683,357.62,776.206,352.833,773.706,348.797z
	 M759.329,376.554c-12.25,6.313-26.286,9.348-39.86,11.091c-14.501,1.936-29.195,1.924-43.693-0.034
	c-14.402-1.876-28.47-5.769-41.787-11.563c-5.799-2.486-11.256-5.705-16.238-9.577c-3.919-3.161-7.556-7.03-9.447-11.769
	c-3.639-9.115,1.251-18.031,7.5-24.646c2.92-3.033,6.093-5.811,9.486-8.305c10.307-4.38,21.05-7.652,32.05-9.761
	c16.798-3.311,34.087-3.25,50.862,0.178c10.928,2.457,21.49,6.258,31.46,11.292c-0.676-0.193-1.351-0.393-2.032-0.569
	c-0.756-0.2-1.769,0.316-0.57,0.629c2.332,0.605,4.657,1.344,6.929,2.225c2.165,1.193,4.303,2.44,6.403,3.752
	c3.298,1.941,6.453,4.107,9.459,6.466c2.769,2.945,5.003,6.402,6.445,10.446c1.497,4.269,2.064,8.809,1.662,13.315
	c-0.242,2.833-0.511,6.471-2.643,8.581c-2.365,2.338-5.764,3.688-8.812,4.857c-4.515,1.676-9.128,3.071-13.813,4.18
	c-10.483,2.617-21.146,4.519-31.82,6.179c-6.185,0.963-12.386,1.782-18.595,2.579c-0.1,0.013-0.2,0.023-0.3,0.033
	c-1.161,0.135,0.27,0.806,0.827,0.742l0.008-0.002c5.389-0.625,10.765-1.387,16.128-2.193c10.763-1.62,21.513-3.479,32.112-5.975
	c5.022-1.131,9.98-2.533,14.853-4.199c3.476-1.227,7.101-2.601,10.054-4.861c0.98-0.684,1.784-1.592,2.344-2.648
	c0.625-1.564,1.028-3.209,1.199-4.886c0.669-4.364,0.445-8.817-0.655-13.093c-0.831-3.198-2.167-6.096-3.879-8.715
	c0.548,0.504,1.092,1.012,1.627,1.529c3.76,3.775,7.373,8.399,8.313,13.783C776.652,365.606,767.084,372.556,759.329,376.554z
	 M285.838,181.171c-1.938-4.166-1.897-8.919-0.014-12.993l3.602,2.489c0.74,0.509,1.479,1.019,2.215,1.529
	c0.631,0.437,1.623,0.918,1.759,1.757c-0.016,0.822-0.286,1.619-0.772,2.282c-0.425,0.809-0.849,1.618-1.271,2.427
	c-0.874,1.667-1.747,3.333-2.619,5c-0.256,0.486,1.5,0.742,1.736,0.288l2.769-5.282c0.447-0.858,0.899-1.714,1.346-2.57
	c0.475-0.667,0.677-1.49,0.563-2.3c-0.249-0.606-0.698-1.109-1.272-1.426c-0.776-0.55-1.565-1.081-2.345-1.621
	c-1.651-1.137-3.302-2.276-4.952-3.417c-0.085-0.051-0.175-0.092-0.267-0.127c0.341-0.62,0.727-1.22,1.158-1.797
	c0.277-0.368-1.418-0.628-1.748-0.19v-0.004c-3.113,4.18-3.97,9.624-2.291,14.557c1.547,4.449,5.158,7.639,8.934,10.24
	c3.921,2.7,8.229,4.959,11.677,8.3c1.483,1.438,2.717,3.823,5.032,3.869c2.488,0.047,3.488-2.911,4.244-4.828
	c2.178-5.523,2.615-11.795,6.307-16.645c0.278-0.365-1.417-0.629-1.749-0.19c-2.907,3.818-3.825,8.583-5.127,13.093
	c-0.605,2.39-1.539,4.684-2.775,6.816c-0.147,0.236-0.553,0.961-0.822,1.01c-0.127,0.022-0.575-0.355-0.65-0.415
	c-0.458-0.405-0.875-0.854-1.246-1.339c-0.693-0.808-1.438-1.571-2.229-2.282C298.884,191.857,289.645,189.017,285.838,181.171z
	 M1053.344,438.206c-25.695-27.968-51.151-56.154-76.397-84.534c1.843-1.875,3.619-3.819,5.307-5.843
	c2.614-3.106,4.837-6.523,6.618-10.172c0.855-1.746,1.189-3.701,0.963-5.633c-0.58-4.164-3.945-7.242-7.27-9.457
	c-5.039-3.359-10.91-5.461-16.677-7.184c-9.046-2.705-18.394-4.489-27.806-5.698c-17.385-19.845-34.647-39.797-51.769-59.871
	c-24.614-29.034-49.013-58.138-69.541-90.272c-2.659-4.162-5.269-8.352-7.839-12.565c2.189,0.785,4.253,1.886,6.107,3.294
	c2.41,2.006,4.569,4.297,6.431,6.821c0.348,0.452,0.675,1.1,1.255,1.266c0.452,0.146,0.946,0.069,1.333-0.207
	c0.306-0.31-1.331-2.851-1.466-3.109c-1.765-3.4-3.383-6.887-5.274-10.219c-2.614-4.612-5.935-8.837-10.729-11.292
	c-2.315-1.186-4.794-1.997-7.29-2.761c-2.651-4.557-5.27-9.133-7.862-13.724c0.406-0.019,0.813-0.044,1.223-0.083
	c5.838-0.551,11.658-1.527,17.426-2.574c1.106-0.2,2.213-0.406,3.313-0.635c0.815-0.095,1.609-0.324,2.35-0.678
	c2.12-1.311,1.221-4.892,0.767-6.807c-0.466-1.889-1.033-3.751-1.7-5.579c-0.789-2.242-1.881-4.438-2.526-6.72
	c-0.582-2.287-0.01-4.714,1.533-6.5c0.292-0.373,0.61-0.725,0.939-1.067c1.059-0.414,2.111-0.843,3.155-1.294
	c0.557-0.238,4.474-1.578,3.716-2.6c-0.146-0.197-0.408-0.313-0.733-0.377c1.146-0.563,2.311-1.065,3.453-1.501
	c0.262-0.1,0.521-0.2,0.785-0.287c0.506-0.169,0.146-0.5-0.181-0.571c-2.558-0.555-5.187-0.706-7.79-0.448
	c-2.074,0.155-4.1,0.705-5.967,1.621c-1.692,0.875-2.76,2.068-3.79,3.458c-1.017,0.212-2.025,0.455-3.023,0.742
	c0.164-2.996,1.401-5.8,2.579-8.511c0.542-1.244,1.119-2.478,1.567-3.76c0.374-0.737,0.496-1.578,0.348-2.391
	c-0.472-1.168-2.329-0.969-3.238-0.492c-1.204,0.777-2.24,1.787-3.049,2.971c-1.363,1.751-2.611,3.588-3.738,5.5
	c-1.174,1.922-2.238,3.909-3.188,5.951c-0.614,1.465-1.14,2.966-1.573,4.494c-0.073,0.221-0.292,0.526-0.341,0.756
	c-0.011,0.044-0.081,0.11-0.145,0.17c-0.049-0.025-0.096-0.058-0.122-0.104c-0.168-0.209-0.346-0.409-0.533-0.6
	c-0.769-1.088-1.334-2.306-1.669-3.595c-0.766-2.572-1.369-5.739-0.276-8.311c0.716-1.523,1.94-2.748,3.463-3.464
	c0.4-0.212,2.042-0.776,1.521-1.407c-0.756-0.918-3.55,0.477-4.232,0.791c-1.91,0.874-4.166,2.037-5.357,3.838
	c-0.879,1.526-1.549,3.164-1.991,4.868c-0.753,2.36-1.4,4.748-2.157,7.106c-0.596,2.12-1.435,4.165-2.5,6.092
	c-0.094,0.16-0.209,0.305-0.312,0.458c-0.427-0.774-0.853-1.549-1.278-2.323c-0.036-0.611-0.047-1.224-0.009-1.837
	c-0.006-1.886,0.085-3.773,0.2-5.655c0.12-2.062,1.226-6.783-1.447-7.714c-1.828-0.635-2.713,0.727-2.833,2.367
	c-0.154,1.312-0.442,2.602-0.853,3.851c-3.473-6.321-6.95-12.642-10.453-18.947c0.031-0.201,0.059-0.402,0.09-0.603
	c0.054-0.354,0.109-0.706,0.167-1.057c0.056-0.339-0.812-0.446-1.361-0.331c-1.181-2.12-2.364-4.238-3.553-6.353
	c-7.212-12.839-14.53-25.771-23.271-37.651c-4.9-6.656-10.957-14.807-19.039-17.791c-5.3-1.955-9.2-0.27-13.68,2.539
	c-3.326,2.089-7.257,3.345-10.961,4.565c-14.519,4.792-29.565,8.1-44.477,11.4c-50,11.049-100.49,19.933-150.9,28.819
	c-60.223,10.612-120.521,20.743-180.795,31.018c-50.041,8.53-100.128,16.922-149.962,26.6c-14.584,2.831-29.225,5.648-43.607,9.4
	c-14.657,3.822-29.152,8.321-43.728,12.442c-0.867,0.246-11.712,2.774-15.601,4.045c-0.114,0.023-0.227,0.049-0.339,0.08
	c-0.553-0.108-0.929-0.115-0.556,0.178c-0.41,0.161-0.801,0.369-1.161,0.627c-0.01,0.033-0.021,0.065-0.029,0.1
	c0.146,0.396,1.186,0.381,2.704,0.124c0.228,0.112,0.475,0.232,0.759,0.367c2.572,1.213,5.487,5,7.507,6.939
	c9.102,8.774,17.538,18.192,25.262,28.163c-10.467,4.053-20.933,8.105-31.397,12.155l-51.536,19.953
	c-3.948,1.529-7.896,3.057-11.844,4.585c-0.486,0.145-0.763,0.656-0.618,1.142c0.042,0.141,0.116,0.269,0.218,0.375
	c6.933,6.283,13.393,13.137,19.925,19.828c12.254,12.546,24.415,25.18,36.485,37.9c16.062,16.849,32.057,33.762,47.982,50.74
	c17.91,19.07,35.75,38.207,53.518,57.408c18.145,19.607,36.203,39.293,54.176,59.057c16.388,18.043,32.657,36.189,48.809,54.443
	c12.959,14.701,25.833,29.48,38.337,44.57c7.794,9.404,15.809,18.865,22.457,29.137c0.888,1.338,1.702,2.721,2.439,4.146
	c0.239,0.445,0.446,0.906,0.62,1.379c0.094,0.27,0.325,1.201,0.29,0.99c0.958,6.049,0.829,12.287,1.964,18.316
	c0.116,0.615,0.187,1.42,1.036,1.42c0.091,0,0.524-0.268,0.796-0.543c-0.187,0.151-0.352,0.21,0.02-0.021
	c0.187-0.195,0.288-0.391,0.113-0.497c0.223,0.135,0.067,0.344-0.1,0.489c0.043-0.026,0.089-0.055,0.146-0.089
	c0.493-0.332,0.966-0.691,1.417-1.078c1.609-1.219,3.225-2.428,4.847-3.629c4.937-3.656,9.928-7.234,15-10.693
	c5.465-3.729,11.018-7.367,16.816-10.562c2.317-1.326,4.723-2.492,7.2-3.488c2.136-0.76,4.386-1.148,6.653-1.15
	c1.866-0.093,7.437-0.386,8.529-2.921c10.274,14.222,24.125,24.557,42.664,24.569c0.247,0,0.428-0.041,0.559-0.1
	c20.533-4.576,41.067-9.156,61.603-13.736c49.384-11.01,98.77-22.021,148.156-33.033l179.132-39.945l153.985-34.338
	c17.019-3.795,34.037-7.59,51.055-11.387l15.894-3.543c2.644-0.588,5.801-0.838,8.314-1.852c0.342-0.107,0.691-0.186,1.045-0.234
	C1053.067,438.604,1053.532,438.413,1053.344,438.206z M953.146,312.976c6.729,1.283,13.329,3.171,19.719,5.642
	c4.582,1.844,9.453,4.188,12.712,8.025c2.55,2.828,3.198,6.891,1.654,10.371c-1.628,3.496-3.707,6.766-6.183,9.723
	c-1.61,2.015-3.324,3.941-5.114,5.794c-4.785-5.381-9.576-10.757-14.346-16.153c-7.604-8.577-15.176-17.184-22.73-25.805
	C943.64,311.239,948.406,312.029,953.146,312.976z M800.374,132.075c4.562,1.31,8.623,3.966,11.65,7.621
	c3.133,3.896,5.38,8.468,7.594,12.993c-2.092-2.28-4.61-4.128-7.419-5.429c-1.33-0.574-2.685-1.098-4.054-1.59
	c-2.763-4.549-5.479-9.125-8.159-13.72C800.115,131.992,800.244,132.033,800.374,132.075z M805.729,144.837
	c-3.657-1.204-7.394-2.214-11.062-3.252c-8.249-2.338-16.558-4.457-24.923-6.357c-6.637-1.505-13.4-3.087-20.194-3.669
	c-1.553-0.131-3.577-0.415-5.063,0.221c-0.5,0.216-0.636,0.548-0.994,0.911c-0.504,0.437-1.074,0.79-1.69,1.045
	c-1.825,0.9-3.747,1.594-5.59,2.459c-1.523,0.715-3.413,1.554-4.4,3c-0.954,1.4-0.165,2.744,0.979,3.733
	c2.8,2.412,6.815,3.608,10.248,4.725c6.791,2.216,13.771,3.789,20.569,5.993c6.152,2,12.22,4.27,18.154,6.849
	c8.786,3.729,17.188,8.302,25.088,13.657c4.764,3.292,10.491,7.329,12.74,12.912c0.175,0.367,0.284,0.758,0.339,1.157
	c-8.966-4.642-17.962-9.23-26.99-13.757c-14.887-7.487-29.793-15.1-45.11-21.683c-2.187-0.938-4.386-1.872-6.645-2.623
	c-2.835-0.791-5.774-1.145-8.717-1.048c-2.674-0.066-5.349,0.02-8.013,0.258c-1.185,0.111-3.693,0.1-4.623,1.059
	c-1.043,1.076,2.34,1.823,3.083,2.064c14.414,4.6,28.8,9.265,43.047,14.363c8.438,3.025,16.862,6.152,25.071,9.756
	c3.132,1.333,6.194,2.825,9.176,4.467c1.876,0.92,3.58,2.158,5.035,3.658c1.646,1.811,3.025,3.845,4.1,6.043
	c0.001,0.002,0.001,0.006,0.001,0.008c-0.519-0.239-1.039-0.474-1.562-0.701c-5.062-2.205-10.136-4.382-15.222-6.529
	c-16.357-6.925-32.794-13.75-49.523-19.728c-6.063-2.166-12.248-4.451-18.587-5.679c-3.9-0.758-7.919-0.5-11.866-0.845
	c-2.606-0.227-5.225-0.6-7.843-0.633c-0.388-0.003-1.156-0.037-1.853,0.072c12.089-8.387,24.178-16.773,36.265-25.163
	c14.038-9.741,28.074-19.485,42.108-29.23c2.601,4.694,5.22,9.379,7.862,14.051c-0.129-0.001-0.257,0.003-0.386,0
	c-1.768-0.1-3.532-0.294-5.3-0.412c-1.958-0.177-3.928-0.195-5.889-0.054c-1.012,0.1-2.815,0.247-3.39,1.273
	c-0.658,1.181,0.944,2.527,1.699,3.194c2.73,2.256,5.718,4.181,8.9,5.735c4.137,2.173,8.466,3.625,12.858,5.046
	C800.287,135.755,802.984,140.311,805.729,144.837z M689.802,171.401c2.973,1.119,5.984,2.126,8.951,3.276
	c9.191,3.569,18.29,7.384,27.354,11.262c11,4.7,21.943,9.546,32.763,14.648c8.378,3.952,16.906,7.912,24.748,12.872
	c1.669,1.056,4.021,2.3,5.028,4.092c0.696,1.45,1.203,2.983,1.509,4.562c0.199,0.807,0.339,1.625,0.431,2.45
	c-0.615-2.438-1.52-4.784-2.975-6.695c-1.42-1.865-3.421-2.467-5.5-3.272c-2.614-1.012-5.225-2.037-7.837-3.053
	c-8.441-3.295-16.887-6.583-25.336-9.863c-9.99-3.866-19.993-7.7-30.01-11.5c-8.276-3.127-16.562-6.245-24.919-9.141
	c-2.557-0.889-5.12-1.776-7.726-2.521c-1.841-0.528-4.56-1.288-6.123,0.254c-1.526,1.507,0.5,3.787,1.679,4.761
	c1.826,1.314,3.942,2.167,6.169,2.488c2.7,0.513,5.354,1.255,8,1.962c9.907,2.646,19.739,5.59,29.5,8.726
	c10.39,3.181,20.604,6.91,30.6,11.171c3.281,1.309,6.401,2.989,9.3,5.008c2.682,2.033,5.2,4.346,7.692,6.6
	c1.174,1.027,2.29,2.118,3.366,3.246c-7.941-3.244-15.896-6.446-23.871-9.593c-16.251-6.442-32.548-12.809-49.022-18.665
	c-6.207-2.209-12.445-4.409-18.8-6.149c-1.832-0.55-3.704-0.955-5.6-1.208c-0.983-0.08-1.972-0.049-2.947,0.091
	c-2.387,0.254-4.779,0.546-7.139,1.012c-1.536,0.3-7.934,1.529-5.372,4.233c1.719,1.821,4.667,2.681,6.942,3.482
	c1.612,0.571,3.245,1.086,4.877,1.591c9.241,2.855,18.601,5.312,27.885,8.013c9.08,2.643,18.356,5.238,26.984,9.156
	c2.209,1,5.171,2.2,6.624,4.268c1.04,1.482,1.102,2.975,0.597,4.315c-1.827-1.968-4.361-3.778-5.324-4.379
	c-5.101-3.19-10.95-5.18-16.659-6.954c-6.671-2.073-13.472-3.722-20.3-5.211c-5.454-1.188-10.938-2.244-16.416-3.312
	c-3.837-0.84-7.738-1.348-11.661-1.52c-2.444-0.08-4.891,0.019-7.32,0.294c-1.746,0.068-3.453,0.537-4.991,1.368
	c-3.586,2.467,6.257,5.938,7.367,6.355c4.863,1.823,9.867,3.292,14.8,4.917c4.906,1.62,9.807,3.257,14.7,4.91
	c8.218,2.779,16.42,5.606,24.605,8.483c1.658,0.584,3.312,1.183,4.968,1.777c-7.093-1.883-14.172-3.814-21.252-5.74
	c-10.761-2.929-21.521-5.854-32.283-8.773c-6.656-1.8-13.306-3.763-20.036-5.276c-0.533-0.122-1.731-0.488-2.156-0.02
	c-0.601,0.66,1.399,2.017,1.816,2.369c2.452,2.046,5.006,3.961,7.641,5.761c-2.361-0.956-4.727-1.903-7.098-2.836
	c-4.143-1.629-8.359-3.569-12.674-4.7c-0.985-0.261-2.86-0.629-3.622,0.328c-0.666,0.834,0.147,2.193,0.588,2.933
	c1.307,2.025,2.852,3.886,4.601,5.543c2.597,2.595,5.332,5.047,8.194,7.346c7.22,5.878,15.495,10.487,21.895,17.323
	c3.372,3.677,6.351,7.686,8.916,11.951c-0.263-0.001-0.523,0.052-0.762,0.173c-1.062,0.558-2.14,1.064-3.225,1.542
	c-0.36-0.431-0.706-0.874-1.071-1.3c-3.699-4.2-8.077-7.5-12.574-10.775c-5.518-4.03-11.133-7.922-16.847-11.677
	c-4.879-3.225-9.8-6.45-14.958-9.228c-2.216-1.2-5.34-3.3-7.592-1.143c-3.379,3.234-2.9,8.7-0.1,12.1
	c2.385,2.9,5.774,4.413,9.068,6.013c3.327,1.614,6.604,3.32,9.834,5.117c7.12,3.857,13.952,8.224,20.443,13.066
	c0.689,0.511,1.368,1.037,2.037,1.574c-1.912,0.411-3.844,0.739-5.787,1.013c-6.269-3.606-12.488-7.301-18.769-10.875
	c-5.146-2.929-10.311-5.84-15.553-8.6c-3.13-1.649-6.428-3.658-9.876-4.582c-1.443-0.259-2.917-0.294-4.371-0.105
	c-2.486,0.087-4.96,0.404-7.389,0.947c-1.335,0.328-3.8,0.891-4.213,2.474c-0.551,2.133,3.12,3.929,4.488,4.678
	c7.091,3.86,14.983,6.381,22.684,8.71c6.381,1.932,12.836,3.613,19.32,5.164c0.764,0.185,1.528,0.359,2.291,0.548
	c1.247,0.314,0.515,0.406-0.4,0.595c-1.604,0.299-3.225,0.487-4.854,0.562c-0.869,0.087-1.745,0.101-2.616,0.04
	c-4.107-0.727-8.171-1.678-12.175-2.848c-5.884-1.515-11.753-3.087-17.628-4.627c-4.312-1.134-8.63-2.372-13-3.241
	c-3.489-0.695-7.208,0.825-10.351,2.229c-2.082,0.93-4.605,2.129-5.877,4.124c-1.241,1.946-0.029,3.7,1.645,4.863
	c4.318,3.008,9.614,4.157,14.776,5.125c-2.378,0.622-4.743,1.294-7.103,1.99c-4.731,0.335-9.478,0.43-14.22,0.258
	c-2.075,0.021-4.14-0.296-6.113-0.938c-2.024-0.818-1.144-2.287,0.049-3.687c1.438-1.77,3.664-2.707,5.935-2.5
	c0.776,0.123,1.707-0.5,0.486-0.7c-1.94-0.265-3.915,0.075-5.655,0.972c-1.562,0.813-2.827,2.098-3.617,3.671
	c-0.313,0.454-0.368,1.039-0.145,1.543c0.622,1.19,2.567,1.545,3.733,1.779c2.406,0.425,4.844,0.641,7.286,0.646
	c3.086,0.042,6.171-0.013,9.253-0.153c-2.878,0.859-5.755,1.72-8.647,2.513c-4.572,1.276-9.219,2.271-13.912,2.981
	c-4.248,0.62-8.561,1.154-12.589,2.724c-0.844,0.329-1.661,0.702-2.464,1.102c5.473-4.469,10.945-8.939,16.42-13.405
	c14.193-11.55,28.433-23.045,42.715-34.486c17.169-13.748,34.423-27.391,51.762-40.929c7.489-5.837,15.008-11.636,22.546-17.409
	c0.963-0.668,1.926-1.335,2.889-2.002c6.779-4.702,13.557-9.407,20.335-14.11c-0.134,1.268,2.549,2.968,3.321,3.535
	c1.614,1.143,3.324,2.146,5.108,3c4.984,2.388,10.087,4.52,15.288,6.386c5.346,2.022,10.729,3.949,16,6.141
	c3.655,1.52,7.013,3.444,10.523,5.234c9.145,4.659,18.662,8.544,27.759,13.309c4.623,2.297,9.031,5.005,13.17,8.091
	c3.952,3.089,6.561,7.291,9.482,11.312l0.874,1.2c-2.618-1.385-5.235-2.771-7.859-4.143c-8.579-4.5-17.18-8.96-25.8-13.38
	c-9.998-5.132-20.049-10.217-30.168-15.155c-7.986-3.9-16-7.817-24.241-11.164c-2.174-0.975-4.433-1.748-6.747-2.311
	c-2.295-0.357-4.607-0.585-6.928-0.684c-3.138-0.267-6.285-0.531-9.437-0.6c-1.076-0.042-2.154-0.016-3.227,0.078
	c-0.5,0.054-1.434,0.094-1.811,0.5C685.799,170.126,689.277,171.201,689.802,171.401z M736.092,228.582
	c-0.976,0.146-1.965,0.15-2.943,0.034c1.612-0.499,3.105-1.326,4.384-2.435C737.957,227.29,737.767,228.267,736.092,228.582z
	 M683.028,271.176c-0.361,0.107-0.723,0.214-1.084,0.321c-1.324-2.043-2.689-4.059-4.119-6.029c0.917-0.086,1.834-0.162,2.752-0.227
	C681.453,267.195,682.27,269.174,683.028,271.176z M681.87,263.939c1.83-0.516,3.664-1.016,5.511-1.469
	c8.644-1.979,17.476-3.019,26.343-3.1c7.033-0.181,14.212-0.092,21.347-0.41c-13.647,5.098-28.721,4.811-43.169,5.031
	c-3.29,0.05-6.587,0.125-9.878,0.285C681.972,264.164,681.922,264.051,681.87,263.939z M683.288,271.883
	c0.463,1.252,0.902,2.512,1.318,3.781c-0.408-0.651-0.812-1.305-1.227-1.951c-0.327-0.526-0.676-1.037-1.01-1.558
	C682.676,272.064,682.983,271.975,683.288,271.883z M626.094,276.113c-4.326,0.638-8.739,1.143-12.841,2.742
	c-7.122,2.779-12.617,8.346-19.323,11.862c-0.946,0.123-1.892,0.247-2.837,0.37c-9.825,1.279-19.651,2.559-29.478,3.839
	c-16.758,2.182-33.516,4.365-50.273,6.55c3.048-2.317,6.075-4.664,9.059-7.07c0.473-0.095,0.947-0.181,1.419-0.28
	c1.894-0.478,3.741-1.111,5.525-1.888c0.172,0.196,0.413,0.344,0.765,0.407c0.679,0.077,1.359-0.113,1.9-0.53
	c1.656-1.202,3.247-2.49,4.767-3.86c0.811-0.662,1.621-1.323,2.432-1.985c1.763-1.247,3.522-2.497,5.35-3.648
	c3.807-2.423,8.053-4.072,12.496-4.855c4.568-0.825,9.167-1.326,13.7-2.363c5.892-1.348,11.658-3.157,17.451-4.866
	c1.551-0.108,3.101-0.236,4.648-0.39c1.968-0.176,3.941-0.365,5.9-0.657c0.5-0.074,3.312-0.466,1.812-1.2
	c-0.711-0.259-1.451-0.419-2.202-0.503c8.495-1.881,17.164-2.869,25.865-2.934c10.439-0.255,21.189,0.052,31.637-1.283
	c0.668,0.386,1.334,0.772,2.001,1.157c1.495,0.86,2.991,1.719,4.498,2.561c-5.646,1.391-11.201,3.143-16.786,4.772
	c-1.23,0.279-2.445,0.621-3.639,1.037C635.389,274.381,630.766,275.391,626.094,276.113z M634.588,275.575
	c-5.448,3.117-10.2,7.418-15.863,10.194c-4.175,2.048-8.737,2.839-13.307,3.45c-2.612,0.349-5.228,0.684-7.843,1.023
	c0.397-0.239,0.791-0.482,1.179-0.737c3.369-2.146,6.517-4.62,9.894-6.751c3.754-2.396,7.937-4.04,12.317-4.843
	c4.448-0.822,8.938-1.293,13.359-2.273C634.412,275.618,634.5,275.595,634.588,275.575z M496.551,304.219l-0.002,0.002l11.004-1.434
	c-0.678,0.509-1.358,1.015-2.037,1.521c-5.296,0.689-10.591,1.38-15.887,2.07c3.92-3.105,7.853-6.194,11.8-9.266
	c2.297-0.299,4.593-0.597,6.891-0.896c3.149-0.312,6.283-0.752,9.398-1.303c-2.917,2.35-5.879,4.635-8.865,6.886
	c-1.974,0.257-3.947,0.515-5.921,0.771l-7.237,0.94C494.538,303.665,496,304.292,496.551,304.219z M379.187,395.329
	c8.958-7.284,17.926-14.559,26.906-21.817c18.933-15.326,37.899-30.611,56.899-45.854c8.373-6.709,16.738-13.431,25.145-20.102
	l15.783-2.056c-2.728,2.032-5.457,4.062-8.168,6.12c-17.833,13.531-35.479,27.314-53.117,41.1c-16.754,13.1-33.612,26.1-50,39.654
	c-1.522,1.256-3.069,2.5-4.505,3.86c-2.193,2.272-4.757,4.157-7.58,5.571c-1.101,0.488-2.739,1.256-3.441-0.131
	c-0.541-1.07-0.209-2.562,0.192-3.818c1.06,0.783,2.259,1.366,3.548,1.686c1.378,0.281,4.462,0.051,4.7-1.861
	C385.787,395.739,381.632,395.392,379.187,395.329z M525.16,284.43c-1.236-0.441-4.059-0.99-3.984,1.07
	c0.184,1.055,0.606,2.053,1.236,2.918c0.215,0.355,1.164,2.069,1.311,1.567c-0.101,0.352-1.016,0.853-1.3,1.09
	c-1.129,0.943-2.265,1.879-3.408,2.808c-1.701,0.344-3.422,0.604-5.146,0.836c-3.742,0.502-7.489,0.98-11.234,1.463
	c2.804-2.177,5.605-4.358,8.428-6.511c5.791-4.418,11.846-8.41,17.854-12.526c12.367-8.472,24.712-16.979,37.032-25.519
	c18.106-12.511,36.204-25.036,54.292-37.575c12.532-8.684,25.062-17.372,37.591-26.059c-2.949,2.294-5.903,4.584-8.848,6.887
	c-19.904,15.564-39.69,31.277-59.36,47.139c-14.767,11.885-29.487,23.828-44.16,35.827c-3.354,2.741-6.705,5.482-10.056,8.223
	c-2.157,1.526-4.33,3.027-6.632,4.311v-0.001C528.638,287.704,527.902,285.406,525.16,284.43z M525.395,290.097
	c-1.022-1.204-1.803-2.593-2.3-4.092c-0.429-1.792,1.221-1.175,2.26-0.281c1.006,1.011,1.57,2.38,1.569,3.807
	c0.044,0.549-0.016,1.211,0.06,1.788c-0.021,0.01-0.042,0.022-0.064,0.033c-1.631,0.788-3.323,1.381-5.049,1.854
	c0.494-0.403,0.991-0.801,1.482-1.208c0.646-0.539,1.3-1.079,1.941-1.623C525.37,290.31,525.475,290.208,525.395,290.097z
	 M510.041,302.463l45.729-5.957c9.825-1.279,19.651-2.559,29.477-3.84c2.048-0.267,4.096-0.534,6.144-0.801
	c-3.697,1.448-7.579,2.379-11.536,2.762c-4.852,0.654-9.711,1.268-14.568,1.899l-29.208,3.8c-9.348,1.218-18.697,2.437-28.046,3.654
	C508.702,303.476,509.372,302.97,510.041,302.463z M642.537,260.08c-6.199-1.478-12.384-3.06-18.5-4.863
	c-8.093-2.389-16.5-4.964-23.916-9.054c-1.151-0.637-5.374-2.793-3.773-4.685c1.27-1.5,4.295-1.7,6.078-1.921
	c2.154-0.324,4.333-0.459,6.511-0.406c-0.013,0-0.076-0.035,0.192,0.051c0.218,0.067,0.435,0.125,0.648,0.2
	c0.682,0.238,1.348,0.528,2.006,0.818c4.432,1.97,8.69,4.349,12.935,6.688c9.415,5.188,18.693,10.617,27.999,15.999
	c-9.071,1.115-18.395,1.011-27.442,1.161c-8.29-0.03-16.567,0.632-24.747,1.979c-2.098,0.39-4.175,0.86-6.242,1.373
	c-0.827-0.151-1.654-0.307-2.479-0.478c-3.701-0.656-7.293-1.824-10.672-3.471c-2-1.05-4.936-2.915-3.23-5.465
	c1.4-2.1,4.222-3.294,6.47-4.2c1.961-0.931,4.058-1.538,6.212-1.802c0.045,0.003,0.112,0.01,0.207,0.027
	c0.247,0.044,0.337,0.058,0.62,0.114c0.755,0.152,1.5,0.325,2.253,0.5c5.107,1.208,10.181,2.586,15.257,3.925
	c5.848,1.543,11.688,3.1,17.56,4.562c3.444,0.856,6.99,1.993,10.574,1.835c1.681-0.074,3.362-0.214,5.027-0.455
	c0.93-0.138,2.421-0.189,3.2-0.8C646.517,260.741,643.155,260.229,642.537,260.08z M594.497,268.238
	c0.566,0.105,1.131,0.211,1.688,0.319c0.176,0.057,0.36,0.079,0.541,0.118c-0.477,0.059-0.951,0.136-1.417,0.252
	c-1.836,0.237-3.682,0.416-5.528,0.576C591.348,269.061,592.92,268.638,594.497,268.238z M661.291,268.174
	c0.168-0.04,0.338-0.073,0.506-0.112c0.246,0.144,0.488,0.294,0.725,0.451c-3.186,0.803-6.404,1.461-9.647,1.988
	C655.667,269.679,658.467,268.88,661.291,268.174z M661.892,266.929c-2.133-1.179-4.257-2.375-6.372-3.586
	c1.838-0.268,3.663-0.596,5.477-0.986c1.471,1.22,2.887,2.504,4.246,3.847C664.121,266.429,663.004,266.669,661.892,266.929z
	 M622.498,224.097c0.889,0.4,1.756,0.845,2.609,1.31c2.376,1.29,4.692,2.693,6.985,4.121c5.986,3.725,11.845,7.658,17.626,11.691
	c4.822,3.365,9.665,6.758,14.22,10.483c2.444,1.997,4.642,4.312,6.69,6.768c-2.907,1.189-5.886,2.12-8.916,2.841
	c-0.812-0.646-1.629-1.283-2.456-1.905c-6.721-4.96-13.79-9.427-21.155-13.365c-3.172-1.73-6.386-3.4-9.645-4.961
	c-3.488-1.672-7.14-3.513-9.071-7.055c-1.237-2.255-1.413-4.943-0.479-7.34c0.332-0.869,0.818-1.67,1.437-2.365
	c0.231-0.254,0.525-0.426,0.76-0.662c0.015-0.017,0.05-0.028,0.078-0.042C621.486,223.746,622.261,223.988,622.498,224.097z
	 M621.253,223.579c0.057-0.023,0.113-0.046,0.135-0.077C621.348,223.56,621.301,223.578,621.253,223.579z M666.871,265.881
	c-1.351-1.366-2.8-2.644-4.297-3.87c2.926-0.696,5.812-1.574,8.646-2.694c0.03-0.012,0.06-0.026,0.09-0.039
	c1.438,1.773,2.795,3.612,4.11,5.46C672.557,265.006,669.704,265.369,666.871,265.881z M669.803,266.498
	c-0.618,0.181-1.237,0.358-1.855,0.535c-0.062-0.066-0.121-0.133-0.183-0.199C668.443,266.712,669.123,266.607,669.803,266.498z
	 M666.183,267.139c0.054,0.056,0.111,0.108,0.165,0.164c0.044,0.047,0.082,0.1,0.126,0.147c-0.296,0.083-0.59,0.169-0.886,0.251
	c-0.532,0.15-1.069,0.283-1.604,0.425c-0.214-0.139-0.429-0.276-0.65-0.404C664.281,267.516,665.231,267.322,666.183,267.139z
	 M667.145,268.236c1.606,1.886,2.964,3.968,4.038,6.202c-0.415,0.098-0.83,0.193-1.245,0.286c-1.13-1.716-2.379-3.352-3.763-4.875
	c-0.383-0.368-0.792-0.707-1.212-1.03C665.691,268.627,666.419,268.437,667.145,268.236z M670.432,275.385
	c0.364-0.083,0.725-0.178,1.088-0.265c0.019,0.042,0.042,0.081,0.061,0.123c1.144,2.375,2.1,4.833,2.884,7.346
	c-0.938-1.782-1.916-3.543-2.944-5.275c-0.36-0.651-0.74-1.29-1.136-1.918C670.4,275.391,670.416,275.388,670.432,275.385z
	 M668.655,267.806c2.431-0.692,4.854-1.415,7.276-2.137c0.047-0.005,0.095-0.01,0.142-0.016c0.537,0.763,1.067,1.524,1.592,2.282
	c0.938,1.321,1.849,2.662,2.744,4.013c-1.549,0.454-3.098,0.902-4.653,1.328c-0.971,0.271-1.947,0.521-2.925,0.767
	C671.707,271.754,670.285,269.694,668.655,267.806z M677.016,264.365c-1.422-1.919-2.903-3.793-4.422-5.638
	c1.277-0.548,2.538-1.131,3.771-1.771c1.051,1.794,2.035,3.628,2.934,5.508c0.175,0.361,0.332,0.731,0.503,1.094
	C678.872,263.824,677.944,264.092,677.016,264.365z M700.952,156.604c2.817-2.12,5.631-4.243,8.455-6.354
	c15.823-11.768,31.782-23.368,48.143-34.381c7.52-5.057,15.139-10.168,23.032-14.743c0.029,0.053,0.059,0.105,0.088,0.158
	l-0.957,0.665c-12.618,8.758-25.234,17.514-37.852,26.269C728.225,137.684,714.589,147.145,700.952,156.604z M782.073,100.272
	c0.105-0.06,0.21-0.122,0.316-0.182l-0.302,0.209L782.073,100.272z M796.959,130.056c-1.265-0.388-2.522-0.789-3.754-1.246
	c-3.184-1.179-6.262-2.625-9.2-4.324c-2.558-1.482-5.739-3.123-7.601-5.5c-2.381-3.045,4.289-2.432,5.687-2.361
	c2.494,0.128,4.941,0.405,7.41,0.444C791.961,121.413,794.448,125.742,796.959,130.056z M815.206,109.444
	c0.054,1.01,0.062,2.5-0.867,3.161c-0.781,0.374-1.626,0.597-2.49,0.657c-5.774,1.15-11.621,2.079-17.468,2.771
	c-1.104,0.168-2.217,0.273-3.332,0.328c-2.812-4.985-5.6-9.984-8.371-14.994c0.285-0.198,0.569-0.396,0.854-0.593
	c2.542-1.765,5.083-3.53,7.624-5.295c0.521-0.253,1.036-0.523,1.561-0.77c6.22-2.921,12.824-4.902,19.279-7.265
	c-0.469,0.646-0.9,1.32-1.244,2.047c-1.126,2.762-0.083,5.071,0.93,7.688C813.182,101.05,814.982,105.245,815.206,109.444z
	 M818.524,83.71c-0.431,0.206-0.871,0.388-1.306,0.585c0.72-0.515,1.479-0.979,2.257-1.415c0.243-0.025,0.442-0.038,0.584-0.033
	C819.616,82.957,818.715,83.615,818.524,83.71z M809.693,83.743c2.873-3.475,7.801-4.088,12.023-3.675
	c0.391,0.033,0.78,0.078,1.168,0.136c-1.517,0.562-2.984,1.237-4.395,2.024c-0.69,0.111-1.305,0.247-1.615,0.297
	c-2.468,0.389-4.917,0.913-7.355,1.451C809.577,83.9,809.633,83.815,809.693,83.743z M804.601,86.142
	c0.092-0.074,0.19-0.135,0.288-0.2c0.074-0.015,0.423-0.158,0.684-0.219c0.354-0.079,0.709-0.162,1.062-0.242
	c-0.091,0.128-0.181,0.255-0.273,0.386c-0.349,0.519-0.746,1.003-1.187,1.447c-0.141,0.096-0.269,0.209-0.401,0.315
	c-0.077-0.262-0.3-0.667-0.335-0.883c-0.021-0.15-0.028-0.302-0.04-0.453C804.465,86.242,804.535,86.194,804.601,86.142z
	 M804.783,88.658c0.174-0.016,0.346-0.055,0.51-0.115c1.666-0.417,2.607-2.1,3.534-3.562c1.489-0.342,2.979-0.681,4.476-0.988
	c0.331-0.068,1.833-0.384,3.361-0.667c-0.507,0.33-1.014,0.659-1.501,1.018c-0.687,0.465-1.304,1.013-1.884,1.596
	c-0.42,0.16-0.833,0.336-1.256,0.488c-5.623,2.156-11.29,4.015-16.823,6.242c0.819-0.569,1.638-1.138,2.457-1.707
	c1.687-1.173,3.451-2.288,5.14-3.482C803.132,88.237,803.913,88.736,804.783,88.658z M782.13,94.089
	c0.922-2.024,1.688-4.116,2.291-6.257c0.7-2.28,1.326-4.58,2.086-6.838c0.58-1.729,1.186-3.638,2.6-4.87
	c0.532-0.451,1.098-0.86,1.684-1.237c-3.168,3.123-2.332,8.374-0.778,12.227c0.6,1.491,1.554,3.4,3.348,3.605
	c1.672,0.192,2.325-0.911,2.687-2.361c0.986-3.99,3.31-7.781,5.5-11.213c1.096-1.778,2.331-3.466,3.694-5.048
	c0.474-0.552,1.006-1.051,1.586-1.489c0.08-0.059,0.184-0.109,0.265-0.15c-0.042,0.223,0.044,0.734,0.022,0.925
	c-0.269,1.333-0.728,2.621-1.361,3.823c-0.689,1.587-1.4,3.161-2,4.786c-0.679,1.855-1.362,4.027-1.222,6.066
	c-0.514,0.325-1.008,0.68-1.476,1.07l-11.516,7.996c-1.009,0.478-2.012,0.976-3.006,1.501c-1.67,0.881-3.324,1.794-4.968,2.726
	c-0.449-0.812-0.898-1.625-1.347-2.438C781.092,96.212,781.688,95.001,782.13,94.089z M775.51,83.089
	c0.361-1.2,0.189-2.425,0.493-3.62c-0.004,0.017,0.088-0.192,0.176-0.401c0.159,0.21,0.319,0.425,0.349,0.494
	c0.244,0.692,0.33,1.43,0.25,2.16c-0.119,2.731-0.354,5.456-0.417,8.187c-0.691-1.259-1.384-2.518-2.075-3.776
	C774.767,85.148,775.176,84.131,775.51,83.089z M762.382,67.854c3.36,6.123,6.687,12.263,10.026,18.39
	c-0.221,0.48-0.447,0.959-0.706,1.422c-1.315,2.364-2.176,4.953-2.536,7.634c0.016,1.456,0.207,2.904,0.569,4.313
	c0.267,1.079,0.076,2.219-0.525,3.152c-1.381,1.768-4.417,1.3-6.334,1.048c-1.22-0.158-1.644-0.178-2.136-1.366
	c-0.982-2.371-0.871-5.347-0.861-7.857c0.013-3.776,0.288-7.547,0.637-11.305C760.993,78.129,761.634,72.982,762.382,67.854z
	 M388.955,551.333c-0.004-0.038-0.008-0.068-0.009-0.09c-0.007,0.064-0.036,0.173-0.136,0.256c-0.808,0.67-1.768,1.129-2.795,1.34
	c-2.931,0.699-5.971,0.193-8.876,0.967c-4.886,1.301-9.479,4.088-13.783,6.652c-10.473,6.404-20.603,13.354-30.346,20.818
	c-1.1,0.824-2.195,1.654-3.288,2.489c-0.166-1.353-0.339-2.704-0.487-4.06c-0.473-4.33-0.722-8.713-1.322-13.027
	c-0.061-0.459-0.165-0.912-0.313-1.352c-0.443-1.203-1.003-2.359-1.669-3.453c-5.289-9.209-12.43-17.525-19.101-25.734
	c-11.589-14.256-23.607-28.164-35.704-41.988c-15.517-17.73-31.193-35.316-47.031-52.758c-17.479-19.328-35.06-38.561-52.74-57.7
	c-17.838-19.343-35.751-38.618-53.741-57.823c-16.323-17.436-32.706-34.815-49.146-52.137c-12.99-13.679-26.039-27.3-39.148-40.863
	c-7.921-8.171-15.826-16.382-24.016-24.286c-0.636-0.614-1.29-1.218-1.938-1.825c10.353-4.009,20.706-8.019,31.058-12.026
	l51.537-19.951l11.429-4.425c6.517,8.54,12.513,17.479,17.943,26.776c6.525,11.196,12.209,22.862,17.006,34.9
	c4.899,12.268,9.509,24.25,17.399,34.987c7.863,10.706,16.9,20.59,25.346,30.834c8.512,10.317,16.918,20.72,25.218,31.209
	c16.614,20.969,32.868,42.216,48.764,63.742c15,20.245,29.116,41.526,46.744,59.636c16.057,16.5,35.813,28.389,53.189,43.33
	c8.763,7.359,16.421,15.939,22.739,25.479c5.623,8.682,10.27,17.945,15.853,26.65c0.562,0.877,1.139,1.739,1.726,2.593
	C389.079,550.683,388.921,550.97,388.955,551.333z M1045.077,439.583l-18.12,4.041l-63.873,14.242l-90.683,20.221L766.959,501.6
	l-108.162,24.119l-98.835,22.041l-77.464,17.273c-14.647,3.266-29.295,6.533-43.942,9.799c-1.849,0.413-3.697,0.824-5.544,1.234
	c-23.646-0.099-37.793-17.938-48.631-36.605c-4.569-7.867-8.875-15.928-14.207-23.318c-5.701-7.684-12.29-14.666-19.63-20.805
	c-15.517-13.324-33.101-24.082-47.968-38.186c-16.159-15.33-29.038-33.641-42.143-51.535
	c-28.039-38.283-56.966-75.929-87.271-112.448c-7.451-8.98-15.377-17.677-22.223-27.137c-6.68-9.236-11.055-19.429-15.183-29.988
	c-8.111-21.102-18.824-41.109-31.891-59.558c-1.782-2.49-3.608-4.946-5.476-7.37c-0.053-0.32-0.243-0.59-0.536-0.685
	c-5.255-6.776-10.837-13.296-16.736-19.526c-3.907-4.123-7.946-8.114-12.118-11.973c-1.188-1.101-2.568-2.949-4.14-3.979
	c5.453-1.278,13.611-4.075,14.226-4.249c16.335-4.62,32.558-9.807,49.071-13.754c23.477-5.612,47.306-9.85,71.044-14.176
	c34.939-6.366,69.942-12.373,104.949-18.353c40.217-6.873,80.439-13.726,120.667-20.56c39.364-6.747,78.716-13.57,118.007-20.729
	c32.224-5.871,64.431-11.893,96.456-18.763c19.3-4.141,39.336-7.9,57.837-14.983c5.3-2.03,10.752-7.34,16.569-5.653
	c5.448,1.58,9.9,6.27,13.518,10.385c5.346,6.304,10.184,13.021,14.471,20.087c6.711,10.629,12.937,21.562,19.014,32.578
	c-1.823,4.241-3.354,8.604-4.542,13.066c-1.089,3.587-1.631,7.318-1.606,11.067c0.08,1.868,0.563,3.691,0.817,5.537
	c0.318,2.19,0.468,4.402,0.446,6.615c-0.064,4.032-0.771,8.49-3.584,11.583c-0.642,0.704-1.386,1.306-2.207,1.787
	c-0.063,0.037-0.281,0.123-0.458,0.206c-0.118-0.18-0.3-0.425-0.344-0.515c-0.526-1.448-0.742-2.99-0.634-4.527
	c-0.002-2.308,0.119-4.615,0.363-6.91c1.15-10.505,2.866-20.941,5.141-31.262c0.212-1.034,0.459-2.064,0.65-3.1
	c0.069-0.359,0.194-0.725-0.091-1.023c-0.426-0.439-1.449-0.236-1.9,0.053c-0.754,0.634-1.384,1.402-1.856,2.267
	c-1.943,2.619-3.406,5.562-4.322,8.691c-1.808,7-1.779,14.514-1.771,21.691c0,3.448,0.075,6.9,0.104,10.347
	c0.097,2.108,0.036,4.22-0.183,6.319c-0.076,0.522-0.176,1.047-0.301,1.556c-0.095,0.206-0.164,0.422-0.244,0.634
	c-0.245-0.292-0.531-0.576-0.74-0.872c-1.039-1.478-1.943-3.053-2.857-4.607c-1.17-1.779-2.206-3.643-3.1-5.575
	c-2.416-6.005-1.257-13.365-0.33-19.567c0.406-2.719,0.938-5.43,1.25-8.162c0.1-0.92,0.537-2.813-0.571-3.294
	c-1.7-0.745-3.229,1.262-4,2.458c-1.511,2.668-2.442,5.625-2.734,8.677c-1.166,8.106-0.58,16.465,0.044,24.591
	c0.288,3.771,0.908,7.645,0.789,11.428c-0.065,2.037-0.695,6.486-3.683,6.054c-2.121-0.461-3.938-1.819-4.98-3.724
	c-0.437-1.399-0.603-2.87-0.488-4.331c0.111-5.367,0.588-10.72,1.426-16.023c1.451-10.763,3.351-21.473,5.419-32.136
	c0.125-0.649,0.25-1.3,0.381-1.943c0.101-0.521-1.562-0.4-1.78-0.107c-2.612,3.509-4.74,7.354-6.328,11.43
	c-1.456,3.496-2.39,7.188-2.769,10.957c-0.271,3.109-0.163,6.265-0.372,9.384c-0.447,6.609-1.231,13.19-2.351,19.719
	c-0.472,2.775-1,5.543-1.694,8.271c-0.239,1.36-0.66,2.68-1.237,3.932c-0.209-1.256-0.346-2.524-0.39-3.797
	c-0.271-4.562-0.27-9.143-0.271-13.712c0-5.106,0.047-10.211,0.056-15.317c0.007-3.549,0.1-7.144-0.2-10.685
	s-3.066-6.656-5.243-9.285c-3.395-4.015-7-7.848-10.8-11.483c-1.299-1.271-2.609-2.525-3.934-3.762c-0.62-0.582-1.2-1.4-2.113-1.418
	c-1.215-0.024-1.587,0.758-1.2,1.828c0.657,1.483,1.55,2.849,2.645,4.046c2.406,2.971,5.199,5.561,7.763,8.381
	c2.747,2.932,4.601,6.588,5.343,10.537c0.5,3.444,0.437,6.946-0.189,10.369c-0.5,3.3-1.257,6.557-1.589,9.876
	c-0.332,3.319,0.278,6.39,0.565,9.667c0.34,3.597,0.301,7.22-0.118,10.808c-0.16,2.395-0.933,4.708-2.245,6.718
	c-0.027,0.038-0.116,0.083-0.188,0.122c-0.083-0.038-0.207-0.084-0.266-0.132c-0.273-0.2-0.519-0.435-0.729-0.7
	c-0.295-0.442-0.518-0.929-0.659-1.442c-0.439-1.548-0.709-3.14-0.805-4.747c-0.346-4.658-0.405-9.334-0.178-14
	c0.278-8.55,0.932-17.1,1.775-25.608c0.052-0.5,0.101-1,0.152-1.5s-1.601-0.479-1.779-0.109c-1.851,3.816-3.38,7.779-4.571,11.849
	c-1.17,3.755-2.001,7.608-2.485,11.512c-0.369,3.814-0.407,7.653-0.116,11.474c0.388,6.9,1.382,13.85,1.17,20.773
	c-0.058,1.879-0.051,4.505-1.32,6.047c-0.024,0.029-0.218,0.209-0.396,0.36c-0.218-0.415-0.574-0.793-0.771-1.246
	c-0.684-1.808-1.165-3.686-1.435-5.6c-0.5-2.768-0.889-5.561-1.268-8.349c-0.975-7.17-1.874-14.347-3.139-21.469
	c-1.3-7.34-2.688-15.072-5.916-21.847c-1.7-3.571-4.306-7.454-8.389-8.463c-2.225-0.618-4.61-0.199-6.491,1.141
	c-0.35,0.287-0.865,0.724-0.677,1.221c0.1,0.263,0.615,0.577,0.822,0.756c0.515,0.452,1.026,0.907,1.521,1.382
	c2.034,1.987,3.943,4.099,5.717,6.321c1.448,1.582,2.64,3.38,3.531,5.331c1.45,4.117,2.391,8.396,2.8,12.742
	c1.272,10.584,1.945,21.232,2.017,31.893c0.066,3.272,0.1,6.542,0.1,9.809c0,0.965-0.212,4.991-1.899,4.2
	c-2.4-1.117-3.266-4.823-3.77-7.09c-2.423-10.893-4.991-21.758-7.837-32.548c-1.825-6.919-3.754-13.815-5.938-20.631
	c-2-6.254-3.925-13.015-8.309-18.074c-2.382-2.969-5.853-4.861-9.638-5.253c-0.513-0.036-4.9-0.087-4.855,0.992
	c0.011,0.23,0.317,0.258,0.47,0.332c0.059,0.027,0.238,0.085,0.335,0.104c0.098,0.106,0.325,0.31,0.376,0.356
	c1.2,1.025,2.242,2.236,3.425,3.288c1.394,1.066,2.694,2.249,3.887,3.535c0.954,1.203,1.777,2.503,2.456,3.88
	c0.663,1.229,1.145,2.548,1.429,3.916c0.049,0.423,0.063,0.849,0.049,1.274c-0.1-0.063-0.189-0.122-0.236-0.163
	c-0.365-0.314-0.709-0.649-1.045-0.988c-0.854-0.858-1.663-1.765-2.464-2.673c-3.987-4.54-7.674-9.359-11.861-13.721
	c-2.348-2.566-5.398-4.384-8.773-5.226c-0.673-0.163-2.095-0.6-2.771-0.187c-0.722,0.446,0.167,0.718,0.629,0.872
	c3.399,1.128,6.225,4.418,8.739,6.938c3.819,3.829,7.481,7.83,10.975,11.958c2.283,2.444,4.201,5.207,5.693,8.2
	c2.119,4.8,3.813,9.8,5.5,14.764c2.027,5.969,3.949,11.972,5.686,18.034c0.84,2.695,1.513,5.44,2.016,8.218
	c0.58,3.815,0.664,7.689,0.248,11.526c-0.256,3.282-1.017,6.504-2.256,9.553c-0.37,0.94-0.893,1.81-1.536,2.587
	c-0.204-0.291-0.397-0.588-0.622-0.862c-0.507-0.931-0.965-1.887-1.37-2.866c-0.714-1.756-1.404-3.521-2.072-5.293
	c-1.021-12.258-2.49-24.544-4.718-36.644c-0.657-3.56-1.145-7.645-2.773-10.93c-0.173-0.305-0.362-0.601-0.564-0.887
	c0.881-0.326,1.762-0.649,2.648-0.96c0.869-0.3-0.852-0.649-1.288-0.5c-0.65,0.228-1.297,0.469-1.944,0.705
	c-0.009-0.01-0.016-0.021-0.024-0.032c-0.911-1.21-1.783-2.447-2.646-3.689c-1.935-2.784-3.813-5.608-5.677-8.443
	c-0.897-1.367-1.791-2.739-2.679-4.114c-0.218-0.341-1.9-0.366-1.783,0.085c1.036,3.818,2.089,7.633,3.16,11.445
	c0.717,2.562,1.451,5.12,2.18,7.679c-0.927,0.391-1.849,0.794-2.768,1.202c-0.435-1.124-0.887-2.241-1.358-3.348
	c-0.631-1.48-1.3-2.946-2.079-4.353c-0.325-0.744-0.756-1.436-1.28-2.055c-0.551-0.515-1.929-0.671-1.939,0.267
	c0.188,1.085,0.543,2.135,1.054,3.111c0.74,1.984,1.509,3.958,2.271,5.935c0.215,0.556,0.428,1.114,0.642,1.67
	c-3.336,1.555-6.618,3.22-9.838,4.998c-0.054-0.274-0.107-0.549-0.16-0.822c0.003-0.011,0.005-0.021,0.008-0.032h-0.018
	c-0.115-0.53-1.672-0.511-1.809-0.007c-0.204,0.755-0.4,1.527-0.582,2.309c-0.171,0.099-0.344,0.195-0.516,0.294
	c-0.021-1.922-0.002-3.842,0.128-5.737c0.016-0.176,0.039-0.352,0.049-0.529c0-0.51-1.769-0.533-1.814-0.009v0.003h-0.022
	c-0.047,0.856-0.157,1.708-0.329,2.548c-0.258,1.786-0.515,3.573-0.762,5.36c-0.339,0.206-0.677,0.412-1.015,0.62
	c0.072-2.604,0.146-5.208,0.229-7.812c0.008-0.236,0.016-0.472,0.024-0.711c0.016-0.533-1.444-0.392-1.69-0.19
	c-1.714,1.467-3.023,3.348-3.805,5.465c-0.752,2.252-1.049,4.632-0.872,7c0.002,0.072,0.005,0.144,0.007,0.216
	c-2.741,1.869-5.429,3.82-8.055,5.858c0.209-2.276-1.172-4.54-3.125-5.902c-2.795-1.946-6.521-1.694-9.607-0.637
	c-4.435,1.518-8.457,4.52-12.221,7.235c-1.941,1.405-3.832,2.876-5.685,4.394c-0.088-0.267-0.181-0.531-0.267-0.799
	c-1.828-5.361-3.485-10.788-4.921-16.271c-0.073-0.287-0.15-0.575-0.223-0.863c-0.116-0.461-1.623-0.56-1.781-0.109
	c-0.992,2.753-1.866,5.546-2.645,8.366c-0.072-0.096-0.158-0.185-0.278-0.255c-0.858-0.323-1.788-0.407-2.689-0.243
	c-0.939,0.027-1.879,0.033-2.818,0.018c-0.939-0.016-1.879-0.051-2.817-0.105c-0.495-0.028-0.991-0.063-1.489-0.105
	c-0.238-0.02-0.739,0.082-0.764-0.238c-0.038-0.571-1.828-0.682-1.8-0.247h0.006c0.049,0.709,0.851,0.958,1.444,1.083
	c0.916,0.148,1.843,0.231,2.771,0.25c1.984,0.125,3.971,0.159,5.96,0.1c0.29,0.013,0.58-0.014,0.87-0.032
	c-0.004,0.044,0.002,0.099,0.024,0.17c0,0.089-0.005,0.178-0.012,0.265c-0.013,0.245-0.03,0.492-0.051,0.736
	c-0.07,0.947-0.172,1.892-0.31,2.831c-0.159,1.105-0.375,2.201-0.62,3.29c-9.71,5.252-19.542,10.263-29.501,15.022
	c-1.115-2.289-2.764-4.273-4.48-6.167c-1.628-1.798-3.229-3.615-4.8-5.459c2.087,0.015,4.173-0.103,6.243-0.365
	c2.082-0.352,2.176-1.825,2.189-3.662c0.018-2.474,0.034-4.946,0.051-7.416c0.113-0.923,0.099-1.857-0.042-2.777
	c-0.252-0.823-1.2-1.175-1.884-1.538c-1.925-1.01-3.89-1.937-5.894-2.779c-2.082-0.88-4.27-1.524-6.326-2.456
	c-2.156-0.978-4.416-3.031-3.938-5.657c0.372-2.03,2.187-3.432,3.08-5.224c0.191-0.39-1.494-0.992-1.75-0.479
	c-0.852,1.709-2.518,3.029-3.007,4.913c-0.351,1.881,0.345,3.804,1.816,5.026c1.652,1.341,3.56,2.333,5.606,2.916
	c2.419,0.869,4.793,1.86,7.112,2.969c0.568,0.272,1.131,0.555,1.69,0.842c0.51,0.261,1.518,0.6,1.754,1.192
	c0.118,0.626,0.131,1.269,0.036,1.9l-0.016,2.247c-0.008,1.347-0.017,2.695-0.027,4.045c0.089,1.233,0.06,2.472-0.087,3.7
	c-0.281,1.359-1.491,1.439-2.652,1.52c-1.304,0.089-2.608,0.155-3.914,0.2c-0.256,0.009-0.514,0.012-0.772,0.014
	c-0.476-0.568-0.966-1.122-1.431-1.7c-2.367-2.949-4.604-5.995-6.713-9.138c-1.723-2.566-3.179-5.445-5.263-7.748
	c-0.987-1.135-2.249-2-3.664-2.512c-1.326-0.448-3.658-0.12-4.473-1.389c-0.301-0.461-1.988-0.453-1.759-0.093v0.003
	c0.625,0.864,1.581,1.429,2.64,1.558c1.556,0.325,2.955,0.294,4.291,1.286c2.517,1.872,3.982,5.024,5.663,7.589
	c2.761,4.21,5.767,8.251,8.977,12.127c-1.639-0.035-3.292-0.085-4.878,0.133c-0.854,0.039-1.647,0.451-2.171,1.126
	c-0.68,1.052-0.341,2.663-0.3,3.836c0.034,0.92-0.101,1.95,0.732,2.552c0.536,0.447,1.294,0.515,1.9,0.169
	c0.216-0.177-0.246-0.484-0.746-0.641c-0.019-0.048-0.038-0.097-0.056-0.145c0.001-0.339-0.021-0.679-0.065-1.016
	c-0.027-0.584-0.044-1.166-0.062-1.75c-0.038-1.072-0.171-2.371,0.908-2.991c1.002-0.378,2.083-0.497,3.143-0.346
	c0.777,0.003,1.552-0.015,2.327-0.026c1.147,1.361,2.32,2.701,3.52,4.017c2.318,2.542,4.738,5.078,6.077,8.264
	c-6.394,3.037-12.839,5.97-19.335,8.804c-0.36-2.195-0.721-4.39-1.078-6.585c-0.083-0.511-1.235-0.368-1.549-0.238
	c-3.905,1.606-7.81,3.211-11.715,4.817c5.383-9.76,9.745-20.057,12.976-30.739c0.152-0.5-1.566-1.074-1.714-0.591
	c-3.414,11.292-8.078,22.162-13.894,32.413c-5.701,2.344-11.401,4.688-17.102,7.032c2.336-3.326,4.293-6.894,5.833-10.642
	c1.774-1.911,2.377-5.192,2.509-7.641c0.029-0.5-1.685-0.379-1.808,0.123c-0.638,2.556-1.469,5.051-2.465,7.476
	c-0.687,0.69-1.651,1.04-2.626,0.893c-3.42,0.056-6.839-0.178-10.22-0.7c-6.786-1.217-12.645-5.334-14.864-12.051
	c-1.11-3.361-1.449-7.008-3.549-9.968c-0.301-0.428-2.028-0.1-1.73,0.312v0.003c2.273,3.2,2.437,7.231,3.838,10.8
	c1.285,3.244,3.488,6.042,6.339,8.053c2.229,1.467,4.686,2.533,7.259,3.176c-0.024,0.035-0.058,0.067-0.067,0.108
	c-0.914,4.054-5.659,5.427-9.15,6.37c-4.771,1.257-9.668,1.981-14.6,2.16c-8.049,0.35-16.884,0.239-23.419,5.71
	c-3.158,2.432-5.066,6.145-5.207,10.128c0,0.475,1.806,0.37,1.806-0.18l-0.002,0.001c0.121-3.773,1.904-7.299,4.87-9.633
	c3.364-2.682,7.444-4.313,11.731-4.689c4.589-0.58,9.228-0.443,13.83-0.831c4.58-0.39,9.108-1.251,13.512-2.572
	c3.323-0.998,7.241-2.63,8.315-6.223c0.506,0.089,1.015,0.166,1.528,0.222c1.901,0.253,3.814,0.408,5.732,0.464
	c1.817,0.138,3.643,0.144,5.461,0.018c0.203-0.022,0.392-0.065,0.581-0.11c-1.618,3.629-3.628,7.077-6.009,10.281
	c-2.35,0.966-4.699,1.932-7.048,2.898c-13.307,5.474-26.533,11.564-40.212,16.055c-7.015,2.48-14.374,3.846-21.812,4.048
	c-3.726,0.015-7.919-0.167-11.354-1.761c-2.391-1.106-4.115-3.5-6.763-4.046c-1.061-0.22-2.09-0.129-3.088,0.129
	c0.019-0.071,0.042-0.14,0.061-0.211c0.56-3.084,0.699-6.229,0.414-9.35c-0.047-2.79-1.233-5.439-3.283-7.333
	c-2.372-1.914-4.974-3.526-7.743-4.8c-5.845-2.929-12.371-4.757-18.922-4.059c-0.638-2.257-0.011-4.699,1.695-6.35
	c0.319-0.31-1.319-0.782-1.714-0.4c-1.927,1.883-2.551,4.731-1.589,7.248c0.14,0.368,1.01,0.415,1.3,0.372
	c6.491-0.987,12.887,0.927,18.614,3.907c2.6,1.355,5.561,2.846,7.571,5.031c2.096,2.276,2.343,5.452,2.343,8.4
	c0,2.745,0.022,5.634-0.776,8.292c-0.431,0.2-0.855,0.415-1.271,0.639c-3.187,1.721-6.331,3.52-9.5,5.283l-3.228,1.796
	c-0.536-0.068-1.072-0.142-1.61-0.193c-2.923-0.315-5.871-0.341-8.8-0.078c-2.895,0.194-5.695,1.112-8.144,2.668
	c-1.39,0.961-4.192,3.938-1.595,5.267c0.388,0.219,0.846,0.273,1.273,0.151c0.263-0.14,0.439-0.317,0.062-0.51l-0.008,0.004
	c-1.199-0.613-0.259-2.465,0.353-3.16c1.07-1.106,2.374-1.96,3.815-2.5c2.814-1.031,5.807-1.487,8.801-1.339
	c1.594,0.018,3.184,0.125,4.767,0.294l-15.141,8.426c-7.341,4.086-14.681,8.172-22.021,12.257c-3.676,2.044-7.908,4.69-12.3,4.173
	c-3.493-0.412-6.673-3.165-6.854-6.769c-0.024-0.528-1.58-0.439-1.78-0.076c-3.415,6.124-7.937,11.545-13.312,16.014
	c2.195-4.502,4.39-9.005,6.584-13.507c0.276-0.57-1.42-0.446-1.66-0.261c-8.549,6.539-17.661,12.305-27.23,17.229
	c-2.262,1.161-4.549,2.273-6.86,3.337c-2.06,0.949-7.441,4.346-9.555,2.03c-2.307-2.53,0.767-6.812-2.2-9.1
	c-0.443-0.229-0.966-0.251-1.426-0.058c-8.008,3.789-16.126,7.333-24.346,10.646c-0.497-2.143-0.335-4.392,0.484-6.448
	c0.2-0.526-1.568-0.64-1.752-0.172l0.002,0.002c-0.962,2.363-1.081,4.986-0.337,7.427c0.151,0.5,1.19,0.385,1.554,0.239
	c8.361-3.341,16.613-6.933,24.762-10.765c2.188,2.687-1.328,8.138,3.3,9.552c1.717,0.395,3.515,0.252,5.147-0.41
	c2.878-1.081,5.69-2.332,8.421-3.745c10.117-4.88,19.756-10.688,28.807-17.332l-6.673,13.69c-0.279,0.573,1.42,0.435,1.661,0.259
	c6.057-4.4,11.177-9.944,15.102-16.3c1.415,3.49,5.582,5.365,9.32,5.31c6.354-0.1,12.146-4.3,17.489-7.275l32.604-18.148
	c1.444,0.206,2.881,0.456,4.303,0.786c1.188,0.444,2.474,0.558,3.72,0.328c1.267-0.415,2.223-1.879,3.057-2.838
	c1.767-1.844,3.096-4.053,3.91-6.461c1.48-0.407,3.493-0.367,4.669,0.481c0.6,0.433,1.155,0.927,1.748,1.368
	c2.385,1.647,5.146,2.67,8.027,2.976c6.614,0.843,13.325,0.516,19.826-0.967c14.577-3.054,28.356-9.754,42.062-15.391l14.45-5.942
	c0.435,0.036,0.954-0.027,1.125-0.251c0.075-0.099,0.143-0.202,0.217-0.3l17.373-7.144c-0.641,1.103-1.281,2.207-1.948,3.295
	c-0.221,0.361,1.411,1.085,1.714,0.591c1.009-1.646,1.979-3.313,2.926-4.993l12.317-5.064c0.36,2.206,0.721,4.413,1.083,6.62
	c0.083,0.508,1.237,0.374,1.549,0.236c6.656-2.885,13.257-5.886,19.811-8.985c0.023,0.069,0.055,0.133,0.077,0.202
	c0.156,0.49,1.923,0.609,1.759,0.094c-0.107-0.337-0.233-0.664-0.364-0.987c9.69-4.612,19.271-9.458,28.738-14.539
	c-0.085,0.325-0.152,0.655-0.245,0.978c-0.077,0.267,0.539,0.495,1.073,0.516c0.003,0.604,0.056,1.202,0.181,1.784
	c0.261,1.14,0.62,2.255,1.075,3.332c1.758,4.023,3.763,7.934,6.005,11.709c1.891,3.383,3.807,6.749,5.748,10.1
	c2.482,4.328,5.235,8.581,7.346,13.1c3.568,8.028,5.232,16.771,4.864,25.548c-0.111,6.801-1.273,13.543-3.444,19.989
	c-0.521,1.763-1.303,3.438-2.322,4.968c0.132-0.12,0.191-0.064,0.014,0.524c-0.106-0.052-0.208-0.112-0.308-0.178
	c0.049-0.062,0.101-0.128,0.15-0.189c-0.06,0.058-0.119,0.118-0.17,0.178c-0.006-0.004-0.014-0.007-0.02-0.011
	c-0.36-0.562-0.883-1.012-1.229-1.622c-0.41-0.72-0.756-1.478-1.11-2.225c-0.665-1.567-1.509-3.053-2.514-4.427
	c-0.589-0.736-1.46-1.235-1.91-2.068c-0.7-1.636-1.092-3.386-1.157-5.164c-1.092-9.577-0.675-19.48-0.143-29.087
	c0.018-0.084,0.01-0.171,0.015-0.257c0.02-0.118,0.032-0.237,0.042-0.357c-0.01,0.008-0.026,0.017-0.04,0.026
	c-0.006-0.064,0.021-0.102,0.05-0.111c0.001-0.008,0.003-0.016,0.003-0.023c-0.042-0.524-1.247-0.375-1.547-0.267
	c-0.126,0.031-0.226,0.127-0.265,0.25l-0.024-0.004c-0.096,1.25-0.357,2.483-0.779,3.664c-0.685,3.089-1.312,6.192-1.855,9.312
	c-1.473,8.427-2.514,17.105-1.884,25.666c0.146,2.021,0.15,5.6,1.919,7.066c0.979,0.613,2.173,0.774,3.279,0.443
	c0.101-0.021,0.155-0.021,0.192-0.018c0.119,0.116,0.227,0.243,0.315,0.384c0.439,0.957,0.646,2.005,0.6,3.058
	c0.854,9.941-5.599,19.045-15.261,21.536c-0.09,0.021-0.186,0.036-0.28,0.053c-0.054-0.062-0.11-0.119-0.151-0.189
	c-0.192-0.472-0.317-0.967-0.372-1.473c-0.113-1.747-0.034-3.501,0.233-5.231c1.322-11.2,4.406-22.129,5.628-33.351
	c0.278-2.138,0.377-4.295,0.294-6.45c-0.225-2.854-1.092-5.619-2.537-8.089c-2.902-4.871-6.83-9.053-11.51-12.255
	c-0.292-0.207-0.584-0.414-0.883-0.606c-0.254-0.165-2.011-0.18-1.66,0.267c3.725,4.764,6.662,10.094,8.7,15.787
	c1.571,4.411,2.523,9.257,1.674,13.92c-0.563,3.1-1.5,6.129-2.077,9.228c-0.584,3.116-1.039,6.252-1.422,9.4
	c-0.791,6.482-1.255,13.01-2.315,19.46c-0.073,0.446,1.721,0.571,1.813,0.011l-0.006-0.003c0.956-5.817,1.422-11.7,2.091-17.552
	c0.71-6.45,1.851-12.846,3.413-19.144c2.189-8.7-1.736-17.92-6.111-25.3c-0.547-0.944-1.13-1.867-1.731-2.777
	c2.305,1.95,4.39,4.154,6.204,6.58c2.269,2.845,3.797,6.208,4.447,9.789c0.227,2.027,0.223,4.074-0.014,6.1
	c-0.986,11.563-4.234,22.8-5.7,34.3c-0.308,1.885-0.42,3.797-0.337,5.706c0.074,0.93,0.228,2.08,1.183,2.5
	c1.551,0.68,3.944-0.441,5.347-1.043c2.548-1.102,4.879-2.649,6.885-4.568c4.834-4.621,7.549-11.963,6.047-18.627
	c-0.097-1.287-1.219-2.251-2.505-2.154c-0.018,0.001-0.034,0.003-0.052,0.004c-1.339,0.027-1.643,0.606-2.376-0.834
	c-0.583-1.378-0.918-2.848-0.99-4.342c-0.232-2.262-0.336-4.535-0.31-6.809c0.05-4.572,0.389-9.137,1.014-13.667
	c0.396-3.01,0.903-5.994,1.47-8.967c-0.117,5.482-0.146,10.985,0.253,16.453c0.09,2.192,0.4,4.37,0.926,6.5
	c0.139,0.638,0.391,1.245,0.742,1.794c0.741,1.012,1.775,1.712,2.47,2.815c0.956,1.516,1.631,3.181,2.438,4.776
	c0.437,1.175,1.24,2.177,2.293,2.857c1.208,0.65,2.714,0.198,3.363-1.01c0.007-0.012,0.014-0.024,0.021-0.037
	c1.028-1.709,1.83-3.545,2.387-5.461c0.665-2.038,1.216-4.111,1.666-6.206c0.013,1.695,0.054,3.391,0.194,5.077
	c0.089,1.105,0.1,2.735,0.8,3.678c0.715,0.965,2.536,1.094,3.622,1.179c2.015,0.169,4.042-0.108,5.938-0.813
	c5.53-2.115,6.706-7.844,5.677-13.17c-0.575-2.439-1.292-4.843-2.146-7.2c-0.762-2.41-1.424-4.857-1.957-7.326
	c-0.747-3.724-1.303-7.484-1.667-11.265c2.066,4.953,4.14,9.914,6.178,14.882c1.454,3.138,2.718,6.361,3.784,9.651
	c0.062,0.612,0.37,1.173,0.854,1.553c1.051,0.66,2.303,0.922,3.53,0.738c4.672-0.551,5.7-6.328,5.947-10.117
	c0.108-3.969-0.065-7.94-0.521-11.885c-0.275-3.647-0.524-7.298-0.745-10.953c-0.512-8.229-0.956-16.462-1.333-24.7
	c-0.343-7.221-0.649-14.442-0.92-21.663c-0.092-2.459-0.177-4.915-0.239-7.376c-0.017-0.192-0.017-0.385-0.028-0.578
	c0.81-0.549,1.625-1.088,2.444-1.623c-0.195,7.537-0.357,15.075-0.446,22.615c-0.087,7.509-0.154,15.023,0.1,22.529
	c0.036,2.335,0.193,4.667,0.473,6.985c0.428,3.04,0.909,6.023,1.115,9.1c0.289,4.378,0.416,8.76,0.687,13.139
	c0.109,1.719,0.225,3.448,0.459,5.155c0.034,1.032,0.291,2.043,0.751,2.967c0.582,0.731,1.647,0.853,2.379,0.271
	c0.302-0.24,0.512-0.575,0.598-0.951c0.369-1.771,0.515-3.58,0.433-5.387c0.05-3.431-0.033-6.867-0.179-10.3
	c0.643,2.88,1.561,5.695,2.754,8.401c0.432,1,0.883,2.22,2.1,2.389c0.859,0.096,1.702-0.288,2.193-1
	c0.72-0.707,1.139-1.665,1.168-2.673c0.111-1.993,0.051-3.991-0.162-5.974c0.33,0.119,0.814,0.071,1.054,0.028
	c0.651-0.121,0.569-0.863,0.624-1.384c0.131-1.239,0.218-2.485,0.3-3.729c0.188-2.7,0.464-5.448,0.391-8.155
	c-0.101-3.787-1.077-7.672-1.736-11.385c-1.125-6.33-2.33-12.647-3.617-18.952c-1-4.944-1.959-9.936-3.314-14.8
	c-0.2-0.713-0.459-1.4-0.683-2.1c-0.479-1.854-0.606-3.782-0.379-5.684c0.107-1.384,0.28-2.762,0.514-4.129
	c1.706,8.703,3.479,17.394,5.433,26.044c1.373,6.076,2.967,12.016,3.791,18.208c0.472,3.56,0.847,7.133,1.418,10.679
	c0.321,1.986,0.535,4.8,1.856,6.45c0.905,0.999,2.449,1.075,3.448,0.17c0.03-0.027,0.061-0.056,0.089-0.085
	c1.217-1.219,1.779-3.216,2.301-4.8c1.994-6.549,3.223-13.308,3.659-20.14c0.434-4.175,0.478-8.372,0.165-12.544
	c0.371,1.333,0.738,2.667,1.081,4.008c0.778,3.045,1.467,6.118,1.966,9.221c0.608,3.776,0.78,7.6,1.271,11.4
	c0.187,1.438,0.718,11.1,4.438,8.909c0.943-0.555,1.206-2.138,1.432-3.1c0.428-1.833,0.689-3.702,0.782-5.583
	c0.051-2.562-0.007-5.125-0.147-7.682c0.029,0.067,0.056,0.137,0.086,0.204c0.544,1.232,1.21,3.268,2.454,4
	c3.138,1.861,5.013-4.924,5.5-6.707c1.899-7.109,1.938-14.587,0.112-21.716c-2.968-11.393-6.604-22.602-10.887-33.568
	c-1.107-3.199-2.697-6.21-4.714-8.929c-0.16-0.204-0.329-0.402-0.491-0.605c0.754,0.816,1.607,1.614,2.562,1.907
	c1.783,0.544,2.463-0.745,2.191-2.318c-0.601-2.715-1.807-5.259-3.528-7.442c-0.901-1.176-1.957-2.225-3.138-3.12
	c-1.5-1.192-2.824-2.552-4.2-3.88c-0.324-0.419-0.741-0.745-1.206-0.981c0.762-0.178,1.54-0.28,2.324-0.288
	c4.359,0.234,7.846,3.713,10.112,7.137c3.9,5.889,5.769,13.175,7.801,19.868c3.979,13.117,7.281,26.442,10.37,39.793
	c0.51,2.204,1.012,4.41,1.506,6.617c0.368,2.158,0.95,4.274,1.737,6.317c0.856,1.915,2.327,3.932,4.607,4.045
	c1.98,0.1,3.068-1.27,3.377-3.114c0.149-1.385,0.183-2.781,0.1-4.172c-0.007-1.75-0.023-3.499-0.049-5.245
	c-0.074-5.035-0.218-10.07-0.461-15.1c-0.27-5.59-0.648-11.18-1.3-16.739c-0.418-4.62-1.278-9.189-2.568-13.645
	c-1.486-4.658-4.955-8.272-8.271-11.757c-1.112-1.168-2.284-2.251-3.484-3.321c-0.488-0.433-0.566-0.47-0.051-0.978
	c1.562-1.529,4.023-1.3,5.775-0.3c5.017,2.869,7.219,9.807,8.654,14.969c3.853,13.841,4.891,28.166,7.231,42.286
	c0.302,2.132,0.765,4.238,1.384,6.3c0.325,0.994,0.736,2.28,1.745,2.788c1.135,0.504,2.466,0.188,3.254-0.771
	c1.229-1.476,1.328-3.865,1.413-5.682c0.334-6.9-0.7-13.862-1.106-20.742c-0.308-3.8-0.308-7.618,0-11.417
	c0.444-4.005,1.261-7.959,2.441-11.811c0.662-2.297,1.443-4.557,2.319-6.779c-0.375,4.13-0.687,8.269-0.946,12.409
	c-0.308,4.9-0.539,9.809-0.564,14.722c-0.143,3.931,0.095,7.867,0.709,11.753c0.444,2.322,1.632,5.316,4.641,4.578
	c1.665-0.406,2.309-2.287,2.729-3.756c0.75-2.93,1.106-5.947,1.06-8.971c-0.054-3.458-0.326-6.909-0.814-10.333
	c-0.221-2.976-0.021-5.968,0.595-8.887c1.079-6.3,2.562-12.791,0.535-19.075c-2.271-7.045-8.6-11.332-12.99-16.982
	c-0.84-0.926-1.511-1.989-2.006-3.136c1.981,1.847,3.932,3.729,5.843,5.646c4.157,3.954,7.955,8.271,11.347,12.9
	c1.139,1.414,1.939,3.069,2.341,4.839c0.157,1.444,0.229,2.896,0.218,4.348c0.101,5.033,0.034,10.068,0.007,15.1
	c-0.026,5.474-0.062,10.959,0.076,16.433c0.052,2.071,0.118,4.143,0.3,6.207c-0.011,1.173,0.197,2.338,0.615,3.435
	c0.49,0.723,1.474,0.911,2.196,0.42c0.045-0.031,0.089-0.064,0.131-0.099c1.106-0.93,1.5-3.089,1.87-4.393
	c1.65-6.372,2.803-12.863,3.446-19.414c0.423-3.544,0.765-7.1,0.98-10.661s0.025-7.193,0.591-10.734
	c1.047-5.761,3.17-11.259,6.227-16.23c-1.376,7.144-2.636,14.314-3.762,21.516c-0.977,6.194-1.886,12.415-2.409,18.663
	c-0.223,2.299-0.318,4.609-0.285,6.919c-0.086,1.353,0.145,2.707,0.671,3.956c1.932,3.4,8.525,6.08,11,1.9
	c1.8-3.038,1.041-7.126,0.765-10.449c-0.334-3.968-0.666-7.939-0.878-11.911c-0.27-4.328-0.311-8.667-0.125-13
	c0.066-3.728,0.673-7.426,1.8-10.98c0.444-1.331,1.107-2.577,1.962-3.689c0.134-0.164,0.282-0.312,0.43-0.458
	c0.045,0.295,0.088,0.58,0.082,0.7c-0.069,1.042-0.191,2.08-0.365,3.109c-0.97,6.461-2.309,12.966-1.906,19.536
	c0.131,3.156,1.023,6.234,2.601,8.971c1.191,2.048,2.368,4.1,3.622,6.112c0.583,1.079,1.312,2.072,2.166,2.953
	c0.708,0.789,1.921,0.854,2.71,0.146c0.285-0.256,0.487-0.592,0.58-0.964c0.501-1.938,0.71-3.94,0.619-5.94
	c0.008-1.115-0.003-2.23-0.01-3.346c0.03,1.042,0.108,2.075,0.269,3.088c0.16,1.008,0.415,2.284,1.427,2.771
	c1.861,0.894,4.047-0.891,5.233-2.084c2.785-2.806,3.72-6.943,3.939-10.765c0.112-2.261,0.031-4.527-0.243-6.774
	c-0.233-2.022-0.755-4.01-0.929-6.032c-0.156-3.751,0.312-7.503,1.388-11.1c0.67-2.563,1.452-5.095,2.337-7.592
	c-0.308,2.278-0.592,4.559-0.852,6.841c-0.459,4.017-0.847,8.046-1.063,12.085c-0.259,3.29-0.221,6.597,0.111,9.881
	c0.205,1.607,0.5,3.974,2.345,4.489c2.127,0.531,4.332,0.673,6.509,0.417c1.688-0.189,3.595-0.787,4.234-2.534
	c0.312-1.068,0.307-2.203-0.016-3.268c-0.389-1.407-0.499-2.876-0.326-4.326c0.332-2.303,1.309-4.429,2.318-6.514
	c0.628,1.15,1.254,2.302,1.884,3.45c0.375,0.684,0.753,1.366,1.128,2.049c0.087,1.786,0.439,4.047,2.207,4.008
	c0.495,0.897,0.986,1.795,1.482,2.692c-4.728,2.729-9.365,5.62-13.95,8.572c-18.558,11.949-36.463,24.914-54.199,38.038
	c-11.896,8.801-23.694,17.735-35.436,26.743c-11.703,8.117-23.407,16.235-35.111,24.349c-16.69,11.57-33.384,23.134-50.081,34.691
	c-13.788,9.542-27.581,19.076-41.379,28.6c-8.853,6.109-17.718,12.203-26.594,18.284c-5.029,3.43-10,6.843-14.844,10.551
	c-2.795,2.14-5.574,4.3-8.351,6.464c-0.285,0.037-0.571,0.074-0.856,0.111c-9.733,1.268-19.469,2.535-29.207,3.805
	c-19.562,2.547-39.125,5.096-58.687,7.646l-7.235,0.94c-1.219,0.16-0.315,0.814,0.47,0.709l-0.002,0.007l59.221-7.716
	c9.826-1.279,19.652-2.559,29.477-3.84c1.872-0.243,3.745-0.487,5.617-0.731c-3.934,3.071-7.852,6.16-11.761,9.261
	c-3.348,0.437-6.696,0.872-10.043,1.309c-2.411,0.312-4.823,0.625-7.234,0.941c-0.93,0.121,0.629,0.899,1.1,0.84h-0.005
	l14.708-1.916c-5.89,4.679-11.764,9.376-17.637,14.07c-16.667,13.328-33.294,26.701-49.88,40.122
	c-11.976,9.681-23.937,19.373-35.882,29.075c-1.782,1.445-3.562,2.891-5.343,4.338c-0.473,0.383,0.551,0.559,0.773,0.561
	c1.551,0,4.3-0.174,5.566,0.813c0.492,0.386,0.513,0.544,0.278,1.114c-0.6,1.445-2.581,0.812-3.588,0.256
	c-0.833-0.467-1.597-1.048-2.283-1.714c-0.019-0.03-0.054-0.057-0.096-0.083c-0.001-0.001-0.001-0.001-0.002-0.002
	c-0.001-0.001-0.003-0.001-0.004-0.002c-0.033-0.021-0.062-0.04-0.104-0.058c-0.112-0.056-0.266-0.09-0.447-0.103
	c-0.393-0.048-0.832-0.004-1.033,0.189c-0.001,0.001-0.001,0.002-0.003,0.004c-0.038,0.037-0.08,0.072-0.097,0.121h-0.007
	c-0.92,2.645-1.714,6.51,2.153,6.645c3.618,0.125,7.24-2.66,9.805-4.887c2.393-2.078,4.692-4.227,7.145-6.246
	c9.453-7.771,19.084-15.332,28.7-22.905c12.854-10.128,25.746-20.21,38.678-30.244c10.687-8.307,21.403-16.577,32.149-24.812
	c3.952-3.015,7.938-5.978,11.912-8.957l23.492-3.06c9.825-1.278,19.651-2.56,29.477-3.841c4.912-0.639,9.824-1.278,14.737-1.919
	c4.5-0.586,9.065-1.022,13.5-2.046c2.783-0.67,5.468-1.681,8.002-2.996c1.442-0.188,2.886-0.376,4.329-0.564
	c4.533-0.457,9.039-1.149,13.5-2.073c3.945-0.978,7.695-2.623,11.086-4.865c3.363-2.158,6.508-4.634,9.895-6.751
	c1.774-1.119,3.646-2.064,5.584-2.838c2.296-0.616,4.58-1.273,6.859-1.948c4.504-0.809,9.038-1.311,13.51-2.321
	c1.025-0.233,2.047-0.484,3.065-0.742c0.33,0.258,0.651,0.527,0.96,0.812c1.477,1.518,2.777,3.232,3.969,5.041
	c-2.174,0.455-4.36,0.854-6.558,1.184c-4.268,0.622-8.584,1.183-12.631,2.762c-7.483,2.92-13.166,8.915-20.345,12.382
	c-4.091,1.975-8.545,2.73-13.007,3.33c-4.862,0.65-9.73,1.27-14.593,1.9c-9.733,1.266-19.47,2.535-29.21,3.807
	c-19.562,2.547-39.122,5.095-58.684,7.645l-7.235,0.941c-1.062,0.14-0.949,0.854,0.116,0.716l0.004,0.003l59.22-7.716l29.478-3.839
	l15.007-1.954c4.54-0.455,9.053-1.159,13.516-2.108c8.019-1.961,13.976-7.242,20.789-11.541c3.87-2.454,8.192-4.105,12.712-4.857
	c3.953-0.684,7.917-1.197,11.847-2.002c2.022,3.181,3.714,6.63,5.33,9.894c0.596,1.195,1.18,2.404,1.729,3.62
	c0,0.01,0.003,0.02,0.003,0.03c0.004,0,0.007,0,0.011,0c0.012,0.026,0.025,0.053,0.037,0.08c0.174,0.388,1.787,0.419,1.785-0.085
	c-0.062-1.312-0.272-2.613-0.629-3.878c-0.956-3.673-2.28-7.239-3.938-10.652c2.572-0.649,5.126-1.364,7.671-2.11
	c1.992,3.042,3.885,6.147,5.651,9.327c0.037,0.084,0.087,0.162,0.127,0.243c0.062,0.246,0.151,0.484,0.279,0.703
	c0.317,0.383,1.571,0.626,1.832,0.1c0.135-0.272-0.147-0.85-0.483-1.403c0-0.001-0.001-0.002-0.001-0.003
	c-0.287-0.934-0.555-1.877-0.84-2.815c-0.747-2.479-1.585-4.931-2.485-7.36c4.14-1.235,8.28-2.468,12.478-3.492
	c8.695-1.961,17.578-2.979,26.492-3.034c16.389-0.4,33.486,0.555,49.033-5.59c1.887-0.751,3.731-1.603,5.526-2.552
	c0.374-0.194,0.167-0.379-0.082-0.506c-0.433-0.096-0.886-0.022-1.266,0.207c-15.284,8.022-33.054,7.329-49.816,7.612
	c-8.374,0.14-16.786,0.477-25.027,2.057c-5.966,1.143-11.783,2.859-17.598,4.59c-0.15-0.398-0.283-0.803-0.439-1.199
	c-0.554-1.475-1.166-2.923-1.805-4.359c1.677-0.093,3.354-0.163,5.034-0.187c16.57-0.477,33.939,0.727,49.691-5.429
	c0.617-0.242,1.223-0.513,1.831-0.777c8.195-0.566,16.284-1.841,23.975-4.88c1.877-0.744,3.713-1.586,5.5-2.525
	c0.568-0.3-1.092-0.733-1.526-0.506c-8.081,4.241-16.83,6.069-25.759,6.901c0.516-0.251,1.037-0.492,1.545-0.759
	c0.617-0.325-0.979-1-1.411-0.774c-1.287,0.676-2.597,1.271-3.916,1.832c-6.708,0.43-13.479,0.415-20.112,0.52
	c-8.347,0.134-16.744,0.435-24.972,1.963c-3.649,0.679-7.242,1.582-10.812,2.574c-3.166-6.618-7.224-12.782-12.078-18.312
	c-4.081-4.493-8.812-7.884-13.733-11.379c-5.121-3.577-10.006-7.481-14.622-11.688c-2.577-2.389-5.414-5.006-7.142-8.118
	c-0.442-0.601-0.64-1.347-0.553-2.088c0.04-0.149,0.186-0.231,0.225-0.253c0.34,0.033,0.675,0.099,1.001,0.199
	c2.737,0.778,5.41,1.93,8.064,2.951c3.793,1.462,7.572,2.959,11.338,4.491c1.861,0.753,3.721,1.515,5.575,2.287
	c0.871,0.53,1.739,1.064,2.627,1.567c2.257,1.397,4.667,2.53,7.182,3.377c0.389,0.118,2.953,0.856,2.953-0.044
	c0-0.573-1.94-1.239-2.312-1.415c-1.855-0.883-3.745-1.7-5.636-2.5c-1.066-0.456-2.142-0.89-3.211-1.337
	c-2.557-1.571-5.053-3.239-7.469-5.021c-1.447-1.05-2.88-2.129-4.259-3.27c-0.476-0.392-0.954-0.791-1.4-1.221
	c-0.062-0.061-0.137-0.155-0.214-0.257c0.185,0.045,0.369,0.086,0.554,0.133c11.892,2.96,23.693,6.3,35.518,9.522
	c13.11,3.566,26.212,7.186,39.351,10.658c1.476,0.386,2.946,0.782,4.426,1.137c0.431,0.105,2.812,0.559,2.238-0.294
	c-0.219-0.321-1.257-0.535-1.585-0.66c-1.293-0.49-2.6-0.965-3.899-1.435c-4.244-1.534-8.499-3.038-12.766-4.514
	c-12.813-4.46-25.669-8.798-38.565-13.014c-3.301-1.076-6.637-2.084-9.884-3.326c-2.064-0.692-4.036-1.635-5.873-2.806
	c-0.582-0.41-1.666-1.177-1.293-2.03c0.321-0.727,1.533-0.985,2.2-1.148c3.166-0.644,6.403-0.857,9.626-0.633
	c2.693,0.099,5.372,0.426,8.01,0.979c7.368,1.5,14.767,2.846,22.1,4.523c9.165,2.095,18.455,4.413,27.094,8.193
	c3.547,1.403,6.805,3.448,9.609,6.033c0.503,0.498,1.4,1.433,2.093,2.433c-0.921,1.213-2.272,2.198-3.647,2.771
	c-0.85,0.366-1.737,0.642-2.646,0.822c-0.537,0.1-0.55,0.524,0,0.626c2.425,0.45,6.024,1.019,8.213-0.408
	c1.428-0.931,1.134-2.377,0.115-3.879c1.392-2.283,0.98-5.287-1.106-7.079c-2.273-1.955-5.258-3.183-7.99-4.328
	c-4.095-1.712-8.301-3.14-12.526-4.5c-9.812-3.163-19.761-5.887-29.678-8.7c-4.072-1.154-8.147-2.3-12.186-3.58
	c-2.075-0.657-4.149-1.339-6.158-2.186c-0.932-0.4-4.812-1.771-4.206-3.438c0.464-1.273,3.114-1.665,4.192-1.9
	c2.39-0.493,4.804-0.856,7.233-1.086c0.53-0.058,1.067-0.134,1.6-0.165c0.008,0,0.011-0.001,0.017-0.001
	c0.017,0.001,0.051,0.001,0.121,0.001c0.245-0.002,0.49,0.017,0.731,0.058c0.767,0.101,1.527,0.243,2.278,0.426
	c5.658,1.414,11.236,3.135,16.708,5.156c16.321,5.653,32.43,11.931,48.5,18.263c10.408,4.1,20.771,8.321,31.15,12.493
	c0.169,0.067,0.336,0.138,0.5,0.207c0.216,0.087,1.8,0.207,1.519-0.343c-0.197-0.32-0.433-0.616-0.7-0.88
	c-1.079-1.208-2.28-2.318-3.47-3.417c-3.613-3.323-7.26-6.845-11.575-9.245c-8.149-4.531-17.194-7.6-25.978-10.636
	c-10.382-3.584-20.878-6.841-31.432-9.878c-6.25-1.8-12.5-3.472-18.856-4.835c-2.112-0.453-6.316-2.479-6.049-5.244
	c0.025-0.403,0.234-0.772,0.568-1c0.308-0.176,0.655-0.272,1.01-0.278c0.05-0.005,0.098-0.008,0.14-0.01
	c0.178,0,0.354,0.022,0.521,0.081c1.97,0.479,3.913,1.061,5.822,1.743c7.562,2.525,15.035,5.327,22.5,8.122
	c9.674,3.62,19.328,7.299,28.962,11.037c8.909,3.436,17.81,6.892,26.7,10.369c5.086,1.982,10.16,4,15.261,5.938
	c3.555,1.357,4.899,5.356,5.78,8.76c1.063,4.418,1.662,8.935,1.786,13.478c0.036,0.829,0.064,1.658,0.065,2.487
	c0,0.509,1.787,0.526,1.811,0.02h0.009c0-0.057-0.003-0.114-0.004-0.172c0.004-4.606,0.166-9.21,0.144-13.812
	c0-3.174-0.704-6.309-2.062-9.178c-0.384-0.65-0.888-1.222-1.484-1.685c-2.287-1.847-4.749-3.466-7.351-4.835
	c-3.856-2.2-7.811-4.23-11.786-6.207c-10.208-5.078-20.601-9.789-31.037-14.381c-10.075-4.433-20.213-8.728-30.411-12.885
	c-3.606-1.462-7.219-2.907-10.857-4.288c-1.208-0.457-2.418-0.907-3.637-1.333c-0.938-0.328-1.885-0.633-2.812-0.981
	c-0.479-0.183-2.471-0.7-2.645-1.3c-0.111-0.374,0.446-0.3,0.794-0.332c1.132-0.077,2.268-0.082,3.4-0.015
	c3.172,0.112,6.339,0.39,9.5,0.671c2.854,0.091,5.679,0.589,8.392,1.478c7.378,2.67,14.486,6.172,21.551,9.558
	c9.832,4.714,19.577,9.6,29.301,14.548c9.096,4.625,18.165,9.303,27.208,14.033c5.062,2.643,10.116,5.299,15.163,7.971
	c0.233,0.123,0.468,0.245,0.699,0.37c0.232,0.125,2.026,0.236,1.66-0.268c-0.846-1.161-1.689-2.322-2.534-3.484
	c-2.819-3.878-5.349-7.888-9.141-10.89c-3.947-2.986-8.156-5.608-12.576-7.834c-4.899-2.6-9.91-4.988-14.942-7.326
	c-4.351-2.024-8.737-3.979-13.033-6.118c-3.339-1.665-6.5-3.577-9.937-5.057c-10.237-4.409-20.982-7.592-31.082-12.337
	c-1.993-0.898-3.915-1.947-5.75-3.136c-0.864-0.579-1.688-1.218-2.463-1.912c-0.3-0.268-1.543-1.257-1.362-1.808
	c0.29-0.876,4.176-0.149,4.855-0.087c3.238,0.3,6.473,0.622,9.725,0.751c2.607,0.006,5.206,0.291,7.752,0.849
	c3.059,0.738,6.069,1.681,9.057,2.666c16.606,5.468,32.819,12.21,48.943,18.943c6.326,2.645,12.638,5.324,18.935,8.04
	c1.621,0.698,3.241,1.401,4.858,2.109c0.248,0.106,0.498,0.211,0.742,0.324c0.038,0.021,0.178,0.091,0.25,0.125
	c0.249,0.124,0.508,0.227,0.774,0.307c0.584,0.156,1.81,0.285,2.03-0.479c0.31-1.07-1.4-2.989-1.933-3.727
	c-1.534-2.347-3.544-4.346-5.899-5.867c-5.963-3.725-12.679-6.354-19.183-8.949c-16.422-6.551-33.236-12.136-50.058-17.559
	c-2.667-0.86-5.334-1.714-8-2.563c-0.844-0.267-1.688-0.535-2.532-0.805c-0.676-0.115-1.328-0.344-1.928-0.677
	c-0.337-0.352-0.315-0.294,0.15-0.531c0.905-0.318,1.857-0.482,2.817-0.486c2.726-0.256,5.464-0.341,8.2-0.254
	c2.616-0.088,5.229,0.266,7.727,1.048c5.685,2.006,11.167,4.656,16.617,7.208c7.839,3.667,15.614,7.474,23.368,11.32
	c12.562,6.235,25.072,12.573,37.532,19.013c0.699,0.361,1.399,0.724,2.1,1.083c0.294,0.152,1.335,0.247,1.516-0.149
	c0.173-0.591,0.135-1.224-0.106-1.79c-0.807-2.162-2.038-4.14-3.622-5.817c-1.367-1.53-2.87-2.934-4.489-4.193
	c-6.058-4.76-12.58-8.898-19.467-12.353c-10.744-5.522-21.98-10.029-33.563-13.462c-6.426-1.939-13.022-3.357-19.319-5.712
	c-2.416-0.9-6.229-2.064-7.65-4.471c-1.81-3.069,4.75-5.2,6.593-5.982c1.652-0.575,3.23-1.344,4.7-2.291
	c0.341-0.258,0.678-0.769,0.889-0.938c0.371-0.151,0.771-0.216,1.171-0.19c2.312,0.021,4.617,0.249,6.889,0.68
	c3.462,0.539,6.9,1.226,10.331,1.953c8.223,1.747,16.391,3.773,24.507,5.969c6.018,1.63,12.057,3.311,17.952,5.366
	c3.446,5.658,6.956,11.277,10.555,16.841c27.389,42.351,61.37,80.318,94.307,118.381c8.114,9.376,16.258,18.728,24.426,28.057
	c-5.283-0.627-10.581-1.084-15.852-1.422c-7.384-0.475-14.791-0.673-22.188-0.449c-5.581,0.035-11.146,0.602-16.621,1.688
	c-8.159,1.866-15.306,6.764-19.991,13.7c-3.964,5.92-6.542,12.658-7.543,19.711c-0.431,2.633-0.576,5.305-0.432,7.969
	c0.052,0.943,0.189,1.881,0.41,2.8c0.364,1.425,0.946,2.63,0.807,4.168c-0.452,4.962-5.561,8.974-10.407,8.921
	c-3-0.035-4.8-1.715-6.527-3.953c-4.214-5.447-7.265-11.699-11.546-17.113c-5.021-6.358-11.491-11.485-19.615-13.018
	c-7.844-1.482-16.145,0.258-21.605,6.344c-4.111,4.58-6.318,10.699-7.34,16.688c-0.32,1.732-0.497,3.488-0.528,5.249
	c0,0.558,1.79,0.735,1.792,0.272l-0.004-0.008c0.1-4.659,1.061-9.26,2.835-13.568c2.554-6.379,7.213-12.026,14.038-13.938
	c8.381-2.349,17.093,0.624,23.417,6.274c5.577,4.98,9.433,11.441,13.384,17.699c1.402,2.41,3.032,4.678,4.868,6.774
	c2.08,2.179,5.036,3.296,8.037,3.038c4.551-0.188,8.598-2.951,10.431-7.121c0.742-1.846,0.742-3.906,0-5.753
	c-0.264-0.728-0.444-1.483-0.539-2.253c-0.727-5.541,0.4-11.488,2.049-16.764c2.22-7.114,6.051-13.871,11.76-18.754
	c5.506-4.709,12.2-6.812,19.285-7.613c6.271-0.648,12.578-0.9,18.883-0.758c9.867,0.085,19.714,0.77,29.489,2.036
	c12.71,14.51,25.498,28.951,38.338,43.347c-1.015,1.013-2.046,2.009-3.112,2.968c-7.318,6.62-15.495,12.226-24.308,16.665
	c-7.978,4.025-16.65,7.301-25.601,8.2c-3.764,0.459-7.579,0.253-11.271-0.611c-1.631-0.415-3.205-1.024-4.692-1.812
	c-3.094-1.637-6.188-3.274-9.328-4.825c-9.076-4.504-18.378-8.537-27.87-12.083c-1.41-0.523-2.828-1.045-4.259-1.523
	c-0.283-0.095-0.992-0.312-1.246-0.057c-0.239,0.238-0.075,0.43,0.247,0.539c5.784,1.93,11.456,4.257,17.056,6.658
	c5.882,2.521,11.682,5.227,17.399,8.115c4.235,2.148,8.271,4.763,12.957,5.808c8,1.784,16.489,0.337,24.2-2.093
	c9.229-3.006,17.979-7.32,25.981-12.811c5.346-3.503,10.312-7.535,14.851-12.012c10.482,11.747,20.993,23.47,31.562,35.141
	c10.777,11.953,21.588,23.877,32.431,35.773c2.987,3.277,5.979,6.553,8.974,9.826c0.491,0.535,2.297,3.137,2.99,2.714
	C1050.876,438.954,1045.933,439.392,1045.077,439.583z M747.554,98.761c-0.359,2.915-0.798,5.998-0.863,9.037
	c-0.05-5.339-0.17-10.679,0.05-16.018c0.102-3.727,0.473-7.442,1.11-11.116c0.608-3.269,1.86-6.385,3.684-9.165
	c0.316-0.501,0.662-0.981,1.014-1.456C750.547,79.545,748.742,89.124,747.554,98.761z M638.926,84.127
	c-0.607-0.655-1.214-1.311-1.826-1.959c-3.066-3.247-6.21-6.688-9.822-9.347c1.032,0.468,2.016,1.043,2.918,1.739
	c1.269,1.094,2.454,2.279,3.549,3.546C635.525,80.068,637.227,82.096,638.926,84.127z M641.674,130.334
	c-1.669-6.683-3.551-13.37-5.984-19.819c0.894-0.404,1.792-0.797,2.692-1.186c1.605,5.625,3.229,11.247,4.89,16.857
	c2.556,8.584,5.166,17.165,8.115,25.623c0.336,0.963,0.678,1.925,1.025,2.886c0.132,1.591,0.254,3.182,0.358,4.775
	c0.355,3.607,0.371,7.239,0.047,10.848c-0.136,1.749-0.502,3.472-1.09,5.124c-0.029,0.062-0.069,0.119-0.101,0.18
	c-0.023-0.041-0.042-0.085-0.067-0.125c-1.036-2.372-1.269-5.222-1.589-7.754c-0.455-3.589-0.624-7.21-1.179-10.781
	C647.394,147.914,644.706,139.036,641.674,130.334z M640.666,165.51c-0.492,3.034-1.157,6.037-1.993,8.994
	c-0.451,1.948-1.207,3.813-2.24,5.525c-0.146,0.159-0.282,0.327-0.415,0.498c-0.126-0.205-0.345-0.43-0.442-0.616
	c-0.217-0.45-0.394-0.919-0.527-1.4c-0.71-2.723-1.201-5.499-1.47-8.3c-0.705-6.347-1.782-12.647-3.225-18.868
	c-2.8-11.173-4.973-22.516-7.2-33.812c-0.039-0.2-0.078-0.4-0.117-0.6c3.266-1.84,6.592-3.571,9.979-5.18
	c2.535,6.602,5.025,13.239,7.275,19.952c0.949,3.998,1.656,8.042,1.854,12.124C642.435,151.087,641.939,158.357,640.666,165.51z
	 M639.73,107.722c-1.284-4.521-2.553-9.045-3.8-13.575c1.565,2.378,3.146,4.746,4.762,7.088c1.097,1.59,2.393,3.121,3.479,4.736
	C642.681,106.531,641.201,107.119,639.73,107.722z M644.691,106.769c0.04,0.066,0.088,0.128,0.127,0.194
	c0.578,1.134,1.002,2.34,1.262,3.586c1.147,4.612,2.053,9.28,2.714,13.986c0.942,6.013,1.729,12.049,2.418,18.1
	c0.193,1.704,0.376,3.408,0.552,5.114c-1.027-3.028-2.003-6.074-2.898-9.146c-2.789-8.909-5.421-17.871-7.991-26.845
	c-0.297-1.037-0.587-2.075-0.882-3.112C641.547,107.996,643.114,107.37,644.691,106.769z M621.952,147.235
	c-0.183-0.873-0.362-1.744-0.543-2.615c-0.025-0.147-0.049-0.294-0.074-0.442c-0.087-0.504-0.102-1.923-0.515-2.602
	c0-0.009-0.003-0.019-0.003-0.028l-0.016,0.003c-0.11-0.171-0.241-0.304-0.416-0.34c-0.121-0.026-0.322-0.054-0.532-0.057
	c-0.035-4.021-0.051-8.042-0.049-12.062c0.093,0.372,0.195,0.742,0.317,1.107c1.235,4.172,2.229,8.413,2.976,12.7
	c1.312,6.29,2.541,12.598,3.69,18.925c0.816,4.471,1.724,8.965,2.223,13.485c0.126,1.984,0.092,3.975-0.087,5.954
	c-0.559-3.06-1.156-6.114-1.771-9.159C625.479,163.803,623.702,155.522,621.952,147.235z M626.74,196.605
	c-0.17,0.668-0.674,0.987-1.06,1.426c-0.31-0.599-0.628-1.184-0.889-1.817c-1.669-3.948-2.776-8.112-3.289-12.368
	c-1.377-12.087-1.434-24.373-1.595-36.525c-0.003-0.256-0.004-0.513-0.007-0.769c0.265,1.571,0.528,3.142,0.79,4.713
	c0.9,5.423,1.8,10.848,2.777,16.258c0.979,5.432,1.899,10.879,2.614,16.351c0.329,2.548,0.623,5.108,0.777,7.672
	C627.071,193.229,627.031,194.934,626.74,196.605z M619.774,119.606c-0.005-0.258-0.008-0.517-0.012-0.776
	c0.06-0.036,0.118-0.071,0.178-0.107C619.881,119.017,619.825,119.311,619.774,119.606z M619.034,141.703
	c-0.065-0.047-0.045-0.077-0.006-0.063C619.03,141.661,619.033,141.682,619.034,141.703z M616.006,147.517
	c1.067,15.029,2.364,30.066,2.776,45.131c0.073,2.655,0.125,5.316,0.015,7.97c-0.026,0.888-0.099,1.774-0.217,2.655
	c-0.003,0.018-0.01,0.038-0.014,0.056c-0.268-1.322-0.446-2.659-0.525-4.005c-0.349-4.13-0.467-8.274-0.683-12.406
	c-0.089-3.759-0.454-7.506-1.09-11.211c-0.329-1.845-0.523-3.71-0.58-5.583c-0.356-6.876-0.3-13.783-0.254-20.666
	c0.021-2.765,0.054-5.531,0.092-8.296C615.627,143.284,615.781,145.403,616.006,147.517z M615.739,129.416
	c0.06-2.746,0.125-5.492,0.198-8.237c0.285-0.181,0.571-0.36,0.857-0.539C616.397,123.559,616.018,126.483,615.739,129.416z
	 M617.191,137.115c-0.031-3.402,0.187-6.801,0.651-10.171c0.053-0.463,0.119-0.924,0.175-1.387
	c-0.013,6.476,0.007,12.953,0.075,19.431c0.026,2.38,0.051,4.767,0.077,7.156C617.792,147.14,617.365,142.125,617.191,137.115z
	 M589.797,171.32c0.807,2.041,1.638,4.072,2.476,6.1c0.271,1.158,0.502,2.325,0.654,3.506c0.463,3.279,0.709,6.584,1.2,9.863
	c0.683,4.477,1.742,8.889,3.165,13.188c1.786,5.447,4.462,13.623-1.288,17.786c-1.584,1.109-3.467,1.714-5.4,1.736
	c-0.923,0.02-2.646,0.009-3.2-0.735c-0.677-0.91-0.637-2.608-0.716-3.675c-0.167-2.193-0.178-4.4-0.18-6.6
	c-0.007-6.321,0.156-12.646,0.12-18.97c0.051-6.864-0.316-13.725-1.101-20.544c-0.72-5.623-1.945-11-4.756-15.965
	c-3.648-6.724-6.71-13.747-9.164-20.99c3.957-3.324,8.124-6.392,12.486-9.171c3.519-2.231,8.711-5.51,12.813-2.878
	c2.5,1.6,4.101,4.864,2.468,7.61c-0.306,0.517,1.415,0.457,1.661,0.259c2.884-2.324,5.846-4.54,8.875-6.655
	c0.123,4.625,0.304,9.248,0.491,13.872c0.622,15.221,1.348,30.44,2.395,45.634c0.221,3.221,0.489,6.433,0.742,9.651
	c0.459,3.788,0.247,7.626-0.623,11.34c-0.601,2.118-2.873,6.227-5.342,4.471c-0.513-0.366-0.508-0.773-0.678-1.331
	c-0.359-1.184-0.84-2.338-1.291-3.491c-1.681-4.28-3.455-8.525-5.22-12.774c-2-4.819-4.02-9.633-6.017-14.459
	c-0.09-0.217-0.178-0.436-0.268-0.653c-0.204-0.895-0.426-1.786-0.679-2.669c-0.587-2.176-1.483-4.256-2.663-6.176
	c-0.423-0.613-1.913-0.989-1.986-0.047C588.718,169.326,589.523,170.627,589.797,171.32z M565.75,129.854
	c-0.181-0.559-1.321-0.37-1.693-0.165c-0.796,0.44-1.598,0.869-2.396,1.305c0.28-1.504,0.65-2.993,1.11-4.455
	c0.599-2.233,1.277-4.44,1.992-6.639c1.397,5.431,3.039,10.792,4.936,16.063c-1.043,0.884-2.07,1.786-3.083,2.705
	C566.968,135.709,566.683,132.702,565.75,129.854z M564.211,130.814c0.89,3.226,0.988,6.623,0.262,9.899
	c-0.105,0.486,1.484,0.363,1.691,0.163c1.309-1.245,2.646-2.457,4.01-3.639c2.03,5.511,4.317,10.929,6.883,16.223
	c1.436,2.869,3.229,5.55,4.308,8.588c0.984,2.92,1.688,5.928,2.101,8.982c0.621,4.613,1.008,9.251,1.206,13.898
	c-0.926-3.882-2.277-7.651-4.083-11.214c-2.343-4.554-5.096-8.929-7.642-13.376c-3.11-5.427-6.3-10.841-9.076-16.445
	c-1.262-2.545-2.829-5.472-2.771-8.4c0.068-1.065,0.198-2.124,0.355-3.178C562.374,131.816,563.294,131.318,564.211,130.814z
	 M614.382,113.341c-0.08,2.535-0.142,5.07-0.21,7.605c-0.849,0.54-1.69,1.089-2.529,1.645c0-1.573,0.157-3.144,0.485-4.686
	C612.569,116.24,613.342,114.693,614.382,113.341z M379.022,183.708c-1.254,2.636-2.995,5.012-5.154,6.979
	c-0.809,0.782-1.514,0.6-2.516,0.363c-0.785-0.187-1.574-0.352-2.367-0.5c-0.555-0.104-1.114-0.189-1.672-0.278l7.825-4.355
	C376.395,185.116,377.698,184.394,379.022,183.708z M729.306,232.06c0.002,0,0.014-0.005,0.012-0.003
	c-0.003,0.003,0.005,0.006,0.008,0.009C729.318,232.064,729.317,232.063,729.306,232.06z M743.146,343.258
	c6.1,0.76,12.192,1.66,18.3,2.3c0.087,0.009,0.174,0.024,0.258,0.034c0.56,0.07,1.981-0.6,0.822-0.745
	c-5.2-0.667-10.4-1.323-15.6-1.97c-12.789-1.601-25.58-3.167-38.373-4.701c-14.8-1.773-29.601-4.071-44.545-3.139
	c-11.498,0.65-22.843,2.946-33.688,6.817c-3.87,1.38-7.624,3.067-11.225,5.048c-2.395,1.231-4.597,2.804-6.54,4.667
	c-0.306,0.317-0.589,0.653-0.85,1.009c-0.235,0.325,1.432,0.399,1.76-0.05l-0.003,0.007c1.454-1.741,3.227-3.189,5.222-4.269
	c3.246-1.956,6.656-3.625,10.193-4.988c10.356-4.009,21.248-6.47,32.323-7.3c6.875-0.561,13.784-0.565,20.659-0.014
	c7.578,0.609,15.134,1.684,22.682,2.584C717.412,340.083,730.281,341.652,743.146,343.258z M559.69,354.051
	c-9.051,2.523-18.045,5.262-27,8.1c-15.255,4.832-30.643,9.832-45.2,16.536c-5.068,2.338-9.936,5.071-15.014,7.399
	c-6.248,2.861-12.587,5.518-18.946,8.117c-14.231,5.814-28.6,11.299-43,16.678c-5.507,2.055-11.021,4.092-16.543,6.109
	c-2.786,1.016-5.614,1.951-8.372,3.035c-0.129,0.051-0.258,0.092-0.386,0.139c-0.4,0.143,0.1,0.465,0.254,0.537
	c0.396,0.166,0.84,0.182,1.246,0.043l0.007-0.008c6.893-2.467,13.768-4.98,20.626-7.541c14.145-5.246,28.249-10.6,42.249-16.225
	c11.824-4.746,23.542-9.668,34.867-15.512c6.575-3.279,13.338-6.17,20.252-8.657c7.835-2.944,15.761-5.644,23.722-8.226
	c10.572-3.428,21.208-6.658,31.907-9.69l0.531-0.149C561.789,354.487,560.143,353.926,559.69,354.051z M350.283,265.193
	c4.914-0.639,9.826-1.278,14.738-1.919c4.639-0.458,9.25-1.168,13.812-2.126c8.087-1.97,14.03-7.382,20.931-11.661
	c3.691-2.303,7.787-3.882,12.069-4.655c4.562-0.843,9.169-1.326,13.699-2.352c9.101-2.062,17.9-5.249,26.965-7.474
	c8.562-1.975,17.31-3.023,26.095-3.129c16.491-0.45,33.743,0.669,49.412-5.452c1.901-0.744,3.759-1.594,5.565-2.546
	c0.596-0.312-1.043-0.869-1.475-0.64c-15.192,7.971-32.718,7.505-49.4,7.759c-8.412,0.127-16.868,0.412-25.162,1.93
	c-9.189,1.681-18.022,4.8-27.014,7.262c-4.479,1.254-9.031,2.237-13.63,2.942c-4.333,0.642-8.731,1.157-12.84,2.761
	c-7.477,2.916-13.166,8.922-20.347,12.382c-4.1,1.977-8.573,2.768-13.054,3.372c-4.852,0.657-9.713,1.27-14.57,1.9l-29.207,3.805
	l-58.952,7.68l-7.237,0.945c-0.417,0.053-0.279,0.3-0.091,0.5c0.375,0.236,0.827,0.319,1.262,0.232l0.001,0.004
	c19.65-2.561,39.301-5.12,58.952-7.679L350.283,265.193z M314.799,285.842c2.084-0.02,4.132,0.55,5.905,1.645
	c1.143,0.896,2.506,1.464,3.945,1.645c1.65-0.021,3.274-0.417,4.748-1.159c3.528-1.415,7.021-2.909,10.511-4.413
	c6.975-3,13.944-6.038,21.133-8.5c7.255-2.564,14.799-4.225,22.461-4.942c4.069-0.216,8.126-0.638,12.153-1.262
	c3.813-0.783,7.559-1.868,11.2-3.245c7.33-2.755,14.841-5.002,22.48-6.725c7.547-1.582,15.199-2.621,22.853-3.488
	c15.364-1.736,30.859-2.768,46-6.056c1.834-0.4,3.66-0.833,5.479-1.3c0.411-0.1-0.046-0.47-0.2-0.559
	c-0.377-0.209-0.817-0.271-1.237-0.172c-15.17,3.871-30.821,5.115-46.343,6.753c-15.25,1.607-30.525,3.689-45.039,8.847
	c-3.691,1.31-7.344,2.735-11.101,3.852c-3.933,1.125-7.972,1.839-12.052,2.131c-3.97,0.33-7.937,0.56-11.871,1.21
	c-3.694,0.624-7.347,1.47-10.938,2.536c-7.239,2.237-14.339,4.899-21.265,7.973c-3.5,1.495-6.987,3.016-10.5,4.5
	c-1.716,0.722-3.438,1.436-5.167,2.129c-0.921,0.428-1.884,0.761-2.873,0.994c-1.156,0.125-2.311-0.254-3.17-1.039
	c-2.877-1.933-6.181-2.127-9.551-2.265c-11.483-0.457-22.959,1.11-33.899,4.63c-1.88,0.606-3.737,1.27-5.574,1.99
	c-0.611,0.238,0.974,0.91,1.431,0.731l0.017-0.002c7.311-2.853,14.941-4.806,22.724-5.815c3.991-0.516,8.01-0.778,12.034-0.785
	C310.995,285.678,312.898,285.731,314.799,285.842z M570.367,181.023c-0.001,0.029-0.008,0.057-0.01,0.085
	C570.441,181.044,570.409,181.009,570.367,181.023z M454.315,122.18v0.004c3.5,1.427,8.438,5.751,6.754,10.032
	c-0.785,1.993-2.381,3.6-3.365,5.5c-1.022,2.001-1.722,4.153-2.07,6.373c-0.065,0.388,1.699,0.359,1.8-0.227
	c0.397-2.464,1.239-4.836,2.485-7c1.08-1.868,2.833-3.55,3.214-5.744c0.365-2.124-0.89-4.242-2.2-5.809
	c-1.378-1.627-3.132-2.894-5.11-3.689c-0.403-0.148-0.849-0.139-1.246,0.027C454.41,121.72,453.915,122.019,454.315,122.18z
	 M478.447,137.128c1.937,2.07,4.39,3.587,7.106,4.395c2.875,0.876,5.882,1.228,8.742,2.162c0.238,0.078,0.832-0.022,1.194-0.177
	c-0.262,0.55-0.629,1.047-1.131,1.465c-0.5,0.415,1.217,0.53,1.594,0.216c2.183-1.816,2.024-4.877,1.55-7.416
	c-1.799-9.612-8.754-17.448-18.085-20.374c-3.069-0.981-6.848-1.83-9.827-0.167c-0.822,0.459,0.914,0.618,1.326,0.39v0.005
	c1.839-1.025,4.111-0.464,6.032,0.045c5.239,1.396,9.904,4.407,13.336,8.604c2.235,2.751,3.89,5.927,4.863,9.335
	c0.616,2.155,1.36,5.21,0.502,7.506c-0.034-0.017-0.072-0.033-0.121-0.049c-2.684-0.876-5.492-1.244-8.205-2.006
	c-2.854-0.771-5.426-2.348-7.406-4.543c-1.997-2.254-3.857-4.625-5.572-7.1c-1.732-2.407-4.072-5.147-3.649-8.314
	c0.057-0.423-1.729-0.424-1.806,0.149l-0.001,0.002c-0.415,3.1,1.788,5.788,3.479,8.151
	C474.216,132.116,476.247,134.696,478.447,137.128z M519.164,85.935c3.5,5.917,7.542,11.497,12.075,16.665
	c2.171,2.508,4.427,4.942,6.745,7.317s5.02,4.569,6.832,7.357c1.787,2.753,2.432,6.743-0.231,9.19
	c-0.309,0.281,1.312,0.731,1.723,0.354c2.023-1.854,2.271-4.841,1.399-7.331c-1.067-3.045-3.642-5.3-5.868-7.512
	c-5.133-5.015-9.897-10.392-14.259-16.09c-2.412-3.193-4.634-6.526-6.654-9.98c-0.272-0.463-2-0.386-1.76,0.029L519.164,85.935z
	 M490.895,114.798c1.961-5.333,3.921-10.667,5.882-16c0.174-0.472-1.534-1.077-1.716-0.584v-0.002l-5.882,16
	C489.005,114.685,490.715,115.291,490.895,114.798z M578.698,225.992L578.698,225.992c-0.042,0.038-0.092,0.093-0.144,0.157
	C578.61,226.094,578.662,226.041,578.698,225.992z M539.308,131.201l-0.003-0.004c-1.987,3.907-3.647,7.971-4.964,12.151
	c-0.121,0.379,1.634,0.609,1.812,0.045c1.302-4.113,2.94-8.111,4.9-11.953C541.3,130.954,539.541,130.74,539.308,131.201z
	 M444.386,131.301c2.485-4.841,5.437-9.43,8.811-13.7c0.323-0.412-1.366-0.9-1.691-0.486v-0.002
	c-3.412,4.327-6.395,8.976-8.906,13.881C442.421,131.337,444.113,131.832,444.386,131.301z M247.44,198.666
	c0.892,2.157,0.312,4.426-0.41,6.542c-0.8,2.356-1.674,4.692-2.514,7.036c-1.709,4.768-3.417,9.538-5.124,14.309
	c-0.15,0.417,1.594,0.843,1.787,0.308l5.276-14.729c0.831-2.323,1.718-4.636,2.486-6.981c0.685-2.086,1.121-4.28,0.254-6.375
	C248.996,198.287,247.251,198.202,247.44,198.666z M328.365,131.916L328.365,131.916c4.82,0.235,9.456,1.921,13.301,4.836
	c1.85,1.388,3.496,3.026,4.893,4.868c1.464,1.932,3.437,4.634,2.527,7.172c-0.165,0.459,1.56,1,1.744,0.493
	c0.945-2.634-1.056-5.436-2.564-7.458c-1.617-2.156-3.559-4.048-5.755-5.608c-4.354-3.111-9.512-4.901-14.856-5.155
	C326.489,131.013,327.809,131.891,328.365,131.916z M382.247,162.912c2.136,1.66,3.794,3.838,5.9,5.525
	c2.07,1.685,4.595,2.716,7.253,2.964c1.476,0.193,2.975,0.042,4.382-0.441c1.357-0.579,1.436-2.267,1.754-3.524
	c0.965-3.791,1.93-7.582,2.894-11.372c0.132-0.522-1.601-1.063-1.716-0.589c-0.686,2.697-1.372,5.395-2.06,8.093
	c-0.333,1.313-0.666,2.625-1,3.936c-0.316,1.255-0.414,2.407-1.828,2.782c-2.694,0.66-5.544,0.099-7.788-1.533
	c-1.78-1.472-3.466-3.055-5.048-4.739c-2.924-2.719-7.1-4.152-9.548-7.362c-1.406-1.964-1.919-4.43-1.413-6.792
	c0.358-2.25,1.118-4.418,2.245-6.4c0.834-1.38,2.224-2.242,3.82-1.511c1.271,0.688,2.369,1.655,3.214,2.828
	c1.655,2.068,2.818,4.486,3.4,7.07c0.117,0.515,1.829,0.88,1.716,0.386l0.003,0.005c-1.063-4.607-4.451-10.565-9.578-11.408
	c-2.641-0.435-4.083,1.342-5.015,3.569c-1.095,2.614-2.04,5.537-1.588,8.4C373.079,158.064,378.532,160.021,382.247,162.912z
	 M392.69,129.308c2.538,2.053,5.948,2.668,9.043,1.632c0.887-0.325-0.787-0.789-1.232-0.626l-0.002-0.004
	c-6.113,2.238-10.205-5.267-10.163-10.364c0.028-3.564,3.978-3.49,6.648-3.39c2.999,0.15,5.956,0.765,8.767,1.825
	c5.699,2.068,10.863,5.436,15.752,8.973c2.273,1.534,4.385,3.297,6.3,5.262c2.008,2.214,3.343,4.954,3.851,7.9
	c0.563,3.28,0.756,6.614,0.573,9.937c0.014,1.769-0.458,3.507-1.364,5.026c-0.876,1.291-2.48,2.637-4.141,2.278
	c-0.762-0.167-1.752,0.39-0.542,0.653c2.822,0.61,5.689-0.82,6.899-3.441c1.533-3.2,1.034-7.324,0.801-10.75
	c-0.236-3.466-0.9-6.959-2.907-9.869c-1.931-2.8-4.686-4.89-7.4-6.872c-5.78-4.215-11.953-8.238-18.867-10.3
	c-3.215-0.993-6.572-1.451-9.937-1.354c-2.741,0.104-6.207,0.511-6.237,3.965C388.453,123.418,389.974,126.898,392.69,129.308z
	 M415.079,120.527l-0.005,0.001c1.738,0.651,2.842-0.288,4.235-1.288c1.621-1.164,3.192-2.4,4.69-3.724
	c0.997-0.775,1.833-1.731,2.478-2.811c0.134,0.276,0.281,0.549,0.457,0.812c1.353,2.031,3.549,2.708,5.884,2.782
	c1.567,0.049,2.973,0.029,3.883,1.511c0.565,1.027,0.896,2.166,0.971,3.335c0.198,1.371,0.131,2.767-0.2,4.112
	c-0.353,1.183-1.777,3.285-3.311,2.615c-0.72-0.314-1.778,0.056-0.646,0.551c2.071,0.953,4.523,0.045,5.477-2.026
	c0.124-0.271,0.219-0.554,0.282-0.845c0.668-2.622,0.31-5.4-1-7.768c-1.708-2.543-4.578-2.019-7.2-2.394
	c-1.733-0.25-2.809-1.939-3.285-3.493c-0.175-0.743-0.279-1.498-0.342-2.255c0.161-1.123,0.197-2.261,0.077-3.394
	c0.002-0.017,0.002-0.034,0.005-0.051l-0.009-0.002c-0.025-0.538-1.715-0.934-1.751-0.466c-0.086,1.14-0.159,2.317-0.099,3.474
	c-0.247,1.759-0.885,3.364-2.352,4.8c-1.139,1.086-2.337,2.107-3.589,3.06c-0.673,0.528-1.357,1.041-2.053,1.538
	c-0.615,0.506-1.266,0.965-1.948,1.375C415.003,119.704,413.92,120.092,415.079,120.527z M309.098,164.568v0.004
	c-0.339-0.461,0.3-1.066,0.644-1.3c0.515-0.296,1.07-0.514,1.649-0.646c1.155-0.293,2.33-0.505,3.515-0.635
	c1.708-0.23,3.435-0.486,4.994-1.182c1.027,1.406,2.086,2.788,3.164,4.152c4.62,5.853,9.4,11.584,14.117,17.359
	c-2.017,0.459-4.21,0.479-6.117,0.463c-0.784-0.005-1.614,0.751-0.379,0.76c2.301,0.02,4.756-0.054,7.061-0.596
	c0.488,0.301,1.856,0.414,1.474-0.052c-0.079-0.097-0.158-0.192-0.237-0.289c0.83-0.27,1.633-0.608,2.39-1.047
	c3.757-2.178,4.29-6.3,3.736-10.278c-0.688-4.581-2.68-8.866-5.739-12.343c-3.018-3.526-6.715-6.417-9.644-10.026
	c-3.225-3.972-5.7-9.3-4.056-14.446c0.165-0.519-1.601-0.441-1.76,0.051l0.007-0.001c-2.769,8.7,4.776,15.8,10.338,21.264
	c3.187,3.131,6.129,6.462,7.756,10.688c1.406,3.66,2.63,9.11,0.3,12.64c-0.946,1.436-2.316,2.31-3.862,2.847
	c-4.521-5.533-9.089-11.032-13.529-16.631c-1.333-1.682-2.635-3.393-3.887-5.137c0.131-0.085,0.266-0.163,0.394-0.256
	c0.3-0.218-0.427-0.519-0.541-0.555c-0.162-0.068-0.333-0.097-0.504-0.099c-2.597-3.707-4.921-7.591-6.667-11.791
	c-0.209-0.5-1.922-0.695-1.741-0.265h0.002c1.866,4.483,4.388,8.618,7.194,12.559c-2.014,1.188-4.469,1.309-6.74,1.655
	c-1.228,0.162-2.433,0.467-3.588,0.911c-0.886,0.366-2.108,1.264-1.35,2.293C307.776,165.024,309.515,165.139,309.098,164.568z"/>
</svg>
