<svg xmlns="http://www.w3.org/2000/svg" width="11.35" height="13.621" viewBox="0 0 11.35 13.621"><defs><style>.acountry{fill:#707070;stroke:#707070;stroke-width:0.2px;}</style></defs><g transform="translate(0.1 0.1)"><g transform="translate(7.792)"><path class="acountry" d="M326.939,1.144A1.086,1.086,0,0,0,325.834,0h-.049a1.089,1.089,0,0,0-1.108,1.144,1.972,1.972,0,0,0,.341,1.353,1.024,1.024,0,0,0,.773.333h.039a1.014,1.014,0,0,0,.77-.333A1.971,1.971,0,0,0,326.939,1.144Zm-.588,1.133a.682.682,0,0,1-.536.223h-.008a.682.682,0,0,1-.536-.223,1.683,1.683,0,0,1-.261-1.105V1.16a.762.762,0,0,1,.778-.833h.047a.762.762,0,0,1,.778.833v.011A1.647,1.647,0,0,1,326.351,2.277Z" transform="translate(-324.667 0)"/></g><g transform="translate(0 3.364)"><path class="acountry" d="M52.267,123.119a2.136,2.136,0,0,0-.275-.242,4.952,4.952,0,0,0-.962-.533.166.166,0,0,0-.2.055l-.591.814-.591-.814a.162.162,0,0,0-.2-.055,5.017,5.017,0,0,0-.888.478s0,0-.006.006a5.084,5.084,0,0,0-.894-.484.166.166,0,0,0-.2.055l-.6.817-.591-.814a.162.162,0,0,0-.2-.055,5.087,5.087,0,0,0-.894.484s0,0-.006-.006a4.916,4.916,0,0,0-.888-.478.166.166,0,0,0-.2.055l-.591.814-.591-.814a.162.162,0,0,0-.2-.055,4.871,4.871,0,0,0-.962.533,2.135,2.135,0,0,0-.275.242c-.052.052-.209.209-.184,1.053a5.383,5.383,0,0,0,.135,1.16,6.87,6.87,0,0,0,.536,1.221,1.676,1.676,0,0,1,.132.506l.5,4.9a.469.469,0,0,0,.467.423h.863a.469.469,0,0,0,.467-.423l.5-4.9a1.719,1.719,0,0,1,.132-.506c.017-.027.074-.137.151-.286.074.148.135.258.151.286a1.676,1.676,0,0,1,.132.506l.5,4.9a.469.469,0,0,0,.467.423h.863a.469.469,0,0,0,.467-.423l.5-4.9a1.718,1.718,0,0,1,.132-.506c.016-.03.077-.137.151-.286.074.151.135.258.151.286a1.676,1.676,0,0,1,.132.506l.5,4.9a.469.469,0,0,0,.467.423h.863a.469.469,0,0,0,.467-.423l.5-4.9a1.719,1.719,0,0,1,.132-.506,6.87,6.87,0,0,0,.536-1.221,5.893,5.893,0,0,0,.143-1.163C52.476,123.328,52.32,123.171,52.267,123.119ZM44.755,126.4l-.008.014a2.069,2.069,0,0,0-.162.61l-.5,4.9a.142.142,0,0,1-.14.126h-.863a.142.142,0,0,1-.14-.126l-.5-4.9a2.025,2.025,0,0,0-.162-.61l-.008-.014a6.826,6.826,0,0,1-.509-1.155,5.53,5.53,0,0,1-.132-1.081,1.622,1.622,0,0,1,.091-.814,1.839,1.839,0,0,1,.236-.209,4.817,4.817,0,0,1,.773-.443l.649.891a.161.161,0,0,0,.135.069.168.168,0,0,0,.135-.069l.649-.891a4.691,4.691,0,0,1,.632.344l-.074.074c-.052.052-.209.209-.184,1.053a5.506,5.506,0,0,0,.143,1.163,4.085,4.085,0,0,0,.2.55C44.884,126.168,44.755,126.4,44.755,126.4Zm3.872-1.155a6.938,6.938,0,0,1-.509,1.155l-.008.014a2.069,2.069,0,0,0-.162.61l-.5,4.9a.142.142,0,0,1-.14.126h-.863a.142.142,0,0,1-.14-.126l-.5-4.9a2.025,2.025,0,0,0-.162-.61l-.008-.014a6.717,6.717,0,0,1-.509-1.155,5.53,5.53,0,0,1-.132-1.081,1.656,1.656,0,0,1,.088-.814,1.839,1.839,0,0,1,.236-.209,4.948,4.948,0,0,1,.778-.443l.649.891a.161.161,0,0,0,.135.069.164.164,0,0,0,.135-.069l.649-.891a4.328,4.328,0,0,1,.773.443,1.84,1.84,0,0,1,.236.209,1.656,1.656,0,0,1,.088.814A5.326,5.326,0,0,1,48.627,125.247Zm3.5-1.081a5.326,5.326,0,0,1-.132,1.081,6.938,6.938,0,0,1-.509,1.155l-.008.014a2.069,2.069,0,0,0-.162.61l-.5,4.9a.142.142,0,0,1-.14.126h-.863a.142.142,0,0,1-.14-.126l-.5-4.9a2.025,2.025,0,0,0-.162-.61L49,126.4s-.129-.234-.261-.517a4.227,4.227,0,0,0,.2-.55,5.894,5.894,0,0,0,.143-1.163c.025-.844-.132-1-.184-1.053l-.074-.074a5.226,5.226,0,0,1,.635-.344l.649.891a.161.161,0,0,0,.135.069.168.168,0,0,0,.135-.069l.649-.891a4.425,4.425,0,0,1,.773.443,1.839,1.839,0,0,1,.236.209A1.656,1.656,0,0,1,52.124,124.166Z" transform="translate(-41.304 -122.331)"/></g><g transform="translate(1.066)"><path class="acountry" d="M82.334,1.144A1.084,1.084,0,0,0,81.231,0h-.049a1.088,1.088,0,0,0-1.105,1.141,1.972,1.972,0,0,0,.341,1.353,1.006,1.006,0,0,0,.77.335h.038a1,1,0,0,0,.767-.333A1.972,1.972,0,0,0,82.334,1.144Zm-.586,1.133a.686.686,0,0,1-.536.223H81.2a.682.682,0,0,1-.536-.223,1.665,1.665,0,0,1-.261-1.105V1.16a.762.762,0,0,1,.778-.833h.047a.762.762,0,0,1,.778.833v.011A1.647,1.647,0,0,1,81.748,2.277Z" transform="translate(-80.067 0)"/></g><g transform="translate(4.429)"><path class="acountry" d="M204.637,1.144A1.085,1.085,0,0,0,203.534,0h-.049a1.09,1.09,0,0,0-1.108,1.144,1.972,1.972,0,0,0,.341,1.353,1.022,1.022,0,0,0,.77.333h.038a1.014,1.014,0,0,0,.77-.333A1.972,1.972,0,0,0,204.637,1.144Zm-.588,1.133a.682.682,0,0,1-.536.223H203.5a.682.682,0,0,1-.536-.223,1.7,1.7,0,0,1-.261-1.105V1.16a.762.762,0,0,1,.778-.833h.047a.762.762,0,0,1,.778.833v.011A1.647,1.647,0,0,1,204.048,2.277Z" transform="translate(-202.367 0)"/></g></g></svg>