<svg xmlns="http://www.w3.org/2000/svg" width="11.293" height="12.162" viewBox="0 0 11.293 12.162"><defs><style>.a{fill:#707070;}</style></defs><g transform="translate(-4 -1.474)"><path class="a" d="M29.311,2a.834.834,0,0,0-.611-.258h-.869V1.086a1.046,1.046,0,0,0-.319-.767A1.046,1.046,0,0,0,26.746,0h-.434a1.046,1.046,0,0,0-.767.319,1.045,1.045,0,0,0-.319.767v.652H22.62V1.086A1.046,1.046,0,0,0,22.3.319,1.046,1.046,0,0,0,21.534,0H21.1a1.046,1.046,0,0,0-.767.319,1.046,1.046,0,0,0-.319.767v.652h-.869A.835.835,0,0,0,18.534,2a.835.835,0,0,0-.258.611v8.687a.881.881,0,0,0,.869.869H28.7a.881.881,0,0,0,.869-.869V2.606A.835.835,0,0,0,29.311,2Zm-3.217-.909a.209.209,0,0,1,.217-.217h.434a.209.209,0,0,1,.217.217V3.04a.209.209,0,0,1-.217.217h-.434a.209.209,0,0,1-.217-.217Zm-5.212,0A.209.209,0,0,1,21.1.869h.434a.209.209,0,0,1,.217.217V3.04a.209.209,0,0,1-.217.217H21.1a.209.209,0,0,1-.217-.217ZM28.7,11.293H19.145V4.344H28.7Z" transform="translate(-14.276 1.474)"/></g></svg>