<svg xmlns="http://www.w3.org/2000/svg" width="26.923" height="27.965" viewBox="0 0 26.923 27.965">
  <g id="Group_1714" data-name="Group 1714" transform="translate(-759.17 -449)">
    <text id="DOC" transform="translate(764.093 470.074)" fill="#003cff" font-size="11" font-family="Roboto-Black, Roboto" font-weight="800"><tspan x="0" y="0">DOC</tspan></text>
    <path id="Path_1229" data-name="Path 1229" d="M1.748,25.343V2.622a.874.874,0,0,1,.874-.874H15.73v3.5a1.748,1.748,0,0,0,1.748,1.748h3.5V9.613h1.748v-3.5a.874.874,0,0,0-.253-.62L17.225.253A.874.874,0,0,0,16.6,0H2.622A2.622,2.622,0,0,0,0,2.622V25.343a2.622,2.622,0,0,0,2.622,2.622H8.739V26.217H2.622A.874.874,0,0,1,1.748,25.343Z" transform="translate(759.17 449)" fill="#003cff"/>
  </g>
</svg>
