<svg xmlns="http://www.w3.org/2000/svg" viewBox="0 0 366.07 245.15"><defs><style>.cls-1{fill:#e9e9e9;}</style></defs><title>select euope</title><g id="Layer_2" data-name="Layer 2"><g id="Layer_3" data-name="Layer 3"><path class="cls-1" d="M197.45,122.37c-3,2.93-3.28,8.65-1,11.4,2.74,3.31,2.29,6.13-1.79,7.59-3.24,1.17-6.86,1.25-10.22,2.18-12.26,3.37-25.71-2-37.45,5.07a1,1,0,0,1-.34.09c-2.84.48-6.87-1.26-7.84-3.54-1.24-2.87.46-4.93,2.27-6.81a16.18,16.18,0,0,1,3.06-1.85c-7.76-2.69-5.82-8-5.24-13-3.47.89-5.36,3.07-5.49,5.78a39.47,39.47,0,0,0,1,11.63c1.36,5.29,1.23,6.41-3.69,8.85-1.25.62-2.65,1-3.85,1.67-2.29,1.33-5.18,2.34-6.6,4.35a44.59,44.59,0,0,1-16.52,14.28c-3,1.53-5.32,3.6-5.85,7.33-.4,2.78-2.56,3.19-4.81,2a56.23,56.23,0,0,1-5.39-3.61c.85,4.6-1.73,5.22-5,5.2a47.31,47.31,0,0,0-5.42.52c-.12.42-.23.85-.35,1.28,1.72.78,3.36,1.88,5.16,2.29,5.17,1.18,8,3.62,8.42,8.88a58.09,58.09,0,0,1-.38,12.57c-.62,4.48-3.32,6-7.83,5.27-1-.17-2.06-.46-3.1-.62l-23-3.62c-2.09,12.81-4,24.72-6,36.63l1.16.9c2.92-1.23,5.86-2.44,8.77-3.72,5.32-2.33,10.67-3.3,15.44.92,2.78,2.46,5.27,2.15,7.87.28,5.09-3.66,9.69-7.72,11.46-14.13a41.35,41.35,0,0,1,2.49-6.16c2.4-5.2,6.94-7.63,12.12-9.29,2.54-.82,5.41-1.62,5.93-4.78.45-2.76,2-3.4,4.44-3.27,1.52.09,3.05.06,4.55.27a6.93,6.93,0,0,0,7.8-4c1.82-3.41,4.66-5.68,8.65-5.6,2.22,0,4.43.9,6.65,1.38.85-5.86,5.76-8.73,11.11-5.84,3.11,1.68,5.63,4.46,8.47,6.67,2.2,1.7,4.28,3.86,6.79,4.78,5.8,2.14,10.12,5.61,12.82,11.18a17.76,17.76,0,0,0,2.71,4.06c1.39,1.58,1.44,2.85.26,4.66-3.21,4.92-2.42,9.38,2.1,13.33a33.86,33.86,0,0,0,16.62,7.78,4.5,4.5,0,0,0,3.48-1.08c1.39-1.45.5-2.81-.79-4.18a50.77,50.77,0,0,1-6.93-8.26c-2.45-4-1-7.65,3.42-9.27a83.51,83.51,0,0,1,8.46-2.24c2.59-.66,5.54-.7,7.73-2,6.74-4,12.18-8.88,11.59-18-.34-5.18,2.41-7.57,7.55-8.41a12.11,12.11,0,0,1,10.71,3.08c1.79,1.67,3.29,3.65,5,5.36,1.52,1.48,3.19,2.53,5,.24,3.37-4.24,7.64-3.91,12.06-2.18,2.61,1,5.05,2.5,7.7,3.36a56,56,0,0,0,11.14,2.81c4.56.49,9.26-.24,13.82.25,5.29.56,10.49,1.87,16.37,3-3.25-6-.12-10.54,2.31-14.93-2.25-1.94-4.29-3.52-6.13-5.31-5.15-5-6.4-12-3.34-18,4.45-8.75,10.4-12.24,18.4-10.72,3.56.68,7.09,1.5,10.65,2.16,9.34,1.73,11.67-.32,11.53-9.77-.12-8,.19-16.09-.21-24.11a45.7,45.7,0,0,0-2.48-12.22c-1.61-4.73-4.19-9.12-6-13.79C346.24,91,348,84.32,354.7,78.31c2.88-2.57,5.84-5,8.71-7.63,2.36-2.12,3.26-4.69,2.25-7.46l-28.87-3.1c.55,4.62-2.06,8-7.52,7.63-5.2-.32-10.31-1.93-15.51-2.48a13.45,13.45,0,0,0-7.3,1.16c-3.14,1.63-5.79,4.19-8.69,6.31a94.5,94.5,0,0,1-8.31,5.81c-2.4,1.39-5.26,3.47-7.39-.64-.14-.28-.81-.4-1.23-.39a33.06,33.06,0,0,0-15.71,4.09L266,83.8c.3.76.66,1.5.91,2.28.91,2.85-.69,4.82-3.54,4-1.66-.5-3.13-1.86-4.51-3a21.36,21.36,0,0,1-2.5-3.06l-1,.3c.23,2.11.37,4.23.71,6.32.55,3.26-.81,5.08-3.94,4.21-2.3-.65-5-2-6.22-3.92A106.63,106.63,0,0,1,238.58,77c-1-2.22.32-3.67,2.67-3.68,2.92,0,5.84.37,8.76.34A105,105,0,0,0,262.18,73a4.43,4.43,0,0,0,3.13-2.78c.16-1-1.18-2.93-2.31-3.43-4.13-1.81-8.32-3.84-12.7-4.6-7.24-1.25-14.67-1.36-22-2.36-8.2-1.13-16.31-3.69-24.51-3.91-13.72-.37-26.58,4.63-40.3,8.39,2.93,1,5,2.07,3.63,4.93-.69,1.43-1.62,3.1-2.91,3.83-4.29,2.41-6.8,6.29-9.24,10.26-5.49,8.94-13.19,14.43-23.86,14.94-6.13.29-8.88,3.78-10.21,9.22-1,4.2,0,6.45,4.14,7.24a23.32,23.32,0,0,0,8.29,0c4-.72,7.85-2.3,11.84-3.12,5.88-1.2,10.34,2.19,10.53,8.15a51.12,51.12,0,0,1-1.09,10.06c-.47,2.72.64,4,3.13,4.42a8.58,8.58,0,0,0,9-3.47c5.63-7.68,10.17-15.75,7.42-25.89a13,13,0,0,1-.65-5.19c.45-2.68.69-6.55,2.44-7.63A41.3,41.3,0,0,0,189.91,78c1.86-3,8.31-3.37,11-1.46,2.35,1.67,2.75,4.61.64,8.94-1.78,3.66-4.07,7.06-6,10.64a6.6,6.6,0,0,0-1.09,3.51c.91,7.63,4.6,9.31,10.88,5.08.39-.26.75-.57,1.14-.81a14.32,14.32,0,0,1,14.07-.86c3.84,1.72,5.63,4.43,5.13,7.49-.55,3.37-3.91,6.11-7.87,6.29a20.69,20.69,0,0,1-3.83-.36c-3.81-.57-7.61-1.3-11.43-1.71-1.14-.12-2.36.58-3.54.91l.14,1c1.22.3,2.43.7,3.67.88,5.73.82,6.23,1.23,6.87,6.86.27,2.41.79,5.25-2.49,6.09-2.88.74-5.59.43-7-2.87C199.41,125.87,198.45,124.28,197.45,122.37Z"/><path class="cls-1" d="M156.64,211.54l16.62,11c2.3-4.34,5.62-.77,8.71-.25,1.8-2.76,1.22-4.88-2.08-6.06a55.76,55.76,0,0,0-7.82-1.79C167,213.47,161.85,212.52,156.64,211.54Z"/><path class="cls-1" d="M172.13,208.71c-2.74-2.07-5.64-4.13-8.37-6.38-2-1.7-3.76-3.84-5.89-5.42-1.16-.85-2.89-.93-4.88-1.51C155.71,204.67,160.85,208,172.13,208.71Z"/><path class="cls-1" d="M148.92,131.32c.43-2.72.92-5.45,1.29-8.21.82-6.13-1-7.53-6-5.43,0,3,.32,5.74-.07,8.38C143.42,130.87,143.71,131.37,148.92,131.32Z"/><path class="cls-1" d="M309.65,41.11l-4,1.9c-2,1-4.3,1.93-3.46,4.82s3.06,3.79,5.74,3.7Z"/><path class="cls-1" d="M335,27.62c-12.68,1.06-16.56,2.48-17.07,5.57Z"/><path class="cls-1" d="M144.83,142.75l.42.89,8.92-4.66C151.47,137.43,148.22,138.78,144.83,142.75Z"/><path class="cls-1" d="M288.69,71.93l.43.49L294,68.54l-2.7-1.39Z"/><path class="cls-1" d="M101.52,157.3l.34-1.55c-2.07-1.35-4-3-6.23-4C90.4,149.52,88,146,87.29,140.1S84.08,128.76,82,123.23c-.36-1-2.45-1.64-3.78-1.69-.59,0-1.56,1.75-1.84,2.85-1,3.86.2,6.77,3.47,9.45,7.24,5.91,7.52,13.92,1.18,20.71-1.59,1.71-3.39,3.24-4.87,5a24.34,24.34,0,0,0-2.23,3.93l.74.77Z"/><path class="cls-1" d="M50.24,159.11a21,21,0,0,0,3.31-.72c3.89-1.8,7.84-3.53,11.59-5.59a6,6,0,0,0,3-3.57,55.35,55.35,0,0,0,.46-10.38c0-.65-1.61-1.8-2.46-1.78-3.32.06-5,2.54-5,6.69.08,3.79-.92,4.55-4.6,3.72a29.74,29.74,0,0,0-4-.38c.12,1,.4,1.21.68,1.41,3.8,2.62,3.8,3.44.35,6.41C52.49,155.83,51.76,157.15,50.24,159.11Z"/><path class="cls-1" d="M190,16.9c.71,2.14,1.89,4.43,2.13,6.81.27,2.65-1.76,4-4.14,2.85-2.11-1-3.74-3-5.69-4.41-1.21-.88-2.73-2.19-3.91-2s-2.47,1.8-3.18,3.08c-.95,1.71-1.29,3.74-2.06,5.56-2.32,5.49-8.67,7.88-13.7,4.74-7.82-4.9-11.2-12.55-11.94-21.47A3.31,3.31,0,0,1,151,8.14c14-.42,27.82-3.88,41.88-1.73,1.64.25,4.43,1.2,4.49,2a7.91,7.91,0,0,1-1.83,5.6C194.08,15.54,191.63,16.12,190,16.9Zm-12.18-4.69-.57-.78c-1,.08-2.51-.23-3,.31-2.11,2.58-4.9,1.73-7.47,1.78-4.59.09-9.18,0-15,0,2.25,4.64,3.82,8.48,5.92,12,1.45,2.43,3.78,4.16,7,3.73s3.29-3.41,4.48-5.6a73.8,73.8,0,0,1,5.49-8.17A33.64,33.64,0,0,1,177.83,12.21Z"/><path class="cls-1" d="M18.18,90.61C13.93,90,9.76,89.54,5.66,88.7,2.52,88.06.71,85.85.14,82.63c-.64-3.56.91-6,4.5-6.5a16,16,0,0,1,4.89,0,80.16,80.16,0,0,0,26.81-.06c1.69-.28,3.64.49,5.34,1.12a3,3,0,0,1,1.39,2.22c.28,3.51-2.85,8.19-6.5,8.84C30.5,89.33,24.33,89.84,18.18,90.61ZM5.9,82.1c2,3.36,23.28,3.87,30,0Z"/><path class="cls-1" d="M299,.11c4.53.62,10.46,1.3,16.32,2.35,1.19.21,2.44,1.62,3,2.79.23.46-1.12,2.36-2,2.63-6.35,1.9-12.71,3.78-19.17,5.18-5.23,1.14-9.9-.61-13.78-4.32-1.93-1.85-1.82-3.56.34-5.23C287.84.31,292.59-.29,299,.11Z"/><path class="cls-1" d="M138.63,220.81c4.55,2.54,6.36,6.35,6.25,11.15-.09,3.9-2.06,5.52-5.9,4.81a8.22,8.22,0,0,1-6.47-5.29,15.27,15.27,0,0,1,1-13.14c1-1.93,2.4-4.29,5.1-3C141.51,216.76,139.84,219,138.63,220.81Z"/><path class="cls-1" d="M268.7,1.73A60.19,60.19,0,0,1,276,4.58c2.19,1.19,2.35,3.21.38,4.83a17.24,17.24,0,0,1-12.67,4,4.62,4.62,0,0,1-4.59-4.83c-.05-3,1.26-5.16,4.49-5.67,1.61-.25,3.22-.47,4.84-.7Z"/></g></g></svg>