<svg id="facebook" xmlns="http://www.w3.org/2000/svg" width="14.408" height="14.408" viewBox="0 0 14.408 14.408">
  <path id="Path_1488" data-name="Path 1488" d="M291.036,508.668l-.181.027Zm0,0" transform="translate(-282.67 -494.353)" />
  <path id="Path_1489" data-name="Path 1489" d="M299.425,507.793l-.086.015Zm0,0" transform="translate(-290.916 -493.503)" />
  <path id="Path_1490" data-name="Path 1490" d="M277.822,510.34q-.105.012-.212.021Q277.716,510.352,277.822,510.34Zm0,0" transform="translate(-269.797 -495.978)"/>
  <path id="Path_1491" data-name="Path 1491" d="M286.547,509.738l-.1.013Zm0,0" transform="translate(-278.385 -495.393)" />
  <path id="Path_1492" data-name="Path 1492" d="M306.74,506.41l-.076.016Zm0,0" transform="translate(-298.034 -492.159)" />
  <path id="Path_1493" data-name="Path 1493" d="M324.546,502.113l-.061.017Zm0,0" transform="translate(-315.353 -487.983)"/>
  <path id="Path_1494" data-name="Path 1494" d="M319.126,503.543l-.067.017Zm0,0" transform="translate(-310.08 -489.373)"/>
  <path id="Path_1495" data-name="Path 1495" d="M312.138,505.254l-.071.016Zm0,0" transform="translate(-303.285 -491.035)"/>
  <path id="Path_1496" data-name="Path 1496" d="M273.594,511.09l-.114.009Zm0,0" transform="translate(-265.784 -496.707)"/>
  <path id="Path_1497" data-name="Path 1497" d="M14.408,7.2a7.2,7.2,0,1,0-7.2,7.2l.127,0V8.8H5.783v-1.8H7.331V5.667A2.167,2.167,0,0,1,9.644,3.29a12.741,12.741,0,0,1,1.388.071V4.97h-.947c-.747,0-.892.355-.892.876V6.995h1.786l-.233,1.8H9.193V14.13A7.208,7.208,0,0,0,14.408,7.2Zm0,0"/>
  <path id="Path_1498" data-name="Path 1498" d="M265.116,511.43q-.112.007-.226.011Q265,511.437,265.116,511.43Zm0,0" transform="translate(-257.436 -497.038)"/>
  <path id="Path_1499" data-name="Path 1499" d="M260.624,511.836l-.12,0Zm0,0" transform="translate(-253.173 -497.432)"/>
</svg>
