<?xml version="1.0" encoding="utf-8"?>
<!-- Generator: Adobe Illustrator 16.0.4, SVG Export Plug-In . SVG Version: 6.00 Build 0)  -->
<!DOCTYPE svg PUBLIC "-//W3C//DTD SVG 1.1//EN" "http://www.w3.org/Graphics/SVG/1.1/DTD/svg11.dtd">
<svg version="1.1" id="map-svg" xmlns="http://www.w3.org/2000/svg" xmlns:xlink="http://www.w3.org/1999/xlink" x="0px" y="0px"
	 width="1595.342px" height="813.037px" viewBox="0 0 1595.342 813.037" enable-background="new 0 0 1595.342 813.037"
	 xml:space="preserve">
<path id="17" fill="#231F20" d="M340.982,28.749c-0.646,1.81-0.61,3.795,0.104,5.581c1.036,2.159,3.295,3.473,5.38,4.448c3.111,1.456,6.457,2.3,9.687,3.444
	c0.02,0.006,0.036,0.008,0.056,0.013c0.141,0.046,0.289,0.071,0.438,0.048c2.383-0.169,4.702-0.839,6.811-1.966
	c1.803-1.089,3.158-2.782,3.834-4.778c0.707-1.589,0.328-3.45-0.938-4.639c-1.78-1.548-4.491-1.872-6.744-2.009
	c-2.8-0.168-5.62,0.076-8.392-0.433c-1.385-0.238-2.715-0.72-3.933-1.424c-0.825-0.493-1.56-1.467-2.604-1.336
	c-0.796,0.146-1.551,0.461-2.214,0.924C341.683,27.087,341.146,27.861,340.982,28.749z M344.304,26.452
	c0.071-0.031,0.598-0.183,0.853-0.266c0.104,0.088,0.206,0.172,0.316,0.249c0.312,0.236,0.632,0.456,0.964,0.659
	c0.988,0.602,2.052,1.069,3.163,1.39c2.307,0.583,4.682,0.847,7.062,0.786c3.279,0.038,10.842-0.215,9.918,5.03
	c-0.421,2.133-1.645,4.024-3.413,5.285c-2.088,1.298-4.459,2.062-6.909,2.24c-2.555-0.89-5.167-1.608-7.687-2.606
	c-2.192-0.711-4.182-1.955-5.777-3.621c-1.064-1.353-1.511-3.091-1.229-4.789c0.077-1.011,0.333-2.001,0.756-2.923
	C342.825,27.223,343.516,26.724,344.304,26.452z M464.634,76.67c-2.773-0.473-5.57-0.792-8.378-0.957
	c-2.369-0.145-4.751-0.094-7.117-0.277c-1.008-0.08-2.323-0.171-3.011-1.027c-0.688-0.856-0.533-2.205-0.421-3.216
	c0.105-0.967,0.27-1.937,0.453-2.893c0.19-0.98,0.956-1.923,0.642-2.958c-0.379-0.823-1.009-1.506-1.8-1.948
	c-1.115-0.815-2.218-1.652-3.304-2.5c-2.146-1.671-4.27-3.38-6.441-5.02c-1.989-1.664-4.207-3.032-6.586-4.064
	c-1.14-0.424-2.324-0.696-3.531-0.808c-0.896-0.056-1.784-0.167-2.664-0.333c-0.779-0.131-1.49-0.524-2.016-1.113
	c-0.579-0.858-0.849-1.889-0.762-2.92c0-0.138-0.317-0.135-0.393-0.132c-5.319,0.102-10.604,0.884-15.726,2.328
	c-2.436,0.741-4.781,1.737-7.008,2.973c-2.516,1.49-4.953,3.105-7.311,4.839c-1.305,0.913-2.617,1.816-3.966,2.663
	c-0.342,0.252-0.718,0.454-1.116,0.6c-0.365,0.08-0.74,0.109-1.113,0.087c-0.571-0.005-1.146-0.03-1.722-0.021
	c-0.161-1.194-0.173-2.403-0.03-3.599c0.397-1.071,1.068-2.021,1.946-2.752c1.63-1.691,3.131-3.527,4.686-5.29
	c0.188-0.217-0.225-0.242-0.345-0.243c-3.897-0.01-8.223,1.066-10.39,4.6c-0.915,1.584-1.395,3.383-1.383,5.212
	c-0.012,0.467-0.13,1.117,0.225,1.448c0.601,0.523,1.229,1.012,1.88,1.462c1.064,0.701,2.049,1.516,2.938,2.431
	c2.132,2.446,0.386,5.919-0.04,8.682c-0.04,0.262,0.771,0.063,0.864,0c1.145-0.728,2.241-1.5,3.447-2.127
	c1.289-0.668,2.563-1.363,3.839-2.055c2.484-1.411,5.057-2.667,7.694-3.759c2.171-1.012,4.621-1.258,6.95-0.7
	c2.06,0.653,3.86,1.933,5.159,3.662c1.878,2.387,2.812,5.331,4.008,8.084c0.003,0.008,0.013,0.012,0.018,0.019
	c0.002,0.014-0.005,0.026,0.003,0.042c0.095,0.167,0.516,0.067,0.63,0.04l0.004-0.001c1.066-0.251,2.051-0.838,3.146-0.44
	c0.883,0.282,1.699,0.74,2.397,1.346c1.207,1.142,1.163,3.294,0.736,4.774c-0.481,1.696-1.571,3.156-3.059,4.105
	c-1.802,1.121-4.03,1.391-5.979,2.2c-0.728,0.3-1.447,0.628-2.148,0.986c-0.521,0.188-0.989,0.492-1.374,0.888
	c-0.141,0.205-0.062,0.346-0.014,0.589c0.074,0.367,0.132,0.738,0.19,1.108c0.093,0.748,0.292,1.478,0.591,2.169
	c0.312,0.65,0.793,1.203,1.396,1.6c0.903,0.521,1.779,1.096,2.62,1.721c1.559,1.376,3.025,2.85,4.397,4.412
	c1.517,1.853,3.201,3.561,5.034,5.1c1.672,1.265,3.919,1.159,5.878,1.6c0.142,0.031,0.977-0.035,0.794-0.326
	c-1.399-2.111-2.98-4.098-4.724-5.937c-0.811-0.835-1.533-1.746-2.169-2.719c-0.687-1.141-1.186-2.382-1.796-3.562
	c1.127-0.428,2.233-0.904,3.375-1.302c0.619-0.242,1.265-0.419,1.921-0.531c0.732-0.036,1.472,0.044,2.183,0.236
	c1.221,0.233,2.463,0.349,3.694,0.519c1.35,0.187,2.697,0.368,4.063,0.433c1.562,0.073,3.73,0.039,4.479-1.652
	c0.812-1.843-0.867-3.58-1.9-4.91c-1.393-1.539-2.188-3.525-2.244-5.6c0.021-1.631,1.021-3.09,2.531-3.7
	c2.153-0.81,4.794,0.167,6.823,0.921c2.273,0.846,4.411,1.941,6.846,2.266c5.041,0.674,9.675-1.568,13.602-4.526
	C464.88,76.797,464.736,76.688,464.634,76.67z M450.99,80.878c-4.391-0.834-8.59-4.285-13.263-3.172
	c-1.441,0.293-2.669,1.23-3.331,2.544c-0.618,1.547-0.566,3.281,0.14,4.789c0.449,0.993,1.028,1.921,1.727,2.76
	c0.787,0.835,1.425,1.799,1.887,2.85c0.289,0.751,0.188,1.596-0.268,2.259c-0.709,0.917-1.9,0.821-2.943,0.767
	c-2.9-0.152-5.751-0.725-8.615-1.126c-2.7-0.378-5.312,1.135-7.768,2.043c-0.046,0.016-0.265,0.12-0.217,0.21
	c0.589,1.12,1.068,2.294,1.688,3.4c0.643,1.06,1.396,2.046,2.249,2.941c1.641,1.728,3.134,3.587,4.484,5.55
	c-1.613-0.237-3.294-0.364-4.603-1.394c-1.653-1.417-3.188-2.973-4.577-4.652c-1.419-1.623-2.933-3.158-4.531-4.6
	c-0.732-0.641-1.538-1.192-2.4-1.643c-0.833-0.418-1.487-1.124-1.843-1.986c-0.255-0.709-0.429-1.445-0.521-2.193
	c-0.085-0.337-0.146-0.68-0.188-1.025c-0.005-0.279,0.12-0.326,0.374-0.487c1.591-0.934,3.3-1.649,5.081-2.128
	c1.896-0.404,3.662-1.267,5.146-2.513c1.2-1.166,1.979-2.697,2.215-4.354c0.138-0.944,0.048-1.907-0.262-2.81
	c-0.322-0.796-0.922-1.447-1.688-1.835c-0.799-0.527-1.704-0.867-2.651-0.994c-0.898,0.067-1.784,0.247-2.64,0.524
	c-1.071-2.518-1.963-5.169-3.567-7.412c-2.575-3.944-7.479-5.661-11.955-4.183c-2.848,0.929-5.593,2.148-8.188,3.638
	c-1.554,0.826-3.089,1.682-4.646,2.5c-1.167,0.619-2.272,1.296-3.383,1.991c0.229-1.162,0.558-2.302,0.771-3.468
	c0.293-1.137,0.259-2.333-0.103-3.452c-0.445-0.936-1.124-1.745-1.966-2.353c-1.018-0.829-2.114-1.553-3.137-2.372
	c-0.313-0.251-0.604-0.422-0.669-0.835c-0.021-0.208-0.027-0.417-0.02-0.626c-0.001-0.501,0.024-1.002,0.078-1.5
	c0.1-0.901,0.314-1.785,0.647-2.628c0.625-1.58,1.733-2.92,3.173-3.827c1.876-1.059,3.994-1.602,6.143-1.592
	c-1.568,1.794-3.107,3.632-4.764,5.35c-0.819,0.712-1.431,1.633-1.771,2.665c-0.138,1.246-0.117,2.504,0.055,3.746
	c0,0.137,0.313,0.135,0.392,0.131c1.19,0.062,2.384,0.024,3.568-0.113c1.188-0.409,2.297-1.026,3.27-1.824
	c2.425-1.618,4.764-3.364,7.2-4.954c4.583-2.953,9.736-4.903,15.127-5.724c2.909-0.444,5.841-0.72,8.781-0.836
	c0.019,1.56,0.467,3.06,1.985,3.755c1.475,0.671,3.162,0.576,4.729,0.806c2.627,0.524,5.089,1.677,7.173,3.36
	c2.239,1.618,4.399,3.338,6.572,5.044c1.116,0.879,2.232,1.754,3.37,2.61c1.021,0.646,1.971,1.396,2.834,2.241
	c0.781,0.917,0.438,1.744,0.042,2.743c-0.324,1.023-0.53,2.081-0.613,3.151c-0.302,1.188-0.258,2.438,0.127,3.6
	c0.509,0.82,1.378,1.348,2.34,1.421c2.269,0.281,4.551,0.404,6.834,0.366c3.19,0.123,6.368,0.448,9.521,0.963
	C459.966,79.702,455.656,81.765,450.99,80.878z M205.153,183.772c0.586,0.653,1.431,1.019,2.308,1h0.113
	c0.877,0.019,1.717-0.347,2.301-1c1.254-1.4,1.049-3.804,1.021-4.043c0.102-1.79-1.271-3.321-3.062-3.421
	c-0.078-0.004-0.158-0.006-0.238-0.004h-0.153c-1.799-0.031-3.28,1.402-3.312,3.201c-0.002,0.071,0,0.144,0.002,0.216
	C204.107,179.961,203.901,182.364,205.153,183.772z M205.124,179.812v-0.033c-0.117-1.255,0.806-2.367,2.06-2.483
	c0.09-0.01,0.181-0.013,0.271-0.011h0.141c1.26-0.031,2.308,0.964,2.339,2.225c0.002,0.091,0,0.182-0.009,0.271v0.033
	c0.14,1.161-0.139,2.334-0.783,3.309c-0.41,0.449-0.998,0.693-1.604,0.667h-0.025c-0.606,0.028-1.195-0.217-1.604-0.667
	C205.266,182.144,204.99,180.973,205.124,179.812z M232.922,188.012c-0.896-0.64-1.863-1.176-2.883-1.602
	c-0.209-0.083-0.449-0.016-0.584,0.165l-1.771,2.438l-1.771-2.438c-0.135-0.185-0.375-0.254-0.584-0.165
	c-0.936,0.388-1.824,0.867-2.66,1.434c-0.008,0-0.008,0.008-0.018,0.016c-0.842-0.571-1.736-1.057-2.676-1.449
	c-0.211-0.083-0.449-0.016-0.586,0.165l-1.795,2.445l-1.77-2.438c-0.135-0.185-0.375-0.253-0.587-0.163
	c-0.938,0.392-1.836,0.877-2.677,1.447c-0.008,0-0.008-0.008-0.016-0.016c-0.834-0.567-1.729-1.048-2.659-1.434
	c-0.21-0.084-0.45-0.017-0.585,0.164l-1.77,2.438l-1.771-2.438c-0.132-0.185-0.375-0.253-0.585-0.164
	c-1.018,0.423-1.985,0.959-2.883,1.601c-0.293,0.217-0.569,0.459-0.822,0.724c-0.156,0.156-0.626,0.626-0.553,3.153
	c0.008,1.169,0.142,2.334,0.398,3.474c0.415,1.269,0.953,2.492,1.605,3.655c0.211,0.481,0.347,0.992,0.399,1.515l1.5,14.681
	c0.066,0.721,0.675,1.271,1.398,1.268h2.584c0.727,0.003,1.332-0.547,1.399-1.268l1.5-14.674c0.056-0.522,0.188-1.034,0.398-1.517
	c0.049-0.082,0.225-0.412,0.453-0.854c0.224,0.443,0.4,0.772,0.453,0.854c0.212,0.481,0.347,0.992,0.4,1.517l1.5,14.679
	c0.065,0.721,0.676,1.271,1.397,1.268h2.585c0.727,0.004,1.332-0.547,1.4-1.268l1.5-14.679c0.057-0.522,0.188-1.034,0.396-1.517
	c0.05-0.091,0.232-0.412,0.453-0.854c0.224,0.452,0.4,0.772,0.453,0.854c0.213,0.481,0.349,0.992,0.4,1.517l1.5,14.679
	c0.066,0.721,0.676,1.271,1.398,1.268h2.584c0.727,0.004,1.332-0.547,1.4-1.268l1.5-14.679c0.055-0.522,0.188-1.034,0.396-1.517
	c0.652-1.163,1.189-2.388,1.605-3.655c0.258-1.144,0.399-2.31,0.428-3.48c0.054-2.531-0.417-3.001-0.573-3.157
	C233.492,188.471,233.216,188.229,232.922,188.012z M211.251,198.565c-0.008,0.016-0.019,0.025-0.025,0.041
	c-0.255,0.581-0.418,1.197-0.484,1.828l-1.5,14.679c-0.023,0.215-0.203,0.377-0.422,0.379h-2.583
	c-0.215-0.002-0.396-0.164-0.42-0.379l-1.503-14.679c-0.062-0.631-0.229-1.248-0.484-1.828c-0.01-0.016-0.018-0.025-0.025-0.041
	c-0.612-1.104-1.122-2.261-1.521-3.458c-0.239-1.062-0.374-2.146-0.399-3.236c-0.119-0.821-0.025-1.66,0.271-2.437
	c0.221-0.229,0.455-0.438,0.708-0.626c0.729-0.513,1.505-0.956,2.313-1.325l1.943,2.667c0.092,0.131,0.239,0.208,0.398,0.206
	c0.158-0.001,0.309-0.078,0.4-0.206l1.94-2.667c0.657,0.294,1.29,0.638,1.896,1.029l-0.224,0.222
	c-0.153,0.156-0.626,0.626-0.552,3.153c0.021,1.173,0.162,2.34,0.43,3.48c0.162,0.563,0.365,1.113,0.607,1.647
	C211.638,197.865,211.251,198.558,211.251,198.565z M222.843,195.107c-0.402,1.196-0.912,2.354-1.523,3.458
	c-0.008,0.016-0.016,0.025-0.023,0.041c-0.254,0.581-0.418,1.197-0.484,1.828l-1.5,14.679c-0.021,0.215-0.203,0.377-0.42,0.379
	h-2.583c-0.216-0.002-0.396-0.164-0.421-0.379l-1.5-14.679c-0.062-0.631-0.229-1.248-0.485-1.828
	c-0.008-0.016-0.017-0.025-0.022-0.041c-0.615-1.103-1.125-2.26-1.523-3.458c-0.238-1.062-0.374-2.146-0.398-3.236
	c-0.117-0.82-0.027-1.658,0.264-2.437c0.218-0.229,0.455-0.438,0.707-0.626c0.736-0.512,1.516-0.955,2.33-1.325l1.943,2.667
	c0.092,0.131,0.239,0.208,0.398,0.206c0.158,0,0.31-0.077,0.4-0.206l1.941-2.667c0.812,0.361,1.592,0.805,2.312,1.325
	c0.254,0.188,0.49,0.396,0.707,0.626c0.291,0.777,0.381,1.615,0.266,2.437C223.208,192.961,223.079,194.045,222.843,195.107z
	 M233.314,191.872c-0.021,1.091-0.154,2.175-0.398,3.236c-0.4,1.196-0.91,2.354-1.521,3.458c-0.01,0.016-0.018,0.025-0.023,0.041
	c-0.256,0.581-0.418,1.197-0.484,1.828l-1.5,14.679c-0.025,0.215-0.205,0.377-0.42,0.379h-2.578
	c-0.215-0.002-0.395-0.164-0.42-0.379l-1.5-14.679c-0.064-0.631-0.229-1.248-0.484-1.828c-0.01-0.016-0.018-0.025-0.023-0.041
	c-0.01-0.016-0.389-0.7-0.783-1.548c0.242-0.534,0.445-1.085,0.609-1.647c0.258-1.144,0.4-2.31,0.428-3.48
	c0.074-2.527-0.398-3-0.551-3.153l-0.225-0.222c0.609-0.387,1.244-0.73,1.9-1.029l1.939,2.667c0.094,0.131,0.242,0.208,0.398,0.206
	c0.16-0.001,0.309-0.078,0.4-0.206l1.941-2.667c0.814,0.363,1.59,0.808,2.314,1.325c0.252,0.188,0.488,0.396,0.707,0.626
	C233.335,190.213,233.427,191.051,233.314,191.872z M669.825,10.505c-2.248-1.251-4.847-1.724-7.392-1.347
	c-2.791,0.446-5.125,2.231-7.957,2.489c-2.701,0.109-5.342-0.82-7.38-2.597c-0.949-0.843-1.965-1.608-3.035-2.291
	c-1.08-0.592-2.22-1.067-3.4-1.417c-5.64-1.722-11.833-1.666-17.669-2.058C616.631,2.858,610.269,2.5,603.9,2.361
	c-6.369-0.139-12.735-0.053-19.086,0.379c-6.486,0.44-12.91,1.369-19.342,2.3c-6.339,0.91-12.672,1.622-19.042,2.22
	c-5.622,0.439-11.158,1.637-16.458,3.562c-3.036,1.156-5.916,2.68-8.938,3.88c-3.159,1.274-6.421,2.292-9.747,3.042
	c-3.296,0.739-6.658,1.126-10.035,1.156c-1.652,0.009-3.304-0.209-4.943-0.2c-1.733,0.119-3.458,0.348-5.162,0.686
	c-0.137,0.017-0.5,0.106-0.3,0.294c1.105,1.016,2.66,1.385,3.94,2.157c0.592,0.353,1.483,0.805,1.612,1.551
	c0.021,0.741-0.199,1.469-0.625,2.076c-1.042,1.485-2.559,2.571-4.3,3.081c-1.977,0.721-4.251,0.508-6.325,0.507
	c-4.079,0-8.156-0.16-12.23-0.124c-3.962,0.034-7.865,0.558-11.802,0.934c-0.257-0.011-0.529,0.049-0.554,0.204l0.003,0.009
	l-0.246,1.8c-0.009,0.066,0.104,0.127,0.146,0.141c1.918,0.642,3.604,1.563,5.677,1.51c2.447-0.061,4.9-0.2,7.341-0.336
	c4.784-0.272,9.604-0.544,14.357-1.094c2.414-0.279,4.812-0.648,7.226-0.924c1.982-0.228,4.757-0.842,6.384,0.715
	c0.653,0.777,1.215,1.629,1.664,2.539c0.629,1.025,1.242,2.058,1.814,3.115c1.186,2.028,2.07,4.218,2.628,6.5
	c0.378,2.517,0.408,5.074,0.091,7.6c0.016,0.649-0.045,1.297-0.172,1.934c-0.248,0.569-0.643,1.062-1.143,1.431
	c-0.95,0.872-1.942,1.655-2.957,2.449c-0.037,0.027-0.104,0.1-0.054,0.154c1.735,1.668,3.866,3.7,4.261,6.217
	c0.178,1.159,0.006,2.325,0.259,3.481c0.282,1.083,0.411,2.2,0.385,3.319c-0.286,4.959-4.872,7.451-8.6,9.812
	c-1.352,0.677-2.502,1.688-3.353,2.936c-0.468,1.18-0.487,2.49-0.058,3.684c0.6,2.41,1.334,4.736,1.729,7.2
	c0.463,2.719,0.748,5.465,0.854,8.221c0.114,3.909,0.1,8.431,3.6,10.975c2.892,2.1,6.854,1.794,10.153,1.078
	c3.766-0.751,7.146-2.805,9.549-5.8c3.044-3.895,4.521-8.8,7.01-13.028c1.932-3.273,4.72-6.146,8.5-7.1
	c2.161-0.394,4.373-0.407,6.538-0.039c2.321,0.197,4.659,0.055,6.94-0.42c5.033-1.015,9.736-3.343,14.378-5.457
	c5.181-2.358,10.325-4.794,15.479-7.2c5.157-2.406,10.322-4.8,15.545-7.059c5.132-2.36,10.434-4.325,15.858-5.88
	c2.528-0.663,5.101-0.932,7.648-1.461c1.685-0.308,3.277-0.983,4.675-1.978c1.331-1.061,2.417-2.396,3.184-3.916
	c1.204-2.142,2.284-4.352,3.233-6.619c1.388-3.469,3.31-6.888,6.408-9.1c1.681-1.182,3.599-1.985,5.618-2.354
	c0.779-0.047,1.544-0.257,2.236-0.616c0.808-0.566,1.445-1.335,1.856-2.23c0.312-0.85,0.562-1.723,0.737-2.612
	c0.315-1.117,0.693-2.215,1.135-3.29c0.781-1.928,1.786-3.759,2.99-5.455c2.686-3.57,6.164-6.462,10.166-8.445
	c2.467-1.31,5.008-2.467,7.5-3.725C669.839,10.703,669.981,10.586,669.825,10.505z M654.113,19.335
	c-3.54,3.516-6.057,7.929-7.274,12.767c-0.216,1.28-0.748,2.485-1.56,3.5c-1.021,1.124-2.438,1.058-3.821,1.426
	c-2.103,0.544-4.058,1.549-5.724,2.942c-1.579,1.383-2.896,3.035-3.896,4.879c-1.271,2.26-1.987,4.751-3.193,7.036
	c-1.167,2.207-2.266,4.7-4.125,6.428c-1.9,1.764-4.323,2.36-6.821,2.7c-6.396,0.884-12.493,3.154-18.419,5.635
	c-12.667,5.305-24.94,11.479-37.474,17.088c-2.896,1.38-5.881,2.55-8.942,3.5c-3.209,0.93-6.576,1.186-9.889,0.751
	c-4.192-0.681-8.466,0.593-11.604,3.459c-1.63,1.607-2.978,3.478-3.981,5.534c-1.486,2.9-2.812,5.87-4.385,8.723
	c-1.2,2.347-2.929,4.384-5.042,5.955c-2.163,1.475-4.645,2.421-7.237,2.762c-2.516,0.364-5.193,0.408-7.359-1.111
	c-1.819-1.396-2.996-3.475-3.25-5.756c-0.5-3.247-0.271-6.572-0.684-9.836c-0.371-3.209-1.002-6.383-1.888-9.49
	c-0.467-1.572-1.115-3.527-0.142-5.035c1.25-1.929,3.885-3.018,5.734-4.229c2.1-1.372,4.184-2.955,5.292-5.272
	c0.479-1.007,0.752-2.1,0.8-3.215c-0.062-1.297-0.235-2.586-0.521-3.853c-0.179-1.422,0.062-2.795-0.529-4.152
	c-0.603-1.327-1.421-2.541-2.431-3.59c-0.398-0.422-1.37-1.038-1.062-1.583c0.146-0.256,0.674-0.51,0.909-0.7
	c0.349-0.275,0.682-0.564,1.01-0.864c0.89-0.817,1.854-1.487,1.947-2.762c0.229-3.111,0.66-6.411-0.125-9.476
	c-0.878-2.962-2.182-5.781-3.861-8.372c-0.593-1.273-1.371-2.453-2.308-3.5c-0.776-0.582-1.692-0.946-2.655-1.057
	c-1.266-0.131-2.544-0.095-3.8,0.107c-1.744,0.18-3.481,0.419-5.218,0.652c-6.882,0.919-13.847,1.331-20.775,1.65
	c-1.771,0.082-3.81,0.435-5.521-0.082c-0.768-0.231-1.492-0.563-2.237-0.85c-0.444-0.172-0.632-0.216-0.658-0.716
	c0.018-0.369,0.069-0.736,0.143-1.098c3.518-0.341,7.018-0.838,10.555-0.893c3.6-0.056,7.188,0.056,10.781,0.1
	c1.729,0.021,3.455,0.026,5.185-0.011c1.342,0.034,2.681-0.148,3.965-0.54c2.274-0.789,4.849-2.286,5.326-4.859
	c0.228-1.23-0.743-1.822-1.694-2.393c-1.167-0.701-2.587-1.114-3.656-1.949c1.327-0.211,2.649-0.516,3.991-0.564
	c1.54-0.056,3.135,0.175,4.7,0.187c2.835,0.013,5.666-0.221,8.461-0.7c5.412-0.979,10.681-2.631,15.683-4.92
	c2.598-1.242,5.25-2.352,7.956-3.327c2.854-0.922,5.775-1.615,8.738-2.07c5.947-0.94,11.994-1.19,17.966-1.988
	c6.2-0.828,12.375-1.853,18.595-2.548c6.521-0.706,13.074-1.059,19.637-1.055c6.417-0.019,12.832,0.228,19.235,0.6
	c6.146,0.359,12.37,0.562,18.475,1.412c3.124,0.434,6.396,1.112,8.984,3.024c1.111,0.942,2.271,1.828,3.474,2.653
	c1.015,0.615,2.114,1.076,3.265,1.37c2.302,0.525,4.709,0.336,6.9-0.542c1.595-0.781,3.275-1.367,5.012-1.746
	c1.97-0.214,3.955,0.18,5.698,1.115C663.672,13.136,658.264,15.321,654.113,19.335z M108.369,307.191
	c0.024-0.834-0.179-1.66-0.587-2.386c-0.597-0.838-1.445-1.457-2.429-1.762c-0.123-0.046-0.529-0.179-0.631-0.026
	c0,0.001,0,0.001,0,0.002l-1.266,0.612c-0.057,0.025-0.116,0.064-0.089,0.135l3.425,8.985c0.1,0.254,0.639,0.371,0.87,0.284
	l1.107-0.415c0.107-0.04,0.108-0.11,0.056-0.2C107.843,310.89,108.395,308.888,108.369,307.191z M107.551,312.362l-3.192-8.373
	l1.012-0.487c0.754,0.333,1.375,0.916,1.725,1.673c0.274,0.786,0.377,1.622,0.3,2.45c-0.062,1.547-0.339,3.22,0.476,4.62
	L107.551,312.362z M399.465,21.081c0.984,0.206,1.967,0.461,2.935,0.753c1.86,0.572,3.674,1.288,5.423,2.14
	c3.5,1.754,6.812,3.859,9.89,6.282c1.528,1.176,3.025,2.395,4.512,3.632c1.186,1.169,2.58,2.106,4.108,2.761
	c3.163,1.047,5.223-1.638,6.964-3.854c2.215-2.929,4.8-5.557,7.689-7.818c3.271-2.458,7.024-3.891,10.834-5.289
	c8.363-2.998,16.924-5.416,25.62-7.237c8.832-1.912,17.732-3.368,26.672-4.669c1.107-0.163,2.215-0.327,3.322-0.493
	c0.147-0.01,0.264-0.05,0.254-0.126l0.006,0.007c-0.049-0.383-0.098-0.765-0.146-1.147c-0.021-0.145-0.206-0.221-0.331-0.25
	c-14.9-3.541-29.425,4.316-44.334,3.459c-1.965-0.115-3.866-0.482-5.811-0.768c-1.751-0.259-3.517-0.4-5.287-0.422
	c-3.552-0.022-7.096,0.354-10.562,1.124c-7.008,1.508-13.656,4.321-20.467,6.5c-3.755,1.248-7.598,2.217-11.491,2.9
	c-1.967,0.328-3.951,0.535-5.943,0.619c-1.022,0.042-2.056,0.047-3.083,0.013c-0.424-0.068-0.854-0.07-1.282-0.007
	c-0.328,0.157-0.631,0.37-0.89,0.629c-0.023,0.027-0.033,0.066-0.019,0.1c0.116,0.314,0.287,0.606,0.5,0.867
	C398.823,20.959,399.14,21.061,399.465,21.081z M400.079,19.602c0.925,0.039,1.848,0.047,2.768,0.029
	c1.897-0.042,3.797-0.198,5.68-0.466c7.395-1.027,14.44-3.594,21.456-6.039c7.491-2.612,15.13-4.975,23.161-4.639
	c2.013,0.119,4.017,0.361,6,0.725c1.925,0.314,3.872,0.482,5.823,0.5c3.873-0.015,7.733-0.381,11.544-1.094
	c7.989-1.377,16.039-3.612,24.212-3.326c1.972,0.062,3.931,0.316,5.854,0.746c0.037,0.291,0.074,0.582,0.11,0.872
	c-7.991,1.207-15.969,2.356-23.903,3.911c-7.79,1.483-15.5,3.36-23.1,5.624c-3.753,1.141-7.47,2.405-11.129,3.821
	c-3.216,1.146-6.242,2.766-8.979,4.807c-2.57,2.078-4.896,4.45-6.918,7.068c-0.922,1.335-2.016,2.544-3.254,3.593
	c-0.93,0.792-2.253,0.922-3.316,0.326c-1.448-0.886-2.802-1.923-4.029-3.093c-1.354-1.115-2.729-2.211-4.127-3.266
	c-2.664-2.049-5.497-3.868-8.469-5.438c-3.011-1.574-6.21-2.746-9.523-3.487c-0.145-0.031-0.523-0.041-0.628-0.133
	c-0.053-0.117-0.099-0.236-0.137-0.358C398.992,19.761,399.657,19.585,400.079,19.602z M215.228,183.78
	c0.59,0.648,1.431,1.012,2.307,1h0.113c0.877,0.017,1.717-0.35,2.307-1c1.252-1.408,1.047-3.812,1.021-4.051
	c0.098-1.792-1.277-3.324-3.07-3.421c-0.074-0.004-0.152-0.006-0.229-0.004h-0.148c-1.801-0.033-3.288,1.398-3.318,3.201
	c-0.002,0.073,0,0.148,0.002,0.224C214.182,179.969,213.976,182.372,215.228,183.78z M215.195,179.812v-0.033
	c-0.115-1.255,0.807-2.367,2.062-2.483c0.09-0.01,0.18-0.013,0.271-0.011h0.142c1.26-0.031,2.309,0.964,2.34,2.225
	c0.002,0.091-0.002,0.182-0.01,0.271v0.033c0.139,1.161-0.141,2.334-0.783,3.309c-0.41,0.45-0.998,0.695-1.604,0.667h-0.022
	c-0.608,0.028-1.197-0.217-1.605-0.667C214.977,182.003,215.195,179.837,215.195,179.812z M356.364,26.614
	c2.157,1.319,4.688,1.868,7.021,2.79c0.002,0.001,0.006,0.004,0.008,0.006c0.204,0.121,0.448,0.159,0.68,0.106
	c2.511-0.744,5.033-1.431,7.538-2.187c1.245-0.375,2.484-0.769,3.712-1.2c0.976-0.248,1.87-0.729,2.615-1.4
	c0.663-0.611,1.111-1.42,1.277-2.307c-0.056-0.812-0.477-1.558-1.143-2.028c-0.708-0.699-1.487-1.32-2.328-1.853
	c-0.469-0.279-0.958-0.507-1.439-0.756c-0.57-0.319-1.119-0.675-1.643-1.066c-1.784-1.199-3.811-1.998-5.933-2.343
	c-2.105-0.398-4.259-0.526-6.397-0.38c-1.723,0.104-3.336,0.854-4.526,2.1c-1.296,1.479-2.075,3.339-2.222,5.3
	C353.38,23.536,354.475,25.589,356.364,26.614z M355.898,17.542c0.848-1.423,2.214-2.458,3.813-2.883
	c1.907-0.35,3.859-0.362,5.771-0.037c2.094,0.176,4.115,0.816,5.93,1.873c0.879,0.543,1.653,1.17,2.584,1.638
	c0.875,0.439,1.694,0.976,2.447,1.6c0.642,0.528,1.617,1.232,1.786,2.1c0.005,0.859-0.342,1.683-0.96,2.28
	c-0.742,0.781-1.688,1.336-2.732,1.6c-1.192,0.417-2.396,0.8-3.603,1.165c-2.466,0.745-4.944,1.426-7.418,2.155
	c-1.838-0.706-3.764-1.202-5.543-2.05c-1.771-0.846-3.175-2.093-3.412-4.134C354.429,20.983,354.896,19.122,355.898,17.542z
	 M290.813,38.39c1.57,1.004,3.297,1.74,5.108,2.178c2.082,0.391,4.264,0.483,6.371,0.691c4.367,0.434,8.735,0.815,13.108,1.176
	c1.845,0.15,3.695,0.066,5.52-0.249c1.892-0.412,3.812-0.666,5.748-0.758c1.091-0.012,2.174,0.17,3.2,0.538
	c0.534,0.278,1.153,0.351,1.739,0.205c1.397-0.559,2.604-1.516,3.461-2.751c1.968-2.611,1.5-5.722-0.092-8.394
	c-0.462-0.761-0.979-1.487-1.541-2.178c3.192-1.811,6.953-3.206,8.61-6.749c0.376-0.68,0.538-1.458,0.464-2.231
	c-0.203-0.617-0.605-1.149-1.146-1.513c-1.383-1.089-2.949-1.915-4.633-2.437c-3.972-1.273-8.08-0.461-11.986,0.626
	c-1.014,0.281-2.021,0.577-3.032,0.85c-0.814,0.174-1.604,0.46-2.336,0.85c-1.438,0.829-2.604,2.059-3.354,3.538
	c-0.741,1.622-0.479,3.527,0.679,4.887c1.261,1.45,2.824,2.595,4.573,3.383c-1.155,1.224-2.312,2.448-3.473,3.671
	c-2.999-2.192-5.968-4.388-9.074-6.428c-2.759-2.015-5.867-3.503-9.167-4.39c-3.018-0.824-6.245-0.273-8.815,1.506
	c-2.485,1.869-3.997,4.756-4.118,7.863C286.601,35.083,288.512,37.058,290.813,38.39z M289.817,26.5
	c1.847-2.412,4.786-3.72,7.812-3.474c3.715,0.271,6.977,2.22,10.021,4.207c3.409,2.225,6.651,4.634,9.938,7.031
	c0.044,0.032,0.124,0.056,0.213,0.073c0.234,0.074,0.521,0.096,0.626-0.015l3.891-4.115c0.109-0.115-0.114-0.226-0.188-0.262
	c-1.571-0.686-2.995-1.671-4.19-2.9c-1.068-1.085-1.548-2.624-1.272-4.125c0.454-1.507,1.393-2.822,2.671-3.741
	c1.374-0.904,2.918-1.52,4.538-1.809c3.569-1.012,7.348-2.181,11.093-1.487c1.738,0.35,3.389,1.043,4.854,2.04
	c0.619,0.353,1.148,0.843,1.551,1.432c0.259,0.662,0.228,1.401-0.089,2.038c-1.388,3.847-5.545,5.312-8.796,7.176
	c-0.1,0.056-0.1,0.114-0.032,0.2c1.908,2.36,3.741,5.5,2.646,8.616c-0.521,1.34-1.398,2.511-2.54,3.387
	c-0.298,0.247-0.615,0.47-0.947,0.669c-0.269,0.207-0.583,0.345-0.918,0.4c-0.353-0.103-0.695-0.231-1.029-0.385
	c-0.465-0.137-0.938-0.242-1.416-0.315c-3.383-0.517-6.64,0.618-9.979,0.914c-1.975,0.075-3.952-0.02-5.911-0.284
	c-1.979-0.168-3.959-0.342-5.938-0.523c-1.979-0.181-3.957-0.373-5.936-0.575c-2.062-0.212-4.261-0.224-6.185-1.06
	c-2.5-1.087-5.531-2.562-6.432-5.361C287.036,31.652,288.201,28.546,289.817,26.5z M321.475,360.531
	c-2.982-0.117-5.969-0.261-8.954-0.366c-1.493-0.051-2.981-0.094-4.478-0.119c-0.997-0.175-2.023-0.049-2.948,0.361
	c-0.508,0.325-1.3,0.954-1.306,1.62c0.137,1.004,0.679,1.904,1.5,2.5c1.838,1.38,4.734,0.407,6.728-0.021
	c3.188-0.688,6.354-1.455,9.532-2.184c0.196-0.018,0.365-0.075,0.369-0.19l0.002,0.003l0.048-1.386
	C321.974,360.568,321.575,360.536,321.475,360.531z M320.922,361.992c-2.338,0.536-4.673,1.091-7.014,1.621
	c-1.191,0.267-2.388,0.525-3.579,0.786c-1.125,0.363-2.32,0.465-3.49,0.29c-1-0.396-1.741-1.253-1.985-2.303
	c-0.191-0.725,0.421-1.28,0.979-1.673c0.394-0.252,0.862-0.353,1.328-0.285c0.659,0.011,1.322,0.021,1.986,0.033
	c1.244,0.028,2.487,0.065,3.731,0.111c2.691,0.094,5.387,0.223,8.081,0.333C320.947,361.269,320.935,361.631,320.922,361.992z
	 M392.601,172.235c3.104-0.958,6.251-1.755,9.436-2.387c3.189-0.725,6.208-2.083,9.378-2.894c6.114-1.561,12.516-0.357,18.721-1.389
	c4.761-0.791,9.729-2.9,12.812-6.765c3.506-4.4-0.412-9.442-3.338-13.047c-1.761-2.17-4-3.934-5.374-6.4
	c-1.623-2.917-1.686-6.181-1.666-9.434c0.014-2.17,0.312-4.619-0.938-6.539c-0.568-0.873-2.027-2.286-3.209-2.107
	c-0.76,0.114-1.566,1.034-2.181,1.461c-1.22,0.854-2.46,1.684-3.757,2.418c-2.188,1.28-4.604,2.132-7.112,2.512
	c-2.646,0.373-5.325,0.409-7.98,0.11c-2.547-0.3-2.979-1.561-2.509-3.875c0.343-1.7,1.228-3.682,0.492-5.4
	c-0.73-1.249-1.644-2.386-2.697-3.375c-1.2-1.372-2.439-2.705-3.657-4.059c-3.168-3.518-5.958-7.1-10.88-8.01
	c-3.323-0.614-6.753,0.15-9.5,2.117c-4.516,3.266-5.169,8.608-7.414,13.329c-0.544,1.324-1.528,2.419-2.788,3.1
	c-0.896,0.444-1.729,1.013-2.476,1.688c-1.108,1.175-1.636,2.785-1.437,4.389c0.2,2.278,1.268,4.156,1.163,6.5
	c-0.113,2.462-0.996,4.826-2.52,6.763c-3.271,4.191-8.077,4.943-12.73,6.735c-3.229,1.245-4.3,3.346-4.8,6.676
	c-0.434,2.92-0.582,5.811-2.101,8.434c-1.723,2.963-4.627,4.417-7.595,5.9c-3.364,1.677-16.3,8.367-15.734,0.21
	c0.231-3.408,1.722-6.882,2.812-10.094c1.232-3.623,2.543-7.218,3.774-10.842c0.075-0.223-0.375-0.239-0.494-0.229
	c-2.621,0.229-5.244,0.584-7.856,0.806c-2.3,0.195-3.197-0.237-4.094-2.124c-0.456-1.089-1.026-2.126-1.707-3.092
	c-2.547-3.345-5.94-3.847-9.686-5c-4.115-1.267-8.279-6.134-9.127-10.334c-0.929-4.578,1.881-9.758,5.25-12.667
	c1.854-1.6,4.089-2.615,6.084-4.018c2.183-1.611,4.159-3.485,5.886-5.579c3.284-3.84,6.986-7.303,11.038-10.323
	c4.285-3.175,9.08-5.596,14.179-7.159c2.452-0.729,4.961-1.249,7.5-1.555c2.255-0.112,4.487-0.496,6.649-1.145
	c0.941-0.351,1.82-0.858,2.6-1.5c2.27-1.9,4.252-0.394,4.084,2.232c-0.117,1.835-2.79,4.444-1.543,6.266
	c0.692,1.01,2.265,0.861,3.294,0.692c3.177-0.684,6.309-1.566,9.374-2.639c0.062-0.018,0.331-0.128,0.219-0.237
	c-1.673-1.624-3.346-3.248-5.018-4.87c-1.271-1.23-2.766-3.29-4.318-4.153c-1.462-0.812-3.286-0.208-3.979-2.119
	c-0.646-1.773-0.217-4.142,0.159-5.912c0.318-1.514,1.21-3.358,0.681-4.925c-0.414-1.229-1.506-1.751-2.562-2.353
	c-3.914-2.229-2.174-6.253-1.287-9.7c0.063-0.259-0.762-0.149-0.859-0.1c-2.685,1.313-5.58,2.391-7.849,4.4
	c-2.315,2.049-1.938,3.891-1.694,6.7c0.291,3.33-1.986,6.573-4.612,8.4c-1.812,1.263-4.432,2.31-6.634,1.547
	c-1.82-0.632-3.17-2.184-4.371-3.615c-0.296-0.202-0.688-0.183-0.963,0.047c-2.438,3.377-6.384,6.421-10.812,5.331
	c-1.416-0.473-2.858-0.858-4.321-1.154c-1.481-0.134-2.972-0.15-4.454-0.049c-2.065,0.032-4.129-0.127-6.164-0.475
	c-1.757-0.258-4.217-0.366-5.335-1.979c-1.826-2.635,1.788-6.477,3.977-7.514c3.755-1.776,9.736,0.058,12.802-3.176
	c0.982-1.261,1.478-2.837,1.387-4.434c0.118-3.43,0.212-6.774,0.481-10.208c0.021-0.275-0.732-0.16-0.856-0.1
	c-1.137,0.474-2.157,1.181-3,2.077c-1.753,1.92-3.332,3.263-6.145,2.219c-1.738-0.712-3.398-1.607-4.951-2.67
	c-1.184-0.759-2.303-1.753-3.739-1.967c-2.572-0.384-4.192,1.8-6.454,2.544c-2.527,0.829-3.5-0.433-5.567-1.406
	c-1.313-0.594-2.71-0.998-4.14-1.2c-3.604-0.447-7.232-0.628-10.861-0.541c-4.054-0.029-8.107,0.09-12.148,0.43
	c-5.027,0.425-8.732,2.3-9.712,7.589c0.007,0.043,0.031,0.081,0.07,0.1c0.366,0.203,0.782,0.299,1.2,0.279
	c1.83-0.141,4.031-1.38,5.77-1.979c3.784-1.309,7.654-2.278,11.146,0.312c2.429,1.8,3.652,4.82,6.522,6.06
	c2.36,1.021,4.884,0.586,7.364,0.435c2.188-0.133,4.979-0.462,6.885,0.849c1.018,0.757,1.825,1.757,2.355,2.909
	c1.111,2.224,1.618,5.222,0.507,7.542c-0.843,1.764-2.956,2.123-4.683,2.546c-1.961,0.479-3.945,0.886-5.874,1.487
	c-4.064,1.269-7.656,2.79-12.036,2.5c-7.917-0.688-15.004-5.187-18.996-12.059c-0.077-0.133-0.365-0.125-0.487-0.124
	c-2.629,0.022-5.264,0.213-7.887-0.007c-2.561-0.216-5.11-0.543-7.677-0.736c-4.312-0.379-8.648-0.371-12.958,0.024
	c-1.828,0.19-3.646,0.487-5.438,0.891c-2.417,0.546-4.771,1.7-7.223,2.014c-2.303,0.349-4.655-0.103-6.664-1.282
	c-1.644-1.168-3.448-2.09-5.355-2.737c-2.674-0.704-5.496-0.564-8.088,0.4c-4.031,1.421-7.197,4.665-11.473,5.453
	c-2.69,0.519-5.479-0.018-7.788-1.5c-1.834-1.184-3.387-2.749-5.241-3.923c-3.056-1.912-6.411-3.29-9.931-4.076
	c-3.531-0.765-7.14-1.123-10.753-1.068c-3.543-0.134-7.085,0.267-10.508,1.191c-1.399,0.432-2.728,1.073-3.936,1.9
	c-0.649,0.466-1.263,0.987-1.822,1.557c-0.444,0.434-0.87,1.138-1.393,1.417c-1.229,0.639-2.701,0.595-3.889-0.118
	c-3.335-1.869-6.547-3.5-10.408-3.95c-8.351-0.971-15.1,3.849-21.771,8.174c-4.055,2.626-8.033,5.354-12.021,8.078
	c-4.044,2.765-8.133,5.492-13.073,6.282c-2.049,0.328-4.101-0.078-6.115,0.206c-1.199,0.211-2.298,0.815-3.115,1.716
	c-4.563,4-10.472,1.53-15.592,0.183c-3.104-0.816-6.01-1.231-9.061,0.066c-2.863,1.219-4.923,3.263-3.124,6.392
	c1.209,2.1,3.129,1.417,4.985,0.6c2.968-1.315,6.085-2.785,8.752,0.045c1.824,1.848,2.242,4.663,1.034,6.961
	c-1.649,3.399-4.236,6.255-7.455,8.232c-4.5,2.63-9.229,1.462-14.127,1.263c-2.646-0.195-5.272,0.529-7.442,2.05
	c-2.106,1.551-4.842,4.652-4.227,7.5c0.633,2.942,3.969,2.606,6.239,2.846c2.499,0.258,4.935,0.962,7.185,2.08
	c1.979,0.99,3.635,2.575,5.661,3.444c2.468,1.009,5.267,0.8,7.558-0.564c4.172-2.329,8.058-5.352,12.041-7.988
	c4.5-2.982,8.992-5.867,14.594-5.833c4.36,0.045,8.712-0.402,12.976-1.334c9.354-2.066,18.448-5.985,28.154-6.081
	c6.77-0.068,15.603,2.312,15.015,10.7c-0.545,7.735-8.103,12.766-8.856,20.415c-0.359,2.336,0.713,4.661,2.729,5.9
	c1.476,0.698,3.012,1.263,4.588,1.689c1.535,0.594,4.537,1.352,4.641,3.42c0.081,1.605-1.417,3.489-2.215,4.74
	c-1.293,2.026-2.691,3.981-4.028,5.977c-0.043,0.064,0.016,0.117,0.062,0.153c3.891,3.006,4.772,6.843,4.31,11.574
	c-0.14,1.438-0.221,2.558-1.914,2.961c-0.646,0.154-1.376,0.066-2.033,0.157c-0.75-0.013-1.463,0.331-1.921,0.925
	c-0.021,0.033-0.019,0.076,0.009,0.106c1.948,2.808,4.125,5.667,4.829,9.088c0.703,3.421-0.28,7.212-1.128,10.535
	c-1.911,7.162-5.109,13.917-9.438,19.934c-2.3,3.3-4.673,6.541-6.971,9.84c-2.117,3.042-4.5,6.129-5.567,9.729
	c-0.919,3.095-0.771,6.409,0.428,9.407c1.301,3.3,3.473,6.2,4.809,9.516c1.567,3.995,2.604,8.181,3.07,12.448
	c0.53,4.486,1.494,8.879,2.311,13.317c0.032,0.181,0.385,0.181,0.51,0.176c3.195-0.156,6.521,0.123,9.257,1.937
	c2.342,1.711,4.084,4.119,4.979,6.878c1.324,3.552,2.06,7.327,3.289,10.922c1.227,3.579,2.642,7.089,4.238,10.52
	c3.491,7.249,7.668,14.146,12.476,20.6c4.561,6.125,7.446,13.332,8.38,20.911c0.395,3.6-0.075,7.136,0.1,10.723
	c-0.022,2.146,0.737,4.225,2.144,5.842c1.677,1.76,4.095,2.732,6.33,3.551c3.798,1.229,7.654,2.263,11.562,3.086
	c8.342,2.079,16.399,5.028,24.784,7c3.354,0.684,6.289,2.699,8.13,5.589c1.521,2.48,1.61,5.579,3.256,7.96
	c1.562,2.261,3.976,2.562,6.514,2.729c4.925,0.398,9.694,1.893,13.972,4.366c3.784,2.268,7.452,4.724,10.987,7.361
	c4.191,2.916,8.457,5.728,12.68,8.6c0.083,0.06,0.271,0.064,0.455,0.041c0.189-0.001,0.38-0.039,0.455-0.134l0.002,0.003
	c0.203-0.252,0.406-0.505,0.608-0.758c0.021-0.031,0.021-0.071-0.005-0.104c-1.946-4.849-3.771-9.529-3.189-14.835
	c0.346-3.146,1.146-6.218,1.771-9.312c0.512-2.535,1.887-6.479-0.31-8.539c-1.519-1.271-3.445-1.941-5.424-1.884
	c-2.514-0.021-4.198,1.127-6.429,2.09c-4.244,1.832-8.216,0.656-11.253-2.69c-1.974-2.271-2.613-5.41-1.688-8.271
	c1.034-3.872,3.592-7.146,5.461-10.64c1.849-3.452,2.18-6.752,2.8-10.56c0.01-0.066-0.117-0.119-0.154-0.134l-1.181-0.45
	c-0.261-0.091-0.547-0.062-0.783,0.078c-2.496,2.312-4.812,4.812-6.931,7.476c-2.344,2.84-4.619,5.751-7.907,7.555
	c-3.581,1.965-7.251,1.925-11.214,1.749c-3.163-0.141-6.31,0.483-9.454,0.271c-5.771-0.395-8.323-4.6-9.241-9.881
	c-1.386-7.988-2.428-16.087-3.078-24.168c-0.676-6.274,0.468-12.611,3.29-18.255c2.787-5.515,6.858-10.273,11.871-13.881
	c6.505-4.626,13.611-5.5,21.431-5.436c5.339,0.045,11.563,0.8,16.353-2.118c2.989-1.828,4.574-5.116,7.563-6.961
	c2.105-1.32,4.638-1.787,7.073-1.306c2.021,0.392,3.692,1.516,5.583,2.229c6.742,2.544,13.711,6.18,21.113,4.835
	c0.124-0.021,0.331-0.061,0.357-0.209c1.031-5.686,1.771-11.044,5.729-15.54c3.418-3.882,8-5.968,12.291-8.68
	c4.198-2.648,8.052-5.809,11.471-9.407c3.7-3.908,6.422-8.6,10.208-12.423c1.592-1.619,3.354-3.061,5.253-4.3
	c2.479-1.449,5.113-2.615,7.854-3.477c4.418-1.644,6.838-5.662,9.628-9.188c1.788-2.467,4.058-4.545,6.672-6.11
	c2.245-1.188,4.423-2.5,6.521-3.932c4.635-3.449,9.013-7.228,13.102-11.307c2.38-2.246,4.784-4.468,7.261-6.607
	c2.591-2.235,5.26-4.72,8.353-6.232c2.088-1.02,8.236-3.981,9.979-1.3c1.569,2.409-0.307,6.118-1.067,8.428
	c-0.105,0.322,0.71,0.225,0.846,0.155l18.616-9.789c0.396-0.208-0.197-0.326-0.367-0.325c-2.938,0.016-6.407,0.5-7.215-2.989
	c-0.771-3.332-0.562-6.973-0.714-10.369c-0.006-0.141-0.282-0.169-0.376-0.175c-1.685-0.029-3.362-0.177-5.025-0.443
	c-0.952-0.2-3.049-0.516-3.801-1.233c-0.936-0.887-0.388-2.707,0.02-3.829C388.716,173.595,390.664,172.893,392.601,172.235z
	 M389.068,180.48c1.069,0.346,2.165,0.605,3.275,0.775c0.649,0.091,1.3,0.131,1.957,0.168c1.385,0.078,1.745,0,1.926,1.511
	c0.348,2.917,0.008,5.9,0.646,8.8c0.141,1.308,0.996,2.428,2.227,2.9c1.535,0.552,3.324,0.503,4.988,0.463
	c-5.622,2.956-11.245,5.912-16.868,8.869c0.896-2.46,2.406-6.054,0.59-8.201c-1.249-1.477-3.54-1.07-5.169-0.67
	c-3.771,0.842-7.312,2.499-10.375,4.854c-3.861,3.026-7.5,6.325-11.072,9.684c-3.231,3.041-6.415,6.141-9.857,8.948
	c-3.438,2.656-7.073,5.04-10.881,7.13c-3.555,2.081-5.969,5.564-8.399,8.776c-1.185,1.678-2.591,3.187-4.183,4.485
	c-1.895,1.438-4.133,1.906-6.29,2.768c-7.18,2.863-11.653,8.464-16.182,14.421c-5.432,7.15-12.267,12.382-20.009,16.8
	c-6.52,3.718-11.268,8.932-12.735,16.448c-0.197,1.008-0.35,2.025-0.515,3.039c-0.257,1.571-0.384,2.289-2.164,2.4
	c-2.938,0.072-5.865-0.439-8.604-1.505c-4.046-1.4-8.104-3.005-11.983-4.778c-5.921-2.7-11.612-0.769-15.644,4.109
	c-3.157,3.818-7,5.091-11.86,5.216c-4.833,0.124-9.668-0.247-14.5,0.169c-13.909,1.2-25.511,12.312-29.365,25.486
	c-2.384,8.152-0.6,17.103,0.509,25.336c0.604,4.509,0.954,9.285,2.209,13.669c0.524,2.234,1.744,4.243,3.484,5.738
	c1.892,1.326,4.15,2.029,6.46,2.01c1.409,0.023,2.818-0.047,4.218-0.209c2.703-0.12,5.41-0.094,8.109,0.08
	c7.062,0.1,11.872-3.645,16.176-8.861c1.479-1.784,2.917-3.608,4.46-5.339c0.387-0.431,1.891-2.407,2.652-2.544
	c1.05-0.188,0.427,2.207,0.342,2.854c-0.621,4.752-2.828,8.333-5.184,12.397c-1.849,3.183-3.804,6.951-2.858,10.748
	c0.741,2.983,3.409,5.435,6.146,6.657c2.354,0.996,5.005,1.054,7.398,0.161c2.153-0.731,3.968-2.264,6.3-2.431
	c2.396-0.174,5.849,0.891,6.27,3.626c0.324,2.117-0.479,4.761-0.9,6.834c-0.44,2.139-0.952,4.263-1.327,6.415
	c-0.583,2.813-0.634,5.717-0.147,8.552c0.312,1.457,0.729,2.89,1.248,4.288c0.405,1.146,1.72,3.356,1.404,4.707
	c-3.548-2.411-7.121-4.785-10.653-7.221c-3.5-2.403-6.869-5.01-10.495-7.221c-3.043-1.912-6.326-3.411-9.768-4.457
	c-1.653-0.479-3.352-0.814-5.062-1.008c-1.9-0.211-3.988,0.021-5.692-1c-2.753-1.644-2.868-5.02-4.007-7.7
	c-1.006-2.46-2.768-4.539-5.03-5.934c-3.1-1.865-6.854-2.168-10.286-3.084c-4.397-1.179-8.716-2.663-13.067-4
	c-3.879-1.193-7.814-2.072-11.748-3.058c-3.624-0.897-7.752-1.918-10.761-4.257c-2.16-1.681-2.896-4.122-2.985-6.771
	c-0.129-3.627,0.3-7.188-0.128-10.819c-0.988-7.489-3.874-14.602-8.383-20.663c-4.879-6.554-9.109-13.563-12.632-20.938
	c-1.996-4.319-3.698-8.771-5.097-13.318c-1.093-3.567-1.715-7.374-3.604-10.64c-2.887-4.983-8.001-6.39-13.412-6.214
	c-0.71-3.836-1.584-7.652-2.082-11.525c-0.377-3.603-1.065-7.167-2.062-10.65c-1.024-3.298-2.431-6.466-4.183-9.443
	c-2.028-3.458-3.359-7.025-2.672-11.082c0.687-4.057,3.188-7.418,5.479-10.733s4.661-6.55,6.972-9.841
	c4.266-5.833,7.501-12.354,9.562-19.28c0.936-3.328,2.007-7.151,1.706-10.632c-0.265-3.08-1.812-5.778-3.51-8.291
	c-0.29-0.352-0.549-0.728-0.775-1.124c-0.313-0.777-0.645-0.193,0.146-1.106c0.608-0.709,0.96-0.535,1.807-0.622
	c0.664-0.019,1.315-0.184,1.908-0.482c1.838-1.125,1.5-4.746,1.385-6.566c-0.059-1.312-0.345-2.603-0.844-3.817
	c-0.677-1.564-1.812-2.429-2.854-3.672c-0.625-0.746-0.396-1.011,0.093-1.878c0.519-0.915,1.222-1.775,1.81-2.647
	c1.105-1.523,2.095-3.127,2.958-4.8c2.631-5.575-6.746-5.541-9.534-7.876c-5.21-4.363,1.104-12.64,3.592-16.647
	c2.463-3.967,4.824-9.153,2.565-13.753c-1.993-4.056-6.759-5.574-10.938-6.034c-7.309-0.8-14.558,0.952-21.535,2.925
	c-3.943,1.116-7.872,2.312-11.89,3.159c-4.116,0.782-8.302,1.159-12.492,1.125c-6.646,0.106-12.055,4.195-17.354,7.728
	c-1.646,1.097-3.289,2.197-4.931,3.3c-1.972,1.316-4.106,3.2-6.433,3.794c-3.432,0.876-5.307-1.088-7.842-2.663
	c-1.424-0.89-2.94-1.621-4.524-2.178c-1.368-0.475-2.782-0.815-4.223-1.015c-1.759-0.249-4.227,0.154-5.565-1.155
	c-2.523-2.459,0.657-6.5,2.612-8.205c5.441-4.753,13.107-0.434,19.453-2.555c4.59-1.534,9.528-6.244,10.86-10.967
	c1.5-5.318-4.146-8.943-8.769-7.4c-1.308,0.437-2.478,1.3-3.8,1.676c-2.024,0.583-2.706-0.229-3.212-1.8
	c-0.319-0.788-0.313-1.67,0.006-2.456c1.181-2.354,5.027-3.253,7.362-3.209c2.519,0.047,5.249,1.174,7.684,1.8
	c2.537,0.652,5.073,1.352,7.715,1.016c1.091-0.131,2.148-0.441,3.141-0.918c2-0.972,3.2-2.72,5.547-3.028
	c1.25-0.164,2.654,0.109,3.933-0.008c1.56-0.146,3.096-0.458,4.582-0.933c2.883-0.975,5.609-2.357,8.104-4.105
	c6.754-4.536,13.394-9.23,20.354-13.448c4.128-2.5,8.319-4.565,13.284-4.317c4.522,0.225,7.896,2.248,11.792,4.232
	c1.377,0.828,3.088,0.866,4.5,0.1c1.173-0.7,1.942-1.9,2.979-2.764c1.554-1.245,3.36-2.13,5.3-2.592
	c3.844-0.833,7.788-1.1,11.709-0.794c3.65,0.113,7.271,0.744,10.75,1.873c3.403,1.156,6.577,2.91,9.367,5.178
	c2.202,1.792,4.308,3.223,7.188,3.577c2.39,0.255,4.803-0.099,7.021-1.029c3.288-1.325,5.955-3.8,9.391-4.843
	c2.228-0.714,4.622-0.708,6.845,0.017c2.034,0.688,3.558,2.045,5.432,2.984c1.968,0.873,4.134,1.205,6.271,0.962
	c3.4-0.275,6.62-1.911,9.993-2.51c4.274-0.697,8.615-0.911,12.938-0.637c3.927,0.192,7.819,0.83,11.739,1
	c1.73,0.073,3.479-0.151,5.2-0.05c1.9,0.111,2.439,1.886,3.592,3.258c3.604,4.273,8.517,7.238,13.977,8.435
	c2.617,0.56,5.312,0.667,7.971,0.314c3.415-0.454,6.437-1.981,9.733-2.862c1.821-0.487,3.679-0.859,5.5-1.341
	c1.146-0.169,2.229-0.625,3.146-1.324c1.438-1.4,1.601-3.813,1.32-5.668c-0.273-2.149-1.25-4.148-2.776-5.686
	c-1.618-1.511-3.686-1.657-5.812-1.675c-3.926-0.033-8.231,1.319-11.407-1.693c-2.09-1.983-3.361-4.425-6.117-5.646
	c-1.751-0.733-3.669-0.976-5.548-0.7c-1.335,0.193-2.646,0.519-3.916,0.974c-0.943,0.317-1.882,0.65-2.823,0.977
	c-0.691,0.242-2.61,1.321-3.226,1.118c-1.236-0.406,0.105-2.645,0.611-3.438c0.821-1.265,2.035-2.228,3.454-2.74
	c3.749-1.437,8.597-1.118,12.563-1.183c4.124-0.114,8.251-0.013,12.364,0.305c2.321,0.122,4.588,0.786,6.607,1.939
	c0.694,0.596,1.519,1.026,2.4,1.258c1.936,0.122,3.854-0.396,5.47-1.474c1.545-0.987,2.969-1.793,5.07-0.679
	c0.762,0.4,1.448,0.989,2.185,1.441c1.337,0.856,2.741,1.601,4.2,2.226c1.453,0.698,3.111,0.837,4.66,0.391
	c0.882-0.343,1.679-0.874,2.334-1.557c0.389-0.375,0.729-0.791,1.088-1.194c0.544-0.57,1.17-1.05,1.852-1.438
	c-0.23,2.883-0.479,5.697-0.436,8.599c0.028,1.922-0.032,4.268-1.62,5.615c-1.896,1.611-4.938,1.333-7.263,1.564
	c-1.949,0.108-3.855,0.615-5.604,1.489c-3.116,1.739-6.276,6.989-1.771,8.935c2.562,0.94,5.271,1.423,8.006,1.426
	c1.341,0.044,2.679-0.067,4.021-0.1c2.274,0.078,4.528,0.485,6.689,1.209c4.702,1.214,9.111-1.42,11.954-5.009
	c1.688,1.912,3.648,3.569,6.344,3.563c3.03-0.137,5.879-1.482,7.91-3.736c1.212-1.259,2.104-2.792,2.594-4.468
	c0.523-1.919-0.279-3.539-0.132-5.43c0.316-3.973,5.243-5.851,8.611-7.362c-0.702,2.456-1.877,5.387-0.337,7.67
	c0.764,0.892,1.712,1.608,2.775,2.1c1.909,1.224,1.855,2.785,1.354,4.769c-0.61,2.395-1.849,6.368-0.242,8.655
	c0.489,0.64,1.211,1.062,2.009,1.174c2.251,0.444,3.471,1.928,5.088,3.494c1.356,1.312,2.716,2.627,4.067,3.945
	c0.059,0.057,1.161,0.958,1.2,1.165c0.188,0.978-0.051,0.406-0.639,0.795c-1.096,0.493-2.243,0.849-3.427,1.058
	c-1.643,0.487-6.478,2.333-6.526-0.409c-0.032-1.813,1.688-3.306,1.812-5.136c0.148-2.176-1.061-3.872-3.25-3.7
	c-0.702,0.03-1.381,0.257-1.959,0.656c-0.779,0.699-1.629,1.314-2.536,1.837c-1.058,0.456-2.174,0.758-3.314,0.9
	c-3.367,0.362-6.711,0.911-10.021,1.645c-3.078,0.825-6.062,1.971-8.897,3.419c-5.725,3.014-10.896,6.967-15.312,11.693
	c-2.7,2.815-5.029,5.941-8.219,8.25c-2.595,1.879-5.48,3.134-7.71,5.505c-2.047,2.209-3.418,4.959-3.949,7.924
	c-0.521,2.76,0.124,5.612,1.782,7.878c1.613,2.592,3.913,4.688,6.643,6.055c1.488,0.669,3.139,0.75,4.68,1.261
	c1.79,0.571,3.417,1.562,4.743,2.89c1.105,1.214,1.988,2.613,2.609,4.132c0.37,1.125,1.249,2.01,2.372,2.388
	c0.979,0.2,1.99,0.185,2.964-0.045c2.328-0.369,4.656-0.532,6.999-0.729c-2.188,6.379-5.136,12.859-6.346,19.507
	c-0.641,3.491,0.729,5.834,4.435,5.621c2.642-0.292,5.217-0.986,7.646-2.06c3.165-1.199,6.219-2.677,9.122-4.417
	c4.864-2.975,5.284-7.885,6.128-12.988c0.278-1.711,0.682-3.523,2.088-4.673c1.607-1.319,3.916-1.773,5.863-2.339
	c4.604-1.339,9.122-3.94,11.084-8.543c0.979-2.191,1.242-4.636,0.757-6.986c-0.625-2.325-1.7-4.625-0.352-6.946
	c1.394-2.376,4.292-2.523,5.639-4.994c1.486-2.739,2.077-5.795,3.358-8.606c2.7-5.921,9.229-9.287,15.393-6.386
	c3.08,1.45,5.04,4.084,7.259,6.557c1.129,1.258,2.277,2.5,3.396,3.763c1.078,1.217,2.893,2.749,3.333,4.364
	c0.768,2.777-3.022,7.765,1.184,8.886c4.339,0.672,8.77,0.473,13.028-0.584c2.156-0.706,4.208-1.697,6.104-2.947
	c1.042-0.658,2.764-2.457,3.938-2.349c1.566,0.142,2.413,2.262,2.667,3.583c0.625,3.254-0.166,6.67,0.437,9.962
	c0.536,2.659,1.84,5.103,3.75,7.029c2.48,2.473,4.632,5.261,6.39,8.293c0.886,1.299,1.391,2.82,1.458,4.391
	c-0.119,2.038-1.6,3.7-3.04,4.992c-5.641,5.063-13.146,5.469-20.35,5.418c-3.096-0.104-6.188,0.198-9.2,0.9
	c-3.821,0.986-7.437,2.476-11.316,3.242c-2.956,0.57-5.855,1.394-8.673,2.464c-2.383,0.927-3.684,1.864-4.229,4.449
	C386.135,179.297,386.74,179.754,389.068,180.48z M346.409,363.675c-0.062-0.008-0.116-0.003-0.178,0
	c-0.029,0.002-0.062,0.003-0.089,0.008c-0.046,0.009-0.092,0-0.137,0.016c-2.021,0.5-4.103,0.79-6.062,1.487
	c-1.479,0.401-2.771,1.311-3.651,2.562c-1.585,2.744,1.247,6.052,3.576,7.3c2.695,1.433,5.938,1.4,8.605-0.082
	c1.271-0.813,2.274-1.979,2.899-3.351c0.646-1.193,0.977-2.53,0.962-3.89C352.138,364.724,348.931,363.849,346.409,363.675z
	 M350.813,370.5c-0.453,1.282-1.188,2.445-2.16,3.4c-2.155,1.904-5.255,2.318-7.839,1.048c-2.163-1.07-4.844-4.069-3.751-6.657
	c0.628-1.487,2.225-2.292,3.661-2.793c1.87-0.651,3.84-0.943,5.759-1.408c2.028,0.16,4.409,0.83,4.808,3.135
	C351.419,368.339,351.255,369.469,350.813,370.5z M371.025,381.023c-0.588-0.7-1.256-1.323-1.842-2.022
	c-0.263-0.242-0.653-0.282-0.96-0.1c-0.634,0.561-1.345,1.021-2,1.555c-0.378,0.3-1.059,0.778-0.961,1.341
	c0.211,0.764,0.612,1.461,1.167,2.027c0.7,0.845,1.464,1.641,2.146,2.505c0.005,0.005,0.012,0.006,0.018,0.01
	c0.037,0.05,0.114,0.094,0.215,0.128c0.039,0.019,0.076,0.025,0.117,0.035c0.228,0.051,0.492,0.045,0.591-0.062
	c0.02-0.014,0.028-0.022,0.036-0.037c0.537-0.712,1.141-1.368,1.718-2.052c0.311-0.36,0.844-0.897,0.835-1.424
	c-0.047-0.316-0.167-0.623-0.349-0.888C371.544,381.68,371.299,381.339,371.025,381.023z M370.282,384.193
	c-0.43,0.502-0.859,0.998-1.274,1.508c-0.5-0.589-1.014-1.166-1.516-1.755c-0.551-0.566-0.971-1.244-1.23-1.987
	c-0.155-0.561,0.56-1.027,0.935-1.325c0.48-0.383,0.979-0.743,1.464-1.123c0.41,0.451,0.837,0.895,1.243,1.353
	c0.281,0.312,0.536,0.646,0.767,1c0.219,0.286,0.368,0.618,0.438,0.971C371.126,383.326,370.573,383.851,370.282,384.193z
	 M361.004,371.492c-0.615-0.748-1.259-1.468-1.828-2.254c-0.086-0.119-0.378-0.117-0.619-0.059c-0.132,0.022-0.25,0.062-0.302,0.12
	c-0.581,0.661-1.21,1.273-1.835,1.894c-0.462,0.399-0.865,0.862-1.2,1.377c-0.188,0.439-0.11,0.952,0.2,1.315
	c0.364,0.626,0.854,1.169,1.44,1.597c0.496,0.404,1.11,0.643,1.751,0.672c0.592-0.036,1.156-0.234,1.644-0.571
	c0.74-0.476,1.928-1.387,1.743-2.4C361.809,372.547,361.468,371.966,361.004,371.492z M360.952,373.844
	c-0.201,0.438-0.502,0.815-0.882,1.112c-0.364,0.327-0.784,0.588-1.24,0.773c-0.017,0.006-0.011,0.003-0.02,0.006
	c-0.085-0.015-0.171-0.032-0.251-0.065c-0.286-0.108-0.556-0.256-0.8-0.438c-0.523-0.386-0.969-0.862-1.312-1.412
	c-0.226-0.359-0.5-0.803-0.288-1.213c0.311-0.496,0.692-0.941,1.143-1.319c0.441-0.438,0.878-0.876,1.305-1.326
	c0.346,0.44,0.696,0.871,1.059,1.298c0.399,0.438,0.763,0.912,1.079,1.415C360.985,373.013,361.062,373.442,360.952,373.844z
	 M292.874,369.183c0-0.001,0.001-0.001,0.001-0.002c-0.003-2.036-0.807-3.986-2.229-5.438c-0.604-0.597-1.339-1.04-2.146-1.3
	c-0.924-0.229-1.877-0.312-2.825-0.241c-3.213,0.038-7.157,0.51-9.474,3.013c-2.288,2.471-1.762,6.207,0.358,8.614
	c2.707,2.811,6.673,4.021,10.488,3.21c1.714-0.271,3.268-1.166,4.361-2.513c1.05-1.575,1.562-3.447,1.463-5.339
	C292.875,369.185,292.874,369.184,292.874,369.183z M288.182,376.035c-3.252,1.396-7.01,0.896-9.784-1.3
	c-2.35-1.922-3.6-5.393-2.037-8.182c1.378-2.453,4.396-3.382,7.01-3.727c1.034-0.132,2.083-0.195,3.13-0.188
	c1-0.103,2.003,0.156,2.83,0.729c1.643,1.388,2.585,3.434,2.569,5.584C291.899,371.839,290.992,374.76,288.182,376.035z
	 M291.9,368.962v-0.005c0,0.001,0.001,0.002,0.001,0.003S291.9,368.961,291.9,368.962z M448.261,182.883
	c-0.877-1.715-1.79-3.411-2.711-5.1c-1.124-2.064-2.262-4.123-3.366-6.2c-0.071-0.132-0.358-0.186-0.604-0.175
	c-0.154-0.004-0.302,0.02-0.361,0.096l0.008-0.004c-3.817,4.664-9.885,6.631-13.822,11.165c-1.184,1.373-2.127,2.936-2.789,4.623
	c-0.089,0.223,0.646,0.255,0.734,0.237c4.317-0.817,8.652-1.562,12.959-2.46c1.429-0.37,2.883-0.631,4.351-0.782
	c0.715-0.116,1.433,0.205,1.817,0.816c0.639,1.235,1.059,2.571,1.24,3.95c0.04,0.184,0.321,0.231,0.479,0.243
	c1.12,0.192,2.271,0.104,3.347-0.257c0.678-0.342,0.974-1.146,0.682-1.843C449.733,185.686,449.073,184.24,448.261,182.883z
	 M446.658,188.935c-0.414-1.967-0.77-4.648-3.128-5.009c-1.262-0.103-2.529,0.014-3.755,0.346c-2.188,0.441-4.371,0.9-6.562,1.319
	c-2.475,0.466-4.948,0.916-7.423,1.38c1.237-2.759,3.165-5.154,5.61-6.942c2.312-1.77,4.862-3.194,7.179-4.955
	c1.1-0.813,2.104-1.738,3.021-2.748c2.039,3.786,4.159,7.53,6.091,11.378c0.451,0.9,0.938,1.8,1.3,2.734
	c0.238,0.489,0.345,1.033,0.304,1.575C449.111,189.083,447.625,189.016,446.658,188.935z M116.581,330.31
	c-0.445,0.131-0.894,0.256-1.335,0.383c-0.032,0.008-0.173,0.062-0.159,0.128l2.3,10.263c0.012,0.055,0.057,0.096,0.112,0.131
	c0.006,0.005,0.009,0.01,0.016,0.016c0.006,0.005,0.012,0.004,0.021,0.007c0.077,0.042,0.18,0.065,0.286,0.081
	c0.024,0.003,0.05,0.006,0.071,0.007c0.12,0.008,0.234,0,0.326-0.022v0.001l0.025-0.006c0.006-0.001,0.012-0.003,0.018-0.005
	l2.173-0.553c0.093-0.024,0.183-0.078,0.146-0.184c-1.062-3.357-2.116-6.72-3.179-10.08
	C117.33,330.236,116.753,330.262,116.581,330.31z M118.293,340.752l-2.192-9.775c0.15-0.043,0.3-0.086,0.451-0.128
	c1.006,3.193,2.012,6.389,3.018,9.579C119.144,340.536,118.719,340.645,118.293,340.752z M225.296,183.78
	c0.594,0.649,1.436,1.015,2.312,1h0.115c0.877,0.017,1.717-0.35,2.305-1c1.25-1.408,1.053-3.812,1.021-4.051
	c0.098-1.794-1.279-3.325-3.072-3.421c-0.078-0.004-0.156-0.006-0.234-0.004h-0.148c-1.801-0.033-3.285,1.398-3.318,3.201
	c-0.002,0.073-0.002,0.148,0.002,0.224C224.251,179.969,224.044,182.372,225.296,183.78z M225.273,179.812v-0.033
	c-0.117-1.255,0.807-2.367,2.062-2.483c0.088-0.01,0.18-0.013,0.27-0.011h0.143c1.26-0.031,2.307,0.964,2.34,2.225
	c0.002,0.091-0.002,0.182-0.01,0.271v0.033c0.141,1.161-0.139,2.334-0.781,3.309c-0.41,0.45-0.998,0.695-1.605,0.667h-0.023
	c-0.605,0.028-1.195-0.217-1.604-0.667C225.056,182.003,225.273,179.837,225.273,179.812z M391.354,96.06l7.382-0.739
	c0.032,0,0.181-0.037,0.175-0.1c-0.021-0.292-0.047-0.584-0.067-0.876c-0.021-0.263-0.484-0.349-0.689-0.349h-7.383
	c-0.058-0.003-0.107,0-0.159,0.008c-0.008,0.001-0.016,0.001-0.021,0.003c-0.021,0.004-0.031,0.011-0.046,0.017
	c-0.024,0.008-0.044,0.019-0.062,0.032c-0.011,0.01-0.018,0.022-0.022,0.034c-0.005,0.01-0.013,0.02-0.014,0.032
	c-0.004,0.014-0.015,0.024-0.014,0.04l0.135,1.612C390.584,96.022,391.19,96.074,391.354,96.06z M397.897,94.453l0.037,0.446
	l-6.438,0.645l-0.094-1.091H397.897z"/>
	<path id="13" fill="#231F20" d="M919.484,37.726c-0.041,0.239,0.656,0.188,0.757,0.155l17.048-5.563c0.068-0.015,0.135-0.042,0.186-0.082
	c0.026-0.021,0.043-0.043,0.053-0.071v-0.007c0.006-0.023,0.017-0.046,0.005-0.076c-0.066-0.176-0.5-0.137-0.618-0.126
	c-3.816,0.229-7.611,0.739-11.354,1.525c-1.78,0.419-3.857,0.975-5.155,2.358C919.918,36.362,919.597,37.02,919.484,37.726z
	 M907.006,47.578c-1.047,0.403-1.994,1.026-2.779,1.827c-1.587,1.9-0.056,4.989,1.835,6.055c1.219,0.615,2.582,0.888,3.944,0.79
	c0.145,0,0.459-0.041,0.49-0.224c0.589-3.474,1.176-6.948,1.763-10.421c0.02-0.116-0.218-0.183-0.467-0.181
	c-0.036,0-0.07,0.004-0.106,0.008c-0.104,0.009-0.199,0.031-0.276,0.067c-0.004,0.001-0.009,0.001-0.013,0.003l0.003,0.003
	c-0.002,0-0.002,0.001-0.004,0.002C909.931,46.195,908.467,46.885,907.006,47.578z M968.248,67.76
	c-0.045-0.138-0.35-0.187-0.463-0.2l-28.862-3.1c-0.082-0.008-0.536-0.03-0.521,0.144c0.352,2.057-0.233,4.163-1.595,5.744
	c-2.054,2.1-5.134,1.854-7.8,1.512c-5.8-0.744-11.995-3.234-17.884-2.042c-2.428,0.609-4.687,1.759-6.607,3.362
	c-2.538,1.9-5,3.9-7.547,5.8c-2.246,1.714-4.601,3.279-7.05,4.686c-1.33,0.746-2.801,1.428-4.18,0.3
	c-0.789-0.644-0.849-1.659-1.861-1.983c-1.109-0.208-2.247-0.208-3.355,0c-1.477,0.115-2.946,0.315-4.399,0.6
	c-3.261,0.644-6.399,1.798-9.301,3.42c-0.06,0.033-0.094,0.08-0.066,0.148c0.788,2.035,3.254,5.867,1.306,7.834
	c-1.668,1.684-4.372-0.546-5.716-1.68c-1.274-1.147-2.419-2.431-3.412-3.828c-0.223-0.202-0.535-0.271-0.822-0.181l-1.017,0.306
	c-0.038,0.012-0.169,0.057-0.161,0.124c0.151,1.437,0.267,2.878,0.434,4.312c0.257,1.253,0.382,2.53,0.37,3.809
	c-0.002,0.917-0.476,1.769-1.254,2.254c-1.42,0.716-3.736-0.444-5.007-1.148c-2.729-1.512-4.092-4.141-5.55-6.79
	s-2.75-5.356-4.02-8.085c-0.484-1.044-1.33-2.313-0.986-3.511c0.484-1.7,2.6-1.567,4.008-1.522c3.053,0.1,6.072,0.345,9.132,0.3
	c2.987-0.047,5.978-0.138,8.951-0.435c1.854-0.187,3.736-0.629,4.673-2.469c0.719-1.412-0.581-3.112-1.708-3.908
	c-1.018-0.602-2.092-1.104-3.206-1.5c-1.3-0.573-2.6-1.138-3.925-1.649c-5.568-2.144-11.477-2.631-17.375-3.126
	c-6.46-0.478-12.887-1.337-19.245-2.574c-5.8-1.184-11.625-2.423-17.574-2.45c-13.566-0.063-26.451,4.88-39.352,8.439
	c-0.277,0.076-0.12,0.259,0.064,0.323c1.207,0.287,2.327,0.862,3.265,1.675c1.055,1.172,0.399,2.6-0.232,3.8
	c-0.551,1.19-1.396,2.219-2.457,2.99c-1.177,0.72-2.292,1.535-3.334,2.439c-4.025,3.71-6.142,8.9-9.7,13.005
	c-3.292,3.887-7.592,6.793-12.427,8.4c-2.581,0.745-5.239,1.192-7.923,1.333c-1.977,0.104-3.891,0.728-5.548,1.81
	c-3.095,2.159-5.133,7-4.812,10.725c0.35,4.045,5.2,4.548,8.4,4.677c2.912,0.066,5.817-0.318,8.612-1.141
	c3.153-0.861,6.358-2.208,9.637-2.5c2.773-0.335,5.502,0.904,7.073,3.214c1.522,2.328,1.553,5.153,1.352,7.833
	c-0.12,1.592-0.352,3.172-0.61,4.745c-0.225,1.371-0.717,2.9-0.433,4.294c0.318,1.558,1.671,2.286,3.101,2.628
	c1.938,0.487,3.975,0.401,5.864-0.248c2.442-0.892,3.9-2.8,5.347-4.859c3.051-4.341,5.8-9.09,6.741-14.379
	c0.498-2.84,0.445-5.749-0.154-8.569c-0.301-1.411-0.767-2.784-0.958-4.215c-0.111-1.395-0.024-2.798,0.259-4.168
	c0.134-1.136,0.356-2.26,0.667-3.361c0.382-1.309,1.286-2.401,2.5-3.022c2.184-1.43,4.226-3.064,6.1-4.881
	c2.01-1.967,3.819-4.129,5.4-6.455c0.57-1.023,1.234-1.991,1.983-2.891c0.931-0.838,2.082-1.394,3.317-1.6
	c2.466-0.511,5.768-0.283,7.328,1.979c1.584,2.293,0.516,5.368-0.557,7.626c-1.416,2.98-3.227,5.76-4.883,8.607
	c-0.678,1.079-1.282,2.203-1.809,3.364c-0.49,1.297-0.547,2.718-0.162,4.05c0.633,3.03,2.243,5.9,5.691,5.784
	c1.728-0.154,3.39-0.739,4.834-1.7c2.948-1.764,5.467-3.539,9.064-3.666c5.354-0.189,14.307,4.1,10.612,10.717
	c-3.558,6.37-11.99,3.439-17.67,2.575c-1.517-0.305-3.055-0.496-4.6-0.571c-1.213,0.133-2.398,0.451-3.515,0.942
	c-0.036,0.011-0.171,0.057-0.161,0.125l0.142,0.982c0.02,0.149,0.22,0.2,0.342,0.232c1.615,0.412,3.192,0.793,4.837,1.052
	c1.185,0.083,2.34,0.402,3.4,0.938c1.756,1.128,1.763,3.857,1.975,5.687c0.224,1.14,0.247,2.311,0.068,3.459
	c-0.455,1.861-2.184,2.447-3.929,2.611c-2.28,0.214-3.753-1.025-4.683-2.971c-0.838-1.756-1.77-3.45-2.679-5.168
	c-0.001,0-0.001,0-0.001,0c-0.004-0.008-0.009-0.016-0.013-0.024c-0.055-0.103-0.236-0.16-0.429-0.179
	c-0.209-0.038-0.432-0.033-0.522,0.062v0.003c-1.614,1.755-2.513,4.051-2.519,6.436c-0.028,1.079,0.133,2.154,0.475,3.178
	c0.51,1.088,1.142,2.114,1.883,3.059c4.25,6.93-8.265,7.32-12.179,8.277c-6.479,1.585-12.876,1.277-19.487,1.252
	c-5.853-0.021-11.829,0.455-17.118,3.179c-0.984,0.649-2.155,0.956-3.331,0.871c-1.004-0.139-1.976-0.454-2.869-0.932
	c-1.562-0.691-2.664-2.131-2.921-3.82c-0.387-3.533,3.062-5.635,5.647-7.117c0.192-0.111-0.031-0.249-0.146-0.292
	c-2.893-1.055-5.255-2.842-5.6-6.063c-0.243-2.237,0.322-4.5,0.594-6.71c0.034-0.28-0.683-0.277-0.833-0.235
	c-2.222,0.623-4.375,1.819-5.266,4.069c-0.407,1.35-0.562,2.763-0.453,4.169c-0.01,1.865,0.106,3.728,0.349,5.576
	c0.347,2.6,1.52,5.278,1.448,7.911c-0.06,2.093-1.683,3.151-3.371,4.062c-1.336,0.721-2.771,1.169-4.135,1.817
	c-1.388,0.657-2.77,1.415-4.111,2.162c-2.7,1.5-4.082,3.912-6.056,6.2c-1.949,2.259-4.123,4.313-6.487,6.132
	c-2.665,1.864-5.433,3.575-8.29,5.126c-2.407,1.331-4.127,3.631-4.725,6.316c-0.521,2.485-1.779,3.684-4.414,2.264
	c-1.701-1.029-3.346-2.149-4.926-3.355c-0.1-0.071-0.984-0.3-0.937,0c0.336,2.077,0.16,4.229-2.2,4.836
	c-1.209,0.2-2.434,0.284-3.658,0.251c-1.453,0.09-2.893,0.329-4.339,0.491c-0.093,0.01-0.236,0.037-0.265,0.144
	c-0.116,0.425-0.232,0.851-0.351,1.276c-0.017,0.064,0.092,0.138,0.13,0.157c1.715,0.957,3.515,1.75,5.378,2.369
	c1.891,0.371,3.673,1.169,5.21,2.332c3.176,2.7,3.065,7.291,3.046,11.1c0.002,2.605-0.186,5.207-0.561,7.784
	c-0.118,1.718-0.932,3.313-2.253,4.418c-1.811,1.28-4.2,0.91-6.221,0.474c-2.321-0.5-4.675-0.823-7.02-1.193
	c-5.957-0.942-11.916-1.879-17.875-2.812c-0.117-0.018-0.489-0.032-0.519,0.144l-6,36.624c0,0.043,0.021,0.083,0.056,0.108
	c0.389,0.302,0.776,0.604,1.164,0.906c0.252,0.173,0.573,0.21,0.858,0.1c2.193-0.926,4.393-1.837,6.582-2.772
	c2.223-1.072,4.543-1.928,6.929-2.556c2.592-0.655,5.334-0.334,7.705,0.9c1.793,0.99,3.086,2.675,5.118,3.233
	c3.32,0.911,6.06-1.452,8.483-3.389c3.154-2.354,5.741-5.387,7.567-8.874c1.878-3.889,2.541-8.252,5.116-11.839
	c2.254-3.141,5.677-5.048,9.25-6.331c2.614-0.938,6.155-1.509,7.2-4.507c0.617-1.781,0.658-3.556,2.913-3.924
	c2.199-0.362,4.607,0.213,6.811,0.323c1.563,0.126,3.129-0.228,4.485-1.015c1.685-1.052,2.411-2.721,3.467-4.311
	c1.178-1.909,3-3.334,5.137-4.016c2.99-0.848,5.943,0.375,8.834,1.045c0.12,0.027,0.615,0.095,0.651-0.122
	c0.742-4.454,4.324-8.135,9.091-6.332c2.375,0.9,4.36,2.691,6.243,4.341c1.821,1.6,3.7,3.115,5.56,4.661
	c1.53,1.343,3.271,2.424,5.153,3.2c2.118,0.802,4.118,1.888,5.944,3.229c1.674,1.254,3.144,2.761,4.354,4.466
	c1.24,1.752,2.021,3.757,3.233,5.521c0.749,0.871,1.442,1.789,2.073,2.749c0.695,1.372,0.138,2.527-0.6,3.744
	c-1.111,1.66-1.745,3.593-1.831,5.588c-0.005,4.156,3.238,7.2,6.354,9.473c3.425,2.466,7.273,4.283,11.354,5.36
	c1.581,0.427,3.357,1.024,5.011,0.726c1.492-0.269,3.39-1.307,3.073-3.094c-0.315-1.787-2.379-3.293-3.549-4.537
	c-1.829-1.831-3.451-3.857-4.837-6.043c-1.141-1.645-1.428-3.736-0.772-5.627c0.9-2.144,3.057-3.17,5.146-3.846
	c2.4-0.777,4.9-1.295,7.355-1.866c2.142-0.5,4.4-0.631,6.473-1.4c3.371-1.443,6.378-3.621,8.8-6.374
	c2.404-2.604,3.878-5.933,4.188-9.463c0.315-3.672-0.638-7.482,3.078-9.748c4.421-2.543,9.957-2.072,13.884,1.182
	c1.846,1.593,3.314,3.569,5.021,5.3c0.993,1.006,2.142,2.075,3.638,2.125c1.786,0.059,2.566-1.484,3.72-2.566
	c1.862-1.758,4.466-2.497,6.975-1.98c2.458,0.569,4.827,1.468,7.044,2.672c2.22,1.026,4.51,1.891,6.854,2.587
	c4.728,1.506,9.674,2.215,14.635,2.1c2.742-0.138,5.492-0.087,8.228,0.153c2.636,0.3,5.246,0.791,7.848,1.312
	c2.616,0.525,5.227,1.08,7.85,1.578c0.084,0.016,0.769,0.079,0.638-0.176c-1.35-2.449-1.695-5.326-0.964-8.025
	c0.813-2.39,1.908-4.674,3.26-6.806c0.035-0.051,0.022-0.121-0.028-0.156c-0.001-0.001-0.003-0.002-0.004-0.003
	c-4.795-4.1-10.15-7.951-10.961-14.707c-0.674-5.617,2.313-11.273,6.206-15.164c1.762-1.818,3.978-3.133,6.419-3.807
	c2.947-0.761,5.812-0.3,8.741,0.3c3.254,0.66,6.495,1.425,9.776,1.952c1.857,0.367,3.758,0.461,5.643,0.28
	c3.03-0.408,4.558-2.442,5.058-5.353c0.312-2.591,0.396-5.204,0.256-7.81c-0.019-3.712,0.029-7.423,0.026-11.135
	c0-7.255-0.121-14.367-2.332-21.344c-2.062-6.506-6.289-12.34-7.601-19.077c-1.215-6.241,1.16-11.861,5.67-16.176
	c2.888-2.762,6.041-5.243,9.006-7.92C967.933,73.569,969.313,71.003,968.248,67.76z M745.715,134.78
	c0.34,0.54,0.895,0.91,1.523,1.015c1.228,0.241,2.481,0.325,3.729,0.253c0.255,0.012,0.528-0.047,0.554-0.205l0.002,0.001
	c0.346-2.171,0.724-4.337,1.05-6.512c0.314-1.623,0.448-3.275,0.4-4.927c0.001-0.916-0.312-1.805-0.887-2.517
	c-0.602-0.551-1.397-0.839-2.212-0.8c-1.364,0.057-2.702,0.387-3.936,0.97c-0.053,0.021-0.146,0.07-0.146,0.141
	c0.005,1.925,0.146,3.849,0.119,5.774c-0.021,1.52-0.295,3-0.425,4.506C745.349,133.253,745.428,134.049,745.715,134.78z
	 M862.504,16.998c1.19,0.804,2.604,1.214,4.041,1.172c1.801,0.078,3.604-0.11,5.351-0.559c1.742-0.452,3.405-1.165,4.935-2.114
	c1.286-0.8,3.045-1.831,3.455-3.405c0.489-1.875-1.301-2.952-2.743-3.621c-2.068-0.961-4.268-1.59-6.4-2.391
	c-0.05-0.019-0.131-0.02-0.219-0.013c-0.245-0.011-0.53,0.042-0.603,0.176l-0.175,0.327c-0.959,0.137-1.918,0.271-2.876,0.41
	c-0.922,0.099-1.837,0.262-2.736,0.489c-1.233,0.323-2.302,1.096-2.994,2.166C860.205,11.829,860.387,15.362,862.504,16.998z
	 M887.556,15.416c1.088,0.745,2.263,1.353,3.5,1.81c2.438,0.882,5.062,1.117,7.618,0.683c3.247-0.618,6.461-1.397,9.63-2.337
	c3.313-0.9,6.606-1.881,9.899-2.864c0.941-0.263,1.752-0.866,2.274-1.691c0.24-0.297,0.408-0.646,0.489-1.02
	c0.038-0.438-0.374-0.9-0.618-1.228c-0.423-0.598-0.953-1.112-1.564-1.516c-0.604-0.33-1.268-0.534-1.952-0.6
	c-1.828-0.314-3.662-0.6-5.5-0.863c-3.32-0.479-6.651-0.891-9.979-1.343c-0.046-0.01-0.089-0.016-0.121-0.018
	c-5.056-0.3-10.382-0.12-14.765,2.725c-1.106,0.587-2.023,1.475-2.645,2.562c-0.396,1.021-0.169,2.177,0.582,2.973
	C885.317,13.747,886.378,14.665,887.556,15.416z M655.744,169.385c1.119,0.011,2.301,0.122,3.412,0.037
	c0.664-0.052,0.9-0.923,1.219-1.412c0.483-0.727,1.07-1.38,1.742-1.938c1.318-1.046,2.836-1.812,4.46-2.251
	c1.526-0.377,3-0.944,4.387-1.687c2.375-1.439,4.141-3.7,4.964-6.353c1.132-3.46,0.966-7.229,0.91-10.82
	c-0.016-1.063-0.031-2.126-0.036-3.19c1.773,1.118,3.229,2.682,4.216,4.542c0.744,1.718,0.74,3.668-0.011,5.384
	c-0.985,2.392-2.915,4.1-4.582,6c-1.859,2.126-3.56,4.385-5.2,6.681c-0.722,1.182-1.189,2.502-1.372,3.875
	c-0.368,1.6-1,3.161-1.526,4.72c-0.059,0.171,0.314,0.315,0.41,0.347c1.638,0.555,3.311,1.8,5.123,1.454
	c2.414-0.462,4.812-1.064,7.209-1.607c4.801-1.087,9.601-2.211,14.374-3.407c2.429-0.608,4.851-1.235,7.267-1.883
	c1.75-0.47,3.623-0.821,4.919-2.194c2.256-2.387,1.568-6.21,0.122-8.829c-1.677-3.032-4.776-4.734-7.794-6.179
	c-1.5-0.72-3.369-1.891-3.951-3.558c-0.108-0.41-0.16-0.833-0.152-1.257c-0.032-0.566-0.081-1.13-0.145-1.694
	c-0.122-1.11-0.3-2.215-0.526-3.309c-0.992-4.333-2.477-8.538-4.425-12.533c-0.462-1-0.935-1.996-1.416-2.988
	c-0.367-0.853-0.796-1.677-1.282-2.467c-0.962-1.42-2.261-2.58-3.781-3.374c-3.028-1.539-6.399,0.3-8.5,2.575
	c-1.219,1.323-2.163,2.875-2.777,4.565c-0.585,1.856-0.83,3.803-0.725,5.746c0.008,1.144,0.041,2.288,0.046,3.437
	c-2.906-0.342-5.853,0.124-8.508,1.363c-1.305,0.677-2.461,1.607-3.4,2.738c-0.483,0.582-0.915,1.205-1.291,1.861
	c-0.416,0.72-0.708,1.5-1.135,2.216c-0.731,1.199-2.012,1.956-3.415,2.017c-1.549,0.111-3.057,0.554-4.419,1.3
	c-2.204,1.276-3.052,4.036-1.941,6.329c0.33,0.724,0.731,1.413,1.199,2.057c0.065,0.094,0.236,0.248,0.252,0.36
	c-0.053,0.207-0.126,0.408-0.218,0.6c-0.164,0.5-0.338,1.005-0.514,1.5c-0.726,1.745-1.227,3.574-1.491,5.445
	c-0.079,1.441,0.314,2.868,1.122,4.064c0.89,1.332,2.582,1.429,4.054,1.577C653.656,169.345,654.701,169.374,655.744,169.385z
	 M741.276,225.345c0.826-1.234,2.222-3.058,1.167-4.513c-1.17-1.454-3.179-1.927-4.874-1.147c-0.753,0.482-1.372,1.146-1.8,1.932
	c-0.592,0.975-1.101,1.998-1.521,3.059c-1.025,2.479-1.385,5.184-1.041,7.844c0.237,2.317,1.164,4.509,2.661,6.293
	c1.381,1.424,3.187,2.361,5.146,2.669c1.562,0.283,3.412,0.352,4.752-0.644s1.687-2.8,1.717-4.383
	c0.094-2.24-0.399-4.466-1.43-6.457C744.913,228.041,743.257,226.44,741.276,225.345z M675.849,141.084
	c0-0.001,0.002-0.002,0.002-0.003c0,0,0,0,0-0.001L675.849,141.084z M781.393,220.346c-2.254-0.621-4.54-1.118-6.848-1.49
	c-2.391-0.462-4.781-0.927-7.175-1.379c-2.824-0.533-5.648-1.065-8.473-1.594c-0.001,0-0.003,0-0.005,0
	c-0.125-0.029-0.253-0.038-0.381-0.015c-0.096,0.018-0.359,0.115-0.213,0.238c0.015,0.029,0.045,0.058,0.107,0.083
	c5.505,3.656,11.009,7.311,16.516,10.964c0.165,0.111,0.778,0.283,0.914,0.034c0.365-0.825,1.013-1.494,1.824-1.887
	c0.682-0.188,1.406-0.126,2.047,0.172c1.362,0.629,2.773,1.148,4.22,1.551c0.149,0.028,0.522,0.078,0.625-0.084
	c0.745-1.168,1.399-2.655,0.769-4.017C784.629,221.434,782.845,220.795,781.393,220.346z M767.353,212.52
	c2.224,0.487,4.483,0.791,6.757,0.907c0.136,0.009,0.555,0.026,0.613-0.15c0.006-0.017-0.005-0.028-0.005-0.043
	c0.008-0.019,0.004-0.039-0.007-0.06c-0.003-0.005-0.006-0.01-0.01-0.015c-0.009-0.012-0.009-0.023-0.025-0.035h-0.009
	c-3.4-2.568-7.024-4.955-10.08-7.938c-1.292-1.392-2.69-2.681-4.183-3.856c-1.439-1.022-3.399-1.117-5.057-1.587
	c-0.091-0.026-0.818-0.046-0.749,0.185c0.787,3.168,2.371,6.083,4.6,8.467C761.485,210.494,764.307,211.921,767.353,212.52z
	 M750.661,24.6c1.313,4.206,3.726,7.984,6.985,10.948c1.598,1.558,3.49,2.782,5.566,3.6c1.878,0.614,3.895,0.662,5.8,0.138
	c1.904-0.525,3.614-1.591,4.924-3.07c1.709-1.921,2.248-4.283,3.085-6.645c0.413-1.228,1.044-2.373,1.862-3.378
	c0.376-0.496,0.854-0.908,1.399-1.207c0.601-0.283,1.213,0.095,1.736,0.413c2.208,1.347,3.977,3.241,6.032,4.783
	c1.5,1.125,3.636,2.192,5.443,1.063c2-1.251,1.189-4.086,0.587-5.884c-0.441-1.311-0.999-2.579-1.443-3.888
	c1.929-0.888,4.168-1.395,5.634-3.037c0.725-0.865,1.233-1.89,1.484-2.991c0.142-0.545,0.229-1.103,0.261-1.666
	c0.082-0.405,0.031-0.826-0.144-1.2c-0.589-0.589-1.329-1.003-2.14-1.195c-1.038-0.36-2.11-0.611-3.2-0.751
	c-3.003-0.408-6.03-0.611-9.061-0.607c-6.077,0.104-12.145,0.537-18.175,1.297c-3,0.32-6,0.636-9.009,0.86
	c-1.522,0.114-3.047,0.2-4.572,0.258c-1.025-0.042-2.046,0.172-2.969,0.62c-1.837,1.054-1.7,3.1-1.488,4.933
	C749.51,20.237,749.979,22.449,750.661,24.6z M643.561,81.382c-1.548-0.7-3.225-1.069-4.923-1.085c-0.9,0.057-1.8,0.262-2.7,0.386
	c-1.054,0.146-2.111,0.274-3.171,0.384c-2.07,0.214-4.146,0.35-6.229,0.406c-4.029,0.114-8.062-0.091-12.061-0.613
	c-1.927-0.367-3.881-0.577-5.842-0.626c-1.524-0.037-3.037,0.259-4.436,0.867c-2.287,1.172-2.857,3.617-2.438,5.995
	c0.397,2.979,2.549,5.425,5.453,6.2c2.098,0.492,4.222,0.862,6.362,1.106c2.217,0.316,4.438,0.598,6.655,0.921
	c0.014,0.003,0.027,0.003,0.041,0.006c0.035,0.005,0.07,0.01,0.105,0.015c0.067,0.009,0.176,0.013,0.264-0.01
	c4.027-0.498,8.067-0.897,12.091-1.416c2.013-0.262,4.025-0.549,6.022-0.91c1.297-0.234,2.507-0.815,3.5-1.682
	c2.14-1.767,3.391-4.388,3.419-7.163C645.614,82.888,644.774,81.782,643.561,81.382z M791.614,21.458c0-0.001,0.001-0.001,0-0.002
	c0,0,0-0.001,0-0.001V21.458z"/>
</svg>
