<?xml version="1.0" encoding="utf-8"?>
<!-- Generator: Adobe Illustrator 16.0.4, SVG Export Plug-In . SVG Version: 6.00 Build 0)  -->
<!DOCTYPE svg PUBLIC "-//W3C//DTD SVG 1.1//EN" "http://www.w3.org/Graphics/SVG/1.1/DTD/svg11.dtd">
<svg version="1.1" id="Layer_1" xmlns="http://www.w3.org/2000/svg" xmlns:xlink="http://www.w3.org/1999/xlink" x="0px" y="0px"
	 width="1595.342px" height="813.037px" viewBox="0 0 1595.342 813.037" enable-background="new 0 0 1595.342 813.037"
	 xml:space="preserve">
<path d="M804.877,393.976c0.594,0.649,1.436,1.016,2.313,1h0.115c0.877,0.018,1.717-0.35,2.305-1
	c1.25-1.407,1.051-3.812,1.021-4.051c0.097-1.794-1.28-3.325-3.073-3.421c-0.078-0.004-0.156-0.006-0.236-0.004h-0.146
	c-1.801-0.033-3.286,1.398-3.319,3.201c-0.002,0.073-0.002,0.147,0.002,0.224C803.832,390.164,803.625,392.567,804.877,393.976z
	 M804.854,390.007v-0.033c-0.117-1.255,0.806-2.366,2.061-2.482c0.09-0.01,0.181-0.014,0.271-0.011h0.141
	c1.261-0.031,2.309,0.964,2.341,2.225c0.002,0.091-0.002,0.182-0.011,0.271v0.033c0.142,1.161-0.137,2.334-0.78,3.31
	c-0.41,0.449-0.998,0.694-1.605,0.667h-0.024c-0.605,0.027-1.194-0.218-1.604-0.667
	C804.637,392.198,804.854,390.032,804.854,390.007z M813.322,398.932c-0.249-0.266-0.524-0.508-0.818-0.725
	c-0.897-0.64-1.864-1.176-2.884-1.602c-0.209-0.083-0.448-0.017-0.584,0.165l-1.771,2.438l-1.771-2.438
	c-0.133-0.186-0.375-0.255-0.584-0.165c-0.934,0.388-1.823,0.866-2.659,1.434c-0.009,0-0.009,0.008-0.017,0.016
	c-0.842-0.57-1.737-1.057-2.676-1.448c-0.211-0.083-0.449-0.017-0.586,0.164l-1.794,2.445l-1.771-2.438
	c-0.132-0.186-0.375-0.253-0.585-0.163c-0.938,0.392-1.835,0.877-2.676,1.446c-0.008,0-0.008-0.008-0.016-0.016
	c-0.834-0.566-1.727-1.048-2.659-1.434c-0.21-0.084-0.45-0.018-0.585,0.164l-1.771,2.438l-1.77-2.438
	c-0.132-0.186-0.375-0.253-0.585-0.164c-1.019,0.423-1.985,0.959-2.883,1.601c-0.294,0.217-0.569,0.459-0.822,0.725
	c-0.156,0.155-0.626,0.626-0.553,3.152c0.008,1.169,0.142,2.334,0.4,3.475c0.415,1.269,0.953,2.491,1.605,3.654
	c0.211,0.481,0.347,0.992,0.399,1.516l1.5,14.681c0.068,0.721,0.675,1.271,1.4,1.268h2.584c0.725,0.004,1.332-0.547,1.399-1.268
	l1.5-14.674c0.056-0.522,0.19-1.034,0.4-1.518c0.049-0.082,0.222-0.411,0.453-0.854c0.222,0.443,0.4,0.771,0.453,0.854
	c0.212,0.481,0.347,0.992,0.4,1.518l1.5,14.679c0.067,0.721,0.676,1.271,1.399,1.269h2.584c0.727,0.004,1.332-0.548,1.4-1.269
	l1.5-14.679c0.057-0.522,0.189-1.034,0.398-1.518c0.05-0.091,0.231-0.411,0.452-0.854c0.225,0.452,0.4,0.771,0.453,0.854
	c0.213,0.481,0.349,0.992,0.4,1.518l1.5,14.679c0.067,0.721,0.676,1.271,1.399,1.269h2.584c0.726,0.004,1.332-0.548,1.4-1.269
	l1.5-14.679c0.055-0.522,0.188-1.034,0.399-1.518c0.65-1.162,1.188-2.388,1.604-3.654c0.258-1.145,0.4-2.311,0.429-3.48
	C813.948,399.558,813.477,399.088,813.322,398.932z M790.831,408.761c-0.008,0.017-0.016,0.025-0.024,0.041
	c-0.255,0.581-0.418,1.197-0.486,1.828l-1.5,14.679c-0.023,0.216-0.204,0.377-0.42,0.379h-2.583
	c-0.215-0.002-0.396-0.163-0.42-0.379l-1.503-14.679c-0.065-0.631-0.229-1.248-0.486-1.828c-0.008-0.016-0.016-0.024-0.024-0.041
	c-0.613-1.104-1.123-2.261-1.523-3.458c-0.239-1.062-0.374-2.146-0.4-3.235c-0.118-0.821-0.024-1.66,0.272-2.438
	c0.218-0.229,0.455-0.438,0.708-0.626c0.729-0.513,1.503-0.956,2.313-1.325l1.943,2.667c0.091,0.131,0.241,0.208,0.4,0.206
	c0.158-0.001,0.307-0.078,0.399-0.206l1.943-2.667c0.657,0.294,1.29,0.639,1.894,1.029l-0.222,0.222
	c-0.156,0.156-0.626,0.626-0.552,3.153c0.019,1.173,0.162,2.34,0.428,3.479c0.164,0.563,0.367,1.113,0.609,1.647
	C791.219,408.061,790.831,408.753,790.831,408.761z M802.424,405.303c-0.402,1.196-0.912,2.354-1.523,3.458
	c-0.008,0.017-0.016,0.025-0.023,0.041c-0.255,0.581-0.418,1.197-0.485,1.828l-1.5,14.679c-0.023,0.216-0.203,0.377-0.42,0.38
	h-2.583c-0.216-0.003-0.396-0.164-0.42-0.38l-1.5-14.679c-0.065-0.631-0.229-1.248-0.486-1.828
	c-0.008-0.016-0.016-0.024-0.025-0.041c-0.614-1.103-1.125-2.26-1.522-3.458c-0.24-1.062-0.374-2.146-0.4-3.235
	c-0.118-0.82-0.026-1.658,0.264-2.438c0.218-0.229,0.455-0.438,0.708-0.626c0.734-0.512,1.515-0.955,2.33-1.325l1.942,2.667
	c0.091,0.131,0.241,0.208,0.4,0.206c0.159,0,0.308-0.077,0.399-0.206l1.943-2.667c0.813,0.361,1.59,0.806,2.313,1.325
	c0.253,0.188,0.489,0.396,0.706,0.626c0.291,0.777,0.382,1.615,0.266,2.438C802.789,403.156,802.66,404.24,802.424,405.303z
	 M812.895,402.067c-0.021,1.091-0.156,2.175-0.399,3.235c-0.4,1.196-0.91,2.354-1.521,3.458c-0.009,0.017-0.017,0.025-0.025,0.041
	c-0.254,0.581-0.418,1.197-0.483,1.828l-1.5,14.679c-0.025,0.216-0.205,0.377-0.42,0.379h-2.578
	c-0.215-0.002-0.396-0.163-0.42-0.379l-1.5-14.679c-0.064-0.631-0.229-1.248-0.484-1.828c-0.01-0.016-0.018-0.024-0.023-0.041
	c-0.012-0.016-0.389-0.7-0.783-1.548c0.24-0.534,0.443-1.085,0.607-1.646c0.259-1.145,0.402-2.311,0.43-3.48
	c0.072-2.527-0.399-3-0.553-3.153l-0.223-0.222c0.609-0.387,1.244-0.729,1.9-1.029l1.94,2.667c0.092,0.131,0.242,0.208,0.399,0.206
	c0.158-0.001,0.308-0.078,0.399-0.206l1.942-2.667c0.814,0.363,1.59,0.809,2.314,1.325c0.253,0.188,0.489,0.396,0.706,0.626
	C812.916,400.408,813.009,401.246,812.895,402.067z M794.809,393.976c0.59,0.648,1.429,1.013,2.305,1h0.115
	c0.876,0.018,1.716-0.35,2.305-1c1.252-1.407,1.047-3.812,1.021-4.051c0.098-1.792-1.277-3.324-3.07-3.421
	c-0.077-0.004-0.154-0.006-0.23-0.004h-0.148c-1.801-0.033-3.288,1.398-3.321,3.201c-0.001,0.073,0,0.147,0.003,0.224
	C793.763,390.164,793.557,392.567,794.809,393.976z M794.776,390.007v-0.033c-0.117-1.255,0.805-2.366,2.061-2.482
	c0.09-0.01,0.18-0.014,0.271-0.011h0.14c1.261-0.031,2.309,0.964,2.34,2.225c0.002,0.091-0.001,0.182-0.01,0.271v0.033
	c0.14,1.161-0.14,2.334-0.782,3.31c-0.41,0.449-0.998,0.694-1.605,0.667h-0.025c-0.607,0.027-1.195-0.218-1.604-0.667
	C794.558,392.198,794.776,390.032,794.776,390.007z M784.734,393.968c0.586,0.653,1.428,1.02,2.305,1h0.115
	c0.876,0.02,1.716-0.347,2.3-1c1.254-1.399,1.049-3.804,1.023-4.043c0.099-1.79-1.271-3.321-3.062-3.421
	c-0.078-0.004-0.158-0.006-0.238-0.004h-0.153c-1.799-0.031-3.283,1.402-3.314,3.201c-0.001,0.071,0,0.144,0.003,0.216
	C783.688,390.156,783.482,392.56,784.734,393.968z M784.705,390.007v-0.033c-0.117-1.255,0.806-2.366,2.06-2.482
	c0.09-0.01,0.181-0.014,0.271-0.011h0.141c1.26-0.031,2.308,0.964,2.339,2.225c0.002,0.091,0,0.182-0.009,0.271v0.033
	c0.14,1.161-0.139,2.334-0.783,3.31c-0.41,0.448-0.998,0.692-1.605,0.667h-0.024c-0.608,0.027-1.196-0.218-1.605-0.667
	C784.847,392.339,784.571,391.168,784.705,390.007z"/>
<path d="M873.869,134.585c0.595,0.649,1.437,1.015,2.314,1h0.115c0.877,0.017,1.717-0.35,2.305-1c1.25-1.408,1.051-3.812,1.02-4.051
	c0.099-1.794-1.278-3.325-3.071-3.421c-0.078-0.004-0.156-0.006-0.236-0.004h-0.147c-1.802-0.033-3.285,1.398-3.318,3.201
	c-0.002,0.073-0.002,0.148,0.002,0.224C872.824,130.773,872.617,133.177,873.869,134.585z M873.847,130.616v-0.033
	c-0.117-1.255,0.805-2.367,2.061-2.483c0.088-0.01,0.181-0.013,0.271-0.011h0.141c1.26-0.031,2.307,0.964,2.34,2.225
	c0.002,0.091-0.002,0.182-0.01,0.271v0.033c0.141,1.161-0.137,2.334-0.781,3.309c-0.41,0.45-0.998,0.695-1.604,0.667h-0.025
	c-0.604,0.028-1.194-0.217-1.604-0.667C873.63,132.808,873.847,130.642,873.847,130.616z M863.802,134.585
	c0.59,0.648,1.429,1.012,2.305,1h0.115c0.877,0.017,1.717-0.35,2.305-1c1.252-1.408,1.047-3.812,1.021-4.051
	c0.098-1.792-1.277-3.324-3.07-3.421c-0.076-0.004-0.154-0.006-0.23-0.004H866.1c-1.801-0.033-3.288,1.398-3.32,3.201
	c-0.002,0.073,0,0.148,0.002,0.224C862.756,130.773,862.55,133.177,863.802,134.585z M863.769,130.616v-0.033
	c-0.117-1.255,0.805-2.367,2.061-2.483c0.091-0.01,0.181-0.013,0.271-0.011h0.14c1.26-0.031,2.31,0.964,2.34,2.225
	c0.002,0.091-0.002,0.182-0.01,0.271v0.033c0.139,1.161-0.139,2.334-0.783,3.309c-0.409,0.45-0.998,0.695-1.604,0.667h-0.024
	c-0.607,0.028-1.196-0.217-1.604-0.667C863.551,132.808,863.769,130.642,863.769,130.616z M853.727,134.577
	c0.586,0.653,1.429,1.019,2.306,1h0.114c0.876,0.019,1.716-0.347,2.3-1c1.254-1.4,1.049-3.804,1.023-4.043
	c0.1-1.79-1.271-3.321-3.062-3.421c-0.078-0.004-0.157-0.006-0.237-0.004h-0.153c-1.799-0.031-3.282,1.402-3.313,3.201
	c-0.002,0.071,0,0.144,0.002,0.216C852.681,130.766,852.475,133.169,853.727,134.577z M853.698,130.616v-0.033
	c-0.117-1.255,0.807-2.367,2.061-2.483c0.09-0.01,0.181-0.013,0.271-0.011h0.142c1.26-0.031,2.308,0.964,2.339,2.225
	c0.002,0.091,0,0.182-0.009,0.271v0.033c0.14,1.161-0.14,2.334-0.783,3.309c-0.41,0.449-0.998,0.693-1.605,0.667h-0.024
	c-0.607,0.028-1.195-0.217-1.604-0.667C853.84,132.948,853.564,131.777,853.698,130.616z M882.318,139.54
	c-0.252-0.265-0.526-0.507-0.822-0.724c-0.896-0.64-1.862-1.176-2.883-1.602c-0.209-0.083-0.449-0.016-0.584,0.165l-1.77,2.438
	l-1.771-2.438c-0.133-0.185-0.375-0.254-0.584-0.165c-0.934,0.388-1.824,0.867-2.66,1.434c-0.008,0-0.008,0.008-0.016,0.016
	c-0.842-0.571-1.738-1.057-2.676-1.449c-0.211-0.083-0.449-0.016-0.586,0.165l-1.795,2.445l-1.771-2.438
	c-0.133-0.185-0.375-0.253-0.586-0.163c-0.938,0.392-1.835,0.877-2.676,1.447c-0.008,0-0.008-0.008-0.017-0.016
	c-0.834-0.567-1.727-1.048-2.658-1.434c-0.21-0.084-0.45-0.017-0.585,0.164l-1.771,2.438l-1.771-2.438
	c-0.133-0.185-0.375-0.253-0.586-0.164c-1.018,0.423-1.984,0.959-2.883,1.601c-0.293,0.217-0.568,0.459-0.821,0.724
	c-0.156,0.156-0.626,0.626-0.554,3.153c0.008,1.169,0.143,2.334,0.4,3.474c0.415,1.269,0.953,2.492,1.604,3.655
	c0.212,0.481,0.348,0.992,0.4,1.515l1.5,14.681c0.067,0.721,0.674,1.271,1.399,1.268h2.584c0.726,0.003,1.332-0.547,1.398-1.268
	l1.5-14.674c0.057-0.522,0.19-1.034,0.4-1.517c0.049-0.082,0.223-0.412,0.453-0.854c0.223,0.443,0.399,0.772,0.453,0.854
	c0.212,0.481,0.347,0.992,0.399,1.517l1.5,14.679c0.067,0.721,0.676,1.271,1.399,1.268h2.585c0.725,0.004,1.332-0.547,1.399-1.268
	l1.5-14.679c0.058-0.522,0.189-1.034,0.398-1.517c0.049-0.091,0.232-0.412,0.453-0.854c0.223,0.452,0.4,0.772,0.453,0.854
	c0.213,0.481,0.348,0.992,0.399,1.517l1.5,14.679c0.068,0.721,0.677,1.271,1.4,1.268h2.584c0.725,0.004,1.332-0.547,1.4-1.268
	l1.5-14.679c0.055-0.522,0.188-1.034,0.397-1.517c0.652-1.163,1.189-2.388,1.605-3.655c0.258-1.144,0.399-2.31,0.428-3.479
	C882.945,140.166,882.474,139.696,882.318,139.54z M859.824,149.37c-0.008,0.016-0.017,0.025-0.024,0.041
	c-0.255,0.581-0.418,1.197-0.486,1.828l-1.5,14.679c-0.023,0.215-0.203,0.377-0.42,0.379h-2.583
	c-0.215-0.002-0.396-0.164-0.42-0.379l-1.503-14.679c-0.064-0.631-0.229-1.248-0.486-1.828c-0.008-0.016-0.016-0.025-0.024-0.041
	c-0.612-1.104-1.122-2.261-1.522-3.458c-0.239-1.062-0.374-2.146-0.399-3.236c-0.118-0.821-0.024-1.66,0.271-2.437
	c0.219-0.229,0.455-0.438,0.708-0.626c0.729-0.513,1.503-0.956,2.312-1.325l1.943,2.667c0.092,0.131,0.241,0.208,0.4,0.206
	c0.157-0.001,0.307-0.078,0.399-0.206l1.942-2.667c0.657,0.294,1.29,0.638,1.894,1.029l-0.222,0.222
	c-0.155,0.156-0.626,0.626-0.552,3.153c0.02,1.173,0.162,2.34,0.428,3.48c0.164,0.563,0.367,1.113,0.609,1.647
	C860.212,148.67,859.824,149.362,859.824,149.37z M871.416,145.912c-0.401,1.196-0.911,2.354-1.522,3.458
	c-0.008,0.016-0.016,0.025-0.025,0.041c-0.254,0.581-0.418,1.197-0.483,1.828l-1.5,14.679c-0.023,0.215-0.203,0.377-0.42,0.379
	h-2.583c-0.217-0.002-0.396-0.164-0.421-0.379l-1.5-14.679c-0.064-0.631-0.229-1.248-0.485-1.828
	c-0.008-0.016-0.018-0.025-0.024-0.041c-0.614-1.103-1.125-2.26-1.522-3.458c-0.24-1.062-0.374-2.146-0.4-3.236
	c-0.117-0.82-0.026-1.658,0.264-2.437c0.219-0.229,0.455-0.438,0.707-0.626c0.736-0.512,1.517-0.955,2.33-1.325l1.943,2.667
	c0.092,0.131,0.241,0.208,0.4,0.206c0.157,0,0.308-0.077,0.399-0.206l1.943-2.667c0.812,0.361,1.59,0.805,2.312,1.325
	c0.254,0.188,0.49,0.396,0.707,0.626c0.291,0.777,0.381,1.615,0.267,2.437C871.781,143.766,871.654,144.85,871.416,145.912z
	 M881.888,142.677c-0.021,1.091-0.156,2.175-0.4,3.236c-0.399,1.196-0.91,2.354-1.521,3.458c-0.011,0.016-0.019,0.025-0.025,0.041
	c-0.254,0.581-0.418,1.197-0.484,1.828l-1.5,14.679c-0.024,0.215-0.205,0.377-0.42,0.379h-2.578
	c-0.215-0.002-0.395-0.164-0.42-0.379l-1.5-14.679c-0.063-0.631-0.229-1.248-0.483-1.828c-0.01-0.016-0.019-0.025-0.025-0.041
	c-0.01-0.016-0.387-0.7-0.783-1.548c0.242-0.534,0.445-1.085,0.609-1.647c0.258-1.144,0.402-2.31,0.428-3.48
	c0.074-2.527-0.397-3-0.551-3.153l-0.223-0.222c0.608-0.387,1.243-0.73,1.899-1.029l1.941,2.667
	c0.092,0.131,0.242,0.208,0.397,0.206c0.16-0.001,0.31-0.078,0.4-0.206l1.943-2.667c0.813,0.363,1.59,0.808,2.313,1.325
	c0.252,0.188,0.49,0.396,0.707,0.626C881.908,141.018,882,141.855,881.888,142.677z"/>
<path d="M225.296,183.78c0.594,0.649,1.436,1.015,2.313,1h0.115c0.877,0.017,1.717-0.35,2.305-1c1.25-1.408,1.052-3.812,1.021-4.051
	c0.098-1.794-1.279-3.325-3.072-3.421c-0.078-0.004-0.156-0.006-0.235-0.004h-0.148c-1.801-0.033-3.285,1.398-3.318,3.201
	c-0.002,0.073-0.002,0.148,0.002,0.224C224.251,179.969,224.044,182.372,225.296,183.78z M225.273,179.812v-0.033
	c-0.117-1.255,0.806-2.367,2.062-2.483c0.088-0.01,0.18-0.013,0.27-0.011h0.142c1.26-0.031,2.307,0.964,2.34,2.225
	c0.002,0.091-0.002,0.182-0.01,0.271v0.033c0.141,1.161-0.138,2.334-0.781,3.309c-0.41,0.45-0.998,0.695-1.605,0.667h-0.024
	c-0.605,0.028-1.195-0.217-1.604-0.667C225.056,182.003,225.273,179.837,225.273,179.812z M233.734,188.737
	c-0.242-0.266-0.518-0.508-0.812-0.725c-0.896-0.64-1.863-1.176-2.883-1.602c-0.209-0.083-0.449-0.016-0.584,0.165l-1.771,2.438
	l-1.771-2.438c-0.134-0.185-0.375-0.254-0.584-0.165c-0.935,0.388-1.824,0.867-2.66,1.434c-0.008,0-0.008,0.008-0.017,0.016
	c-0.842-0.571-1.737-1.057-2.676-1.449c-0.211-0.083-0.449-0.016-0.586,0.165l-1.795,2.445l-1.77-2.438
	c-0.134-0.185-0.375-0.253-0.586-0.163c-0.938,0.392-1.836,0.877-2.677,1.447c-0.008,0-0.008-0.008-0.016-0.016
	c-0.834-0.567-1.728-1.048-2.659-1.434c-0.21-0.084-0.45-0.017-0.585,0.164l-1.77,2.438l-1.771-2.438
	c-0.132-0.185-0.375-0.253-0.585-0.164c-1.018,0.423-1.985,0.959-2.883,1.601c-0.293,0.217-0.569,0.459-0.822,0.724
	c-0.156,0.156-0.626,0.626-0.553,3.153c0.008,1.169,0.142,2.334,0.399,3.474c0.415,1.269,0.953,2.492,1.605,3.655
	c0.211,0.481,0.347,0.992,0.4,1.515l1.5,14.681c0.066,0.721,0.674,1.271,1.398,1.268h2.584c0.727,0.003,1.332-0.547,1.399-1.268
	l1.5-14.674c0.056-0.522,0.189-1.034,0.399-1.517c0.049-0.082,0.224-0.412,0.453-0.854c0.224,0.443,0.4,0.772,0.453,0.854
	c0.212,0.481,0.347,0.992,0.4,1.517l1.5,14.679c0.066,0.721,0.676,1.271,1.398,1.268h2.585c0.726,0.004,1.332-0.547,1.4-1.268
	l1.5-14.679c0.057-0.522,0.188-1.034,0.397-1.517c0.05-0.091,0.232-0.412,0.453-0.854c0.224,0.452,0.4,0.772,0.453,0.854
	c0.213,0.481,0.349,0.992,0.4,1.517l1.5,14.679c0.067,0.721,0.676,1.271,1.399,1.268h2.584c0.726,0.004,1.332-0.547,1.4-1.268
	l1.5-14.679c0.055-0.522,0.188-1.034,0.397-1.517c0.652-1.163,1.189-2.388,1.605-3.655c0.258-1.144,0.4-2.31,0.428-3.48
	C234.361,189.363,233.89,188.893,233.734,188.737z M211.251,198.565c-0.008,0.016-0.018,0.025-0.025,0.041
	c-0.255,0.581-0.418,1.197-0.485,1.828l-1.5,14.679c-0.023,0.215-0.203,0.377-0.421,0.379h-2.583
	c-0.215-0.002-0.396-0.164-0.42-0.379l-1.503-14.679c-0.063-0.631-0.229-1.248-0.485-1.828c-0.009-0.016-0.017-0.025-0.025-0.041
	c-0.612-1.104-1.122-2.261-1.521-3.458c-0.239-1.062-0.374-2.146-0.399-3.236c-0.119-0.821-0.025-1.66,0.271-2.437
	c0.22-0.229,0.455-0.438,0.708-0.626c0.729-0.513,1.504-0.956,2.313-1.325l1.943,2.667c0.092,0.131,0.24,0.208,0.399,0.206
	c0.158-0.001,0.308-0.078,0.4-0.206l1.941-2.667c0.657,0.294,1.29,0.638,1.895,1.029l-0.223,0.222
	c-0.154,0.156-0.626,0.626-0.552,3.153c0.021,1.173,0.162,2.34,0.429,3.48c0.163,0.563,0.366,1.113,0.608,1.647
	C211.638,197.865,211.251,198.558,211.251,198.565z M222.843,195.107c-0.402,1.196-0.912,2.354-1.523,3.458
	c-0.008,0.016-0.016,0.025-0.024,0.041c-0.254,0.581-0.418,1.197-0.484,1.828l-1.5,14.679c-0.022,0.215-0.203,0.377-0.42,0.379
	h-2.583c-0.216-0.002-0.396-0.164-0.421-0.379l-1.5-14.679c-0.063-0.631-0.229-1.248-0.485-1.828
	c-0.008-0.016-0.017-0.025-0.023-0.041c-0.615-1.103-1.125-2.26-1.523-3.458c-0.239-1.062-0.374-2.146-0.399-3.236
	c-0.117-0.82-0.027-1.658,0.264-2.437c0.218-0.229,0.455-0.438,0.707-0.626c0.736-0.512,1.516-0.955,2.33-1.325l1.943,2.667
	c0.092,0.131,0.24,0.208,0.399,0.206c0.158,0,0.309-0.077,0.4-0.206l1.942-2.667c0.812,0.361,1.591,0.805,2.312,1.325
	c0.254,0.188,0.49,0.396,0.707,0.626c0.291,0.777,0.381,1.615,0.266,2.437C223.208,192.961,223.079,194.045,222.843,195.107z
	 M233.314,191.872c-0.021,1.091-0.155,2.175-0.399,3.236c-0.4,1.196-0.91,2.354-1.521,3.458c-0.01,0.016-0.018,0.025-0.024,0.041
	c-0.255,0.581-0.418,1.197-0.484,1.828l-1.5,14.679c-0.025,0.215-0.205,0.377-0.42,0.379h-2.578
	c-0.215-0.002-0.395-0.164-0.42-0.379l-1.5-14.679c-0.064-0.631-0.229-1.248-0.484-1.828c-0.01-0.016-0.018-0.025-0.024-0.041
	c-0.01-0.016-0.388-0.7-0.783-1.548c0.242-0.534,0.445-1.085,0.609-1.647c0.258-1.144,0.401-2.31,0.428-3.48
	c0.074-2.527-0.398-3-0.551-3.153l-0.224-0.222c0.609-0.387,1.244-0.73,1.9-1.029l1.94,2.667c0.093,0.131,0.242,0.208,0.398,0.206
	c0.16-0.001,0.309-0.078,0.4-0.206l1.942-2.667c0.814,0.363,1.59,0.808,2.314,1.325c0.252,0.188,0.489,0.396,0.707,0.626
	C233.335,190.213,233.427,191.051,233.314,191.872z M215.228,183.78c0.59,0.648,1.43,1.012,2.306,1h0.114
	c0.877,0.017,1.717-0.35,2.306-1c1.252-1.408,1.047-3.812,1.021-4.051c0.098-1.792-1.277-3.324-3.07-3.421
	c-0.075-0.004-0.153-0.006-0.229-0.004h-0.148c-1.801-0.033-3.288,1.398-3.319,3.201c-0.002,0.073,0,0.148,0.002,0.224
	C214.182,179.969,213.976,182.372,215.228,183.78z M215.195,179.812v-0.033c-0.116-1.255,0.806-2.367,2.062-2.483
	c0.09-0.01,0.18-0.013,0.271-0.011h0.141c1.26-0.031,2.309,0.964,2.34,2.225c0.002,0.091-0.002,0.182-0.01,0.271v0.033
	c0.139,1.161-0.14,2.334-0.783,3.309c-0.41,0.45-0.998,0.695-1.604,0.667h-0.023c-0.608,0.028-1.197-0.217-1.605-0.667
	C214.977,182.003,215.195,179.837,215.195,179.812z M205.153,183.772c0.586,0.653,1.43,1.019,2.307,1h0.113
	c0.877,0.019,1.717-0.347,2.301-1c1.254-1.4,1.049-3.804,1.022-4.043c0.101-1.79-1.271-3.321-3.062-3.421
	c-0.078-0.004-0.158-0.006-0.238-0.004h-0.153c-1.799-0.031-3.281,1.402-3.312,3.201c-0.002,0.071,0,0.144,0.002,0.216
	C204.107,179.961,203.901,182.364,205.153,183.772z M205.124,179.812v-0.033c-0.117-1.255,0.806-2.367,2.06-2.483
	c0.09-0.01,0.181-0.013,0.271-0.011h0.141c1.26-0.031,2.308,0.964,2.339,2.225c0.002,0.091,0,0.182-0.009,0.271v0.033
	c0.14,1.161-0.139,2.334-0.783,3.309c-0.41,0.449-0.998,0.693-1.604,0.667h-0.025c-0.607,0.028-1.195-0.217-1.604-0.667
	C205.266,182.144,204.99,180.973,205.124,179.812z"/>
<path d="M378.308,536.399c-0.242-0.267-0.518-0.509-0.812-0.726c-0.896-0.64-1.863-1.176-2.884-1.602
	c-0.209-0.083-0.448-0.017-0.584,0.165l-1.77,2.438l-1.771-2.438c-0.133-0.186-0.375-0.254-0.584-0.165
	c-0.934,0.388-1.823,0.867-2.659,1.434c-0.009,0-0.009,0.008-0.017,0.017c-0.842-0.571-1.738-1.058-2.676-1.449
	c-0.211-0.083-0.449-0.017-0.586,0.165l-1.795,2.444l-1.771-2.438c-0.133-0.186-0.375-0.253-0.586-0.163
	c-0.938,0.392-1.835,0.877-2.676,1.447c-0.008,0-0.008-0.008-0.016-0.017c-0.834-0.566-1.728-1.048-2.659-1.434
	c-0.21-0.084-0.45-0.018-0.585,0.164l-1.771,2.438l-1.771-2.438c-0.132-0.186-0.375-0.253-0.585-0.164
	c-1.019,0.423-1.985,0.959-2.883,1.601c-0.293,0.218-0.569,0.459-0.822,0.725c-0.156,0.155-0.626,0.626-0.553,3.152
	c0.008,1.169,0.142,2.334,0.399,3.475c0.415,1.269,0.953,2.492,1.605,3.655c0.211,0.48,0.347,0.991,0.399,1.515l1.5,14.681
	c0.067,0.722,0.675,1.271,1.399,1.269h2.584c0.726,0.003,1.332-0.547,1.399-1.269l1.5-14.674c0.056-0.521,0.189-1.034,0.399-1.517
	c0.049-0.082,0.223-0.412,0.453-0.854c0.223,0.443,0.4,0.772,0.453,0.854c0.212,0.48,0.347,0.991,0.399,1.517l1.5,14.679
	c0.067,0.722,0.677,1.271,1.399,1.269h2.585c0.725,0.004,1.332-0.547,1.4-1.269l1.5-14.679c0.057-0.521,0.188-1.034,0.397-1.517
	c0.049-0.092,0.232-0.412,0.453-0.854c0.223,0.452,0.4,0.772,0.453,0.854c0.213,0.48,0.348,0.991,0.4,1.517l1.5,14.679
	c0.067,0.722,0.676,1.271,1.399,1.269h2.584c0.726,0.004,1.332-0.547,1.4-1.269l1.5-14.679c0.055-0.521,0.188-1.034,0.397-1.517
	c0.652-1.163,1.189-2.389,1.605-3.655c0.258-1.145,0.399-2.311,0.428-3.48C378.935,537.025,378.464,536.555,378.308,536.399z
	 M355.825,546.228c-0.009,0.017-0.018,0.025-0.025,0.041c-0.255,0.581-0.418,1.197-0.486,1.828l-1.5,14.68
	c-0.022,0.215-0.203,0.377-0.42,0.379h-2.583c-0.215-0.002-0.396-0.164-0.42-0.379l-1.503-14.68
	c-0.063-0.631-0.229-1.248-0.486-1.828c-0.008-0.016-0.016-0.024-0.024-0.041c-0.612-1.104-1.122-2.261-1.522-3.457
	c-0.238-1.062-0.374-2.146-0.398-3.236c-0.119-0.821-0.025-1.66,0.271-2.438c0.219-0.229,0.455-0.438,0.708-0.626
	c0.729-0.513,1.503-0.956,2.313-1.325l1.942,2.668c0.093,0.131,0.241,0.207,0.4,0.205c0.158-0.001,0.307-0.077,0.4-0.205
	l1.941-2.668c0.657,0.295,1.29,0.639,1.895,1.029l-0.223,0.223c-0.154,0.155-0.626,0.625-0.552,3.152
	c0.02,1.173,0.162,2.34,0.428,3.48c0.164,0.562,0.367,1.112,0.609,1.646C356.212,545.527,355.825,546.22,355.825,546.228z
	 M367.417,542.771c-0.402,1.195-0.912,2.354-1.523,3.457c-0.008,0.017-0.016,0.025-0.024,0.041
	c-0.255,0.581-0.418,1.197-0.484,1.828l-1.5,14.68c-0.023,0.215-0.203,0.377-0.42,0.379h-2.583
	c-0.216-0.002-0.396-0.164-0.421-0.379l-1.5-14.68c-0.064-0.631-0.229-1.248-0.485-1.828c-0.008-0.016-0.017-0.024-0.023-0.041
	c-0.615-1.103-1.125-2.26-1.523-3.457c-0.24-1.062-0.374-2.146-0.4-3.236c-0.116-0.82-0.026-1.658,0.265-2.438
	c0.218-0.229,0.455-0.438,0.707-0.626c0.735-0.512,1.516-0.955,2.33-1.325l1.942,2.668c0.092,0.131,0.241,0.207,0.4,0.205
	c0.158,0,0.308-0.076,0.399-0.205l1.943-2.668c0.812,0.361,1.59,0.806,2.312,1.325c0.254,0.188,0.489,0.396,0.707,0.626
	c0.291,0.777,0.381,1.615,0.266,2.438C367.782,540.623,367.654,541.707,367.417,542.771z M377.888,539.534
	c-0.021,1.091-0.156,2.175-0.4,3.236c-0.399,1.195-0.909,2.354-1.521,3.457c-0.01,0.017-0.018,0.025-0.025,0.041
	c-0.254,0.581-0.418,1.197-0.483,1.828l-1.5,14.68c-0.025,0.215-0.205,0.377-0.42,0.379h-2.578c-0.215-0.002-0.396-0.164-0.42-0.379
	l-1.5-14.68c-0.064-0.631-0.229-1.248-0.484-1.828c-0.01-0.016-0.018-0.024-0.025-0.041c-0.01-0.016-0.387-0.699-0.782-1.548
	c0.241-0.533,0.444-1.085,0.608-1.646c0.258-1.145,0.402-2.311,0.429-3.48c0.073-2.526-0.398-3-0.552-3.152l-0.223-0.223
	c0.609-0.387,1.244-0.729,1.9-1.028l1.94,2.667c0.092,0.131,0.242,0.208,0.398,0.206c0.16-0.001,0.309-0.078,0.399-0.206
	l1.943-2.667c0.814,0.362,1.59,0.808,2.314,1.324c0.252,0.188,0.489,0.396,0.706,0.627
	C377.909,537.875,378.001,538.713,377.888,539.534z M349.727,531.435c0.586,0.653,1.429,1.02,2.307,1h0.113
	c0.876,0.02,1.716-0.347,2.3-1c1.255-1.399,1.05-3.804,1.023-4.043c0.1-1.79-1.271-3.32-3.062-3.421
	c-0.078-0.004-0.158-0.006-0.238-0.004h-0.153c-1.799-0.031-3.282,1.402-3.312,3.201c-0.002,0.071,0,0.144,0.002,0.216
	C348.681,527.623,348.475,530.026,349.727,531.435z M349.698,527.474v-0.032c-0.116-1.256,0.807-2.367,2.061-2.483
	c0.09-0.01,0.181-0.013,0.271-0.011h0.142c1.26-0.031,2.308,0.964,2.339,2.225c0.002,0.091,0,0.183-0.009,0.271v0.032
	c0.14,1.161-0.14,2.334-0.783,3.31c-0.41,0.449-0.998,0.692-1.605,0.667h-0.024c-0.607,0.028-1.195-0.217-1.604-0.667
	C349.84,529.806,349.564,528.635,349.698,527.474z M369.87,531.442c0.594,0.648,1.436,1.015,2.313,1h0.115
	c0.877,0.017,1.717-0.351,2.305-1c1.25-1.408,1.051-3.812,1.021-4.052c0.098-1.794-1.279-3.324-3.072-3.421
	c-0.078-0.004-0.156-0.006-0.236-0.004h-0.147c-1.801-0.033-3.285,1.398-3.318,3.201c-0.002,0.073-0.002,0.148,0.002,0.224
	C368.825,527.631,368.618,530.034,369.87,531.442z M369.847,527.474v-0.032c-0.117-1.256,0.805-2.367,2.062-2.483
	c0.088-0.01,0.18-0.013,0.27-0.011h0.141c1.261-0.031,2.308,0.964,2.341,2.225c0.002,0.091-0.003,0.183-0.011,0.271v0.032
	c0.142,1.161-0.137,2.334-0.78,3.31c-0.41,0.45-0.998,0.695-1.605,0.667h-0.025c-0.604,0.028-1.194-0.217-1.604-0.667
	C369.63,529.665,369.847,527.499,369.847,527.474z M359.802,531.442c0.59,0.647,1.429,1.012,2.305,1h0.115
	c0.877,0.017,1.717-0.351,2.305-1c1.252-1.408,1.047-3.812,1.021-4.052c0.098-1.792-1.277-3.323-3.07-3.421
	c-0.076-0.004-0.154-0.006-0.229-0.004H362.1c-1.801-0.033-3.288,1.398-3.32,3.201c-0.002,0.073,0,0.148,0.002,0.224
	C358.756,527.631,358.55,530.034,359.802,531.442z M359.769,527.474v-0.032c-0.117-1.256,0.806-2.367,2.062-2.483
	c0.09-0.01,0.18-0.013,0.271-0.011h0.141c1.26-0.031,2.309,0.964,2.34,2.225c0.002,0.091-0.002,0.183-0.011,0.271v0.032
	c0.14,1.161-0.139,2.334-0.782,3.31c-0.41,0.45-0.998,0.695-1.604,0.667h-0.023c-0.608,0.028-1.197-0.217-1.605-0.667
	C359.551,529.665,359.769,527.499,359.769,527.474z"/>
<path d="M1154.869,183.78c0.595,0.649,1.437,1.015,2.314,1h0.115c0.877,0.017,1.717-0.35,2.305-1c1.25-1.408,1.051-3.812,1.02-4.051
	c0.099-1.794-1.278-3.325-3.071-3.421c-0.078-0.004-0.156-0.006-0.236-0.004h-0.147c-1.802-0.033-3.285,1.398-3.318,3.201
	c-0.002,0.073-0.002,0.148,0.002,0.224C1153.824,179.969,1153.617,182.372,1154.869,183.78z M1154.847,179.812v-0.033
	c-0.117-1.255,0.805-2.367,2.061-2.483c0.089-0.01,0.181-0.013,0.271-0.011h0.141c1.26-0.031,2.308,0.964,2.34,2.225
	c0.002,0.091-0.002,0.182-0.01,0.271v0.033c0.141,1.161-0.137,2.334-0.781,3.309c-0.41,0.45-0.998,0.695-1.604,0.667h-0.025
	c-0.604,0.028-1.194-0.217-1.604-0.667C1154.63,182.003,1154.847,179.837,1154.847,179.812z M1134.727,183.772
	c0.586,0.653,1.429,1.019,2.306,1h0.114c0.876,0.019,1.716-0.347,2.3-1c1.255-1.4,1.05-3.804,1.023-4.043
	c0.1-1.79-1.271-3.321-3.062-3.421c-0.077-0.004-0.157-0.006-0.237-0.004h-0.153c-1.799-0.031-3.282,1.402-3.313,3.201
	c-0.002,0.071,0,0.144,0.002,0.216C1133.681,179.961,1133.475,182.364,1134.727,183.772z M1134.698,179.812v-0.033
	c-0.117-1.255,0.807-2.367,2.061-2.483c0.09-0.01,0.181-0.013,0.271-0.011h0.142c1.26-0.031,2.308,0.964,2.339,2.225
	c0.002,0.091,0,0.182-0.009,0.271v0.033c0.14,1.161-0.14,2.334-0.783,3.309c-0.41,0.449-0.998,0.693-1.605,0.667h-0.024
	c-0.607,0.028-1.195-0.217-1.604-0.667C1134.84,182.144,1134.564,180.973,1134.698,179.812z M1163.308,188.737
	c-0.242-0.266-0.519-0.508-0.813-0.725c-0.896-0.64-1.862-1.176-2.883-1.602c-0.209-0.083-0.449-0.016-0.584,0.165l-1.77,2.438
	l-1.771-2.438c-0.133-0.185-0.375-0.254-0.584-0.165c-0.934,0.388-1.824,0.867-2.66,1.434c-0.008,0-0.008,0.008-0.016,0.016
	c-0.842-0.571-1.738-1.057-2.676-1.449c-0.211-0.083-0.449-0.016-0.586,0.165l-1.796,2.445l-1.77-2.438
	c-0.133-0.185-0.375-0.253-0.586-0.163c-0.938,0.392-1.835,0.877-2.677,1.447c-0.008,0-0.008-0.008-0.016-0.016
	c-0.834-0.567-1.727-1.048-2.659-1.434c-0.21-0.084-0.45-0.017-0.585,0.164l-1.77,2.438l-1.771-2.438
	c-0.132-0.185-0.375-0.253-0.585-0.164c-1.018,0.423-1.984,0.959-2.883,1.601c-0.293,0.217-0.569,0.459-0.822,0.724
	c-0.155,0.156-0.626,0.626-0.553,3.153c0.008,1.169,0.142,2.334,0.4,3.474c0.415,1.269,0.952,2.492,1.604,3.655
	c0.211,0.481,0.348,0.992,0.4,1.515l1.5,14.681c0.066,0.721,0.674,1.271,1.398,1.268h2.584c0.727,0.003,1.332-0.547,1.399-1.268
	l1.5-14.674c0.056-0.522,0.19-1.034,0.4-1.517c0.049-0.082,0.223-0.412,0.452-0.854c0.224,0.443,0.4,0.772,0.453,0.854
	c0.213,0.481,0.348,0.992,0.4,1.517l1.5,14.679c0.067,0.721,0.676,1.271,1.399,1.268h2.585c0.725,0.004,1.332-0.547,1.399-1.268
	l1.5-14.679c0.058-0.522,0.189-1.034,0.398-1.517c0.049-0.091,0.231-0.412,0.453-0.854c0.223,0.452,0.399,0.772,0.452,0.854
	c0.214,0.481,0.349,0.992,0.4,1.517l1.5,14.679c0.068,0.721,0.676,1.271,1.4,1.268h2.584c0.725,0.004,1.332-0.547,1.399-1.268
	l1.5-14.679c0.056-0.522,0.188-1.034,0.398-1.517c0.651-1.163,1.188-2.388,1.604-3.655c0.259-1.144,0.4-2.31,0.429-3.48
	C1163.935,189.363,1163.463,188.893,1163.308,188.737z M1140.824,198.565c-0.008,0.016-0.017,0.025-0.024,0.041
	c-0.255,0.581-0.418,1.197-0.486,1.828l-1.5,14.679c-0.022,0.215-0.203,0.377-0.42,0.379h-2.583
	c-0.215-0.002-0.396-0.164-0.42-0.379l-1.503-14.679c-0.064-0.631-0.229-1.248-0.486-1.828c-0.008-0.016-0.016-0.025-0.025-0.041
	c-0.611-1.104-1.122-2.261-1.521-3.458c-0.239-1.062-0.374-2.146-0.399-3.236c-0.119-0.821-0.024-1.66,0.271-2.437
	c0.219-0.229,0.455-0.438,0.708-0.626c0.729-0.513,1.503-0.956,2.312-1.325l1.943,2.667c0.092,0.131,0.241,0.208,0.399,0.206
	c0.158-0.001,0.308-0.078,0.4-0.206l1.942-2.667c0.657,0.294,1.29,0.638,1.894,1.029l-0.222,0.222
	c-0.155,0.156-0.626,0.626-0.552,3.153c0.02,1.173,0.162,2.34,0.428,3.48c0.164,0.563,0.367,1.113,0.609,1.647
	C1141.212,197.865,1140.824,198.558,1140.824,198.565z M1152.416,195.107c-0.401,1.196-0.911,2.354-1.522,3.458
	c-0.008,0.016-0.016,0.025-0.025,0.041c-0.254,0.581-0.418,1.197-0.483,1.828l-1.5,14.679c-0.023,0.215-0.203,0.377-0.42,0.379
	h-2.583c-0.216-0.002-0.396-0.164-0.421-0.379l-1.5-14.679c-0.064-0.631-0.229-1.248-0.485-1.828
	c-0.008-0.016-0.017-0.025-0.024-0.041c-0.615-1.103-1.125-2.26-1.522-3.458c-0.24-1.062-0.374-2.146-0.4-3.236
	c-0.117-0.82-0.026-1.658,0.265-2.437c0.218-0.229,0.454-0.438,0.707-0.626c0.735-0.512,1.516-0.955,2.329-1.325l1.943,2.667
	c0.092,0.131,0.241,0.208,0.4,0.206c0.157,0,0.308-0.077,0.399-0.206l1.943-2.667c0.812,0.361,1.59,0.805,2.312,1.325
	c0.255,0.188,0.49,0.396,0.707,0.626c0.291,0.777,0.382,1.615,0.267,2.437C1152.781,192.961,1152.654,194.045,1152.416,195.107z
	 M1162.888,191.872c-0.021,1.091-0.156,2.175-0.4,3.236c-0.399,1.196-0.91,2.354-1.521,3.458c-0.011,0.016-0.019,0.025-0.025,0.041
	c-0.254,0.581-0.418,1.197-0.484,1.828l-1.5,14.679c-0.024,0.215-0.205,0.377-0.42,0.379h-2.578
	c-0.215-0.002-0.395-0.164-0.42-0.379l-1.5-14.679c-0.063-0.631-0.229-1.248-0.483-1.828c-0.011-0.016-0.019-0.025-0.025-0.041
	c-0.01-0.016-0.387-0.7-0.783-1.548c0.242-0.534,0.445-1.085,0.609-1.647c0.258-1.144,0.401-2.31,0.428-3.48
	c0.074-2.527-0.397-3-0.551-3.153l-0.224-0.222c0.609-0.387,1.244-0.73,1.9-1.029l1.941,2.667c0.092,0.131,0.242,0.208,0.397,0.206
	c0.16-0.001,0.31-0.078,0.4-0.206l1.942-2.667c0.814,0.363,1.591,0.808,2.314,1.325c0.252,0.188,0.49,0.396,0.707,0.626
	C1162.908,190.213,1163,191.051,1162.888,191.872z M1144.802,183.78c0.59,0.648,1.429,1.012,2.305,1h0.115
	c0.877,0.017,1.717-0.35,2.305-1c1.252-1.408,1.047-3.812,1.021-4.051c0.098-1.792-1.277-3.324-3.07-3.421
	c-0.076-0.004-0.154-0.006-0.229-0.004h-0.148c-1.801-0.033-3.288,1.398-3.32,3.201c-0.002,0.073,0,0.148,0.002,0.224
	C1143.756,179.969,1143.55,182.372,1144.802,183.78z M1144.769,179.812v-0.033c-0.117-1.255,0.805-2.367,2.062-2.483
	c0.09-0.01,0.18-0.013,0.271-0.011h0.14c1.261-0.031,2.31,0.964,2.34,2.225c0.002,0.091-0.002,0.182-0.01,0.271v0.033
	c0.14,1.161-0.139,2.334-0.783,3.309c-0.409,0.45-0.998,0.695-1.604,0.667h-0.024c-0.607,0.028-1.196-0.217-1.604-0.667
	C1144.551,182.003,1144.769,179.837,1144.769,179.812z"/>
<path d="M1408.591,619.233c0.594,0.648,1.436,1.015,2.313,1h0.115c0.877,0.017,1.717-0.351,2.305-1
	c1.25-1.408,1.051-3.812,1.021-4.052c0.098-1.794-1.279-3.325-3.072-3.421c-0.078-0.004-0.156-0.006-0.236-0.004h-0.147
	c-1.801-0.033-3.285,1.398-3.318,3.201c-0.002,0.073-0.002,0.147,0.002,0.224C1407.546,615.422,1407.339,617.825,1408.591,619.233z
	 M1408.568,615.265v-0.032c-0.117-1.256,0.806-2.367,2.062-2.483c0.088-0.01,0.18-0.013,0.27-0.011h0.141
	c1.261-0.031,2.308,0.964,2.341,2.225c0.002,0.091-0.002,0.183-0.011,0.271v0.032c0.142,1.161-0.137,2.334-0.78,3.31
	c-0.41,0.45-0.998,0.695-1.605,0.667h-0.024c-0.605,0.028-1.195-0.217-1.604-0.667
	C1408.351,617.456,1408.568,615.29,1408.568,615.265z M1398.523,619.233c0.59,0.647,1.429,1.012,2.305,1h0.115
	c0.877,0.017,1.717-0.351,2.306-1c1.252-1.408,1.047-3.812,1.021-4.052c0.098-1.792-1.277-3.323-3.07-3.421
	c-0.075-0.004-0.153-0.006-0.229-0.004h-0.148c-1.801-0.033-3.287,1.398-3.319,3.201c-0.002,0.073,0,0.147,0.002,0.224
	C1397.477,615.422,1397.271,617.825,1398.523,619.233z M1398.49,615.265v-0.032c-0.116-1.256,0.806-2.367,2.062-2.483
	c0.09-0.01,0.18-0.013,0.271-0.011h0.141c1.26-0.031,2.309,0.964,2.34,2.225c0.002,0.091-0.002,0.183-0.011,0.271v0.032
	c0.14,1.161-0.139,2.334-0.782,3.31c-0.41,0.45-0.998,0.695-1.604,0.667h-0.023c-0.608,0.028-1.197-0.217-1.605-0.667
	C1398.272,617.456,1398.49,615.29,1398.49,615.265z M1388.448,619.226c0.586,0.653,1.43,1.02,2.307,1h0.113
	c0.876,0.02,1.717-0.347,2.301-1c1.254-1.399,1.049-3.804,1.022-4.043c0.101-1.79-1.271-3.32-3.062-3.421
	c-0.078-0.004-0.158-0.006-0.238-0.004h-0.153c-1.799-0.031-3.282,1.402-3.312,3.201c-0.002,0.071,0,0.144,0.002,0.216
	C1387.402,615.414,1387.196,617.817,1388.448,619.226z M1388.418,615.265v-0.032c-0.116-1.256,0.807-2.367,2.061-2.483
	c0.09-0.01,0.181-0.013,0.271-0.011h0.141c1.26-0.031,2.308,0.964,2.339,2.225c0.002,0.091,0,0.183-0.009,0.271v0.032
	c0.14,1.161-0.14,2.334-0.783,3.31c-0.41,0.449-0.998,0.692-1.605,0.667h-0.024c-0.607,0.028-1.195-0.217-1.604-0.667
	C1388.561,617.597,1388.283,616.426,1388.418,615.265z M1417.029,624.19c-0.243-0.267-0.518-0.509-0.812-0.726
	c-0.896-0.64-1.863-1.176-2.884-1.602c-0.209-0.083-0.448-0.017-0.584,0.165l-1.77,2.438l-1.771-2.438
	c-0.133-0.186-0.375-0.254-0.584-0.165c-0.934,0.388-1.823,0.867-2.66,1.434c-0.008,0-0.008,0.008-0.016,0.017
	c-0.842-0.571-1.738-1.058-2.676-1.449c-0.211-0.083-0.449-0.017-0.586,0.165l-1.795,2.444l-1.771-2.438
	c-0.133-0.186-0.375-0.253-0.586-0.163c-0.938,0.392-1.835,0.877-2.676,1.447c-0.009,0-0.009-0.008-0.017-0.017
	c-0.834-0.566-1.727-1.048-2.658-1.434c-0.211-0.084-0.45-0.018-0.586,0.164l-1.77,2.438l-1.771-2.438
	c-0.132-0.186-0.375-0.253-0.584-0.164c-1.019,0.423-1.985,0.959-2.884,1.601c-0.293,0.218-0.568,0.459-0.821,0.725
	c-0.156,0.155-0.627,0.626-0.554,3.152c0.009,1.169,0.143,2.334,0.4,3.475c0.415,1.269,0.953,2.492,1.604,3.655
	c0.211,0.48,0.348,0.991,0.4,1.515l1.5,14.681c0.067,0.722,0.674,1.271,1.399,1.269h2.584c0.726,0.003,1.332-0.547,1.398-1.269
	l1.5-14.674c0.057-0.521,0.19-1.034,0.4-1.517c0.049-0.082,0.223-0.412,0.453-0.854c0.223,0.443,0.399,0.772,0.453,0.854
	c0.212,0.48,0.347,0.991,0.399,1.517l1.5,14.679c0.067,0.722,0.676,1.271,1.399,1.269h2.585c0.725,0.004,1.332-0.547,1.4-1.269
	l1.5-14.679c0.057-0.521,0.188-1.034,0.397-1.517c0.049-0.092,0.232-0.412,0.453-0.854c0.223,0.452,0.399,0.772,0.453,0.854
	c0.213,0.48,0.348,0.991,0.399,1.517l1.5,14.679c0.068,0.722,0.677,1.271,1.4,1.269h2.584c0.725,0.004,1.332-0.547,1.4-1.269
	l1.5-14.679c0.055-0.521,0.188-1.034,0.397-1.517c0.652-1.163,1.189-2.389,1.605-3.655c0.258-1.145,0.399-2.311,0.428-3.48
	C1417.656,624.816,1417.185,624.346,1417.029,624.19z M1394.546,634.019c-0.009,0.017-0.018,0.025-0.025,0.041
	c-0.255,0.581-0.418,1.197-0.486,1.828l-1.5,14.68c-0.022,0.215-0.202,0.377-0.42,0.379h-2.583c-0.215-0.002-0.396-0.164-0.42-0.379
	l-1.503-14.68c-0.063-0.631-0.229-1.248-0.486-1.828c-0.008-0.016-0.016-0.024-0.024-0.041c-0.612-1.104-1.122-2.261-1.522-3.458
	c-0.239-1.062-0.374-2.146-0.398-3.235c-0.119-0.821-0.025-1.66,0.271-2.438c0.219-0.229,0.455-0.438,0.708-0.626
	c0.729-0.513,1.503-0.956,2.313-1.325l1.942,2.667c0.093,0.132,0.241,0.208,0.4,0.206c0.158-0.001,0.307-0.078,0.399-0.206
	l1.942-2.667c0.657,0.295,1.29,0.639,1.895,1.029l-0.223,0.222c-0.155,0.156-0.626,0.626-0.552,3.153
	c0.02,1.173,0.162,2.34,0.428,3.48c0.164,0.562,0.367,1.112,0.609,1.646C1394.933,633.318,1394.546,634.011,1394.546,634.019z
	 M1406.138,630.561c-0.402,1.196-0.912,2.354-1.523,3.458c-0.008,0.017-0.016,0.025-0.024,0.041
	c-0.254,0.581-0.418,1.197-0.484,1.828l-1.5,14.68c-0.023,0.215-0.203,0.377-0.42,0.379h-2.583
	c-0.216-0.002-0.396-0.164-0.421-0.379l-1.5-14.68c-0.064-0.631-0.229-1.248-0.485-1.828c-0.008-0.016-0.017-0.024-0.024-0.041
	c-0.614-1.103-1.125-2.26-1.522-3.458c-0.24-1.062-0.374-2.146-0.4-3.235c-0.116-0.82-0.026-1.658,0.265-2.438
	c0.218-0.229,0.455-0.438,0.707-0.626c0.735-0.512,1.516-0.955,2.33-1.325l1.942,2.667c0.093,0.132,0.241,0.208,0.4,0.206
	c0.158,0,0.308-0.076,0.399-0.206l1.943-2.667c0.812,0.361,1.59,0.806,2.312,1.325c0.254,0.188,0.489,0.396,0.707,0.626
	c0.291,0.777,0.381,1.615,0.266,2.438C1406.503,628.414,1406.373,629.498,1406.138,630.561z M1416.609,627.325
	c-0.021,1.091-0.156,2.175-0.399,3.236c-0.4,1.195-0.91,2.354-1.521,3.457c-0.01,0.017-0.018,0.025-0.025,0.041
	c-0.254,0.581-0.418,1.197-0.483,1.828l-1.5,14.68c-0.025,0.215-0.205,0.377-0.42,0.379h-2.578c-0.215-0.002-0.396-0.164-0.42-0.379
	l-1.5-14.68c-0.064-0.631-0.229-1.248-0.484-1.828c-0.01-0.016-0.018-0.024-0.025-0.041c-0.01-0.016-0.387-0.699-0.782-1.548
	c0.241-0.533,0.444-1.085,0.608-1.646c0.259-1.145,0.402-2.311,0.429-3.48c0.073-2.526-0.398-3-0.552-3.152l-0.223-0.223
	c0.608-0.387,1.244-0.729,1.899-1.028l1.941,2.667c0.092,0.131,0.242,0.208,0.398,0.206c0.16-0.001,0.309-0.078,0.399-0.206
	l1.943-2.667c0.813,0.362,1.59,0.808,2.313,1.324c0.252,0.188,0.49,0.396,0.707,0.627
	C1416.63,625.666,1416.722,626.504,1416.609,627.325z"/>
</svg>
