<svg xmlns="http://www.w3.org/2000/svg" width="818.689" height="664.973" viewBox="0 0 818.689 664.973"><g transform="translate(0.505 0.773)"><path d="M0,27.591,13.467,207.179s167.046-42.167,176.178-33.429S159.011,0,159.011,0Z" transform="translate(333.077 180.836) rotate(7)" fill="none" stroke="#707070" stroke-width="1" opacity="0.5"/><path d="M523.816,179.078c-13.961-96.95-25.283-175.16-25.283-175.16S301.206,78.686,289.318,80.533s-26.988,10.879-26.586,13.228-3.632-.029-3.632-.029S188.135,76.1,124.826,70.453,10.252,54.74,3.773,69.276s.261,182.475.261,182.475" transform="translate(47.094 -4.029) rotate(11)" fill="none" stroke="#707070" stroke-width="1" opacity="0.5"/><path d="M1.049,244.572c8.729,27.381,8.8,214.067,8.8,214.067l2.725,10.477,4.513-2.21,15.235-1.944L234.748,415.1S193.317,5.776,195.563,3.214c.01-.011-.5.426,0,0,3.4.087,3.8-3.125,3.9-2.19,3.4,32.483,35.286,414.076,35.286,414.076s268.925-40.275,272.911-35.384-33.613-180.834-34.323-182.084" transform="translate(91.935 119.01) rotate(6)" fill="none" stroke="#707070" stroke-width="1" opacity="0.5"/><path d="M0,4.145C1.5,3.33,1.044,1.971,4.4,1.018S8.841-.525,10.111.654" transform="translate(502.309 243.444) rotate(11)" fill="none" stroke="#b4b3b5" stroke-width="1"/><path d="M297.078,377.041c-54.438-17.873-138.128-68.252-145.44-86.127S83.006,146.775,74.757,133.119s-23.9-11.664-30.156-17.07-5.689-16.785-10.811-21.9S14.328,77.008,12,68.074,8.63,41.918,8.371,40.232s-4.79-3.625-6.732-9.709S-.281,15.977.485,15.977.331,22.8,3.473,24.1s9.271-5.9,10.19-5.672-1.685-6.205-3.141-6.512,6.665,3.217,8.351,6.512,7.048,7.586,5.976,8.734-.153-.687,2.069,1.15,2.988,2.119,5.823,2.211,4.6-1.062,3.755-1.293-4.98.922-3.755-1.531,8.781-7.863,9.379-9.953-3.686-7.471-3.985-7.371a9.048,9.048,0,0,0-6.175,8.053c-.6,6.391.6,7.486,0,7.586S28.872,6.291,27.777,2.8s3.784-3.486,7.57-1.295,8.8,4.008,18.565,7.373,12.625-1.01,15.319,4.379,1.347,4.055,4.041,17.262,6.564,35.594,10.941,42.5S96.5,82.109,98.689,83.961s-24.051-7.934-27.417,16.1,1.678,22.117,3.484,23.559,26.325-40.385,37.863-33.172,6.25-35.578,65.867,30.287,140.87,65.387,140.87,75S297.078,377.041,297.078,377.041Z" transform="translate(504.107 232.403) rotate(11)" fill="none" stroke="#707070" stroke-width="1" opacity="0.5"/></g></svg>