<svg xmlns="http://www.w3.org/2000/svg" viewBox="0 0 664.89 416.3"><defs><style>.cls-1{fill:#e9e9e9;}</style></defs><title>select nort america</title><g id="Layer_2" data-name="Layer 2"><g id="Layer_3" data-name="Layer 3"><path class="cls-1" d="M240.7,416.3l.61-.76c-4.08-10.14-4.19-11.77-1.69-23a60.63,60.63,0,0,0,1.09-6.56,3.79,3.79,0,0,0-.56-2.56c-2-2.52-6.6-3.07-9.59-1.35-5.46,3.16-9.43,2.78-13.65-1.28-3.1-3-3.42-7.12-.74-12.31,1.7-3.32,3.94-6.4,5.37-9.82,1-2.4,1-5.21,1.49-7.83l-1.18-.45a36.11,36.11,0,0,0-2.93,2.73c-2.15,2.47-4.19,5-6.29,7.54-3.82,4.57-8.57,7.09-14.68,6.78a46.18,46.18,0,0,0-7.71-.05c-8.61,1-12.76-1.63-14.11-10.18-1.41-8.89-2.67-17.84-3.25-26.81-.95-14.82,12.25-31.71,26.77-34.23,5.36-.94,11-.55,16.46-.57,5.15,0,9.79-.51,13.39-5.14,4.25-5.45,9.81-7.26,16.32-3.58a12.2,12.2,0,0,0,2,.78c6.6,2.25,12.86,6.05,20,4.58a74.79,74.79,0,0,1,1.63-8.3c2-6.58,7-10.72,12.74-13.84A59.22,59.22,0,0,0,302.65,252c4.4-6.24,9.76-11.28,17.38-13.47,3.76-1.08,6.1-3.9,8.4-7s5.12-6.78,8.55-8.51c6.85-3.45,12.33-8.34,17.77-13.51a175.35,175.35,0,0,1,14.74-12.92c2.59-2,6-3.07,9.25-3.87,3.72-.92,5.28.81,4.7,4.67a35,35,0,0,1-1.47,4.83l18.62-9.78c-.62,0-1.43,0-2.24,0-4.64-.11-5.36-.74-5.8-5.5-.24-2.53-.26-5.08-.4-8a33.65,33.65,0,0,1-5.15-.46c-1.65-.38-4.53-1.18-4.55-1.87-.06-1.86.59-4.66,1.92-5.44,2.81-1.63,6.22-2.25,9.41-3.19,1.41-.42,2.91-.5,4.32-.91,3.64-1,7.2-2.57,10.91-3.21,3.43-.58,7-.23,10.52-.36,6.12-.23,11.73-1,16.84-5.52,2.89-2.55,3.79-5,2.62-7.54a33.19,33.19,0,0,0-6.89-9.8,13.4,13.4,0,0,1-4.37-8.45,60.49,60.49,0,0,1-.14-7c0-2.79-.71-5.06-3.54-6.15-7.89,5.81-11.14,6.9-19.66,6.62-4.89-.17-5.42-1-4.12-5.76.35-1.3.59-3.23-.1-4.12-2.7-3.48-5.88-6.59-8.71-10-6.28-7.54-16.46-6.72-21,1.87-1.13,2.14-1.56,4.65-2.57,6.86-.75,1.65-1.59,3.94-3,4.51-5.18,2.13-5.11,5.6-3.44,9.88a5.57,5.57,0,0,1,.19,1.74c.28,6.27-4.12,11.44-11.5,13.53-7.54,2.13-8,2.65-8.88,10.47-.47,4.24-2.33,7.83-5.93,9.85A58.46,58.46,0,0,1,322,170.13c-5.87,1.56-7.88-.59-6.29-6.38,1.64-6,3.91-11.84,6.1-18.32a75.07,75.07,0,0,0-7.72.79c-2.31.46-3.8.12-4.72-2.23-1.83-4.7-5.49-7-10.38-7.8-4.32-.69-10-7.2-10.28-11.58a11.39,11.39,0,0,1,.22-2.79c1-5.29,4-8.91,8.79-11.53a27.15,27.15,0,0,0,7.46-6.06c9.27-11,20.25-18.89,35-20.35,3.19-.32,6.24-.55,8.66-3.12a3.15,3.15,0,0,1,3.09-.27,4.34,4.34,0,0,1,1.18,3.25,10.78,10.78,0,0,1-1.37,3.56c-1.19,2.65.12,3.71,2.48,3.24,3.23-.64,6.37-1.77,9.26-2.61-3.26-3.17-6.26-6.09-9.29-9a1.44,1.44,0,0,0-1-.24c-3,0-3.39-2.14-3.33-4.32a20.49,20.49,0,0,1,.91-5.5c.71-2.36.48-3.92-2-5.11-2.67-1.26-3.44-3.64-2.53-6.51.3-.94.51-1.91.9-3.43A56.41,56.41,0,0,0,341,56.93c-2.42,1.63-4.44,3.33-3.47,7.07s-2.42,8.65-6.36,10.32c-4.23,1.8-6.72,1-10.1-3.09-3.13,4.54-8.2,7-12.73,5.11-4.36-1.78-8.26-.16-12.25-1.06-1.48-.33-3-.33-4.46-.78-3.16-1-3.8-2.66-2.28-5.59,2.23-4.31,6.37-4.7,10.51-4.95,6.22-.39,7.61-2.09,7.27-8.42a68.14,68.14,0,0,1,.52-8c-.72.41-1.87.7-2.44,1.44-2.95,3.8-4.92,4.32-9.18,2.07a41.2,41.2,0,0,1-4.51-2.72c-2.07-1.49-3.62-1.53-5.84.24-1.54,1.23-5.1,2.2-6.17,1.33-3.44-2.8-7.37-2.91-11.19-3.07a143.44,143.44,0,0,0-18.89.36c-5.3.48-7.65,3-8.36,7.29.21.08.46.27.62.21,2.43-.81,4.84-1.68,7.27-2.5,5.7-1.94,9.63-.84,13.22,4a7.87,7.87,0,0,0,7.51,3.51,36.56,36.56,0,0,1,8.36-.08c4.62.76,7.22,9.23,4,12.59a4.89,4.89,0,0,1-2.15,1c-3.36.94-6.9,1.46-10.09,2.8-12.11,5.09-24.42-1.5-29.51-10.46a78.92,78.92,0,0,1-8.43,0c-10.25-1.12-20.37-2-30.45,1.71-2.73,1-7.19.78-9.4-.84-6.67-4.92-12.06-3.53-18.4.67-4.77,3.17-10.85,4.13-15.74-.14-8.17-7.13-17.79-8.34-27.9-7.79-4.56.25-9.21,1.16-12.41,4.87-2,2.3-3.64,2.22-6,.71-7.32-4.67-15.12-5.23-22.6-.86-7.84,4.58-15.32,9.8-22.84,14.92-4.89,3.34-10,5.48-16.05,4.93a4.2,4.2,0,0,0-3.09.91c-3,3.2-6.64,3.65-10.64,2.67-2.72-.66-5.43-1.39-8.14-2.1a10.44,10.44,0,0,0-9,1.72c-2,1.37-1.71,3-.75,4.93s2.43,1.26,3.83.69c.86-.35,1.68-.81,2.54-1.18,2.69-1.21,5.21-1.19,7.37,1.13s2.29,5.08.67,7.73c-3.61,5.92-8.31,10.13-15.87,9.49-2-.17-4-.37-6-.49-4.57-.27-7.91,1.91-10.17,5.63-2,3.3-.71,6.19,2.84,6.24a21.92,21.92,0,0,1,13.3,4.58c3.08,2.3,6.27,2.28,9.45.17,4.48-3,8.92-6,13.41-8.92,3.95-2.59,8.16-4.76,13-4.55,7.63.32,14.77-1.71,22-3.78,7.52-2.16,15.14-4.31,23.1-3.45,10.6,1.15,14.29,8.26,9.2,17.55-1.74,3.18-4.08,6.07-5.46,9.37-2.15,5.14-1.82,9.59,4.18,11a26.46,26.46,0,0,1,3.6,1.34c3.27,1.33,3.78,2.5,2,5.6-1.55,2.72-3.43,5.25-5.25,8a18.32,18.32,0,0,1,1.78,1.45c3.12,3.21,3,7.27,2.5,11.21-.38,3.18-3.59,1.75-5.41,2.65-.16.08-.25.31-.37.46,2.73,3.94,5.69,7.73,5,13a56.79,56.79,0,0,1-9.55,25c-3.75,5.49-7.79,10.79-11.4,16.37s-4,11.24-.41,17.15a45.67,45.67,0,0,1,6.46,19.45c.46,4.37,1.5,8.68,2.26,12.94,8.73-.51,13.36,3,15.64,11.89A108.87,108.87,0,0,0,131.49,328c6.46,8.66,9.7,18.23,9,29.15-.47,7.17,1.07,9.68,7.89,12.25,4.66,1.76,9.69,2.53,14.51,3.9,7.17,2,14.19,4.76,21.47,6.17,6.27,1.21,9.47,4.93,10.84,10.37,1,4,2.85,5.88,6.82,6,8.59.25,15.58,4.34,22.3,9.2C229.67,409,235.23,412.57,240.7,416.3Z"/><path class="cls-1" d="M456.55,27.57l-.24,1.81c1.64.51,3.29,1.51,4.91,1.46,6.53-.21,13-.65,19.56-1.19,4.3-.36,8.56-1.18,12.86-1.47,1.35-.09,3.43.48,4,1.45,2.21,3.49,4.5,7.12,5.65,11,.92,3.16.37,6.8.2,10.21,0,.8-1.15,1.59-1.86,2.28s-1.58,1.28-2.37,1.91a19.15,19.15,0,0,1,2.05,2.08,13.06,13.06,0,0,1,2.08,3.53c.4,1.3,0,2.82.4,4.15,1.18,4.29-.29,7.57-3.64,10.16-1.38,1.06-2.89,2-4.37,2.9-4.42,2.75-4.58,3.7-3.06,8.6a57.83,57.83,0,0,1,1.8,9.91c.35,2.77.14,5.62.5,8.39.65,4.93,3.88,7.78,8.87,7.57,6.17-.27,11.37-2.64,14.57-8.23,1.67-2.93,3.11-6,4.6-9,3.16-6.48,7.89-10.46,15.54-9.33,6.49,1,12.27-1.35,17.9-3.85,12.25-5.45,24.26-11.47,36.59-16.74,6.61-2.83,13.55-5.59,20.57-6.48,4.89-.62,7.34-2.49,9.31-6.28a48,48,0,0,0,2.69-5.3c2.46-6.66,6.07-11.87,13.9-12.84,1.11-.14,2.6-2,2.89-3.25,1.73-7.7,5.71-13.77,12.49-17.82,3.17-1.9,6.58-3.39,9.91-5.08A10.68,10.68,0,0,0,654.47,8c-5,2.44-9.22,1.5-13.41-2.29-2.06-1.86-5.23-2.91-8-3.4A140.52,140.52,0,0,0,618.34,1C602.68-.09,587-.67,571.38,1.3c-9.15,1.15-18.27,2.8-27.45,3.49-7.55.58-14.68,1.86-21.59,5.16-9.35,4.46-19.16,7.41-29.78,6.48-1.9-.17-3.86.41-5.79.65,1,1,1.93,1,2.69,1.44,1.12.65,2.89,1.52,2.93,2.37a4.93,4.93,0,0,1-2,3.63A10.84,10.84,0,0,1,485,26.68c-5.93.22-11.88-.15-17.83,0C463.62,26.71,460.09,27.25,456.55,27.57Z"/><path class="cls-1" d="M346,89.38c-1.9.17-3.52.45-5.15.46-12.93.06-22,7.46-30,16.32-3.33,3.68-6.39,7.28-10.93,9.54a14.08,14.08,0,0,0-5.1,4.54c-2,2.92-1.1,4.74,2.08,6.25a10.26,10.26,0,0,1,2.4,2.27c.85.84,1.56,2.2,2.54,2.44a16.25,16.25,0,0,1,10.65,7.35c1,1.67,2.19,1.9,4,1.83a31.72,31.72,0,0,1,8.32.61c4.95,1.14,5.46,2.72,2.88,7.07-3.09,5.21-5.69,10.61-6.65,16.77,4.77-.54,9.59-2.66,12.3-5.68,1-1.16,2.21-2.78,2.23-4.21.14-9.62,5-14.9,14.3-16.5a7.2,7.2,0,0,0,2.25-.91,7.42,7.42,0,0,0,3.76-8.6,29.36,29.36,0,0,1-.91-4.09c-.26-3.41.24-6.9,3.59-8.47,3.18-1.48,4.13-3.91,5.15-6.85,1.93-5.6,4.5-10.9,10.66-13.07a50.19,50.19,0,0,1,6.07-1.35c.72-7.65,3.47-9.89,11.26-9.24,1.83.15,3.66.41,5.63.64.61-6.7,6.46-6.27,10.75-8.15-2.55-.32-5-.19-7-1-1.68-.68-2.9-2.51-4.32-3.83l4.13-2.93c.27-.2.5-.44.74-.65-2.31-4.24-5.15-5.38-9.55-3.23a110.61,110.61,0,0,0-11.12,6.6,27.5,27.5,0,0,1-13.29,4.88c-1.78.11-3.54.55-6.11,1,1.28.88,1.74,1.22,2.21,1.52a89,89,0,0,1,8.51,5.43c2.24,1.79,1.93,4.94-.16,7.52-1.72,2.14-3.45,2.34-5.7.59-.78-.6-2.36-.49-3.49-.27-2.05.4-4,1.25-6.06,1.67C350.39,96.94,348.24,95.68,346,89.38Z"/><path class="cls-1" d="M408.78,72.46c1.06-.23,2.3-.89,3.24-.6,1.34.41,3.1,1.27,3.54,2.39,1.27,3.17-.51,7.06-3.63,8.58-1.66.81-3.55,1.13-5.27,1.83-1.32.54-3.68,1.62-3.6,2,.48,1.94.24,4.25,2.76,5.48,1.91.94,3.45,2.72,5,4.27,2.24,2.22,4.12,4.86,6.6,6.73,1.44,1.09,3.74,1,5.66,1.47-2-3.16-4.2-5.21-6.12-7.54a28.1,28.1,0,0,1-2.65-4.83,43,43,0,0,1,5.61-2c1.19-.25,2.54.24,3.82.38a66.12,66.12,0,0,0,7.65.79c2.78,0,3.71-2.31,2.1-4.58a23.92,23.92,0,0,1-2.94-4.3c-1.88-4.44.72-7.92,5.45-7.2A28.92,28.92,0,0,1,443,77.61c6.29,2.69,11.67.68,16.85-3.24a84.55,84.55,0,0,0-13.13-1.13c-6.09-.11-6.69-.76-5.61-6.76a5.91,5.91,0,0,1,.43-1.69c.88-1.7.18-2.57-1.27-3.63-4.34-3.14-8.41-6.67-12.81-9.74a15,15,0,0,0-6.57-2.66c-3.17-.34-6.21-.14-6.14-4.54-8.37.35-16.2,1.49-23.2,5.72-3.78,2.28-7.25,5.09-11,7.38-1.06.64-2.72.28-4.11.37,0-1.37-.39-2.87.05-4.08s1.68-2.2,2.59-3.26c1.23-1.42,2.48-2.82,4-4.55-7.78,0-11.58,4.21-11.14,10.78,2.33,2,5.09,3.36,5.81,5.38s-.49,4.93-.84,7.39c.9-.57,2-1.4,3.24-2,4.34-2.23,8.54-4.86,13.11-6.44,5.47-1.89,10.18.44,12.95,5.54C407.12,68.25,407.81,70.22,408.78,72.46Z"/><path class="cls-1" d="M502.69,4.59l-.15-1.15c-6.71-1.63-13.41-.7-20.1.47C473,5.55,463.68,8.22,454,6.4c-8.4-1.57-16.37-.12-24.43,2.55-11.25,3.72-22.32,8.61-34.62,7.92-.25,0-.53.34-.88.59.21.34.34.81.54.85,9.77,1.9,17.24,7.71,24.63,13.93,3.75,3.15,5.65,2.42,8.75-1.59,3.84-5,8.13-9.3,14.1-11.74C456.39,13.05,471.41,9.72,486.61,7,491.94,6.1,497.33,5.4,502.69,4.59Z"/><path class="cls-1" d="M261,72.34c4.35-1.2,9.63-2.61,14.87-4.16.77-.23,1.34-1.17,2-1.78a11.47,11.47,0,0,0-2.53-1.61A5.52,5.52,0,0,0,273,65c-6.39,1.11-11.84-.2-15.53-6-1.44-2.28-3.48-2.46-5.8-1.67s-5.58,5.1-5.61,7.51a2.49,2.49,0,0,0,.77,1.75A23.51,23.51,0,0,0,261,72.34Z"/><path class="cls-1" d="M437.19,169.09c-4.9,6-13.32,7.37-16.59,15.74,5-1,9.42-1.7,13.8-2.64,5.73-1.22,6.1-1.05,7.3,4.4,3.56.28,4.35-.46,2.94-3.4C442.45,178.57,439.88,174.14,437.19,169.09Z"/><path class="cls-1" d="M386.4,91.72c0,.54.09,1.08.13,1.62l7.38-.74c0-.29,0-.59-.07-.88Z"/><path class="cls-1" d="M313.45,31.69l3.89-4.12c-.77-.39-1.4-.66-2-1-2.43-1.54-4.48-3.87-3.6-6.58a8.16,8.16,0,0,1,4.9-4.65c5.52-1.4,11.19-3.85,17-1.11,1.55.73,3.82,2.07,3.9,3.24.1,1.6-1.26,3.69-2.6,4.87C333,24,330.58,25,328.38,26.25c3.89,4.75,4.07,8.72.37,12-.74.65-2.08,1.57-2.69,1.3-4.89-2.11-9.62.68-14.41.28-6.6-.54-13.2-1.12-19.78-1.85a13.35,13.35,0,0,1-4.22-1.6c-4.22-2.11-5.65-4.62-4.82-8.25,1-4.39,4.64-7.67,8.72-7.8,5.64-.19,9.9,3.05,14.29,5.89C308.38,27.83,310.75,29.72,313.45,31.69Z"/><path class="cls-1" d="M306.3,34.83l.41-1.31c-2.81-1.85-5.54-3.85-8.47-5.48-1.78-1-3.92-2-5.83-1.85-1.44.08-2.77,1.92-4.14,3,1,1.09,1.85,2.88,3,3.14C296.25,33.4,301.29,34,306.3,34.83Z"/><path class="cls-1" d="M328.05,21,328,19.71l-10.43.58.06,1.2C321.15,23.58,324.6,22.28,328.05,21Z"/><path class="cls-1" d="M351.81,39.56c-3.47-1.23-7.13-2.12-10.38-3.79-4.8-2.46-5.9-5.37-4.18-10.36.35-1,3.17-2.29,3.57-1.95,4,3.43,8.8,3,13.51,3.12a20.51,20.51,0,0,1,3.83.42c4.46.94,5.61,3.67,3.3,7.67C359.76,37.61,356.6,39,351.81,39.56ZM348.2,32.2c0,.3,0,.61,0,.92h7.47V32.2Z"/><path class="cls-1" d="M359.16,26.81c-2.79-1.14-5.79-1.71-7.89-3.39s-2.07-4.8-.9-7.48A6.65,6.65,0,0,1,357,11.7c4,.05,7.93.35,11.28,3,1,.77,2.33,1.14,3.31,1.94s2.65,2.06,2.63,3.06A4.59,4.59,0,0,1,371.7,23C367.72,24.45,363.57,25.5,359.16,26.81Zm6.29-6.18.16-1-7.49-1.34a14.69,14.69,0,0,0-2.7-.35c-.16,0-.57,1.29-.41,1.41.87.67,1.85,1.59,2.83,1.63A74.66,74.66,0,0,0,365.45,20.63Z"/></g></g></svg>