<svg xmlns="http://www.w3.org/2000/svg" width="29.864" height="35.081" viewBox="0 0 29.864 35.081">
  <g id="Group_1711" data-name="Group 1711" transform="translate(-216.136 -476.798)">
    <path id="Path_1254" data-name="Path 1254" d="M2.193,31.792V3.289a1.1,1.1,0,0,1,1.1-1.1H19.733V6.577A2.193,2.193,0,0,0,21.925,8.77H26.31v3.289H28.5V7.674a1.1,1.1,0,0,0-.318-.778L21.607.318A1.1,1.1,0,0,0,20.829,0H3.289A3.289,3.289,0,0,0,0,3.289v28.5A3.289,3.289,0,0,0,3.289,35.08h7.674V32.888H3.289A1.1,1.1,0,0,1,2.193,31.792Z" transform="translate(216.136 476.799)" fill="#d90000"/>
    <text id="PDF" transform="translate(222 502.182)" fill="#d90000" font-size="13" font-family="Roboto-Black, Roboto" font-weight="800"><tspan x="0" y="0">PDF</tspan></text>
  </g>
</svg>
