<?xml version="1.0" encoding="utf-8"?>
<!-- Generator: Adobe Illustrator 16.0.4, SVG Export Plug-In . SVG Version: 6.00 Build 0)  -->
<!DOCTYPE svg PUBLIC "-//W3C//DTD SVG 1.1//EN" "http://www.w3.org/Graphics/SVG/1.1/DTD/svg11.dtd">
<svg version="1.1" id="Layer_1" xmlns="http://www.w3.org/2000/svg" xmlns:xlink="http://www.w3.org/1999/xlink" x="0px" y="0px"
	 width="29px" height="58.244px" viewBox="0 0 29 58.244" enable-background="new 0 0 29 58.244" xml:space="preserve">
<path d="M14.5,11.244c-8.008,0-14.5,6.492-14.5,14.5v18c0,8.008,6.492,14.5,14.5,14.5c8.008,0,14.5-6.492,14.5-14.5v-18
	C29,17.736,22.508,11.244,14.5,11.244z M28.25,43.744c0,7.594-6.156,13.75-13.75,13.75S0.75,51.338,0.75,43.744v-18
	c0-7.594,6.156-13.75,13.75-13.75s13.75,6.156,13.75,13.75V43.744z M14,27.744h1v-12h-1V27.744z M14.54,1.781l5.682,5.764
	l0.713-0.702L14.54,0.356L8.145,6.842l0.712,0.702L14.54,1.781z"/>
</svg>
