<?xml version="1.0" encoding="utf-8"?>
<!-- Generator: Adobe Illustrator 16.0.4, SVG Export Plug-In . SVG Version: 6.00 Build 0)  -->
<!DOCTYPE svg PUBLIC "-//W3C//DTD SVG 1.1//EN" "http://www.w3.org/Graphics/SVG/1.1/DTD/svg11.dtd">
<svg version="1.1" id="Layer_1" xmlns="http://www.w3.org/2000/svg" xmlns:xlink="http://www.w3.org/1999/xlink" x="0px" y="0px"
	 width="18.168px" height="20px" viewBox="0 0 18.168 20" enable-background="new 0 0 18.168 20" xml:space="preserve">
<path fill="#04D177" d="M10.832,18.469L2.37,10.001l8.466-8.469c0.208-0.207,0.208-0.543,0-0.751c-0.207-0.207-0.543-0.207-0.751,0
	L1.239,9.626c-0.207,0.205-0.209,0.54-0.003,0.748l0.003,0.003l8.846,8.843c0.101,0.1,0.233,0.152,0.373,0.154
	c0.141,0,0.274-0.057,0.373-0.154c0.208-0.207,0.209-0.541,0.003-0.748C10.833,18.471,10.833,18.471,10.832,18.469z M17.052,15.711
	l-5.704-5.706L17.054,4.3c0.146-0.136,0.152-0.362,0.019-0.506c-0.135-0.145-0.362-0.153-0.506-0.018l-5.979,5.978
	c-0.139,0.137-0.141,0.363-0.003,0.502l0.003,0.003l5.96,5.958c0.065,0.066,0.157,0.104,0.252,0.105
	c0.095,0,0.187-0.039,0.252-0.105c0.14-0.139,0.142-0.365,0.003-0.504C17.054,15.711,17.053,15.711,17.052,15.711z"/>
</svg>
