<svg xmlns="http://www.w3.org/2000/svg" viewBox="0 0 237.43 454.31"><defs><style>.cls-1{fill:#e9e9e9;}</style></defs><title>south america</title><g id="Layer_2" data-name="Layer 2"><g id="Layer_3" data-name="Layer 3"><path class="cls-1" d="M149.33,451.69c-4-2-6.76-3.43-9.51-4.91-11.66-6.27-19.53-19.16-18-33.43.7-6.4.74-6.4-5.24-8.33-7.86-2.53-9.78-10.16-4-15.92.66-.67,1.35-1.3,2-2,3.24-3.55,3.49-6,1.07-10.09-1.06-1.81-2.26-3.56-3.14-5.46-2.37-5.18-.28-10.18,5.15-12.14,2.73-1,5.61-1.56,8.41-2.34,2.6-.71,4.14-1.87,4.07-5.13,0-1.81,1.43-4.62,2.95-5.29,2.72-1.19,6-1.39,9.05-1.45,3.57-.06,7.17.68,10.74.6,1.13,0,3.19-1.65,3.14-2.42-.16-2.13-.63-4.82-2.05-6.14-1.95-1.82-5-2.35-7.36-3.85a13.19,13.19,0,0,1-4.55-4.51c-1.75-3.4-.57-5.41,3.22-5.85a55,55,0,0,1,9.43-.21c7.45.44,9-.51,11.07-7.63a23.49,23.49,0,0,0,.74-3.06c1.6-10.47,4.3-20.51,9.89-29.7,1.29-2.1,1.52-5.12,1.49-7.71-.06-6.05,2.27-10.21,8-12.15a79.22,79.22,0,0,1,11.22-2.65c10.44-1.89,16-7.14,17-17.76.74-7.52,0-15.19.49-22.75.36-5.28.78-10.94,3-15.61,3-6.49,7.55-12.29,11.65-18.24,3.74-5.44,7.11-11,8-17.7,1.89-14.76-9.68-29.13-24.56-30.44-3.15-.28-6.3-.42-9.45-.68-7.86-.64-14.88-2.93-19.78-9.68-3.24-4.48-7.9-6.87-13.12-8.17-11.25-2.8-17.59-9.6-17.91-21.47a5.36,5.36,0,0,0-.06-.7c-1.88-10.87-6.81-19.49-18.06-22.71-4.22-1.21-8.81-1-13.16-1.83a23.33,23.33,0,0,1-7.73-2.7c-6.08-3.67-8.79-10.14-12.36-15.87-5.4-8.67-10-10.52-18.94-5.87S65,52.41,56.66,46.23c-4.32-3.22-6.21-2.45-9.26,2a3.2,3.2,0,0,1-2.22,1.4C39,49.29,35.8,53.39,33,57.75c-3.72,5.79-6.84,12-10.55,17.77a23.12,23.12,0,0,0-3.36,17.75c.34,1.72.56,3.46.88,5.19A17.25,17.25,0,0,1,15.45,114c-2.94,3.17-6.54,5.76-9.21,9.12C3.76,126.22.77,129.85.37,133.5c-1.22,11.26.36,22.54,8,31.34a103.07,103.07,0,0,1,17.11,26.28c5.05,11.46,12.5,20,25.2,24,10.17,3.21,16.65,10.82,18.13,22,2.47,18.65,5.8,37.16,6.18,56.09.34,17.41,2,34.79,3.12,52.18a90.66,90.66,0,0,0,1,10.81,165.49,165.49,0,0,1,3.19,32.05A22.73,22.73,0,0,0,85.52,399a40.71,40.71,0,0,1,5.21,14.69,37.8,37.8,0,0,0,3,9.94c.64,1.47,2.6,3.27,4,3.32a7.33,7.33,0,0,1,6.61,3.91c2.27,4.3,6,6.14,10.26,7.16a25.1,25.1,0,0,1,15.22,10.43,13.79,13.79,0,0,0,12.83,5.79C144.59,454.12,146.48,452.83,149.33,451.69Z"/><path class="cls-1" d="M63.39,1.89l0-1.38C58.38.31,53.33,0,48.27,0c-.71,0-2.08,1.28-2,1.82a3.89,3.89,0,0,0,1.79,2.62,5.77,5.77,0,0,0,3.43.14C55.47,3.77,59.42,2.8,63.39,1.89Z"/><path class="cls-1" d="M34.36,8.84c0,4.75-2.19,7.4-6.62,7.89-4.89.55-9.53-2.26-10.42-6.34A5.88,5.88,0,0,1,17.13,9c.06-4.6,4.58-7.1,12.28-6.8C32,2.31,34.34,5.43,34.36,8.84Z"/><path class="cls-1" d="M29.85,8.55H22.28C26.33,12.4,27.13,12.42,29.85,8.55Z"/><path class="cls-1" d="M166.78,436.77c-4.2.06-8.68-3.82-8.72-7.56s3.23-6.46,8-6.52c5.54-.07,9.69,2.35,9.94,5.8C176.24,431.73,170.68,436.72,166.78,436.77Zm-3-8.14c-.12.29-.25.57-.37.86,1.29.7,2.53,1.75,3.89,2,.61.09,1.48-1.49,2.69-2.82Z"/><path class="cls-1" d="M88.32,3.65C93.34,4,95,6.59,93,11.13a7.13,7.13,0,0,1-6.51,4.51,7.89,7.89,0,0,1-7.5-4.22c-1.59-2.8,0-4.83,2.38-5.91C83.5,4.54,86,4.24,88.32,3.65Z"/><path class="cls-1" d="M111,26.1c-1.52-1.94-3-3.11-3.31-4.53-.15-.68,1.9-1.84,3-2.79,1,1.23,2.42,2.33,2.89,3.74C113.78,23.2,112.24,24.46,111,26.1Z"/><path class="cls-1" d="M100.67,9.12c1.37,1.91,2.87,3.09,2.81,4.19,0,.91-2,2.54-2.94,2.4a4.54,4.54,0,0,1-3-2.86C97.36,12.15,99.12,10.89,100.67,9.12Z"/></g></g></svg>