<?xml version="1.0" encoding="utf-8"?>
<!-- Generator: Adobe Illustrator 16.0.4, SVG Export Plug-In . SVG Version: 6.00 Build 0)  -->
<!DOCTYPE svg PUBLIC "-//W3C//DTD SVG 1.1//EN" "http://www.w3.org/Graphics/SVG/1.1/DTD/svg11.dtd">
<svg version="1.1" id="Layer_1" xmlns="http://www.w3.org/2000/svg" xmlns:xlink="http://www.w3.org/1999/xlink" x="0px" y="0px"
	 width="34.383px" height="41.184px" viewBox="0 0 34.383 41.184" enable-background="new 0 0 34.383 41.184" xml:space="preserve">
<path d="M4.734,7.968c0.586,0.653,1.428,1.019,2.305,1h0.115c0.876,0.019,1.716-0.347,2.3-1c1.254-1.4,1.048-3.804,1.023-4.043
	c0.099-1.79-1.271-3.321-3.062-3.421C7.336,0.5,7.256,0.498,7.176,0.5H7.023C5.224,0.469,3.74,1.903,3.709,3.701
	c-0.001,0.072,0,0.144,0.003,0.216C3.688,4.156,3.482,6.56,4.734,7.968z M4.706,4.007V3.974C4.588,2.719,5.511,1.607,6.765,1.49
	c0.09-0.009,0.181-0.012,0.271-0.01h0.14c1.26-0.032,2.308,0.964,2.339,2.224c0.002,0.091,0,0.182-0.009,0.271v0.033
	c0.14,1.161-0.138,2.334-0.783,3.309C8.313,7.766,7.725,8.01,7.118,7.984H7.093C6.485,8.012,5.897,7.767,5.488,7.317
	C4.847,6.339,4.571,5.168,4.706,4.007z M33.325,12.931c-0.253-0.265-0.528-0.507-0.822-0.724c-0.898-0.639-1.865-1.176-2.883-1.601
	c-0.209-0.083-0.449-0.016-0.584,0.165l-1.771,2.438l-1.771-2.438c-0.132-0.185-0.375-0.254-0.584-0.165
	c-0.933,0.387-1.824,0.867-2.66,1.433c-0.008,0-0.008,0.008-0.016,0.016c-0.842-0.571-1.738-1.057-2.676-1.449
	c-0.21-0.083-0.449-0.016-0.585,0.165l-1.795,2.445l-1.77-2.438c-0.132-0.185-0.375-0.253-0.585-0.164
	c-0.938,0.392-1.835,0.877-2.676,1.448c-0.008,0-0.008-0.008-0.016-0.016c-0.834-0.567-1.726-1.048-2.659-1.433
	c-0.21-0.084-0.45-0.017-0.585,0.164l-1.77,2.438l-1.77-2.438c-0.132-0.185-0.375-0.253-0.585-0.164
	c-1.018,0.422-1.985,0.959-2.882,1.6c-0.294,0.217-0.57,0.459-0.823,0.724c-0.156,0.156-0.626,0.626-0.552,3.153
	c0.007,1.169,0.141,2.334,0.4,3.474c0.415,1.268,0.953,2.492,1.605,3.655c0.211,0.481,0.347,0.992,0.4,1.515l1.5,14.68
	c0.068,0.721,0.675,1.271,1.4,1.268h2.584c0.725,0.003,1.332-0.547,1.4-1.268l1.5-14.674c0.055-0.522,0.19-1.034,0.4-1.516
	c0.049-0.082,0.222-0.412,0.453-0.855c0.222,0.444,0.4,0.773,0.453,0.855c0.212,0.481,0.347,0.992,0.4,1.516l1.5,14.679
	c0.068,0.721,0.676,1.271,1.4,1.268h2.585c0.725,0.004,1.332-0.547,1.4-1.268l1.5-14.679c0.056-0.522,0.19-1.034,0.399-1.516
	c0.049-0.091,0.231-0.412,0.453-0.855c0.223,0.453,0.4,0.773,0.453,0.855c0.212,0.481,0.348,0.992,0.4,1.516l1.5,14.679
	c0.068,0.721,0.676,1.271,1.4,1.268h2.584c0.725,0.004,1.332-0.547,1.4-1.268l1.5-14.679c0.055-0.522,0.189-1.034,0.4-1.516
	c0.652-1.163,1.189-2.388,1.604-3.655c0.258-1.144,0.401-2.31,0.429-3.481C33.952,13.557,33.481,13.087,33.325,12.931z
	 M10.832,22.761c-0.008,0.016-0.016,0.025-0.025,0.041c-0.255,0.581-0.418,1.197-0.486,1.828l-1.5,14.679
	c-0.024,0.215-0.204,0.377-0.42,0.379H5.818c-0.215-0.002-0.396-0.164-0.42-0.379L3.895,24.63c-0.065-0.631-0.229-1.248-0.486-1.828
	c-0.008-0.016-0.016-0.025-0.025-0.041c-0.613-1.104-1.123-2.261-1.523-3.458c-0.239-1.062-0.374-2.146-0.4-3.236
	c-0.119-0.822-0.025-1.661,0.272-2.437c0.218-0.229,0.455-0.438,0.708-0.626c0.729-0.513,1.503-0.956,2.314-1.325l1.943,2.667
	c0.091,0.131,0.241,0.208,0.4,0.206c0.158-0.001,0.307-0.078,0.4-0.206l1.943-2.667c0.657,0.294,1.29,0.638,1.894,1.029
	l-0.222,0.222c-0.156,0.156-0.626,0.626-0.552,3.153c0.019,1.173,0.162,2.34,0.428,3.481c0.164,0.563,0.367,1.113,0.609,1.647
	C11.219,22.061,10.832,22.753,10.832,22.761z M22.424,19.303c-0.402,1.196-0.912,2.354-1.523,3.458
	c-0.008,0.016-0.016,0.025-0.025,0.041c-0.254,0.581-0.418,1.197-0.485,1.828l-1.5,14.679c-0.024,0.215-0.204,0.377-0.42,0.379
	h-2.583c-0.216-0.002-0.396-0.164-0.42-0.379l-1.5-14.679c-0.065-0.631-0.229-1.248-0.486-1.828
	c-0.008-0.016-0.016-0.025-0.025-0.041c-0.615-1.103-1.125-2.26-1.523-3.458c-0.24-1.062-0.374-2.146-0.4-3.236
	c-0.118-0.821-0.027-1.659,0.263-2.437c0.218-0.229,0.455-0.438,0.708-0.626c0.735-0.512,1.515-0.955,2.33-1.325l1.943,2.667
	c0.091,0.131,0.241,0.208,0.4,0.206c0.159,0,0.308-0.077,0.4-0.206l1.943-2.667c0.814,0.361,1.59,0.805,2.314,1.325
	c0.253,0.188,0.49,0.397,0.707,0.626c0.291,0.777,0.381,1.615,0.264,2.437C22.79,17.156,22.661,18.24,22.424,19.303z M32.895,16.068
	c-0.022,1.09-0.156,2.174-0.4,3.236c-0.401,1.196-0.911,2.354-1.522,3.458c-0.009,0.016-0.017,0.025-0.025,0.041
	c-0.255,0.581-0.419,1.197-0.485,1.828l-1.5,14.679c-0.025,0.215-0.205,0.377-0.42,0.379h-2.578
	c-0.215-0.002-0.395-0.164-0.42-0.379l-1.5-14.679c-0.064-0.631-0.229-1.248-0.485-1.828c-0.009-0.016-0.017-0.025-0.024-0.041
	c-0.01-0.016-0.388-0.7-0.783-1.548c0.241-0.534,0.445-1.085,0.609-1.647c0.258-1.144,0.401-2.31,0.428-3.481
	c0.074-2.527-0.399-3-0.552-3.153l-0.222-0.222c0.609-0.387,1.244-0.73,1.9-1.029l1.942,2.667c0.091,0.131,0.241,0.208,0.399,0.206
	c0.159-0.001,0.308-0.078,0.4-0.206l1.943-2.667c0.814,0.363,1.589,0.807,2.314,1.325c0.253,0.188,0.49,0.397,0.707,0.626
	C32.916,14.408,33.009,15.246,32.895,16.068z M24.877,7.976c0.593,0.649,1.436,1.014,2.314,1h0.115c0.877,0.016,1.717-0.35,2.305-1
	c1.25-1.408,1.051-3.812,1.021-4.051c0.096-1.794-1.281-3.325-3.074-3.421C27.481,0.5,27.402,0.498,27.323,0.5h-0.148
	c-1.801-0.033-3.287,1.399-3.32,3.201c-0.002,0.074-0.001,0.149,0.003,0.224C23.833,4.164,23.625,6.568,24.877,7.976z M24.854,4.007
	V3.974c-0.117-1.255,0.805-2.367,2.06-2.484c0.089-0.009,0.18-0.012,0.27-0.01h0.14c1.26-0.032,2.308,0.964,2.34,2.224
	c0.002,0.091-0.001,0.182-0.01,0.271v0.033c0.141,1.161-0.137,2.334-0.781,3.309c-0.41,0.45-0.998,0.695-1.605,0.667h-0.025
	c-0.607,0.028-1.195-0.217-1.604-0.667C24.636,6.198,24.854,4.032,24.854,4.007z M14.809,7.976c0.59,0.648,1.429,1.012,2.305,1
	h0.115c0.877,0.016,1.717-0.35,2.305-1c1.252-1.408,1.047-3.812,1.021-4.051c0.097-1.792-1.277-3.324-3.07-3.421
	C17.408,0.5,17.331,0.498,17.254,0.5h-0.148c-1.801-0.033-3.288,1.399-3.321,3.201c-0.001,0.074,0,0.149,0.003,0.224
	C13.763,4.164,13.557,6.568,14.809,7.976z M14.776,4.007V3.974c-0.117-1.255,0.805-2.367,2.06-2.484
	c0.09-0.009,0.18-0.012,0.271-0.01h0.14c1.26-0.032,2.307,0.964,2.339,2.224c0.002,0.091-0.001,0.182-0.009,0.271v0.033
	c0.139,1.161-0.139,2.334-0.783,3.309c-0.41,0.45-0.998,0.695-1.605,0.667h-0.025c-0.608,0.028-1.196-0.217-1.605-0.667
	C14.558,6.198,14.776,4.032,14.776,4.007z"/>
</svg>
