<svg xmlns="http://www.w3.org/2000/svg" width="18.467" height="14.998" viewBox="0 0 18.467 14.998"><defs><style></style></defs><path class="atv" d="M18.466,44.04a7.552,7.552,0,0,1-2.179.586,3.675,3.675,0,0,0,1.664-2.086,7.429,7.429,0,0,1-2.4.914,3.794,3.794,0,0,0-5.443-.088A3.648,3.648,0,0,0,9,46.044a4.2,4.2,0,0,0,.094.867,10.546,10.546,0,0,1-4.353-1.166A10.73,10.73,0,0,1,1.288,42.95a3.793,3.793,0,0,0-.059,3.715,3.781,3.781,0,0,0,1.23,1.347,3.755,3.755,0,0,1-1.711-.481v.047a3.658,3.658,0,0,0,.861,2.408,3.724,3.724,0,0,0,2.174,1.306,3.921,3.921,0,0,1-1,.129,4.828,4.828,0,0,1-.715-.058,3.793,3.793,0,0,0,3.539,2.625,7.411,7.411,0,0,1-4.7,1.617A8.059,8.059,0,0,1,0,55.558a10.511,10.511,0,0,0,5.812,1.7A11.058,11.058,0,0,0,9.6,56.619a9.62,9.62,0,0,0,3.023-1.711,11.448,11.448,0,0,0,2.162-2.466,11,11,0,0,0,1.353-2.912,10.757,10.757,0,0,0,.445-3.041q0-.328-.012-.492A7.926,7.926,0,0,0,18.466,44.04Z" transform="translate(0.001 -42.259)"/></svg>