<svg xmlns="http://www.w3.org/2000/svg" width="27.825" height="27.825" viewBox="0 0 27.825 27.825">
  <g id="Group_1712" data-name="Group 1712" transform="translate(-185 -447.999)">
    <g id="Group_1325" data-name="Group 1325" transform="translate(195.118 447.999)">
      <path id="Path_1233" data-name="Path 1233" d="M202.624,0H192.506a1.265,1.265,0,1,0,0,2.53h7.065L186.553,15.548a1.265,1.265,0,1,0,1.789,1.789L201.36,4.318v7.065a1.265,1.265,0,1,0,2.53,0V1.265A1.265,1.265,0,0,0,202.624,0Z" transform="translate(-186.182 0)" fill="#0bd1b6"/>
    </g>
    <g id="Group_1327" data-name="Group 1327" transform="translate(185 453.058)">
      <path id="Path_1234" data-name="Path 1234" d="M21.5,100.68a1.265,1.265,0,0,0-1.265,1.265v11.383H2.53V95.621H13.912a1.265,1.265,0,1,0,0-2.53H1.265A1.265,1.265,0,0,0,0,94.356v20.236a1.265,1.265,0,0,0,1.265,1.265H21.5a1.265,1.265,0,0,0,1.265-1.265V101.944A1.265,1.265,0,0,0,21.5,100.68Z" transform="translate(0 -93.091)" fill="#0bd1b6"/>
    </g>
  </g>
</svg>
