<svg xmlns="http://www.w3.org/2000/svg" width="16" height="16" viewBox="0 0 16 16"><defs><style>.a{fill:#707070;}</style></defs><path class="a" d="M8,0a8,8,0,1,0,8,8A8,8,0,0,0,8,0Zm6.919,10.8-2.275.393a11.938,11.938,0,0,0,.419-2.929h2.4a7.417,7.417,0,0,1-.541,2.536ZM.54,8.267h2.4A11.938,11.938,0,0,0,3.356,11.2L1.081,10.8A7.417,7.417,0,0,1,.54,8.267ZM1.081,5.2,3.356,4.8a11.938,11.938,0,0,0-.419,2.929H.54A7.417,7.417,0,0,1,1.081,5.2Zm7.186-.916a18.345,18.345,0,0,1,2.859.261l.941.162a11.446,11.446,0,0,1,.463,3.028H8.267Zm2.95-.265a18.9,18.9,0,0,0-2.95-.269V.548C9.8.7,11.123,2.095,11.876,4.132ZM7.733,3.748a18.9,18.9,0,0,0-2.949.269l-.66.114C4.877,2.094,6.2.693,7.733.547Zm-2.858.794a18.34,18.34,0,0,1,2.858-.261V7.733H3.471a11.447,11.447,0,0,1,.463-3.028Zm-1.4,3.724H7.733v3.452a18.345,18.345,0,0,1-2.859-.261l-.941-.162a11.446,11.446,0,0,1-.463-3.028Zm1.313,3.716a18.966,18.966,0,0,0,2.95.27v3.2c-1.529-.147-2.857-1.547-3.609-3.584Zm3.483.27a18.964,18.964,0,0,0,2.949-.27l.66-.114c-.753,2.038-2.081,3.438-3.609,3.584Zm2.858-.8a18.34,18.34,0,0,1-2.858.261V8.267h4.263a11.447,11.447,0,0,1-.463,3.028Zm1.937-3.724A11.938,11.938,0,0,0,12.644,4.8l2.275.393a7.417,7.417,0,0,1,.541,2.536ZM14.649,4.61l-2.181-.376A7.353,7.353,0,0,0,10.347.913a7.5,7.5,0,0,1,4.3,3.7Zm-9-3.7a7.353,7.353,0,0,0-2.122,3.32L1.351,4.61a7.5,7.5,0,0,1,4.3-3.7ZM1.351,11.39l2.181.376a7.353,7.353,0,0,0,2.122,3.32,7.5,7.5,0,0,1-4.3-3.7Zm9,3.7a7.353,7.353,0,0,0,2.122-3.32l2.181-.376a7.5,7.5,0,0,1-4.3,3.7Zm0,0"/></svg>